  0
SECTION
  2
HEADER
  9
$ACADVER
  1
AC1018
  9
$HANDSEED
  5
FFFFFFFF
  9
$ANGBASE
  50
0.0
  9
$ANGDIR
  70
1
  9
$MEASUREMENT
  70
1
  9
$INSUNITS
  70
4
  0
ENDSEC
  0
SECTION
  2
TABLES
  0
TABLE
  2
APPID
  5
1
330
0
100
AcDbSymbolTable
 70
1
  0
APPID
  5
2
330
1
100
AcDbSymbolTableRecord
100
AcDbRegAppTableRecord
  2
ACAD
 70
0
  0
ENDTAB
  0
TABLE
  2
LTYPE
  5
3
330
0
100
AcDbSymbolTable
 70
6
  0
LTYPE
  5
4
330
3
100
AcDbSymbolTableRecord
100
AcDbLinetypeTableRecord
  2
ByBlock
 70
0
  3

 72
65
 73
0
 40
0
  0
LTYPE
  5
5
330
3
100
AcDbSymbolTableRecord
100
AcDbLinetypeTableRecord
  2
ByLayer
 70
0
  3

 72
65
 73
0
 40
0
  0
LTYPE
  5
6
330
3
100
AcDbSymbolTableRecord
100
AcDbLinetypeTableRecord
  2
CONTINUOUS
 70
0
  3
Solid line
 72
65
 73
0
 40
0
  0
LTYPE
  5
7
330
3
100
AcDbSymbolTableRecord
100
AcDbLinetypeTableRecord
  2
DASHDOT
 70
0
  3
Dash Dot ____ _ ____ _
 72
65
 73
4
 40
2
 49
1.25
 74
0
 49
-0.25
 74
0
 49
0.25
 74
0
 49
-0.25
 74
0
  0
LTYPE
  5
8
330
3
100
AcDbSymbolTableRecord
100
AcDbLinetypeTableRecord
  2
DASHED
 70
0
  3
Dashed __ __ __ __ __
 72
65
 73
2
 40
0.75
 49
0.5
 74
0
 49
-0.25
 74
0
  0
LTYPE
  5
9
330
3
100
AcDbSymbolTableRecord
100
AcDbLinetypeTableRecord
  2
DOTTED
 70
0
  3
Dotted .  .  .  .
 72
65
 73
2
 40
0.2
 49
0.0
 74
0
 49
-0.2
 74
0
  0
ENDTAB
  0
TABLE
  2
STYLE
  5
A
330
0
100
AcDbSymbolTable
 70
4
  0
STYLE
  5
B
330
A
100
AcDbSymbolTableRecord
100
AcDbTextStyleTableRecord
  2
KICAD
 70
0
 40
0
 41
1
 42
1
 50
0
 71
0
  3
isocp.shx
  0
STYLE
  5
C
330
A
100
AcDbSymbolTableRecord
100
AcDbTextStyleTableRecord
  2
KICADB
 70
0
 40
0
 41
1
 42
1
 50
0
 71
0
  3
isocp.shx
  0
STYLE
  5
D
330
A
100
AcDbSymbolTableRecord
100
AcDbTextStyleTableRecord
  2
KICADI
 70
0
 40
0
 41
1
 42
1
 50
15
 71
0
  3
isocp.shx
  0
STYLE
  5
E
330
A
100
AcDbSymbolTableRecord
100
AcDbTextStyleTableRecord
  2
KICADBI
 70
0
 40
0
 41
1
 42
1
 50
15
 71
0
  3
isocp.shx
  0
ENDTAB
  0
TABLE
  2
LAYER
  5
F
330
0
100
AcDbSymbolTable
 70
3
  0
LAYER
  5
12
330
F
100
AcDbSymbolTableRecord
100
AcDbLayerTableRecord
  2
0
 70
0
 62
7
  6
CONTINUOUS
390
10
  0
LAYER
  5
13
330
F
100
AcDbSymbolTableRecord
100
AcDbLayerTableRecord
  2
F.Cu
 70
0
 62
13
420
13120564
  6
CONTINUOUS
390
10
  0
LAYER
  5
14
330
F
100
AcDbSymbolTableRecord
100
AcDbLayerTableRecord
  2
F.Silkscreen
 70
0
 62
41
420
15920545
  6
CONTINUOUS
390
10
  0
ENDTAB
  0
TABLE
  2
VPORT
  5
15
330
0
100
AcDbSymbolTable
 70
0
  0
ENDTAB
  0
TABLE
  2
VIEW
  5
16
330
0
100
AcDbSymbolTable
 70
0
  0
ENDTAB
  0
TABLE
  2
UCS
  5
17
330
0
100
AcDbSymbolTable
 70
0
  0
ENDTAB
  0
TABLE
  2
DIMSTYLE
  5
18
330
0
100
AcDbSymbolTable
 70
1
100
AcDbDimStyleTable
 71
0
  0
DIMSTYLE
105
19
330
18
100
AcDbSymbolTableRecord
100
AcDbDimStyleTableRecord
  2
Standard
 70
0
  0
ENDTAB
  0
TABLE
  2
BLOCK_RECORD
  5
1A
330
0
100
AcDbSymbolTable
 70
3
  0
BLOCK_RECORD
  5
1B
330
1A
100
AcDbSymbolTableRecord
100
AcDbBlockTableRecord
  2
*Model_Space
340
1E
 70
0
280
1
281
0
  0
BLOCK_RECORD
  5
1C
330
1A
100
AcDbSymbolTableRecord
100
AcDbBlockTableRecord
  2
*Paper_Space
340
1F
 70
0
280
1
281
0
  0
BLOCK_RECORD
  5
1D
330
1A
100
AcDbSymbolTableRecord
100
AcDbBlockTableRecord
  2
*Paper_Space0
340
20
 70
0
280
1
281
0
  0
ENDTAB
  0
ENDSEC
  0
SECTION
  2
BLOCKS
  0
BLOCK
  5
24
330
1B
100
AcDbEntity
  8
0
100
AcDbBlockBegin
  2
*Model_Space
 70
0
 10
0.0
 20
0.0
 30
0.0
  3
*Model_Space
  1

  0
ENDBLK
  5
23
330
1B
100
AcDbEntity
  8
0
100
AcDbBlockEnd
  0
BLOCK
  5
26
330
1C
100
AcDbEntity
 67
1
  8
0
100
AcDbBlockBegin
  2
*Paper_Space
 70
0
 10
0.0
 20
0.0
 30
0.0
  3
*Paper_Space
  1

  0
ENDBLK
  5
25
330
1C
100
AcDbEntity
 67
1
  8
0
100
AcDbBlockEnd
  0
BLOCK
  5
28
330
1D
100
AcDbEntity
 67
1
  8
0
100
AcDbBlockBegin
  2
*Paper_Space0
 70
0
 10
0.0
 20
0.0
 30
0.0
  3
*Paper_Space0
  1

  0
ENDBLK
  5
27
330
1D
100
AcDbEntity
 67
1
  8
0
100
AcDbBlockEnd
  0
ENDSEC
  0
SECTION
  2
ENTITIES
  0
LINE
  5
29
330
1B
100
AcDbEntity
  8
F.Cu
  6
CONTINUOUS
100
AcDbLine
 10
48.1530729999999991
 20
-47.6304480000000012
 30
0
 11
48.243504999999999
 21
-47.682659000000001
 31
0
  0
LINE
  5
2A
330
1B
100
AcDbEntity
  8
F.Cu
  6
CONTINUOUS
100
AcDbLine
 10
48.243504999999999
 20
-47.682659000000001
 30
0
 11
48.317340999999999
 21
-47.756495000000001
 31
0
  0
LINE
  5
2B
330
1B
100
AcDbEntity
  8
F.Cu
  6
CONTINUOUS
100
AcDbLine
 10
48.317340999999999
 20
-47.756495000000001
 30
0
 11
48.3695519999999988
 21
-47.8469270000000009
 31
0
  0
LINE
  5
2C
330
1B
100
AcDbEntity
  8
F.Cu
  6
CONTINUOUS
100
AcDbLine
 10
48.3695519999999988
 20
-47.8469270000000009
 30
0
 11
48.3965779999999981
 21
-47.9477899999999977
 31
0
  0
LINE
  5
2D
330
1B
100
AcDbEntity
  8
F.Cu
  6
CONTINUOUS
100
AcDbLine
 10
48.3965779999999981
 20
-47.9477899999999977
 30
0
 11
48.3965779999999981
 21
-48.0522099999999952
 31
0
  0
LINE
  5
2E
330
1B
100
AcDbEntity
  8
F.Cu
  6
CONTINUOUS
100
AcDbLine
 10
48.3965779999999981
 20
-48.0522099999999952
 30
0
 11
48.3695519999999988
 21
-48.1530729999999991
 31
0
  0
LINE
  5
2F
330
1B
100
AcDbEntity
  8
F.Cu
  6
CONTINUOUS
100
AcDbLine
 10
48.3695519999999988
 20
-48.1530729999999991
 30
0
 11
48.317340999999999
 21
-48.243504999999999
 31
0
  0
LINE
  5
30
330
1B
100
AcDbEntity
  8
F.Cu
  6
CONTINUOUS
100
AcDbLine
 10
48.317340999999999
 20
-48.243504999999999
 30
0
 11
48.243504999999999
 21
-48.317340999999999
 31
0
  0
LINE
  5
31
330
1B
100
AcDbEntity
  8
F.Cu
  6
CONTINUOUS
100
AcDbLine
 10
48.243504999999999
 20
-48.317340999999999
 30
0
 11
48.1530729999999991
 21
-48.3695519999999988
 31
0
  0
LINE
  5
32
330
1B
100
AcDbEntity
  8
F.Cu
  6
CONTINUOUS
100
AcDbLine
 10
48.1530729999999991
 20
-48.3695519999999988
 30
0
 11
48.0522099999999952
 21
-48.3965779999999981
 31
0
  0
LINE
  5
33
330
1B
100
AcDbEntity
  8
F.Cu
  6
CONTINUOUS
100
AcDbLine
 10
48.0522099999999952
 20
-48.3965779999999981
 30
0
 11
47.9477899999999977
 21
-48.3965779999999981
 31
0
  0
LINE
  5
34
330
1B
100
AcDbEntity
  8
F.Cu
  6
CONTINUOUS
100
AcDbLine
 10
47.9477899999999977
 20
-48.3965779999999981
 30
0
 11
47.8469270000000009
 21
-48.3695519999999988
 31
0
  0
LINE
  5
35
330
1B
100
AcDbEntity
  8
F.Cu
  6
CONTINUOUS
100
AcDbLine
 10
47.8469270000000009
 20
-48.3695519999999988
 30
0
 11
47.756495000000001
 21
-48.317340999999999
 31
0
  0
LINE
  5
36
330
1B
100
AcDbEntity
  8
F.Cu
  6
CONTINUOUS
100
AcDbLine
 10
47.756495000000001
 20
-48.317340999999999
 30
0
 11
47.682659000000001
 21
-48.243504999999999
 31
0
  0
LINE
  5
37
330
1B
100
AcDbEntity
  8
F.Cu
  6
CONTINUOUS
100
AcDbLine
 10
47.682659000000001
 20
-48.243504999999999
 30
0
 11
47.6304480000000012
 21
-48.1530729999999991
 31
0
  0
LINE
  5
38
330
1B
100
AcDbEntity
  8
F.Cu
  6
CONTINUOUS
100
AcDbLine
 10
47.6304480000000012
 20
-48.1530729999999991
 30
0
 11
47.6034219999999948
 21
-48.0522099999999952
 31
0
  0
LINE
  5
39
330
1B
100
AcDbEntity
  8
F.Cu
  6
CONTINUOUS
100
AcDbLine
 10
47.6034219999999948
 20
-48.0522099999999952
 30
0
 11
47.6034219999999948
 21
-47.9477899999999977
 31
0
  0
LINE
  5
3A
330
1B
100
AcDbEntity
  8
F.Cu
  6
CONTINUOUS
100
AcDbLine
 10
47.6034219999999948
 20
-47.9477899999999977
 30
0
 11
47.6304480000000012
 21
-47.8469270000000009
 31
0
  0
LINE
  5
3B
330
1B
100
AcDbEntity
  8
F.Cu
  6
CONTINUOUS
100
AcDbLine
 10
47.6304480000000012
 20
-47.8469270000000009
 30
0
 11
47.682659000000001
 21
-47.756495000000001
 31
0
  0
LINE
  5
3C
330
1B
100
AcDbEntity
  8
F.Cu
  6
CONTINUOUS
100
AcDbLine
 10
47.682659000000001
 20
-47.756495000000001
 30
0
 11
47.756495000000001
 21
-47.682659000000001
 31
0
  0
LINE
  5
3D
330
1B
100
AcDbEntity
  8
F.Cu
  6
CONTINUOUS
100
AcDbLine
 10
47.756495000000001
 20
-47.682659000000001
 30
0
 11
47.8469270000000009
 21
-47.6304480000000012
 31
0
  0
LINE
  5
3E
330
1B
100
AcDbEntity
  8
F.Cu
  6
CONTINUOUS
100
AcDbLine
 10
47.8469270000000009
 20
-47.6304480000000012
 30
0
 11
47.9477899999999977
 21
-47.6034219999999948
 31
0
  0
LINE
  5
3F
330
1B
100
AcDbEntity
  8
F.Cu
  6
CONTINUOUS
100
AcDbLine
 10
47.9477899999999977
 20
-47.6034219999999948
 30
0
 11
48.0522099999999952
 21
-47.6034219999999948
 31
0
  0
LINE
  5
40
330
1B
100
AcDbEntity
  8
F.Cu
  6
CONTINUOUS
100
AcDbLine
 10
48.0522099999999952
 20
-47.6034219999999948
 30
0
 11
48.1530729999999991
 21
-47.6304480000000012
 31
0
  0
LINE
  5
41
330
1B
100
AcDbEntity
  8
F.Cu
  6
CONTINUOUS
100
AcDbLine
 10
30.1530729999999991
 20
-44.6304480000000012
 30
0
 11
30.243504999999999
 21
-44.682659000000001
 31
0
  0
LINE
  5
42
330
1B
100
AcDbEntity
  8
F.Cu
  6
CONTINUOUS
100
AcDbLine
 10
30.243504999999999
 20
-44.682659000000001
 30
0
 11
30.317340999999999
 21
-44.756495000000001
 31
0
  0
LINE
  5
43
330
1B
100
AcDbEntity
  8
F.Cu
  6
CONTINUOUS
100
AcDbLine
 10
30.317340999999999
 20
-44.756495000000001
 30
0
 11
30.3695519999999988
 21
-44.8469270000000009
 31
0
  0
LINE
  5
44
330
1B
100
AcDbEntity
  8
F.Cu
  6
CONTINUOUS
100
AcDbLine
 10
30.3695519999999988
 20
-44.8469270000000009
 30
0
 11
30.3965779999999981
 21
-44.9477899999999977
 31
0
  0
LINE
  5
45
330
1B
100
AcDbEntity
  8
F.Cu
  6
CONTINUOUS
100
AcDbLine
 10
30.3965779999999981
 20
-44.9477899999999977
 30
0
 11
30.3965779999999981
 21
-45.0522099999999952
 31
0
  0
LINE
  5
46
330
1B
100
AcDbEntity
  8
F.Cu
  6
CONTINUOUS
100
AcDbLine
 10
30.3965779999999981
 20
-45.0522099999999952
 30
0
 11
30.3695519999999988
 21
-45.1530729999999991
 31
0
  0
LINE
  5
47
330
1B
100
AcDbEntity
  8
F.Cu
  6
CONTINUOUS
100
AcDbLine
 10
30.3695519999999988
 20
-45.1530729999999991
 30
0
 11
30.317340999999999
 21
-45.243504999999999
 31
0
  0
LINE
  5
48
330
1B
100
AcDbEntity
  8
F.Cu
  6
CONTINUOUS
100
AcDbLine
 10
30.317340999999999
 20
-45.243504999999999
 30
0
 11
30.243504999999999
 21
-45.317340999999999
 31
0
  0
LINE
  5
49
330
1B
100
AcDbEntity
  8
F.Cu
  6
CONTINUOUS
100
AcDbLine
 10
30.243504999999999
 20
-45.317340999999999
 30
0
 11
30.1530729999999991
 21
-45.3695519999999988
 31
0
  0
LINE
  5
4A
330
1B
100
AcDbEntity
  8
F.Cu
  6
CONTINUOUS
100
AcDbLine
 10
30.1530729999999991
 20
-45.3695519999999988
 30
0
 11
30.0522099999999988
 21
-45.3965779999999981
 31
0
  0
LINE
  5
4B
330
1B
100
AcDbEntity
  8
F.Cu
  6
CONTINUOUS
100
AcDbLine
 10
30.0522099999999988
 20
-45.3965779999999981
 30
0
 11
29.9477899999999977
 21
-45.3965779999999981
 31
0
  0
LINE
  5
4C
330
1B
100
AcDbEntity
  8
F.Cu
  6
CONTINUOUS
100
AcDbLine
 10
29.9477899999999977
 20
-45.3965779999999981
 30
0
 11
29.8469269999999973
 21
-45.3695519999999988
 31
0
  0
LINE
  5
4D
330
1B
100
AcDbEntity
  8
F.Cu
  6
CONTINUOUS
100
AcDbLine
 10
29.8469269999999973
 20
-45.3695519999999988
 30
0
 11
29.7564949999999975
 21
-45.317340999999999
 31
0
  0
LINE
  5
4E
330
1B
100
AcDbEntity
  8
F.Cu
  6
CONTINUOUS
100
AcDbLine
 10
29.7564949999999975
 20
-45.317340999999999
 30
0
 11
29.6826589999999975
 21
-45.243504999999999
 31
0
  0
LINE
  5
4F
330
1B
100
AcDbEntity
  8
F.Cu
  6
CONTINUOUS
100
AcDbLine
 10
29.6826589999999975
 20
-45.243504999999999
 30
0
 11
29.6304479999999977
 21
-45.1530729999999991
 31
0
  0
LINE
  5
50
330
1B
100
AcDbEntity
  8
F.Cu
  6
CONTINUOUS
100
AcDbLine
 10
29.6304479999999977
 20
-45.1530729999999991
 30
0
 11
29.6034219999999983
 21
-45.0522099999999952
 31
0
  0
LINE
  5
51
330
1B
100
AcDbEntity
  8
F.Cu
  6
CONTINUOUS
100
AcDbLine
 10
29.6034219999999983
 20
-45.0522099999999952
 30
0
 11
29.6034219999999983
 21
-44.9477899999999977
 31
0
  0
LINE
  5
52
330
1B
100
AcDbEntity
  8
F.Cu
  6
CONTINUOUS
100
AcDbLine
 10
29.6034219999999983
 20
-44.9477899999999977
 30
0
 11
29.6304479999999977
 21
-44.8469270000000009
 31
0
  0
LINE
  5
53
330
1B
100
AcDbEntity
  8
F.Cu
  6
CONTINUOUS
100
AcDbLine
 10
29.6304479999999977
 20
-44.8469270000000009
 30
0
 11
29.6826589999999975
 21
-44.756495000000001
 31
0
  0
LINE
  5
54
330
1B
100
AcDbEntity
  8
F.Cu
  6
CONTINUOUS
100
AcDbLine
 10
29.6826589999999975
 20
-44.756495000000001
 30
0
 11
29.7564949999999975
 21
-44.682659000000001
 31
0
  0
LINE
  5
55
330
1B
100
AcDbEntity
  8
F.Cu
  6
CONTINUOUS
100
AcDbLine
 10
29.7564949999999975
 20
-44.682659000000001
 30
0
 11
29.8469269999999973
 21
-44.6304480000000012
 31
0
  0
LINE
  5
56
330
1B
100
AcDbEntity
  8
F.Cu
  6
CONTINUOUS
100
AcDbLine
 10
29.8469269999999973
 20
-44.6304480000000012
 30
0
 11
29.9477899999999977
 21
-44.6034219999999948
 31
0
  0
LINE
  5
57
330
1B
100
AcDbEntity
  8
F.Cu
  6
CONTINUOUS
100
AcDbLine
 10
29.9477899999999977
 20
-44.6034219999999948
 30
0
 11
30.0522099999999988
 21
-44.6034219999999948
 31
0
  0
LINE
  5
58
330
1B
100
AcDbEntity
  8
F.Cu
  6
CONTINUOUS
100
AcDbLine
 10
30.0522099999999988
 20
-44.6034219999999948
 30
0
 11
30.1530729999999991
 21
-44.6304480000000012
 31
0
  0
LINE
  5
59
330
1B
100
AcDbEntity
  8
F.Cu
  6
CONTINUOUS
100
AcDbLine
 10
45.3292649999999995
 20
-39.8672559999999976
 30
0
 11
45.6549219999999991
 21
-39.9188350000000014
 31
0
  0
LINE
  5
5A
330
1B
100
AcDbEntity
  8
F.Cu
  6
CONTINUOUS
100
AcDbLine
 10
45.6549219999999991
 20
-39.9188350000000014
 30
0
 11
45.9734029999999976
 21
-40.004171999999997
 31
0
  0
LINE
  5
5B
330
1B
100
AcDbEntity
  8
F.Cu
  6
CONTINUOUS
100
AcDbLine
 10
45.9734029999999976
 20
-40.004171999999997
 30
0
 11
46.2812199999999976
 21
-40.1223320000000001
 31
0
  0
LINE
  5
5C
330
1B
100
AcDbEntity
  8
F.Cu
  6
CONTINUOUS
100
AcDbLine
 10
46.2812199999999976
 20
-40.1223320000000001
 30
0
 11
46.5749999999999957
 21
-40.2720199999999977
 31
0
  0
LINE
  5
5D
330
1B
100
AcDbEntity
  8
F.Cu
  6
CONTINUOUS
100
AcDbLine
 10
46.5749999999999957
 20
-40.2720199999999977
 30
0
 11
46.8515230000000003
 21
-40.4515969999999996
 31
0
  0
LINE
  5
5E
330
1B
100
AcDbEntity
  8
F.Cu
  6
CONTINUOUS
100
AcDbLine
 10
46.8515230000000003
 20
-40.4515969999999996
 30
0
 11
47.1077609999999964
 21
-40.6590939999999961
 31
0
  0
LINE
  5
5F
330
1B
100
AcDbEntity
  8
F.Cu
  6
CONTINUOUS
100
AcDbLine
 10
47.1077609999999964
 20
-40.6590939999999961
 30
0
 11
47.3409059999999968
 21
-40.8922389999999965
 31
0
  0
LINE
  5
60
330
1B
100
AcDbEntity
  8
F.Cu
  6
CONTINUOUS
100
AcDbLine
 10
47.3409059999999968
 20
-40.8922389999999965
 30
0
 11
47.5484030000000004
 21
-41.1484769999999997
 31
0
  0
LINE
  5
61
330
1B
100
AcDbEntity
  8
F.Cu
  6
CONTINUOUS
100
AcDbLine
 10
47.5484030000000004
 20
-41.1484769999999997
 30
0
 11
47.7279799999999952
 21
-41.4249999999999972
 31
0
  0
LINE
  5
62
330
1B
100
AcDbEntity
  8
F.Cu
  6
CONTINUOUS
100
AcDbLine
 10
47.7279799999999952
 20
-41.4249999999999972
 30
0
 11
47.8776679999999999
 21
-41.7187799999999953
 31
0
  0
LINE
  5
63
330
1B
100
AcDbEntity
  8
F.Cu
  6
CONTINUOUS
100
AcDbLine
 10
47.8776679999999999
 20
-41.7187799999999953
 30
0
 11
47.9958279999999959
 21
-42.0265969999999953
 31
0
  0
LINE
  5
64
330
1B
100
AcDbEntity
  8
F.Cu
  6
CONTINUOUS
100
AcDbLine
 10
47.9958279999999959
 20
-42.0265969999999953
 30
0
 11
48.0811649999999986
 21
-42.3450780000000009
 31
0
  0
LINE
  5
65
330
1B
100
AcDbEntity
  8
F.Cu
  6
CONTINUOUS
100
AcDbLine
 10
48.0811649999999986
 20
-42.3450780000000009
 30
0
 11
48.1327439999999953
 21
-42.6707350000000005
 31
0
  0
LINE
  5
66
330
1B
100
AcDbEntity
  8
F.Cu
  6
CONTINUOUS
100
AcDbLine
 10
48.1327439999999953
 20
-42.6707350000000005
 30
0
 11
48.1499999999999986
 21
-43.
 31
0
  0
LINE
  5
67
330
1B
100
AcDbEntity
  8
F.Cu
  6
CONTINUOUS
100
AcDbLine
 10
48.1499999999999986
 20
-43.
 30
0
 11
48.1351449999999943
 21
-43.0650830000000013
 31
0
  0
LINE
  5
68
330
1B
100
AcDbEntity
  8
F.Cu
  6
CONTINUOUS
100
AcDbLine
 10
48.1351449999999943
 20
-43.0650830000000013
 30
0
 11
48.0935239999999951
 21
-43.1172749999999994
 31
0
  0
LINE
  5
69
330
1B
100
AcDbEntity
  8
F.Cu
  6
CONTINUOUS
100
AcDbLine
 10
48.0935239999999951
 20
-43.1172749999999994
 30
0
 11
48.033377999999999
 21
-43.1462390000000013
 31
0
  0
LINE
  5
6A
330
1B
100
AcDbEntity
  8
F.Cu
  6
CONTINUOUS
100
AcDbLine
 10
48.033377999999999
 20
-43.1462390000000013
 30
0
 11
47.966622000000001
 21
-43.1462390000000013
 31
0
  0
LINE
  5
6B
330
1B
100
AcDbEntity
  8
F.Cu
  6
CONTINUOUS
100
AcDbLine
 10
47.966622000000001
 20
-43.1462390000000013
 30
0
 11
47.9064769999999953
 21
-43.1172749999999994
 31
0
  0
LINE
  5
6C
330
1B
100
AcDbEntity
  8
F.Cu
  6
CONTINUOUS
100
AcDbLine
 10
47.9064769999999953
 20
-43.1172749999999994
 30
0
 11
47.8648549999999986
 21
-43.0650830000000013
 31
0
  0
LINE
  5
6D
330
1B
100
AcDbEntity
  8
F.Cu
  6
CONTINUOUS
100
AcDbLine
 10
47.8648549999999986
 20
-43.0650830000000013
 30
0
 11
47.8499999999999943
 21
-43.
 31
0
  0
LINE
  5
6E
330
1B
100
AcDbEntity
  8
F.Cu
  6
CONTINUOUS
100
AcDbLine
 10
47.8499999999999943
 20
-43.
 30
0
 11
47.8499999999999943
 21
-42.8399469999999951
 31
0
  0
LINE
  5
6F
330
1B
100
AcDbEntity
  8
F.Cu
  6
CONTINUOUS
100
AcDbLine
 10
47.8499999999999943
 20
-42.8399469999999951
 30
0
 11
47.8141600000000011
 21
-42.5218549999999951
 31
0
  0
LINE
  5
70
330
1B
100
AcDbEntity
  8
F.Cu
  6
CONTINUOUS
100
AcDbLine
 10
47.8141600000000011
 20
-42.5218549999999951
 30
0
 11
47.7429300000000012
 21
-42.209775999999998
 31
0
  0
LINE
  5
71
330
1B
100
AcDbEntity
  8
F.Cu
  6
CONTINUOUS
100
AcDbLine
 10
47.7429300000000012
 20
-42.209775999999998
 30
0
 11
47.6372059999999991
 21
-41.9076340000000016
 31
0
  0
LINE
  5
72
330
1B
100
AcDbEntity
  8
F.Cu
  6
CONTINUOUS
100
AcDbLine
 10
47.6372059999999991
 20
-41.9076340000000016
 30
0
 11
47.4983170000000001
 21
-41.6192289999999971
 31
0
  0
LINE
  5
73
330
1B
100
AcDbEntity
  8
F.Cu
  6
CONTINUOUS
100
AcDbLine
 10
47.4983170000000001
 20
-41.6192289999999971
 30
0
 11
47.3280109999999965
 21
-41.3481880000000004
 31
0
  0
LINE
  5
74
330
1B
100
AcDbEntity
  8
F.Cu
  6
CONTINUOUS
100
AcDbLine
 10
47.3280109999999965
 20
-41.3481880000000004
 30
0
 11
47.1284279999999995
 21
-41.0979199999999949
 31
0
  0
LINE
  5
75
330
1B
100
AcDbEntity
  8
F.Cu
  6
CONTINUOUS
100
AcDbLine
 10
47.1284279999999995
 20
-41.0979199999999949
 30
0
 11
46.902079999999998
 21
-40.8715720000000005
 31
0
  0
LINE
  5
76
330
1B
100
AcDbEntity
  8
F.Cu
  6
CONTINUOUS
100
AcDbLine
 10
46.902079999999998
 20
-40.8715720000000005
 30
0
 11
46.6518119999999996
 21
-40.6719889999999964
 31
0
  0
LINE
  5
77
330
1B
100
AcDbEntity
  8
F.Cu
  6
CONTINUOUS
100
AcDbLine
 10
46.6518119999999996
 20
-40.6719889999999964
 30
0
 11
46.3807709999999958
 21
-40.5016829999999999
 31
0
  0
LINE
  5
78
330
1B
100
AcDbEntity
  8
F.Cu
  6
CONTINUOUS
100
AcDbLine
 10
46.3807709999999958
 20
-40.5016829999999999
 30
0
 11
46.0923659999999984
 21
-40.3627940000000009
 31
0
  0
LINE
  5
79
330
1B
100
AcDbEntity
  8
F.Cu
  6
CONTINUOUS
100
AcDbLine
 10
46.0923659999999984
 20
-40.3627940000000009
 30
0
 11
45.7902239999999949
 21
-40.2570699999999988
 31
0
  0
LINE
  5
7A
330
1B
100
AcDbEntity
  8
F.Cu
  6
CONTINUOUS
100
AcDbLine
 10
45.7902239999999949
 20
-40.2570699999999988
 30
0
 11
45.4781449999999978
 21
-40.1858399999999989
 31
0
  0
LINE
  5
7B
330
1B
100
AcDbEntity
  8
F.Cu
  6
CONTINUOUS
100
AcDbLine
 10
45.4781449999999978
 20
-40.1858399999999989
 30
0
 11
45.1600529999999978
 21
-40.1499999999999986
 31
0
  0
LINE
  5
7C
330
1B
100
AcDbEntity
  8
F.Cu
  6
CONTINUOUS
100
AcDbLine
 10
45.1600529999999978
 20
-40.1499999999999986
 30
0
 11
45.
 21
-40.1499999999999986
 31
0
  0
LINE
  5
7D
330
1B
100
AcDbEntity
  8
F.Cu
  6
CONTINUOUS
100
AcDbLine
 10
45.
 20
-40.1499999999999986
 30
0
 11
44.9349169999999987
 21
-40.1351450000000014
 31
0
  0
LINE
  5
7E
330
1B
100
AcDbEntity
  8
F.Cu
  6
CONTINUOUS
100
AcDbLine
 10
44.9349169999999987
 20
-40.1351450000000014
 30
0
 11
44.8827250000000006
 21
-40.0935229999999976
 31
0
  0
LINE
  5
7F
330
1B
100
AcDbEntity
  8
F.Cu
  6
CONTINUOUS
100
AcDbLine
 10
44.8827250000000006
 20
-40.0935229999999976
 30
0
 11
44.8537609999999987
 21
-40.033377999999999
 31
0
  0
LINE
  5
80
330
1B
100
AcDbEntity
  8
F.Cu
  6
CONTINUOUS
100
AcDbLine
 10
44.8537609999999987
 20
-40.033377999999999
 30
0
 11
44.8537609999999987
 21
-39.966622000000001
 31
0
  0
LINE
  5
81
330
1B
100
AcDbEntity
  8
F.Cu
  6
CONTINUOUS
100
AcDbLine
 10
44.8537609999999987
 20
-39.966622000000001
 30
0
 11
44.8827250000000006
 21
-39.9064759999999978
 31
0
  0
LINE
  5
82
330
1B
100
AcDbEntity
  8
F.Cu
  6
CONTINUOUS
100
AcDbLine
 10
44.8827250000000006
 20
-39.9064759999999978
 30
0
 11
44.9349169999999987
 21
-39.8648549999999986
 31
0
  0
LINE
  5
83
330
1B
100
AcDbEntity
  8
F.Cu
  6
CONTINUOUS
100
AcDbLine
 10
44.9349169999999987
 20
-39.8648549999999986
 30
0
 11
45.
 21
-39.8500000000000014
 31
0
  0
LINE
  5
84
330
1B
100
AcDbEntity
  8
F.Cu
  6
CONTINUOUS
100
AcDbLine
 10
45.
 20
-39.8500000000000014
 30
0
 11
45.3292649999999995
 21
-39.8672559999999976
 31
0
  0
LINE
  5
85
330
1B
100
AcDbEntity
  8
F.Cu
  6
CONTINUOUS
100
AcDbLine
 10
66.114805000000004
 20
-39.7228360000000009
 30
0
 11
66.182627999999994
 21
-39.7619940000000014
 31
0
  0
LINE
  5
86
330
1B
100
AcDbEntity
  8
F.Cu
  6
CONTINUOUS
100
AcDbLine
 10
66.182627999999994
 20
-39.7619940000000014
 30
0
 11
66.2380059999999986
 21
-39.8173719999999989
 31
0
  0
LINE
  5
87
330
1B
100
AcDbEntity
  8
F.Cu
  6
CONTINUOUS
100
AcDbLine
 10
66.2380059999999986
 20
-39.8173719999999989
 30
0
 11
66.2771639999999991
 21
-39.885194999999996
 31
0
  0
LINE
  5
88
330
1B
100
AcDbEntity
  8
F.Cu
  6
CONTINUOUS
100
AcDbLine
 10
66.2771639999999991
 20
-39.885194999999996
 30
0
 11
66.2974329999999981
 21
-39.9608419999999995
 31
0
  0
LINE
  5
89
330
1B
100
AcDbEntity
  8
F.Cu
  6
CONTINUOUS
100
AcDbLine
 10
66.2974329999999981
 20
-39.9608419999999995
 30
0
 11
66.2974329999999981
 21
-40.0391580000000005
 31
0
  0
LINE
  5
8A
330
1B
100
AcDbEntity
  8
F.Cu
  6
CONTINUOUS
100
AcDbLine
 10
66.2974329999999981
 20
-40.0391580000000005
 30
0
 11
66.2771639999999991
 21
-40.1148049999999969
 31
0
  0
LINE
  5
8B
330
1B
100
AcDbEntity
  8
F.Cu
  6
CONTINUOUS
100
AcDbLine
 10
66.2771639999999991
 20
-40.1148049999999969
 30
0
 11
66.2380059999999986
 21
-40.1826280000000011
 31
0
  0
LINE
  5
8C
330
1B
100
AcDbEntity
  8
F.Cu
  6
CONTINUOUS
100
AcDbLine
 10
66.2380059999999986
 20
-40.1826280000000011
 30
0
 11
66.182627999999994
 21
-40.2380059999999986
 31
0
  0
LINE
  5
8D
330
1B
100
AcDbEntity
  8
F.Cu
  6
CONTINUOUS
100
AcDbLine
 10
66.182627999999994
 20
-40.2380059999999986
 30
0
 11
66.114805000000004
 21
-40.2771639999999991
 31
0
  0
LINE
  5
8E
330
1B
100
AcDbEntity
  8
F.Cu
  6
CONTINUOUS
100
AcDbLine
 10
66.114805000000004
 20
-40.2771639999999991
 30
0
 11
66.0391580000000005
 21
-40.2974329999999981
 31
0
  0
LINE
  5
8F
330
1B
100
AcDbEntity
  8
F.Cu
  6
CONTINUOUS
100
AcDbLine
 10
66.0391580000000005
 20
-40.2974329999999981
 30
0
 11
65.9608419999999995
 21
-40.2974329999999981
 31
0
  0
LINE
  5
90
330
1B
100
AcDbEntity
  8
F.Cu
  6
CONTINUOUS
100
AcDbLine
 10
65.9608419999999995
 20
-40.2974329999999981
 30
0
 11
65.885194999999996
 21
-40.2771639999999991
 31
0
  0
LINE
  5
91
330
1B
100
AcDbEntity
  8
F.Cu
  6
CONTINUOUS
100
AcDbLine
 10
65.885194999999996
 20
-40.2771639999999991
 30
0
 11
65.8173719999999918
 21
-40.2380059999999986
 31
0
  0
LINE
  5
92
330
1B
100
AcDbEntity
  8
F.Cu
  6
CONTINUOUS
100
AcDbLine
 10
65.8173719999999918
 20
-40.2380059999999986
 30
0
 11
65.7619940000000014
 21
-40.1826280000000011
 31
0
  0
LINE
  5
93
330
1B
100
AcDbEntity
  8
F.Cu
  6
CONTINUOUS
100
AcDbLine
 10
65.7619940000000014
 20
-40.1826280000000011
 30
0
 11
65.7228360000000009
 21
-40.1148049999999969
 31
0
  0
LINE
  5
94
330
1B
100
AcDbEntity
  8
F.Cu
  6
CONTINUOUS
100
AcDbLine
 10
65.7228360000000009
 20
-40.1148049999999969
 30
0
 11
65.7025670000000019
 21
-40.0391580000000005
 31
0
  0
LINE
  5
95
330
1B
100
AcDbEntity
  8
F.Cu
  6
CONTINUOUS
100
AcDbLine
 10
65.7025670000000019
 20
-40.0391580000000005
 30
0
 11
65.7025670000000019
 21
-39.9608419999999995
 31
0
  0
LINE
  5
96
330
1B
100
AcDbEntity
  8
F.Cu
  6
CONTINUOUS
100
AcDbLine
 10
65.7025670000000019
 20
-39.9608419999999995
 30
0
 11
65.7228360000000009
 21
-39.885194999999996
 31
0
  0
LINE
  5
97
330
1B
100
AcDbEntity
  8
F.Cu
  6
CONTINUOUS
100
AcDbLine
 10
65.7228360000000009
 20
-39.885194999999996
 30
0
 11
65.7619940000000014
 21
-39.8173719999999989
 31
0
  0
LINE
  5
98
330
1B
100
AcDbEntity
  8
F.Cu
  6
CONTINUOUS
100
AcDbLine
 10
65.7619940000000014
 20
-39.8173719999999989
 30
0
 11
65.8173719999999918
 21
-39.7619940000000014
 31
0
  0
LINE
  5
99
330
1B
100
AcDbEntity
  8
F.Cu
  6
CONTINUOUS
100
AcDbLine
 10
65.8173719999999918
 20
-39.7619940000000014
 30
0
 11
65.885194999999996
 21
-39.7228360000000009
 31
0
  0
LINE
  5
9A
330
1B
100
AcDbEntity
  8
F.Cu
  6
CONTINUOUS
100
AcDbLine
 10
65.885194999999996
 20
-39.7228360000000009
 30
0
 11
65.9608419999999995
 21
-39.7025669999999948
 31
0
  0
LINE
  5
9B
330
1B
100
AcDbEntity
  8
F.Cu
  6
CONTINUOUS
100
AcDbLine
 10
65.9608419999999995
 20
-39.7025669999999948
 30
0
 11
66.0391580000000005
 21
-39.7025669999999948
 31
0
  0
LINE
  5
9C
330
1B
100
AcDbEntity
  8
F.Cu
  6
CONTINUOUS
100
AcDbLine
 10
66.0391580000000005
 20
-39.7025669999999948
 30
0
 11
66.114805000000004
 21
-39.7228360000000009
 31
0
  0
LINE
  5
9D
330
1B
100
AcDbEntity
  8
F.Cu
  6
CONTINUOUS
100
AcDbLine
 10
34.1530729999999991
 20
-33.2304479999999955
 30
0
 11
34.243504999999999
 21
-33.2826589999999953
 31
0
  0
LINE
  5
9E
330
1B
100
AcDbEntity
  8
F.Cu
  6
CONTINUOUS
100
AcDbLine
 10
34.243504999999999
 20
-33.2826589999999953
 30
0
 11
34.317340999999999
 21
-33.3564949999999953
 31
0
  0
LINE
  5
9F
330
1B
100
AcDbEntity
  8
F.Cu
  6
CONTINUOUS
100
AcDbLine
 10
34.317340999999999
 20
-33.3564949999999953
 30
0
 11
34.3695519999999988
 21
-33.4469269999999952
 31
0
  0
LINE
  5
A0
330
1B
100
AcDbEntity
  8
F.Cu
  6
CONTINUOUS
100
AcDbLine
 10
34.3695519999999988
 20
-33.4469269999999952
 30
0
 11
34.3965779999999981
 21
-33.5477899999999991
 31
0
  0
LINE
  5
A1
330
1B
100
AcDbEntity
  8
F.Cu
  6
CONTINUOUS
100
AcDbLine
 10
34.3965779999999981
 20
-33.5477899999999991
 30
0
 11
34.3999999999999986
 21
-33.6000000000000014
 31
0
  0
LINE
  5
A2
330
1B
100
AcDbEntity
  8
F.Cu
  6
CONTINUOUS
100
AcDbLine
 10
34.3999999999999986
 20
-33.6000000000000014
 30
0
 11
34.3999999999999986
 21
-34.3999999999999986
 31
0
  0
LINE
  5
A3
330
1B
100
AcDbEntity
  8
F.Cu
  6
CONTINUOUS
100
AcDbLine
 10
34.3999999999999986
 20
-34.3999999999999986
 30
0
 11
34.3965779999999981
 21
-34.4522100000000009
 31
0
  0
LINE
  5
A4
330
1B
100
AcDbEntity
  8
F.Cu
  6
CONTINUOUS
100
AcDbLine
 10
34.3965779999999981
 20
-34.4522100000000009
 30
0
 11
34.3695519999999988
 21
-34.5530729999999977
 31
0
  0
LINE
  5
A5
330
1B
100
AcDbEntity
  8
F.Cu
  6
CONTINUOUS
100
AcDbLine
 10
34.3695519999999988
 20
-34.5530729999999977
 30
0
 11
34.317340999999999
 21
-34.6435049999999976
 31
0
  0
LINE
  5
A6
330
1B
100
AcDbEntity
  8
F.Cu
  6
CONTINUOUS
100
AcDbLine
 10
34.317340999999999
 20
-34.6435049999999976
 30
0
 11
34.243504999999999
 21
-34.7173409999999976
 31
0
  0
LINE
  5
A7
330
1B
100
AcDbEntity
  8
F.Cu
  6
CONTINUOUS
100
AcDbLine
 10
34.243504999999999
 20
-34.7173409999999976
 30
0
 11
34.1530729999999991
 21
-34.7695519999999973
 31
0
  0
LINE
  5
A8
330
1B
100
AcDbEntity
  8
F.Cu
  6
CONTINUOUS
100
AcDbLine
 10
34.1530729999999991
 20
-34.7695519999999973
 30
0
 11
34.0522099999999952
 21
-34.7965779999999967
 31
0
  0
LINE
  5
A9
330
1B
100
AcDbEntity
  8
F.Cu
  6
CONTINUOUS
100
AcDbLine
 10
34.0522099999999952
 20
-34.7965779999999967
 30
0
 11
33.9477899999999977
 21
-34.7965779999999967
 31
0
  0
LINE
  5
AA
330
1B
100
AcDbEntity
  8
F.Cu
  6
CONTINUOUS
100
AcDbLine
 10
33.9477899999999977
 20
-34.7965779999999967
 30
0
 11
33.8469270000000009
 21
-34.7695519999999973
 31
0
  0
LINE
  5
AB
330
1B
100
AcDbEntity
  8
F.Cu
  6
CONTINUOUS
100
AcDbLine
 10
33.8469270000000009
 20
-34.7695519999999973
 30
0
 11
33.756495000000001
 21
-34.7173409999999976
 31
0
  0
LINE
  5
AC
330
1B
100
AcDbEntity
  8
F.Cu
  6
CONTINUOUS
100
AcDbLine
 10
33.756495000000001
 20
-34.7173409999999976
 30
0
 11
33.682659000000001
 21
-34.6435049999999976
 31
0
  0
LINE
  5
AD
330
1B
100
AcDbEntity
  8
F.Cu
  6
CONTINUOUS
100
AcDbLine
 10
33.682659000000001
 20
-34.6435049999999976
 30
0
 11
33.6304480000000012
 21
-34.5530729999999977
 31
0
  0
LINE
  5
AE
330
1B
100
AcDbEntity
  8
F.Cu
  6
CONTINUOUS
100
AcDbLine
 10
33.6304480000000012
 20
-34.5530729999999977
 30
0
 11
33.6034220000000019
 21
-34.4522100000000009
 31
0
  0
LINE
  5
AF
330
1B
100
AcDbEntity
  8
F.Cu
  6
CONTINUOUS
100
AcDbLine
 10
33.6034220000000019
 20
-34.4522100000000009
 30
0
 11
33.6000000000000014
 21
-34.3999999999999986
 31
0
  0
LINE
  5
B0
330
1B
100
AcDbEntity
  8
F.Cu
  6
CONTINUOUS
100
AcDbLine
 10
33.6000000000000014
 20
-34.3999999999999986
 30
0
 11
33.6000000000000014
 21
-33.6000000000000014
 31
0
  0
LINE
  5
B1
330
1B
100
AcDbEntity
  8
F.Cu
  6
CONTINUOUS
100
AcDbLine
 10
33.6000000000000014
 20
-33.6000000000000014
 30
0
 11
33.6034220000000019
 21
-33.5477899999999991
 31
0
  0
LINE
  5
B2
330
1B
100
AcDbEntity
  8
F.Cu
  6
CONTINUOUS
100
AcDbLine
 10
33.6034220000000019
 20
-33.5477899999999991
 30
0
 11
33.6304480000000012
 21
-33.4469269999999952
 31
0
  0
LINE
  5
B3
330
1B
100
AcDbEntity
  8
F.Cu
  6
CONTINUOUS
100
AcDbLine
 10
33.6304480000000012
 20
-33.4469269999999952
 30
0
 11
33.682659000000001
 21
-33.3564949999999953
 31
0
  0
LINE
  5
B4
330
1B
100
AcDbEntity
  8
F.Cu
  6
CONTINUOUS
100
AcDbLine
 10
33.682659000000001
 20
-33.3564949999999953
 30
0
 11
33.756495000000001
 21
-33.2826589999999953
 31
0
  0
LINE
  5
B5
330
1B
100
AcDbEntity
  8
F.Cu
  6
CONTINUOUS
100
AcDbLine
 10
33.756495000000001
 20
-33.2826589999999953
 30
0
 11
33.8469270000000009
 21
-33.2304479999999955
 31
0
  0
LINE
  5
B6
330
1B
100
AcDbEntity
  8
F.Cu
  6
CONTINUOUS
100
AcDbLine
 10
33.8469270000000009
 20
-33.2304479999999955
 30
0
 11
33.9477899999999977
 21
-33.2034219999999962
 31
0
  0
LINE
  5
B7
330
1B
100
AcDbEntity
  8
F.Cu
  6
CONTINUOUS
100
AcDbLine
 10
33.9477899999999977
 20
-33.2034219999999962
 30
0
 11
34.0522099999999952
 21
-33.2034219999999962
 31
0
  0
LINE
  5
B8
330
1B
100
AcDbEntity
  8
F.Cu
  6
CONTINUOUS
100
AcDbLine
 10
34.0522099999999952
 20
-33.2034219999999962
 30
0
 11
34.1530729999999991
 21
-33.2304479999999955
 31
0
  0
LINE
  5
B9
330
1B
100
AcDbEntity
  8
F.Cu
  6
CONTINUOUS
100
AcDbLine
 10
46.5031989999999951
 20
-33.3301419999999951
 30
0
 11
46.6299780000000013
 21
-33.3826549999999997
 31
0
  0
LINE
  5
BA
330
1B
100
AcDbEntity
  8
F.Cu
  6
CONTINUOUS
100
AcDbLine
 10
46.6299780000000013
 20
-33.3826549999999997
 30
0
 11
46.7440749999999952
 21
-33.4588929999999962
 31
0
  0
LINE
  5
BB
330
1B
100
AcDbEntity
  8
F.Cu
  6
CONTINUOUS
100
AcDbLine
 10
46.7440749999999952
 20
-33.4588929999999962
 30
0
 11
46.8411070000000009
 21
-33.555925000000002
 31
0
  0
LINE
  5
BC
330
1B
100
AcDbEntity
  8
F.Cu
  6
CONTINUOUS
100
AcDbLine
 10
46.8411070000000009
 20
-33.555925000000002
 30
0
 11
46.9173449999999974
 21
-33.6700219999999959
 31
0
  0
LINE
  5
BD
330
1B
100
AcDbEntity
  8
F.Cu
  6
CONTINUOUS
100
AcDbLine
 10
46.9173449999999974
 20
-33.6700219999999959
 30
0
 11
46.969857999999995
 21
-33.796800999999995
 31
0
  0
LINE
  5
BE
330
1B
100
AcDbEntity
  8
F.Cu
  6
CONTINUOUS
100
AcDbLine
 10
46.969857999999995
 20
-33.796800999999995
 30
0
 11
46.9966289999999987
 21
-33.9313879999999983
 31
0
  0
LINE
  5
BF
330
1B
100
AcDbEntity
  8
F.Cu
  6
CONTINUOUS
100
AcDbLine
 10
46.9966289999999987
 20
-33.9313879999999983
 30
0
 11
46.9966289999999987
 21
-34.0686120000000017
 31
0
  0
LINE
  5
C0
330
1B
100
AcDbEntity
  8
F.Cu
  6
CONTINUOUS
100
AcDbLine
 10
46.9966289999999987
 20
-34.0686120000000017
 30
0
 11
46.969857999999995
 21
-34.2031989999999979
 31
0
  0
LINE
  5
C1
330
1B
100
AcDbEntity
  8
F.Cu
  6
CONTINUOUS
100
AcDbLine
 10
46.969857999999995
 20
-34.2031989999999979
 30
0
 11
46.9173449999999974
 21
-34.329977999999997
 31
0
  0
LINE
  5
C2
330
1B
100
AcDbEntity
  8
F.Cu
  6
CONTINUOUS
100
AcDbLine
 10
46.9173449999999974
 20
-34.329977999999997
 30
0
 11
46.8411070000000009
 21
-34.444074999999998
 31
0
  0
LINE
  5
C3
330
1B
100
AcDbEntity
  8
F.Cu
  6
CONTINUOUS
100
AcDbLine
 10
46.8411070000000009
 20
-34.444074999999998
 30
0
 11
46.7440749999999952
 21
-34.5411069999999967
 31
0
  0
LINE
  5
C4
330
1B
100
AcDbEntity
  8
F.Cu
  6
CONTINUOUS
100
AcDbLine
 10
46.7440749999999952
 20
-34.5411069999999967
 30
0
 11
46.6299780000000013
 21
-34.6173450000000003
 31
0
  0
LINE
  5
C5
330
1B
100
AcDbEntity
  8
F.Cu
  6
CONTINUOUS
100
AcDbLine
 10
46.6299780000000013
 20
-34.6173450000000003
 30
0
 11
46.5031989999999951
 21
-34.6698579999999978
 31
0
  0
LINE
  5
C6
330
1B
100
AcDbEntity
  8
F.Cu
  6
CONTINUOUS
100
AcDbLine
 10
46.5031989999999951
 20
-34.6698579999999978
 30
0
 11
46.3686119999999988
 21
-34.6966290000000015
 31
0
  0
LINE
  5
C7
330
1B
100
AcDbEntity
  8
F.Cu
  6
CONTINUOUS
100
AcDbLine
 10
46.3686119999999988
 20
-34.6966290000000015
 30
0
 11
46.2313879999999955
 21
-34.6966290000000015
 31
0
  0
LINE
  5
C8
330
1B
100
AcDbEntity
  8
F.Cu
  6
CONTINUOUS
100
AcDbLine
 10
46.2313879999999955
 20
-34.6966290000000015
 30
0
 11
46.0968009999999992
 21
-34.6698579999999978
 31
0
  0
LINE
  5
C9
330
1B
100
AcDbEntity
  8
F.Cu
  6
CONTINUOUS
100
AcDbLine
 10
46.0968009999999992
 20
-34.6698579999999978
 30
0
 11
45.9700220000000002
 21
-34.6173450000000003
 31
0
  0
LINE
  5
CA
330
1B
100
AcDbEntity
  8
F.Cu
  6
CONTINUOUS
100
AcDbLine
 10
45.9700220000000002
 20
-34.6173450000000003
 30
0
 11
45.8559249999999992
 21
-34.5411069999999967
 31
0
  0
LINE
  5
CB
330
1B
100
AcDbEntity
  8
F.Cu
  6
CONTINUOUS
100
AcDbLine
 10
45.8559249999999992
 20
-34.5411069999999967
 30
0
 11
45.7588930000000005
 21
-34.444074999999998
 31
0
  0
LINE
  5
CC
330
1B
100
AcDbEntity
  8
F.Cu
  6
CONTINUOUS
100
AcDbLine
 10
45.7588930000000005
 20
-34.444074999999998
 30
0
 11
45.6826549999999969
 21
-34.329977999999997
 31
0
  0
LINE
  5
CD
330
1B
100
AcDbEntity
  8
F.Cu
  6
CONTINUOUS
100
AcDbLine
 10
45.6826549999999969
 20
-34.329977999999997
 30
0
 11
45.6301419999999993
 21
-34.2031989999999979
 31
0
  0
LINE
  5
CE
330
1B
100
AcDbEntity
  8
F.Cu
  6
CONTINUOUS
100
AcDbLine
 10
45.6301419999999993
 20
-34.2031989999999979
 30
0
 11
45.6033709999999957
 21
-34.0686120000000017
 31
0
  0
LINE
  5
CF
330
1B
100
AcDbEntity
  8
F.Cu
  6
CONTINUOUS
100
AcDbLine
 10
45.6033709999999957
 20
-34.0686120000000017
 30
0
 11
45.6033709999999957
 21
-33.9313879999999983
 31
0
  0
LINE
  5
D0
330
1B
100
AcDbEntity
  8
F.Cu
  6
CONTINUOUS
100
AcDbLine
 10
45.6033709999999957
 20
-33.9313879999999983
 30
0
 11
45.6301419999999993
 21
-33.796800999999995
 31
0
  0
LINE
  5
D1
330
1B
100
AcDbEntity
  8
F.Cu
  6
CONTINUOUS
100
AcDbLine
 10
45.6301419999999993
 20
-33.796800999999995
 30
0
 11
45.6826549999999969
 21
-33.6700219999999959
 31
0
  0
LINE
  5
D2
330
1B
100
AcDbEntity
  8
F.Cu
  6
CONTINUOUS
100
AcDbLine
 10
45.6826549999999969
 20
-33.6700219999999959
 30
0
 11
45.7588930000000005
 21
-33.555925000000002
 31
0
  0
LINE
  5
D3
330
1B
100
AcDbEntity
  8
F.Cu
  6
CONTINUOUS
100
AcDbLine
 10
45.7588930000000005
 20
-33.555925000000002
 30
0
 11
45.8559249999999992
 21
-33.4588929999999962
 31
0
  0
LINE
  5
D4
330
1B
100
AcDbEntity
  8
F.Cu
  6
CONTINUOUS
100
AcDbLine
 10
45.8559249999999992
 20
-33.4588929999999962
 30
0
 11
45.9700220000000002
 21
-33.3826549999999997
 31
0
  0
LINE
  5
D5
330
1B
100
AcDbEntity
  8
F.Cu
  6
CONTINUOUS
100
AcDbLine
 10
45.9700220000000002
 20
-33.3826549999999997
 30
0
 11
46.0968009999999992
 21
-33.3301419999999951
 31
0
  0
LINE
  5
D6
330
1B
100
AcDbEntity
  8
F.Cu
  6
CONTINUOUS
100
AcDbLine
 10
46.0968009999999992
 20
-33.3301419999999951
 30
0
 11
46.2313879999999955
 21
-33.3033709999999985
 31
0
  0
LINE
  5
D7
330
1B
100
AcDbEntity
  8
F.Cu
  6
CONTINUOUS
100
AcDbLine
 10
46.2313879999999955
 20
-33.3033709999999985
 30
0
 11
46.3686119999999988
 21
-33.3033709999999985
 31
0
  0
LINE
  5
D8
330
1B
100
AcDbEntity
  8
F.Cu
  6
CONTINUOUS
100
AcDbLine
 10
46.3686119999999988
 20
-33.3033709999999985
 30
0
 11
46.5031989999999951
 21
-33.3301419999999951
 31
0
  0
LINE
  5
D9
330
1B
100
AcDbEntity
  8
F.Cu
  6
CONTINUOUS
100
AcDbLine
 10
43.6641580000000005
 20
-33.093707000000002
 30
0
 11
44.1258330000000001
 21
-33.3500000000000014
 31
0
  0
LINE
  5
DA
330
1B
100
AcDbEntity
  8
F.Cu
  6
CONTINUOUS
100
AcDbLine
 10
44.1258330000000001
 20
-33.3500000000000014
 30
0
 11
43.9660249999999948
 21
-33.6732049999999958
 31
0
  0
LINE
  5
DB
330
1B
100
AcDbEntity
  8
F.Cu
  6
CONTINUOUS
100
AcDbLine
 10
43.9660249999999948
 20
-33.6732049999999958
 30
0
 11
43.5301049999999989
 21
-34.2271879999999982
 31
0
  0
LINE
  5
DC
330
1B
100
AcDbEntity
  8
F.Cu
  6
CONTINUOUS
100
AcDbLine
 10
43.5301049999999989
 20
-34.2271879999999982
 30
0
 11
43.5196149999999946
 21
-34.2999999999999972
 31
0
  0
LINE
  5
DD
330
1B
100
AcDbEntity
  8
F.Cu
  6
CONTINUOUS
100
AcDbLine
 10
43.5196149999999946
 20
-34.2999999999999972
 30
0
 11
43.1830129999999954
 21
-34.6830129999999954
 31
0
  0
LINE
  5
DE
330
1B
100
AcDbEntity
  8
F.Cu
  6
CONTINUOUS
100
AcDbLine
 10
43.1830129999999954
 20
-34.6830129999999954
 30
0
 11
43.047781999999998
 21
-34.6049369999999996
 31
0
  0
LINE
  5
DF
330
1B
100
AcDbEntity
  8
F.Cu
  6
CONTINUOUS
100
AcDbLine
 10
43.047781999999998
 20
-34.6049369999999996
 30
0
 11
42.8169869999999975
 21
-34.6830129999999954
 31
0
  0
LINE
  5
E0
330
1B
100
AcDbEntity
  8
F.Cu
  6
CONTINUOUS
100
AcDbLine
 10
42.8169869999999975
 20
-34.6830129999999954
 30
0
 11
42.6339739999999949
 21
-34.3660250000000005
 31
0
  0
LINE
  5
E1
330
1B
100
AcDbEntity
  8
F.Cu
  6
CONTINUOUS
100
AcDbLine
 10
42.6339739999999949
 20
-34.3660250000000005
 30
0
 11
42.3169869999999975
 21
-34.1830129999999954
 31
0
  0
LINE
  5
E2
330
1B
100
AcDbEntity
  8
F.Cu
  6
CONTINUOUS
100
AcDbLine
 10
42.3169869999999975
 20
-34.1830129999999954
 30
0
 11
42.4226489999999998
 21
-34.
 31
0
  0
LINE
  5
E3
330
1B
100
AcDbEntity
  8
F.Cu
  6
CONTINUOUS
100
AcDbLine
 10
42.4226489999999998
 20
-34.
 30
0
 11
42.3169869999999975
 21
-33.8169869999999975
 31
0
  0
LINE
  5
E4
330
1B
100
AcDbEntity
  8
F.Cu
  6
CONTINUOUS
100
AcDbLine
 10
42.3169869999999975
 20
-33.8169869999999975
 30
0
 11
42.6339739999999949
 21
-33.6339729999999975
 31
0
  0
LINE
  5
E5
330
1B
100
AcDbEntity
  8
F.Cu
  6
CONTINUOUS
100
AcDbLine
 10
42.6339739999999949
 20
-33.6339729999999975
 30
0
 11
43.0669869999999975
 21
-32.8839749999999995
 31
0
  0
LINE
  5
E6
330
1B
100
AcDbEntity
  8
F.Cu
  6
CONTINUOUS
100
AcDbLine
 10
43.0669869999999975
 20
-32.8839749999999995
 30
0
 11
43.6499999999999986
 21
-32.8741669999999999
 31
0
  0
LINE
  5
E7
330
1B
100
AcDbEntity
  8
F.Cu
  6
CONTINUOUS
100
AcDbLine
 10
43.6499999999999986
 20
-32.8741669999999999
 30
0
 11
43.6641580000000005
 21
-33.093707000000002
 31
0
  0
LINE
  5
E8
330
1B
100
AcDbEntity
  8
F.Cu
  6
CONTINUOUS
100
AcDbLine
 10
37.3999999999999986
 20
-34.6000000000000014
 30
0
 11
36.6000000000000014
 21
-34.6000000000000014
 31
0
  0
LINE
  5
E9
330
1B
100
AcDbEntity
  8
F.Cu
  6
CONTINUOUS
100
AcDbLine
 10
36.6000000000000014
 20
-34.6000000000000014
 30
0
 11
36.6000000000000014
 21
-33.3999999999999986
 31
0
  0
LINE
  5
EA
330
1B
100
AcDbEntity
  8
F.Cu
  6
CONTINUOUS
100
AcDbLine
 10
36.6000000000000014
 20
-33.3999999999999986
 30
0
 11
37.3999999999999986
 21
-33.3999999999999986
 31
0
  0
LINE
  5
EB
330
1B
100
AcDbEntity
  8
F.Cu
  6
CONTINUOUS
100
AcDbLine
 10
37.3999999999999986
 20
-33.3999999999999986
 30
0
 11
37.3999999999999986
 21
-34.6000000000000014
 31
0
  0
LINE
  5
EC
330
1B
100
AcDbEntity
  8
F.Cu
  6
CONTINUOUS
100
AcDbLine
 10
40.75
 20
-33.75
 30
0
 11
40.75
 21
-34.25
 31
0
  0
LINE
  5
ED
330
1B
100
AcDbEntity
  8
F.Cu
  6
CONTINUOUS
100
AcDbLine
 10
40.75
 20
-34.25
 30
0
 11
40.5
 21
-34.5
 31
0
  0
LINE
  5
EE
330
1B
100
AcDbEntity
  8
F.Cu
  6
CONTINUOUS
100
AcDbLine
 10
40.5
 20
-34.5
 30
0
 11
39.5
 21
-34.5
 31
0
  0
LINE
  5
EF
330
1B
100
AcDbEntity
  8
F.Cu
  6
CONTINUOUS
100
AcDbLine
 10
39.5
 20
-34.5
 30
0
 11
39.25
 21
-34.25
 31
0
  0
LINE
  5
F0
330
1B
100
AcDbEntity
  8
F.Cu
  6
CONTINUOUS
100
AcDbLine
 10
39.25
 20
-34.25
 30
0
 11
39.25
 21
-33.75
 31
0
  0
LINE
  5
F1
330
1B
100
AcDbEntity
  8
F.Cu
  6
CONTINUOUS
100
AcDbLine
 10
39.25
 20
-33.75
 30
0
 11
39.5
 21
-33.5
 31
0
  0
LINE
  5
F2
330
1B
100
AcDbEntity
  8
F.Cu
  6
CONTINUOUS
100
AcDbLine
 10
39.5
 20
-33.5
 30
0
 11
40.5
 21
-33.5
 31
0
  0
LINE
  5
F3
330
1B
100
AcDbEntity
  8
F.Cu
  6
CONTINUOUS
100
AcDbLine
 10
40.5
 20
-33.5
 30
0
 11
40.75
 21
-33.75
 31
0
  0
LINE
  5
F4
330
1B
100
AcDbEntity
  8
F.Cu
  6
CONTINUOUS
100
AcDbLine
 10
60.8499999999999943
 20
-30.8499999999999979
 30
0
 11
59.1499999999999986
 21
-30.8499999999999979
 31
0
  0
LINE
  5
F5
330
1B
100
AcDbEntity
  8
F.Cu
  6
CONTINUOUS
100
AcDbLine
 10
59.1499999999999986
 20
-30.8499999999999979
 30
0
 11
59.1499999999999986
 21
-29.1499999999999986
 31
0
  0
LINE
  5
F6
330
1B
100
AcDbEntity
  8
F.Cu
  6
CONTINUOUS
100
AcDbLine
 10
59.1499999999999986
 20
-29.1499999999999986
 30
0
 11
60.8499999999999943
 21
-29.1499999999999986
 31
0
  0
LINE
  5
F7
330
1B
100
AcDbEntity
  8
F.Cu
  6
CONTINUOUS
100
AcDbLine
 10
60.8499999999999943
 20
-29.1499999999999986
 30
0
 11
60.8499999999999943
 21
-30.8499999999999979
 31
0
  0
LINE
  5
F8
330
1B
100
AcDbEntity
  8
F.Cu
  6
CONTINUOUS
100
AcDbLine
 10
37.6021629999999973
 20
-29.4615769999999983
 30
0
 11
37.8073759999999979
 21
-30.0253929999999976
 31
0
  0
LINE
  5
F9
330
1B
100
AcDbEntity
  8
F.Cu
  6
CONTINUOUS
100
AcDbLine
 10
37.8073759999999979
 20
-30.0253929999999976
 30
0
 11
37.8192469999999972
 21
-30.1025209999999994
 31
0
  0
LINE
  5
FA
330
1B
100
AcDbEntity
  8
F.Cu
  6
CONTINUOUS
100
AcDbLine
 10
37.8192469999999972
 20
-30.1025209999999994
 30
0
 11
37.800697999999997
 21
-30.1783199999999994
 31
0
  0
LINE
  5
FB
330
1B
100
AcDbEntity
  8
F.Cu
  6
CONTINUOUS
100
AcDbLine
 10
37.800697999999997
 20
-30.1783199999999994
 30
0
 11
37.7545549999999963
 21
-30.2412519999999994
 31
0
  0
LINE
  5
FC
330
1B
100
AcDbEntity
  8
F.Cu
  6
CONTINUOUS
100
AcDbLine
 10
37.7545549999999963
 20
-30.2412519999999994
 30
0
 11
37.6878409999999988
 21
-30.2817349999999976
 31
0
  0
LINE
  5
FD
330
1B
100
AcDbEntity
  8
F.Cu
  6
CONTINUOUS
100
AcDbLine
 10
37.6878409999999988
 20
-30.2817349999999976
 30
0
 11
36.6541789999999992
 21
-30.6579569999999997
 31
0
  0
LINE
  5
FE
330
1B
100
AcDbEntity
  8
F.Cu
  6
CONTINUOUS
100
AcDbLine
 10
36.6541789999999992
 20
-30.6579569999999997
 30
0
 11
36.5770509999999973
 21
-30.669829
 31
0
  0
LINE
  5
FF
330
1B
100
AcDbEntity
  8
F.Cu
  6
CONTINUOUS
100
AcDbLine
 10
36.5770509999999973
 20
-30.669829
 30
0
 11
36.5012520000000009
 21
-30.6512799999999999
 31
0
  0
LINE
  5
100
330
1B
100
AcDbEntity
  8
F.Cu
  6
CONTINUOUS
100
AcDbLine
 10
36.5012520000000009
 20
-30.6512799999999999
 30
0
 11
36.4383199999999974
 21
-30.6051369999999991
 31
0
  0
LINE
  5
101
330
1B
100
AcDbEntity
  8
F.Cu
  6
CONTINUOUS
100
AcDbLine
 10
36.4383199999999974
 20
-30.6051369999999991
 30
0
 11
36.3978369999999956
 21
-30.5384229999999981
 31
0
  0
LINE
  5
102
330
1B
100
AcDbEntity
  8
F.Cu
  6
CONTINUOUS
100
AcDbLine
 10
36.3978369999999956
 20
-30.5384229999999981
 30
0
 11
36.192623999999995
 21
-29.9746069999999989
 31
0
  0
LINE
  5
103
330
1B
100
AcDbEntity
  8
F.Cu
  6
CONTINUOUS
100
AcDbLine
 10
36.192623999999995
 20
-29.9746069999999989
 30
0
 11
36.1807529999999957
 21
-29.897478999999997
 31
0
  0
LINE
  5
104
330
1B
100
AcDbEntity
  8
F.Cu
  6
CONTINUOUS
100
AcDbLine
 10
36.1807529999999957
 20
-29.897478999999997
 30
0
 11
36.1993019999999959
 21
-29.8216799999999971
 31
0
  0
LINE
  5
105
330
1B
100
AcDbEntity
  8
F.Cu
  6
CONTINUOUS
100
AcDbLine
 10
36.1993019999999959
 20
-29.8216799999999971
 30
0
 11
36.2454449999999966
 21
-29.7587479999999971
 31
0
  0
LINE
  5
106
330
1B
100
AcDbEntity
  8
F.Cu
  6
CONTINUOUS
100
AcDbLine
 10
36.2454449999999966
 20
-29.7587479999999971
 30
0
 11
36.3121590000000012
 21
-29.7182649999999988
 31
0
  0
LINE
  5
107
330
1B
100
AcDbEntity
  8
F.Cu
  6
CONTINUOUS
100
AcDbLine
 10
36.3121590000000012
 20
-29.7182649999999988
 30
0
 11
37.3458210000000008
 21
-29.3420430000000003
 31
0
  0
LINE
  5
108
330
1B
100
AcDbEntity
  8
F.Cu
  6
CONTINUOUS
100
AcDbLine
 10
37.3458210000000008
 20
-29.3420430000000003
 30
0
 11
37.6021629999999973
 21
-29.4615769999999983
 31
0
  0
LINE
  5
109
330
1B
100
AcDbEntity
  8
F.Cu
  6
CONTINUOUS
100
AcDbLine
 10
41.2999999999999972
 20
-30.
 30
0
 11
41.
 21
-30.1999999999999993
 31
0
  0
LINE
  5
10A
330
1B
100
AcDbEntity
  8
F.Cu
  6
CONTINUOUS
100
AcDbLine
 10
41.
 20
-30.1999999999999993
 30
0
 11
40.
 21
-30.5999999999999979
 31
0
  0
LINE
  5
10B
330
1B
100
AcDbEntity
  8
F.Cu
  6
CONTINUOUS
100
AcDbLine
 10
40.
 20
-30.5999999999999979
 30
0
 11
39.5
 21
-30.5
 31
0
  0
LINE
  5
10C
330
1B
100
AcDbEntity
  8
F.Cu
  6
CONTINUOUS
100
AcDbLine
 10
39.5
 20
-30.5
 30
0
 11
39.5
 21
-29.5
 31
0
  0
LINE
  5
10D
330
1B
100
AcDbEntity
  8
F.Cu
  6
CONTINUOUS
100
AcDbLine
 10
39.5
 20
-29.5
 30
0
 11
41.
 21
-29.5
 31
0
  0
LINE
  5
10E
330
1B
100
AcDbEntity
  8
F.Cu
  6
CONTINUOUS
100
AcDbLine
 10
41.
 20
-29.5
 30
0
 11
41.2999999999999972
 21
-30.
 31
0
  0
LINE
  5
10F
330
1B
100
AcDbEntity
  8
F.Cu
  6
CONTINUOUS
100
AcDbLine
 10
34.75
 20
-30.2999999999999972
 30
0
 11
34.5499999999999972
 21
-30.5
 31
0
  0
LINE
  5
110
330
1B
100
AcDbEntity
  8
F.Cu
  6
CONTINUOUS
100
AcDbLine
 10
34.5499999999999972
 20
-30.5
 30
0
 11
33.25
 21
-30.5
 31
0
  0
LINE
  5
111
330
1B
100
AcDbEntity
  8
F.Cu
  6
CONTINUOUS
100
AcDbLine
 10
33.25
 20
-30.5
 30
0
 11
33.25
 21
-29.6999999999999993
 31
0
  0
LINE
  5
112
330
1B
100
AcDbEntity
  8
F.Cu
  6
CONTINUOUS
100
AcDbLine
 10
33.25
 20
-29.6999999999999993
 30
0
 11
33.4499999999999957
 21
-29.5
 31
0
  0
LINE
  5
113
330
1B
100
AcDbEntity
  8
F.Cu
  6
CONTINUOUS
100
AcDbLine
 10
33.4499999999999957
 20
-29.5
 30
0
 11
34.75
 21
-29.5
 31
0
  0
LINE
  5
114
330
1B
100
AcDbEntity
  8
F.Cu
  6
CONTINUOUS
100
AcDbLine
 10
34.75
 20
-29.5
 30
0
 11
34.75
 21
-30.2999999999999972
 31
0
  0
LINE
  5
115
330
1B
100
AcDbEntity
  8
F.Cu
  6
CONTINUOUS
100
AcDbLine
 10
43.1913419999999988
 20
-29.538059999999998
 30
0
 11
43.3043809999999993
 21
-29.6033229999999996
 31
0
  0
LINE
  5
116
330
1B
100
AcDbEntity
  8
F.Cu
  6
CONTINUOUS
100
AcDbLine
 10
43.3043809999999993
 20
-29.6033229999999996
 30
0
 11
43.3966769999999968
 21
-29.6956189999999971
 31
0
  0
LINE
  5
117
330
1B
100
AcDbEntity
  8
F.Cu
  6
CONTINUOUS
100
AcDbLine
 10
43.3966769999999968
 20
-29.6956189999999971
 30
0
 11
43.4619399999999985
 21
-29.8086579999999977
 31
0
  0
LINE
  5
118
330
1B
100
AcDbEntity
  8
F.Cu
  6
CONTINUOUS
100
AcDbLine
 10
43.4619399999999985
 20
-29.8086579999999977
 30
0
 11
43.4957220000000007
 21
-29.9347369999999984
 31
0
  0
LINE
  5
119
330
1B
100
AcDbEntity
  8
F.Cu
  6
CONTINUOUS
100
AcDbLine
 10
43.4957220000000007
 20
-29.9347369999999984
 30
0
 11
43.4957220000000007
 21
-30.0652629999999981
 31
0
  0
LINE
  5
11A
330
1B
100
AcDbEntity
  8
F.Cu
  6
CONTINUOUS
100
AcDbLine
 10
43.4957220000000007
 20
-30.0652629999999981
 30
0
 11
43.4619399999999985
 21
-30.1913419999999988
 31
0
  0
LINE
  5
11B
330
1B
100
AcDbEntity
  8
F.Cu
  6
CONTINUOUS
100
AcDbLine
 10
43.4619399999999985
 20
-30.1913419999999988
 30
0
 11
43.3966769999999968
 21
-30.3043809999999993
 31
0
  0
LINE
  5
11C
330
1B
100
AcDbEntity
  8
F.Cu
  6
CONTINUOUS
100
AcDbLine
 10
43.3966769999999968
 20
-30.3043809999999993
 30
0
 11
43.3043809999999993
 21
-30.3966770000000004
 31
0
  0
LINE
  5
11D
330
1B
100
AcDbEntity
  8
F.Cu
  6
CONTINUOUS
100
AcDbLine
 10
43.3043809999999993
 20
-30.3966770000000004
 30
0
 11
43.1913419999999988
 21
-30.4619399999999985
 31
0
  0
LINE
  5
11E
330
1B
100
AcDbEntity
  8
F.Cu
  6
CONTINUOUS
100
AcDbLine
 10
43.1913419999999988
 20
-30.4619399999999985
 30
0
 11
43.0652629999999945
 21
-30.4957219999999971
 31
0
  0
LINE
  5
11F
330
1B
100
AcDbEntity
  8
F.Cu
  6
CONTINUOUS
100
AcDbLine
 10
43.0652629999999945
 20
-30.4957219999999971
 30
0
 11
42.9347369999999984
 21
-30.4957219999999971
 31
0
  0
LINE
  5
120
330
1B
100
AcDbEntity
  8
F.Cu
  6
CONTINUOUS
100
AcDbLine
 10
42.9347369999999984
 20
-30.4957219999999971
 30
0
 11
42.8086580000000012
 21
-30.4619399999999985
 31
0
  0
LINE
  5
121
330
1B
100
AcDbEntity
  8
F.Cu
  6
CONTINUOUS
100
AcDbLine
 10
42.8086580000000012
 20
-30.4619399999999985
 30
0
 11
42.6956190000000007
 21
-30.3966770000000004
 31
0
  0
LINE
  5
122
330
1B
100
AcDbEntity
  8
F.Cu
  6
CONTINUOUS
100
AcDbLine
 10
42.6956190000000007
 20
-30.3966770000000004
 30
0
 11
42.6033229999999961
 21
-30.3043809999999993
 31
0
  0
LINE
  5
123
330
1B
100
AcDbEntity
  8
F.Cu
  6
CONTINUOUS
100
AcDbLine
 10
42.6033229999999961
 20
-30.3043809999999993
 30
0
 11
42.5380600000000015
 21
-30.1913419999999988
 31
0
  0
LINE
  5
124
330
1B
100
AcDbEntity
  8
F.Cu
  6
CONTINUOUS
100
AcDbLine
 10
42.5380600000000015
 20
-30.1913419999999988
 30
0
 11
42.5042779999999993
 21
-30.0652629999999981
 31
0
  0
LINE
  5
125
330
1B
100
AcDbEntity
  8
F.Cu
  6
CONTINUOUS
100
AcDbLine
 10
42.5042779999999993
 20
-30.0652629999999981
 30
0
 11
42.5042779999999993
 21
-29.9347369999999984
 31
0
  0
LINE
  5
126
330
1B
100
AcDbEntity
  8
F.Cu
  6
CONTINUOUS
100
AcDbLine
 10
42.5042779999999993
 20
-29.9347369999999984
 30
0
 11
42.5380600000000015
 21
-29.8086579999999977
 31
0
  0
LINE
  5
127
330
1B
100
AcDbEntity
  8
F.Cu
  6
CONTINUOUS
100
AcDbLine
 10
42.5380600000000015
 20
-29.8086579999999977
 30
0
 11
42.6033229999999961
 21
-29.6956189999999971
 31
0
  0
LINE
  5
128
330
1B
100
AcDbEntity
  8
F.Cu
  6
CONTINUOUS
100
AcDbLine
 10
42.6033229999999961
 20
-29.6956189999999971
 30
0
 11
42.6956190000000007
 21
-29.6033229999999996
 31
0
  0
LINE
  5
129
330
1B
100
AcDbEntity
  8
F.Cu
  6
CONTINUOUS
100
AcDbLine
 10
42.6956190000000007
 20
-29.6033229999999996
 30
0
 11
42.8086580000000012
 21
-29.538059999999998
 31
0
  0
LINE
  5
12A
330
1B
100
AcDbEntity
  8
F.Cu
  6
CONTINUOUS
100
AcDbLine
 10
42.8086580000000012
 20
-29.538059999999998
 30
0
 11
42.9347369999999984
 21
-29.5042779999999993
 31
0
  0
LINE
  5
12B
330
1B
100
AcDbEntity
  8
F.Cu
  6
CONTINUOUS
100
AcDbLine
 10
42.9347369999999984
 20
-29.5042779999999993
 30
0
 11
43.0652629999999945
 21
-29.5042779999999993
 31
0
  0
LINE
  5
12C
330
1B
100
AcDbEntity
  8
F.Cu
  6
CONTINUOUS
100
AcDbLine
 10
43.0652629999999945
 20
-29.5042779999999993
 30
0
 11
43.1913419999999988
 21
-29.538059999999998
 31
0
  0
LINE
  5
12D
330
1B
100
AcDbEntity
  8
F.Cu
  6
CONTINUOUS
100
AcDbLine
 10
60.2296099999999939
 20
-26.6556719999999991
 30
0
 11
60.3652569999999997
 21
-26.7339880000000001
 31
0
  0
LINE
  5
12E
330
1B
100
AcDbEntity
  8
F.Cu
  6
CONTINUOUS
100
AcDbLine
 10
60.3652569999999997
 20
-26.7339880000000001
 30
0
 11
60.4760119999999972
 21
-26.8447429999999976
 31
0
  0
LINE
  5
12F
330
1B
100
AcDbEntity
  8
F.Cu
  6
CONTINUOUS
100
AcDbLine
 10
60.4760119999999972
 20
-26.8447429999999976
 30
0
 11
60.5543279999999982
 21
-26.9803899999999999
 31
0
  0
LINE
  5
130
330
1B
100
AcDbEntity
  8
F.Cu
  6
CONTINUOUS
100
AcDbLine
 10
60.5543279999999982
 20
-26.9803899999999999
 30
0
 11
60.5948670000000007
 21
-27.1316839999999999
 31
0
  0
LINE
  5
131
330
1B
100
AcDbEntity
  8
F.Cu
  6
CONTINUOUS
100
AcDbLine
 10
60.5948670000000007
 20
-27.1316839999999999
 30
0
 11
60.5999999999999943
 21
-27.2099999999999973
 31
0
  0
LINE
  5
132
330
1B
100
AcDbEntity
  8
F.Cu
  6
CONTINUOUS
100
AcDbLine
 10
60.5999999999999943
 20
-27.2099999999999973
 30
0
 11
60.5999999999999943
 21
-27.7099999999999973
 31
0
  0
LINE
  5
133
330
1B
100
AcDbEntity
  8
F.Cu
  6
CONTINUOUS
100
AcDbLine
 10
60.5999999999999943
 20
-27.7099999999999973
 30
0
 11
60.5948670000000007
 21
-27.7883159999999982
 31
0
  0
LINE
  5
134
330
1B
100
AcDbEntity
  8
F.Cu
  6
CONTINUOUS
100
AcDbLine
 10
60.5948670000000007
 20
-27.7883159999999982
 30
0
 11
60.5543279999999982
 21
-27.9396099999999983
 31
0
  0
LINE
  5
135
330
1B
100
AcDbEntity
  8
F.Cu
  6
CONTINUOUS
100
AcDbLine
 10
60.5543279999999982
 20
-27.9396099999999983
 30
0
 11
60.4760119999999972
 21
-28.075256999999997
 31
0
  0
LINE
  5
136
330
1B
100
AcDbEntity
  8
F.Cu
  6
CONTINUOUS
100
AcDbLine
 10
60.4760119999999972
 20
-28.075256999999997
 30
0
 11
60.3652569999999997
 21
-28.1860119999999981
 31
0
  0
LINE
  5
137
330
1B
100
AcDbEntity
  8
F.Cu
  6
CONTINUOUS
100
AcDbLine
 10
60.3652569999999997
 20
-28.1860119999999981
 30
0
 11
60.2296099999999939
 21
-28.264327999999999
 31
0
  0
LINE
  5
138
330
1B
100
AcDbEntity
  8
F.Cu
  6
CONTINUOUS
100
AcDbLine
 10
60.2296099999999939
 20
-28.264327999999999
 30
0
 11
60.0783159999999938
 21
-28.304866999999998
 31
0
  0
LINE
  5
139
330
1B
100
AcDbEntity
  8
F.Cu
  6
CONTINUOUS
100
AcDbLine
 10
60.0783159999999938
 20
-28.304866999999998
 30
0
 11
59.9216839999999991
 21
-28.304866999999998
 31
0
  0
LINE
  5
13A
330
1B
100
AcDbEntity
  8
F.Cu
  6
CONTINUOUS
100
AcDbLine
 10
59.9216839999999991
 20
-28.304866999999998
 30
0
 11
59.770389999999999
 21
-28.264327999999999
 31
0
  0
LINE
  5
13B
330
1B
100
AcDbEntity
  8
F.Cu
  6
CONTINUOUS
100
AcDbLine
 10
59.770389999999999
 20
-28.264327999999999
 30
0
 11
59.6347430000000003
 21
-28.1860119999999981
 31
0
  0
LINE
  5
13C
330
1B
100
AcDbEntity
  8
F.Cu
  6
CONTINUOUS
100
AcDbLine
 10
59.6347430000000003
 20
-28.1860119999999981
 30
0
 11
59.5239879999999957
 21
-28.075256999999997
 31
0
  0
LINE
  5
13D
330
1B
100
AcDbEntity
  8
F.Cu
  6
CONTINUOUS
100
AcDbLine
 10
59.5239879999999957
 20
-28.075256999999997
 30
0
 11
59.4456719999999947
 21
-27.9396099999999983
 31
0
  0
LINE
  5
13E
330
1B
100
AcDbEntity
  8
F.Cu
  6
CONTINUOUS
100
AcDbLine
 10
59.4456719999999947
 20
-27.9396099999999983
 30
0
 11
59.4051329999999993
 21
-27.7883159999999982
 31
0
  0
LINE
  5
13F
330
1B
100
AcDbEntity
  8
F.Cu
  6
CONTINUOUS
100
AcDbLine
 10
59.4051329999999993
 20
-27.7883159999999982
 30
0
 11
59.3999999999999986
 21
-27.7099999999999973
 31
0
  0
LINE
  5
140
330
1B
100
AcDbEntity
  8
F.Cu
  6
CONTINUOUS
100
AcDbLine
 10
59.3999999999999986
 20
-27.7099999999999973
 30
0
 11
59.3999999999999986
 21
-27.2099999999999973
 31
0
  0
LINE
  5
141
330
1B
100
AcDbEntity
  8
F.Cu
  6
CONTINUOUS
100
AcDbLine
 10
59.3999999999999986
 20
-27.2099999999999973
 30
0
 11
59.4051329999999993
 21
-27.1316839999999999
 31
0
  0
LINE
  5
142
330
1B
100
AcDbEntity
  8
F.Cu
  6
CONTINUOUS
100
AcDbLine
 10
59.4051329999999993
 20
-27.1316839999999999
 30
0
 11
59.4456719999999947
 21
-26.9803899999999999
 31
0
  0
LINE
  5
143
330
1B
100
AcDbEntity
  8
F.Cu
  6
CONTINUOUS
100
AcDbLine
 10
59.4456719999999947
 20
-26.9803899999999999
 30
0
 11
59.5239879999999957
 21
-26.8447429999999976
 31
0
  0
LINE
  5
144
330
1B
100
AcDbEntity
  8
F.Cu
  6
CONTINUOUS
100
AcDbLine
 10
59.5239879999999957
 20
-26.8447429999999976
 30
0
 11
59.6347430000000003
 21
-26.7339880000000001
 31
0
  0
LINE
  5
145
330
1B
100
AcDbEntity
  8
F.Cu
  6
CONTINUOUS
100
AcDbLine
 10
59.6347430000000003
 20
-26.7339880000000001
 30
0
 11
59.770389999999999
 21
-26.6556719999999991
 31
0
  0
LINE
  5
146
330
1B
100
AcDbEntity
  8
F.Cu
  6
CONTINUOUS
100
AcDbLine
 10
59.770389999999999
 20
-26.6556719999999991
 30
0
 11
59.9216839999999991
 21
-26.6151330000000002
 31
0
  0
LINE
  5
147
330
1B
100
AcDbEntity
  8
F.Cu
  6
CONTINUOUS
100
AcDbLine
 10
59.9216839999999991
 20
-26.6151330000000002
 30
0
 11
60.0783159999999938
 21
-26.6151330000000002
 31
0
  0
LINE
  5
148
330
1B
100
AcDbEntity
  8
F.Cu
  6
CONTINUOUS
100
AcDbLine
 10
60.0783159999999938
 20
-26.6151330000000002
 30
0
 11
60.2296099999999939
 21
-26.6556719999999991
 31
0
  0
LINE
  5
149
330
1B
100
AcDbEntity
  8
F.Cu
  6
CONTINUOUS
100
AcDbLine
 10
43.7071070000000006
 20
-25.8585789999999989
 30
0
 11
42.8585789999999989
 21
-26.707106999999997
 31
0
  0
LINE
  5
14A
330
1B
100
AcDbEntity
  8
F.Cu
  6
CONTINUOUS
100
AcDbLine
 10
42.8585789999999989
 20
-26.707106999999997
 30
0
 11
42.3514720000000011
 21
-26.1999999999999993
 31
0
  0
LINE
  5
14B
330
1B
100
AcDbEntity
  8
F.Cu
  6
CONTINUOUS
100
AcDbLine
 10
42.3514720000000011
 20
-26.1999999999999993
 30
0
 11
40.4535890000000009
 21
-26.1999999999999993
 31
0
  0
LINE
  5
14C
330
1B
100
AcDbEntity
  8
F.Cu
  6
CONTINUOUS
100
AcDbLine
 10
40.4535890000000009
 20
-26.1999999999999993
 30
0
 11
39.853589999999997
 21
-26.5464099999999981
 31
0
  0
LINE
  5
14D
330
1B
100
AcDbEntity
  8
F.Cu
  6
CONTINUOUS
100
AcDbLine
 10
39.853589999999997
 20
-26.5464099999999981
 30
0
 11
39.8066639999999978
 21
-26.5695519999999981
 31
0
  0
LINE
  5
14E
330
1B
100
AcDbEntity
  8
F.Cu
  6
CONTINUOUS
100
AcDbLine
 10
39.8066639999999978
 20
-26.5695519999999981
 30
0
 11
39.705801000000001
 21
-26.5965779999999974
 31
0
  0
LINE
  5
14F
330
1B
100
AcDbEntity
  8
F.Cu
  6
CONTINUOUS
100
AcDbLine
 10
39.705801000000001
 20
-26.5965779999999974
 30
0
 11
39.6013790000000014
 21
-26.5965779999999974
 31
0
  0
LINE
  5
150
330
1B
100
AcDbEntity
  8
F.Cu
  6
CONTINUOUS
100
AcDbLine
 10
39.6013790000000014
 20
-26.5965779999999974
 30
0
 11
39.500516999999995
 21
-26.5695519999999981
 31
0
  0
LINE
  5
151
330
1B
100
AcDbEntity
  8
F.Cu
  6
CONTINUOUS
100
AcDbLine
 10
39.500516999999995
 20
-26.5695519999999981
 30
0
 11
39.4100849999999951
 21
-26.5173409999999983
 31
0
  0
LINE
  5
152
330
1B
100
AcDbEntity
  8
F.Cu
  6
CONTINUOUS
100
AcDbLine
 10
39.4100849999999951
 20
-26.5173409999999983
 30
0
 11
39.3362479999999977
 21
-26.4435039999999972
 31
0
  0
LINE
  5
153
330
1B
100
AcDbEntity
  8
F.Cu
  6
CONTINUOUS
100
AcDbLine
 10
39.3362479999999977
 20
-26.4435039999999972
 30
0
 11
39.2840379999999953
 21
-26.3530739999999994
 31
0
  0
LINE
  5
154
330
1B
100
AcDbEntity
  8
F.Cu
  6
CONTINUOUS
100
AcDbLine
 10
39.2840379999999953
 20
-26.3530739999999994
 30
0
 11
39.257011999999996
 21
-26.2522109999999991
 31
0
  0
LINE
  5
155
330
1B
100
AcDbEntity
  8
F.Cu
  6
CONTINUOUS
100
AcDbLine
 10
39.257011999999996
 20
-26.2522109999999991
 30
0
 11
39.257011999999996
 21
-26.1999999999999993
 31
0
  0
LINE
  5
156
330
1B
100
AcDbEntity
  8
F.Cu
  6
CONTINUOUS
100
AcDbLine
 10
39.257011999999996
 20
-26.1999999999999993
 30
0
 11
37.75
 21
-26.1999999999999993
 31
0
  0
LINE
  5
157
330
1B
100
AcDbEntity
  8
F.Cu
  6
CONTINUOUS
100
AcDbLine
 10
37.75
 20
-26.1999999999999993
 30
0
 11
37.75
 21
-26.25
 31
0
  0
LINE
  5
158
330
1B
100
AcDbEntity
  8
F.Cu
  6
CONTINUOUS
100
AcDbLine
 10
37.75
 20
-26.25
 30
0
 11
37.7309699999999992
 21
-26.3456709999999994
 31
0
  0
LINE
  5
159
330
1B
100
AcDbEntity
  8
F.Cu
  6
CONTINUOUS
100
AcDbLine
 10
37.7309699999999992
 20
-26.3456709999999994
 30
0
 11
37.6767770000000013
 21
-26.4267769999999977
 31
0
  0
LINE
  5
15A
330
1B
100
AcDbEntity
  8
F.Cu
  6
CONTINUOUS
100
AcDbLine
 10
37.6767770000000013
 20
-26.4267769999999977
 30
0
 11
37.5956709999999958
 21
-26.4809699999999992
 31
0
  0
LINE
  5
15B
330
1B
100
AcDbEntity
  8
F.Cu
  6
CONTINUOUS
100
AcDbLine
 10
37.5956709999999958
 20
-26.4809699999999992
 30
0
 11
37.5
 21
-26.5
 31
0
  0
LINE
  5
15C
330
1B
100
AcDbEntity
  8
F.Cu
  6
CONTINUOUS
100
AcDbLine
 10
37.5
 20
-26.5
 30
0
 11
36.5
 21
-26.5
 31
0
  0
LINE
  5
15D
330
1B
100
AcDbEntity
  8
F.Cu
  6
CONTINUOUS
100
AcDbLine
 10
36.5
 20
-26.5
 30
0
 11
36.4043289999999971
 21
-26.4809699999999992
 31
0
  0
LINE
  5
15E
330
1B
100
AcDbEntity
  8
F.Cu
  6
CONTINUOUS
100
AcDbLine
 10
36.4043289999999971
 20
-26.4809699999999992
 30
0
 11
36.3232229999999987
 21
-26.4267769999999977
 31
0
  0
LINE
  5
15F
330
1B
100
AcDbEntity
  8
F.Cu
  6
CONTINUOUS
100
AcDbLine
 10
36.3232229999999987
 20
-26.4267769999999977
 30
0
 11
36.2690300000000008
 21
-26.3456709999999994
 31
0
  0
LINE
  5
160
330
1B
100
AcDbEntity
  8
F.Cu
  6
CONTINUOUS
100
AcDbLine
 10
36.2690300000000008
 20
-26.3456709999999994
 30
0
 11
36.25
 21
-26.25
 31
0
  0
LINE
  5
161
330
1B
100
AcDbEntity
  8
F.Cu
  6
CONTINUOUS
100
AcDbLine
 10
36.25
 20
-26.25
 30
0
 11
36.25
 21
-26.125
 31
0
  0
LINE
  5
162
330
1B
100
AcDbEntity
  8
F.Cu
  6
CONTINUOUS
100
AcDbLine
 10
36.25
 20
-26.125
 30
0
 11
34.6000000000000014
 21
-26.125
 31
0
  0
LINE
  5
163
330
1B
100
AcDbEntity
  8
F.Cu
  6
CONTINUOUS
100
AcDbLine
 10
34.6000000000000014
 20
-26.125
 30
0
 11
34.6000000000000014
 21
-26.3999999999999986
 31
0
  0
LINE
  5
164
330
1B
100
AcDbEntity
  8
F.Cu
  6
CONTINUOUS
100
AcDbLine
 10
34.6000000000000014
 20
-26.3999999999999986
 30
0
 11
33.3999999999999986
 21
-26.3999999999999986
 31
0
  0
LINE
  5
165
330
1B
100
AcDbEntity
  8
F.Cu
  6
CONTINUOUS
100
AcDbLine
 10
33.3999999999999986
 20
-26.3999999999999986
 30
0
 11
33.3999999999999986
 21
-25.5999999999999979
 31
0
  0
LINE
  5
166
330
1B
100
AcDbEntity
  8
F.Cu
  6
CONTINUOUS
100
AcDbLine
 10
33.3999999999999986
 20
-25.5999999999999979
 30
0
 11
34.6000000000000014
 21
-25.5999999999999979
 31
0
  0
LINE
  5
167
330
1B
100
AcDbEntity
  8
F.Cu
  6
CONTINUOUS
100
AcDbLine
 10
34.6000000000000014
 20
-25.5999999999999979
 30
0
 11
34.6000000000000014
 21
-25.875
 31
0
  0
LINE
  5
168
330
1B
100
AcDbEntity
  8
F.Cu
  6
CONTINUOUS
100
AcDbLine
 10
34.6000000000000014
 20
-25.875
 30
0
 11
36.25
 21
-25.875
 31
0
  0
LINE
  5
169
330
1B
100
AcDbEntity
  8
F.Cu
  6
CONTINUOUS
100
AcDbLine
 10
36.25
 20
-25.875
 30
0
 11
36.25
 21
-25.75
 31
0
  0
LINE
  5
16A
330
1B
100
AcDbEntity
  8
F.Cu
  6
CONTINUOUS
100
AcDbLine
 10
36.25
 20
-25.75
 30
0
 11
36.2690300000000008
 21
-25.6543290000000006
 31
0
  0
LINE
  5
16B
330
1B
100
AcDbEntity
  8
F.Cu
  6
CONTINUOUS
100
AcDbLine
 10
36.2690300000000008
 20
-25.6543290000000006
 30
0
 11
36.3232229999999987
 21
-25.5732229999999987
 31
0
  0
LINE
  5
16C
330
1B
100
AcDbEntity
  8
F.Cu
  6
CONTINUOUS
100
AcDbLine
 10
36.3232229999999987
 20
-25.5732229999999987
 30
0
 11
36.4043289999999971
 21
-25.5190299999999972
 31
0
  0
LINE
  5
16D
330
1B
100
AcDbEntity
  8
F.Cu
  6
CONTINUOUS
100
AcDbLine
 10
36.4043289999999971
 20
-25.5190299999999972
 30
0
 11
36.5
 21
-25.5
 31
0
  0
LINE
  5
16E
330
1B
100
AcDbEntity
  8
F.Cu
  6
CONTINUOUS
100
AcDbLine
 10
36.5
 20
-25.5
 30
0
 11
37.5
 21
-25.5
 31
0
  0
LINE
  5
16F
330
1B
100
AcDbEntity
  8
F.Cu
  6
CONTINUOUS
100
AcDbLine
 10
37.5
 20
-25.5
 30
0
 11
37.5956709999999958
 21
-25.5190299999999972
 31
0
  0
LINE
  5
170
330
1B
100
AcDbEntity
  8
F.Cu
  6
CONTINUOUS
100
AcDbLine
 10
37.5956709999999958
 20
-25.5190299999999972
 30
0
 11
37.6767770000000013
 21
-25.5732229999999987
 31
0
  0
LINE
  5
171
330
1B
100
AcDbEntity
  8
F.Cu
  6
CONTINUOUS
100
AcDbLine
 10
37.6767770000000013
 20
-25.5732229999999987
 30
0
 11
37.7309699999999992
 21
-25.6543290000000006
 31
0
  0
LINE
  5
172
330
1B
100
AcDbEntity
  8
F.Cu
  6
CONTINUOUS
100
AcDbLine
 10
37.7309699999999992
 20
-25.6543290000000006
 30
0
 11
37.75
 21
-25.75
 31
0
  0
LINE
  5
173
330
1B
100
AcDbEntity
  8
F.Cu
  6
CONTINUOUS
100
AcDbLine
 10
37.75
 20
-25.75
 30
0
 11
37.75
 21
-25.7999999999999972
 31
0
  0
LINE
  5
174
330
1B
100
AcDbEntity
  8
F.Cu
  6
CONTINUOUS
100
AcDbLine
 10
37.75
 20
-25.7999999999999972
 30
0
 11
39.5464109999999991
 21
-25.7999999999999972
 31
0
  0
LINE
  5
175
330
1B
100
AcDbEntity
  8
F.Cu
  6
CONTINUOUS
100
AcDbLine
 10
39.5464109999999991
 20
-25.7999999999999972
 30
0
 11
40.1464099999999959
 21
-25.4535899999999984
 31
0
  0
LINE
  5
176
330
1B
100
AcDbEntity
  8
F.Cu
  6
CONTINUOUS
100
AcDbLine
 10
40.1464099999999959
 20
-25.4535899999999984
 30
0
 11
40.1933359999999951
 21
-25.4304479999999984
 31
0
  0
LINE
  5
177
330
1B
100
AcDbEntity
  8
F.Cu
  6
CONTINUOUS
100
AcDbLine
 10
40.1933359999999951
 20
-25.4304479999999984
 30
0
 11
40.294198999999999
 21
-25.4034219999999991
 31
0
  0
LINE
  5
178
330
1B
100
AcDbEntity
  8
F.Cu
  6
CONTINUOUS
100
AcDbLine
 10
40.294198999999999
 20
-25.4034219999999991
 30
0
 11
40.3986209999999986
 21
-25.4034219999999991
 31
0
  0
LINE
  5
179
330
1B
100
AcDbEntity
  8
F.Cu
  6
CONTINUOUS
100
AcDbLine
 10
40.3986209999999986
 20
-25.4034219999999991
 30
0
 11
40.4994829999999979
 21
-25.4304479999999984
 31
0
  0
LINE
  5
17A
330
1B
100
AcDbEntity
  8
F.Cu
  6
CONTINUOUS
100
AcDbLine
 10
40.4994829999999979
 20
-25.4304479999999984
 30
0
 11
40.5899149999999977
 21
-25.4826589999999982
 31
0
  0
LINE
  5
17B
330
1B
100
AcDbEntity
  8
F.Cu
  6
CONTINUOUS
100
AcDbLine
 10
40.5899149999999977
 20
-25.4826589999999982
 30
0
 11
40.6637519999999952
 21
-25.5564959999999992
 31
0
  0
LINE
  5
17C
330
1B
100
AcDbEntity
  8
F.Cu
  6
CONTINUOUS
100
AcDbLine
 10
40.6637519999999952
 20
-25.5564959999999992
 30
0
 11
40.7159619999999975
 21
-25.6469260000000006
 31
0
  0
LINE
  5
17D
330
1B
100
AcDbEntity
  8
F.Cu
  6
CONTINUOUS
100
AcDbLine
 10
40.7159619999999975
 20
-25.6469260000000006
 30
0
 11
40.7429879999999969
 21
-25.7477889999999974
 31
0
  0
LINE
  5
17E
330
1B
100
AcDbEntity
  8
F.Cu
  6
CONTINUOUS
100
AcDbLine
 10
40.7429879999999969
 20
-25.7477889999999974
 30
0
 11
40.7429879999999969
 21
-25.7999999999999972
 31
0
  0
LINE
  5
17F
330
1B
100
AcDbEntity
  8
F.Cu
  6
CONTINUOUS
100
AcDbLine
 10
40.7429879999999969
 20
-25.7999999999999972
 30
0
 11
42.6343139999999963
 21
-25.7999999999999972
 31
0
  0
LINE
  5
180
330
1B
100
AcDbEntity
  8
F.Cu
  6
CONTINUOUS
100
AcDbLine
 10
42.6343139999999963
 20
-25.7999999999999972
 30
0
 11
43.1414210000000011
 21
-25.2928929999999994
 31
0
  0
LINE
  5
181
330
1B
100
AcDbEntity
  8
F.Cu
  6
CONTINUOUS
100
AcDbLine
 10
43.1414210000000011
 20
-25.2928929999999994
 30
0
 11
43.7071070000000006
 21
-25.8585789999999989
 31
0
  0
LINE
  5
182
330
1B
100
AcDbEntity
  8
F.Cu
  6
CONTINUOUS
100
AcDbLine
 10
46.9499999999999957
 20
-26.5
 30
0
 11
45.0499999999999972
 21
-26.5
 31
0
  0
LINE
  5
183
330
1B
100
AcDbEntity
  8
F.Cu
  6
CONTINUOUS
100
AcDbLine
 10
45.0499999999999972
 20
-26.5
 30
0
 11
45.4499999999999957
 21
-25.5
 31
0
  0
LINE
  5
184
330
1B
100
AcDbEntity
  8
F.Cu
  6
CONTINUOUS
100
AcDbLine
 10
45.4499999999999957
 20
-25.5
 30
0
 11
46.5499999999999972
 21
-25.5
 31
0
  0
LINE
  5
185
330
1B
100
AcDbEntity
  8
F.Cu
  6
CONTINUOUS
100
AcDbLine
 10
46.5499999999999972
 20
-25.5
 30
0
 11
46.9499999999999957
 21
-26.5
 31
0
  0
LINE
  5
186
330
1B
100
AcDbEntity
  8
F.Cu
  6
CONTINUOUS
100
AcDbLine
 10
60.2467419999999976
 20
-24.1066009999999977
 30
0
 11
60.4006869999999978
 21
-24.1703669999999988
 31
0
  0
LINE
  5
187
330
1B
100
AcDbEntity
  8
F.Cu
  6
CONTINUOUS
100
AcDbLine
 10
60.4006869999999978
 20
-24.1703669999999988
 30
0
 11
60.5392340000000004
 21
-24.2629409999999979
 31
0
  0
LINE
  5
188
330
1B
100
AcDbEntity
  8
F.Cu
  6
CONTINUOUS
100
AcDbLine
 10
60.5392340000000004
 20
-24.2629409999999979
 30
0
 11
60.6570589999999967
 21
-24.3807659999999977
 31
0
  0
LINE
  5
189
330
1B
100
AcDbEntity
  8
F.Cu
  6
CONTINUOUS
100
AcDbLine
 10
60.6570589999999967
 20
-24.3807659999999977
 30
0
 11
60.7496329999999958
 21
-24.5193130000000004
 31
0
  0
LINE
  5
18A
330
1B
100
AcDbEntity
  8
F.Cu
  6
CONTINUOUS
100
AcDbLine
 10
60.7496329999999958
 20
-24.5193130000000004
 30
0
 11
60.8133989999999969
 21
-24.6732580000000006
 31
0
  0
LINE
  5
18B
330
1B
100
AcDbEntity
  8
F.Cu
  6
CONTINUOUS
100
AcDbLine
 10
60.8133989999999969
 20
-24.6732580000000006
 30
0
 11
60.8459069999999969
 21
-24.8366849999999992
 31
0
  0
LINE
  5
18C
330
1B
100
AcDbEntity
  8
F.Cu
  6
CONTINUOUS
100
AcDbLine
 10
60.8459069999999969
 20
-24.8366849999999992
 30
0
 11
60.8459069999999969
 21
-25.0033150000000006
 31
0
  0
LINE
  5
18D
330
1B
100
AcDbEntity
  8
F.Cu
  6
CONTINUOUS
100
AcDbLine
 10
60.8459069999999969
 20
-25.0033150000000006
 30
0
 11
60.8133989999999969
 21
-25.1667419999999993
 31
0
  0
LINE
  5
18E
330
1B
100
AcDbEntity
  8
F.Cu
  6
CONTINUOUS
100
AcDbLine
 10
60.8133989999999969
 20
-25.1667419999999993
 30
0
 11
60.7496329999999958
 21
-25.3206869999999995
 31
0
  0
LINE
  5
18F
330
1B
100
AcDbEntity
  8
F.Cu
  6
CONTINUOUS
100
AcDbLine
 10
60.7496329999999958
 20
-25.3206869999999995
 30
0
 11
60.6570589999999967
 21
-25.4592339999999986
 31
0
  0
LINE
  5
190
330
1B
100
AcDbEntity
  8
F.Cu
  6
CONTINUOUS
100
AcDbLine
 10
60.6570589999999967
 20
-25.4592339999999986
 30
0
 11
60.5392340000000004
 21
-25.5770589999999984
 31
0
  0
LINE
  5
191
330
1B
100
AcDbEntity
  8
F.Cu
  6
CONTINUOUS
100
AcDbLine
 10
60.5392340000000004
 20
-25.5770589999999984
 30
0
 11
60.4006869999999978
 21
-25.6696329999999975
 31
0
  0
LINE
  5
192
330
1B
100
AcDbEntity
  8
F.Cu
  6
CONTINUOUS
100
AcDbLine
 10
60.4006869999999978
 20
-25.6696329999999975
 30
0
 11
60.2467419999999976
 21
-25.7333989999999986
 31
0
  0
LINE
  5
193
330
1B
100
AcDbEntity
  8
F.Cu
  6
CONTINUOUS
100
AcDbLine
 10
60.2467419999999976
 20
-25.7333989999999986
 30
0
 11
60.0833149999999989
 21
-25.7659069999999986
 31
0
  0
LINE
  5
194
330
1B
100
AcDbEntity
  8
F.Cu
  6
CONTINUOUS
100
AcDbLine
 10
60.0833149999999989
 20
-25.7659069999999986
 30
0
 11
59.916684999999994
 21
-25.7659069999999986
 31
0
  0
LINE
  5
195
330
1B
100
AcDbEntity
  8
F.Cu
  6
CONTINUOUS
100
AcDbLine
 10
59.916684999999994
 20
-25.7659069999999986
 30
0
 11
59.7532579999999953
 21
-25.7333989999999986
 31
0
  0
LINE
  5
196
330
1B
100
AcDbEntity
  8
F.Cu
  6
CONTINUOUS
100
AcDbLine
 10
59.7532579999999953
 20
-25.7333989999999986
 30
0
 11
59.5993129999999951
 21
-25.6696329999999975
 31
0
  0
LINE
  5
197
330
1B
100
AcDbEntity
  8
F.Cu
  6
CONTINUOUS
100
AcDbLine
 10
59.5993129999999951
 20
-25.6696329999999975
 30
0
 11
59.4607659999999996
 21
-25.5770589999999984
 31
0
  0
LINE
  5
198
330
1B
100
AcDbEntity
  8
F.Cu
  6
CONTINUOUS
100
AcDbLine
 10
59.4607659999999996
 20
-25.5770589999999984
 30
0
 11
59.3429409999999962
 21
-25.4592339999999986
 31
0
  0
LINE
  5
199
330
1B
100
AcDbEntity
  8
F.Cu
  6
CONTINUOUS
100
AcDbLine
 10
59.3429409999999962
 20
-25.4592339999999986
 30
0
 11
59.2503669999999971
 21
-25.3206869999999995
 31
0
  0
LINE
  5
19A
330
1B
100
AcDbEntity
  8
F.Cu
  6
CONTINUOUS
100
AcDbLine
 10
59.2503669999999971
 20
-25.3206869999999995
 30
0
 11
59.186600999999996
 21
-25.1667419999999993
 31
0
  0
LINE
  5
19B
330
1B
100
AcDbEntity
  8
F.Cu
  6
CONTINUOUS
100
AcDbLine
 10
59.186600999999996
 20
-25.1667419999999993
 30
0
 11
59.154092999999996
 21
-25.0033150000000006
 31
0
  0
LINE
  5
19C
330
1B
100
AcDbEntity
  8
F.Cu
  6
CONTINUOUS
100
AcDbLine
 10
59.154092999999996
 20
-25.0033150000000006
 30
0
 11
59.154092999999996
 21
-24.8366849999999992
 31
0
  0
LINE
  5
19D
330
1B
100
AcDbEntity
  8
F.Cu
  6
CONTINUOUS
100
AcDbLine
 10
59.154092999999996
 20
-24.8366849999999992
 30
0
 11
59.186600999999996
 21
-24.6732580000000006
 31
0
  0
LINE
  5
19E
330
1B
100
AcDbEntity
  8
F.Cu
  6
CONTINUOUS
100
AcDbLine
 10
59.186600999999996
 20
-24.6732580000000006
 30
0
 11
59.2503669999999971
 21
-24.5193130000000004
 31
0
  0
LINE
  5
19F
330
1B
100
AcDbEntity
  8
F.Cu
  6
CONTINUOUS
100
AcDbLine
 10
59.2503669999999971
 20
-24.5193130000000004
 30
0
 11
59.3429409999999962
 21
-24.3807659999999977
 31
0
  0
LINE
  5
1A0
330
1B
100
AcDbEntity
  8
F.Cu
  6
CONTINUOUS
100
AcDbLine
 10
59.3429409999999962
 20
-24.3807659999999977
 30
0
 11
59.4607659999999996
 21
-24.2629409999999979
 31
0
  0
LINE
  5
1A1
330
1B
100
AcDbEntity
  8
F.Cu
  6
CONTINUOUS
100
AcDbLine
 10
59.4607659999999996
 20
-24.2629409999999979
 30
0
 11
59.5993129999999951
 21
-24.1703669999999988
 31
0
  0
LINE
  5
1A2
330
1B
100
AcDbEntity
  8
F.Cu
  6
CONTINUOUS
100
AcDbLine
 10
59.5993129999999951
 20
-24.1703669999999988
 30
0
 11
59.7532579999999953
 21
-24.1066009999999977
 31
0
  0
LINE
  5
1A3
330
1B
100
AcDbEntity
  8
F.Cu
  6
CONTINUOUS
100
AcDbLine
 10
59.7532579999999953
 20
-24.1066009999999977
 30
0
 11
59.916684999999994
 21
-24.0740929999999977
 31
0
  0
LINE
  5
1A4
330
1B
100
AcDbEntity
  8
F.Cu
  6
CONTINUOUS
100
AcDbLine
 10
59.916684999999994
 20
-24.0740929999999977
 30
0
 11
60.0833149999999989
 21
-24.0740929999999977
 31
0
  0
LINE
  5
1A5
330
1B
100
AcDbEntity
  8
F.Cu
  6
CONTINUOUS
100
AcDbLine
 10
60.0833149999999989
 20
-24.0740929999999977
 30
0
 11
60.2467419999999976
 21
-24.1066009999999977
 31
0
  0
LINE
  5
1A6
330
1B
100
AcDbEntity
  8
F.Cu
  6
CONTINUOUS
100
AcDbLine
 10
60.5783159999999938
 20
-21.7851329999999983
 30
0
 11
60.7296099999999939
 21
-21.8256719999999973
 31
0
  0
LINE
  5
1A7
330
1B
100
AcDbEntity
  8
F.Cu
  6
CONTINUOUS
100
AcDbLine
 10
60.7296099999999939
 20
-21.8256719999999973
 30
0
 11
60.8652569999999997
 21
-21.9039879999999982
 31
0
  0
LINE
  5
1A8
330
1B
100
AcDbEntity
  8
F.Cu
  6
CONTINUOUS
100
AcDbLine
 10
60.8652569999999997
 20
-21.9039879999999982
 30
0
 11
60.9760119999999972
 21
-22.0147429999999993
 31
0
  0
LINE
  5
1A9
330
1B
100
AcDbEntity
  8
F.Cu
  6
CONTINUOUS
100
AcDbLine
 10
60.9760119999999972
 20
-22.0147429999999993
 30
0
 11
61.0543279999999982
 21
-22.150389999999998
 31
0
  0
LINE
  5
1AA
330
1B
100
AcDbEntity
  8
F.Cu
  6
CONTINUOUS
100
AcDbLine
 10
61.0543279999999982
 20
-22.150389999999998
 30
0
 11
61.0948670000000007
 21
-22.3016839999999981
 31
0
  0
LINE
  5
1AB
330
1B
100
AcDbEntity
  8
F.Cu
  6
CONTINUOUS
100
AcDbLine
 10
61.0948670000000007
 20
-22.3016839999999981
 30
0
 11
61.0948670000000007
 21
-22.4583159999999999
 31
0
  0
LINE
  5
1AC
330
1B
100
AcDbEntity
  8
F.Cu
  6
CONTINUOUS
100
AcDbLine
 10
61.0948670000000007
 20
-22.4583159999999999
 30
0
 11
61.0543279999999982
 21
-22.60961
 31
0
  0
LINE
  5
1AD
330
1B
100
AcDbEntity
  8
F.Cu
  6
CONTINUOUS
100
AcDbLine
 10
61.0543279999999982
 20
-22.60961
 30
0
 11
60.9760119999999972
 21
-22.7452569999999987
 31
0
  0
LINE
  5
1AE
330
1B
100
AcDbEntity
  8
F.Cu
  6
CONTINUOUS
100
AcDbLine
 10
60.9760119999999972
 20
-22.7452569999999987
 30
0
 11
60.8652569999999997
 21
-22.8560119999999998
 31
0
  0
LINE
  5
1AF
330
1B
100
AcDbEntity
  8
F.Cu
  6
CONTINUOUS
100
AcDbLine
 10
60.8652569999999997
 20
-22.8560119999999998
 30
0
 11
60.7296099999999939
 21
-22.9343280000000007
 31
0
  0
LINE
  5
1B0
330
1B
100
AcDbEntity
  8
F.Cu
  6
CONTINUOUS
100
AcDbLine
 10
60.7296099999999939
 20
-22.9343280000000007
 30
0
 11
60.5783159999999938
 21
-22.9748669999999997
 31
0
  0
LINE
  5
1B1
330
1B
100
AcDbEntity
  8
F.Cu
  6
CONTINUOUS
100
AcDbLine
 10
60.5783159999999938
 20
-22.9748669999999997
 30
0
 11
60.5
 21
-22.9800000000000004
 31
0
  0
LINE
  5
1B2
330
1B
100
AcDbEntity
  8
F.Cu
  6
CONTINUOUS
100
AcDbLine
 10
60.5
 20
-22.9800000000000004
 30
0
 11
59.5
 21
-22.9800000000000004
 31
0
  0
LINE
  5
1B3
330
1B
100
AcDbEntity
  8
F.Cu
  6
CONTINUOUS
100
AcDbLine
 10
59.5
 20
-22.9800000000000004
 30
0
 11
59.4216839999999991
 21
-22.9748669999999997
 31
0
  0
LINE
  5
1B4
330
1B
100
AcDbEntity
  8
F.Cu
  6
CONTINUOUS
100
AcDbLine
 10
59.4216839999999991
 20
-22.9748669999999997
 30
0
 11
59.270389999999999
 21
-22.9343280000000007
 31
0
  0
LINE
  5
1B5
330
1B
100
AcDbEntity
  8
F.Cu
  6
CONTINUOUS
100
AcDbLine
 10
59.270389999999999
 20
-22.9343280000000007
 30
0
 11
59.1347430000000003
 21
-22.8560119999999998
 31
0
  0
LINE
  5
1B6
330
1B
100
AcDbEntity
  8
F.Cu
  6
CONTINUOUS
100
AcDbLine
 10
59.1347430000000003
 20
-22.8560119999999998
 30
0
 11
59.0239879999999957
 21
-22.7452569999999987
 31
0
  0
LINE
  5
1B7
330
1B
100
AcDbEntity
  8
F.Cu
  6
CONTINUOUS
100
AcDbLine
 10
59.0239879999999957
 20
-22.7452569999999987
 30
0
 11
58.9456719999999947
 21
-22.60961
 31
0
  0
LINE
  5
1B8
330
1B
100
AcDbEntity
  8
F.Cu
  6
CONTINUOUS
100
AcDbLine
 10
58.9456719999999947
 20
-22.60961
 30
0
 11
58.9051329999999993
 21
-22.4583159999999999
 31
0
  0
LINE
  5
1B9
330
1B
100
AcDbEntity
  8
F.Cu
  6
CONTINUOUS
100
AcDbLine
 10
58.9051329999999993
 20
-22.4583159999999999
 30
0
 11
58.9051329999999993
 21
-22.3016839999999981
 31
0
  0
LINE
  5
1BA
330
1B
100
AcDbEntity
  8
F.Cu
  6
CONTINUOUS
100
AcDbLine
 10
58.9051329999999993
 20
-22.3016839999999981
 30
0
 11
58.9456719999999947
 21
-22.150389999999998
 31
0
  0
LINE
  5
1BB
330
1B
100
AcDbEntity
  8
F.Cu
  6
CONTINUOUS
100
AcDbLine
 10
58.9456719999999947
 20
-22.150389999999998
 30
0
 11
59.0239879999999957
 21
-22.0147429999999993
 31
0
  0
LINE
  5
1BC
330
1B
100
AcDbEntity
  8
F.Cu
  6
CONTINUOUS
100
AcDbLine
 10
59.0239879999999957
 20
-22.0147429999999993
 30
0
 11
59.1347430000000003
 21
-21.9039879999999982
 31
0
  0
LINE
  5
1BD
330
1B
100
AcDbEntity
  8
F.Cu
  6
CONTINUOUS
100
AcDbLine
 10
59.1347430000000003
 20
-21.9039879999999982
 30
0
 11
59.270389999999999
 21
-21.8256719999999973
 31
0
  0
LINE
  5
1BE
330
1B
100
AcDbEntity
  8
F.Cu
  6
CONTINUOUS
100
AcDbLine
 10
59.270389999999999
 20
-21.8256719999999973
 30
0
 11
59.4216839999999991
 21
-21.7851329999999983
 31
0
  0
LINE
  5
1BF
330
1B
100
AcDbEntity
  8
F.Cu
  6
CONTINUOUS
100
AcDbLine
 10
59.4216839999999991
 20
-21.7851329999999983
 30
0
 11
59.5
 21
-21.7799999999999976
 31
0
  0
LINE
  5
1C0
330
1B
100
AcDbEntity
  8
F.Cu
  6
CONTINUOUS
100
AcDbLine
 10
59.5
 20
-21.7799999999999976
 30
0
 11
60.5
 21
-21.7799999999999976
 31
0
  0
LINE
  5
1C1
330
1B
100
AcDbEntity
  8
F.Cu
  6
CONTINUOUS
100
AcDbLine
 10
60.5
 20
-21.7799999999999976
 30
0
 11
60.5783159999999938
 21
-21.7851329999999983
 31
0
  0
LINE
  5
1C2
330
1B
100
AcDbEntity
  8
F.Cu
  6
CONTINUOUS
100
AcDbLine
 10
60.6626239999999939
 20
-19.0356719999999981
 30
0
 11
60.7982709999999997
 21
-19.1139879999999991
 31
0
  0
LINE
  5
1C3
330
1B
100
AcDbEntity
  8
F.Cu
  6
CONTINUOUS
100
AcDbLine
 10
60.7982709999999997
 20
-19.1139879999999991
 30
0
 11
60.9090249999999997
 21
-19.2247430000000001
 31
0
  0
LINE
  5
1C4
330
1B
100
AcDbEntity
  8
F.Cu
  6
CONTINUOUS
100
AcDbLine
 10
60.9090249999999997
 20
-19.2247430000000001
 30
0
 11
60.9873410000000007
 21
-19.3603899999999989
 31
0
  0
LINE
  5
1C5
330
1B
100
AcDbEntity
  8
F.Cu
  6
CONTINUOUS
100
AcDbLine
 10
60.9873410000000007
 20
-19.3603899999999989
 30
0
 11
61.0278810000000007
 21
-19.5116839999999989
 31
0
  0
LINE
  5
1C6
330
1B
100
AcDbEntity
  8
F.Cu
  6
CONTINUOUS
100
AcDbLine
 10
61.0278810000000007
 20
-19.5116839999999989
 30
0
 11
61.0278799999999961
 21
-19.6683160000000008
 31
0
  0
LINE
  5
1C7
330
1B
100
AcDbEntity
  8
F.Cu
  6
CONTINUOUS
100
AcDbLine
 10
61.0278799999999961
 20
-19.6683160000000008
 30
0
 11
60.9873410000000007
 21
-19.8196100000000008
 31
0
  0
LINE
  5
1C8
330
1B
100
AcDbEntity
  8
F.Cu
  6
CONTINUOUS
100
AcDbLine
 10
60.9873410000000007
 20
-19.8196100000000008
 30
0
 11
60.9090249999999997
 21
-19.9552569999999996
 31
0
  0
LINE
  5
1C9
330
1B
100
AcDbEntity
  8
F.Cu
  6
CONTINUOUS
100
AcDbLine
 10
60.9090249999999997
 20
-19.9552569999999996
 30
0
 11
60.7982699999999952
 21
-20.0660120000000006
 31
0
  0
LINE
  5
1CA
330
1B
100
AcDbEntity
  8
F.Cu
  6
CONTINUOUS
100
AcDbLine
 10
60.7982699999999952
 20
-20.0660120000000006
 30
0
 11
60.7330129999999997
 21
-20.109614999999998
 31
0
  0
LINE
  5
1CB
330
1B
100
AcDbEntity
  8
F.Cu
  6
CONTINUOUS
100
AcDbLine
 10
60.7330129999999997
 20
-20.109614999999998
 30
0
 11
59.8669869999999946
 21
-20.609614999999998
 31
0
  0
LINE
  5
1CC
330
1B
100
AcDbEntity
  8
F.Cu
  6
CONTINUOUS
100
AcDbLine
 10
59.8669869999999946
 20
-20.609614999999998
 30
0
 11
59.7965969999999984
 21
-20.644327999999998
 31
0
  0
LINE
  5
1CD
330
1B
100
AcDbEntity
  8
F.Cu
  6
CONTINUOUS
100
AcDbLine
 10
59.7965969999999984
 20
-20.644327999999998
 30
0
 11
59.6453029999999984
 21
-20.6848670000000006
 31
0
  0
LINE
  5
1CE
330
1B
100
AcDbEntity
  8
F.Cu
  6
CONTINUOUS
100
AcDbLine
 10
59.6453029999999984
 20
-20.6848670000000006
 30
0
 11
59.4886709999999965
 21
-20.6848670000000006
 31
0
  0
LINE
  5
1CF
330
1B
100
AcDbEntity
  8
F.Cu
  6
CONTINUOUS
100
AcDbLine
 10
59.4886709999999965
 20
-20.6848670000000006
 30
0
 11
59.3373769999999965
 21
-20.644327999999998
 31
0
  0
LINE
  5
1D0
330
1B
100
AcDbEntity
  8
F.Cu
  6
CONTINUOUS
100
AcDbLine
 10
59.3373769999999965
 20
-20.644327999999998
 30
0
 11
59.2017299999999977
 21
-20.5660120000000006
 31
0
  0
LINE
  5
1D1
330
1B
100
AcDbEntity
  8
F.Cu
  6
CONTINUOUS
100
AcDbLine
 10
59.2017299999999977
 20
-20.5660120000000006
 30
0
 11
59.0909750000000003
 21
-20.4552569999999996
 31
0
  0
LINE
  5
1D2
330
1B
100
AcDbEntity
  8
F.Cu
  6
CONTINUOUS
100
AcDbLine
 10
59.0909750000000003
 20
-20.4552569999999996
 30
0
 11
59.0126589999999993
 21
-20.3196100000000008
 31
0
  0
LINE
  5
1D3
330
1B
100
AcDbEntity
  8
F.Cu
  6
CONTINUOUS
100
AcDbLine
 10
59.0126589999999993
 20
-20.3196100000000008
 30
0
 11
58.9721199999999968
 21
-20.1683160000000008
 31
0
  0
LINE
  5
1D4
330
1B
100
AcDbEntity
  8
F.Cu
  6
CONTINUOUS
100
AcDbLine
 10
58.9721199999999968
 20
-20.1683160000000008
 30
0
 11
58.9721199999999968
 21
-20.0116839999999989
 31
0
  0
LINE
  5
1D5
330
1B
100
AcDbEntity
  8
F.Cu
  6
CONTINUOUS
100
AcDbLine
 10
58.9721199999999968
 20
-20.0116839999999989
 30
0
 11
59.0126589999999993
 21
-19.8603899999999989
 31
0
  0
LINE
  5
1D6
330
1B
100
AcDbEntity
  8
F.Cu
  6
CONTINUOUS
100
AcDbLine
 10
59.0126589999999993
 20
-19.8603899999999989
 30
0
 11
59.0909750000000003
 21
-19.7247430000000001
 31
0
  0
LINE
  5
1D7
330
1B
100
AcDbEntity
  8
F.Cu
  6
CONTINUOUS
100
AcDbLine
 10
59.0909750000000003
 20
-19.7247430000000001
 30
0
 11
59.2017299999999977
 21
-19.6139879999999991
 31
0
  0
LINE
  5
1D8
330
1B
100
AcDbEntity
  8
F.Cu
  6
CONTINUOUS
100
AcDbLine
 10
59.2017299999999977
 20
-19.6139879999999991
 30
0
 11
59.2669870000000003
 21
-19.5703849999999981
 31
0
  0
LINE
  5
1D9
330
1B
100
AcDbEntity
  8
F.Cu
  6
CONTINUOUS
100
AcDbLine
 10
59.2669870000000003
 20
-19.5703849999999981
 30
0
 11
60.1330139999999957
 21
-19.0703840000000007
 31
0
  0
LINE
  5
1DA
330
1B
100
AcDbEntity
  8
F.Cu
  6
CONTINUOUS
100
AcDbLine
 10
60.1330139999999957
 20
-19.0703840000000007
 30
0
 11
60.203403999999999
 21
-19.0356719999999981
 31
0
  0
LINE
  5
1DB
330
1B
100
AcDbEntity
  8
F.Cu
  6
CONTINUOUS
100
AcDbLine
 10
60.203403999999999
 20
-19.0356719999999981
 30
0
 11
60.3546979999999991
 21
-18.9951329999999992
 31
0
  0
LINE
  5
1DC
330
1B
100
AcDbEntity
  8
F.Cu
  6
CONTINUOUS
100
AcDbLine
 10
60.3546979999999991
 20
-18.9951329999999992
 30
0
 11
60.5113289999999964
 21
-18.9951329999999992
 31
0
  0
LINE
  5
1DD
330
1B
100
AcDbEntity
  8
F.Cu
  6
CONTINUOUS
100
AcDbLine
 10
60.5113289999999964
 20
-18.9951329999999992
 30
0
 11
60.6626239999999939
 21
-19.0356719999999981
 31
0
  0
CIRCLE
  5
1DE
330
1B
100
AcDbEntity
  8
F.Cu
100
AcDbCircle
 10
46.
 20
-30.
 30
0
 40
0.6
  0
CIRCLE
  5
1DF
330
1B
100
AcDbEntity
  8
F.Cu
100
AcDbCircle
 10
60.
 20
-30.
 30
0
 40
0.5
  0
CIRCLE
  5
1E0
330
1B
100
AcDbEntity
  8
F.Cu
100
AcDbCircle
 10
60.
 20
-27.4599999999999973
 30
0
 40
0.4
  0
LINE
  5
1E1
330
1B
100
AcDbEntity
  8
F.Cu
  6
CONTINUOUS
100
AcDbLine
 10
59.5
 20
-22.9800000000000004
 30
0
 11
60.5
 21
-22.9800000000000004
 31
0
  0
ARC
  5
1E2
330
1B
100
AcDbEntity
  8
F.Cu
100
AcDbCircle
 10
60.5
 20
-22.379999999999999
 30
0
 40
0.6
100
AcDbArc
 50
-90.00000000
 51
90.00000000
  0
LINE
  5
1E3
330
1B
100
AcDbEntity
  8
F.Cu
  6
CONTINUOUS
100
AcDbLine
 10
60.5
 20
-21.7799999999999976
 30
0
 11
59.5
 21
-21.7799999999999976
 31
0
  0
ARC
  5
1E4
330
1B
100
AcDbEntity
  8
F.Cu
100
AcDbCircle
 10
59.5
 20
-22.379999999999999
 30
0
 40
0.6
100
AcDbArc
 50
90.00000000
 51
270.00000000
  0
LINE
  5
1E5
330
1B
100
AcDbEntity
  8
F.Cu
  6
CONTINUOUS
100
AcDbLine
 10
59.8669869999999946
 20
-20.609614999999998
 30
0
 11
60.7330129999999997
 21
-20.109614999999998
 31
0
  0
ARC
  5
1E6
330
1B
100
AcDbEntity
  8
F.Cu
100
AcDbCircle
 10
60.4330129999999954
 20
-19.5899999999999999
 30
0
 40
0.6
100
AcDbArc
 50
-60.00000000
 51
120.00000000
  0
LINE
  5
1E7
330
1B
100
AcDbEntity
  8
F.Cu
  6
CONTINUOUS
100
AcDbLine
 10
60.1330129999999983
 20
-19.0703849999999981
 30
0
 11
59.2669870000000003
 21
-19.5703849999999981
 31
0
  0
ARC
  5
1E8
330
1B
100
AcDbEntity
  8
F.Cu
100
AcDbCircle
 10
59.5669869999999975
 20
-20.0899999999999999
 30
0
 40
0.6
100
AcDbArc
 50
120.00000000
 51
300.00000000
  0
CIRCLE
  5
1E9
330
1B
100
AcDbEntity
  8
F.Cu
100
AcDbCircle
 10
60.
 20
-24.9199999999999982
 30
0
 40
0.5
  0
CIRCLE
  5
1EA
330
1B
100
AcDbEntity
  8
F.Cu
100
AcDbCircle
 10
34.
 20
-26.
 30
0
 40
0.15
  0
CIRCLE
  5
1EB
330
1B
100
AcDbEntity
  8
F.Cu
100
AcDbCircle
 10
48.
 20
-48.
 30
0
 40
0.2
  0
CIRCLE
  5
1EC
330
1B
100
AcDbEntity
  8
F.Cu
100
AcDbCircle
 10
66.
 20
-40.
 30
0
 40
0.15
  0
CIRCLE
  5
1ED
330
1B
100
AcDbEntity
  8
F.Cu
100
AcDbCircle
 10
30.
 20
-45.
 30
0
 40
0.2
  0
CIRCLE
  5
1EE
330
1B
100
AcDbEntity
  8
F.Cu
100
AcDbCircle
 10
34.
 20
-26.
 30
0
 40
0.15
  0
CIRCLE
  5
1EF
330
1B
100
AcDbEntity
  8
F.Cu
100
AcDbCircle
 10
48.
 20
-48.
 30
0
 40
0.2
  0
CIRCLE
  5
1F0
330
1B
100
AcDbEntity
  8
F.Cu
100
AcDbCircle
 10
66.
 20
-40.
 30
0
 40
0.15
  0
CIRCLE
  5
1F1
330
1B
100
AcDbEntity
  8
F.Cu
100
AcDbCircle
 10
30.
 20
-45.
 30
0
 40
0.2
  0
CIRCLE
  5
1F2
330
1B
100
AcDbEntity
  8
F.Cu
100
AcDbCircle
 10
46.
 20
-30.
 30
0
 40
0.5999989999999999
  0
CIRCLE
  5
1F3
330
1B
100
AcDbEntity
  8
F.Cu
100
AcDbCircle
 10
60.
 20
-30.
 30
0
 40
0.5
  0
CIRCLE
  5
1F4
330
1B
100
AcDbEntity
  8
F.Cu
100
AcDbCircle
 10
60.
 20
-27.4599999999999973
 30
0
 40
0.4
  0
LINE
  5
1F5
330
1B
100
AcDbEntity
  8
F.Cu
  6
CONTINUOUS
100
AcDbLine
 10
59.5999999999999943
 20
-22.6799999999999997
 30
0
 11
60.3999999999999986
 21
-22.6799999999999997
 31
0
  0
ARC
  5
1F6
330
1B
100
AcDbEntity
  8
F.Cu
100
AcDbCircle
 10
60.3999999999999986
 20
-22.379999999999999
 30
0
 40
0.3
100
AcDbArc
 50
-90.00000000
 51
90.00000000
  0
LINE
  5
1F7
330
1B
100
AcDbEntity
  8
F.Cu
  6
CONTINUOUS
100
AcDbLine
 10
60.3999999999999986
 20
-22.0799999999999983
 30
0
 11
59.5999999999999943
 21
-22.0799999999999983
 31
0
  0
ARC
  5
1F8
330
1B
100
AcDbEntity
  8
F.Cu
100
AcDbCircle
 10
59.5999999999999943
 20
-22.379999999999999
 30
0
 40
0.3
100
AcDbArc
 50
90.00000000
 51
270.00000000
  0
LINE
  5
1F9
330
1B
100
AcDbEntity
  8
F.Cu
  6
CONTINUOUS
100
AcDbLine
 10
59.8035899999999998
 20
-20.2998079999999987
 30
0
 11
60.4964099999999974
 21
-19.8998080000000002
 31
0
  0
ARC
  5
1FA
330
1B
100
AcDbEntity
  8
F.Cu
100
AcDbCircle
 10
60.3464099999999988
 20
-19.6400000000000006
 30
0
 40
0.3
100
AcDbArc
 50
-60.00000000
 51
120.00000000
  0
LINE
  5
1FB
330
1B
100
AcDbEntity
  8
F.Cu
  6
CONTINUOUS
100
AcDbLine
 10
60.1964100000000002
 20
-19.3801919999999974
 30
0
 11
59.5035899999999955
 21
-19.7801919999999996
 31
0
  0
ARC
  5
1FC
330
1B
100
AcDbEntity
  8
F.Cu
100
AcDbCircle
 10
59.6535899999999941
 20
-20.0399999999999991
 30
0
 40
0.3
100
AcDbArc
 50
120.00000000
 51
300.00000000
  0
CIRCLE
  5
1FD
330
1B
100
AcDbEntity
  8
F.Cu
100
AcDbCircle
 10
60.
 20
-24.9199999999999982
 30
0
 40
0.5
  0
ENDSEC
  0
SECTION
  2
OBJECTS
  0
DICTIONARY
  5
21
330
0
100
AcDbDictionary
281
1
  3
ACAD_GROUP
350
1FE
  3
ACAD_LAYOUT
350
22
  3
ACAD_PLOTSTYLENAME
350
11
  0
DICTIONARY
  5
1FE
330
21
100
AcDbDictionary
281
1
  0
ACDBDICTIONARYWDFLT
  5
11
330
21
100
AcDbDictionary
281
1
  3
Normal
350
10
100
AcDbDictionaryWithDefault
340
10
  0
ACDBPLACEHOLDER
  5
10
330
11
  0
DICTIONARY
  5
22
330
21
100
AcDbDictionary
281
1
  3
Model
350
1E
  3
Layout1
350
1F
  3
Layout2
350
20
  0
LAYOUT
  5
1E
330
22
100
AcDbPlotSettings
  1

  2
none_device
  4
A3
  6

 40
0.0
 41
0.0
 42
0.0
 43
0.0
 44
420.0
 45
297.0
 46
0.0
 47
0.0
 48
0.0
 49
0.0
140
0.0
141
0.0
142
1.0
143
1.0
 70
1024
 72
1
 73
0
 74
5
  7

 75
16
 76
0
 77
2
 78
300
147
1.0
148
0.0
149
0.0
100
AcDbLayout
  1
Model
 70
1
 71
0
 10
0.0
 20
0.0
 11
420.0
 21
297.0
 12
0.0
 22
0.0
 32
0.0
 14
1e+20
 24
1e+20
 34
1e+20
 15
-1e+20
 25
-1e+20
 35
-1e+20
146
0.0
 13
0.0
 23
0.0
 33
0.0
 16
1.0
 26
0.0
 36
0.0
 17
0.0
 27
1.0
 37
0.0
 76
0
330
1B
  0
LAYOUT
  5
1F
330
22
100
AcDbPlotSettings
  1

  2
none_device
  4
A3
  6

 40
0.0
 41
0.0
 42
0.0
 43
0.0
 44
420.0
 45
297.0
 46
0.0
 47
0.0
 48
0.0
 49
0.0
140
0.0
141
0.0
142
1.0
143
1.0
 70
0
 72
1
 73
0
 74
5
  7

 75
16
 76
0
 77
2
 78
300
147
1.0
148
0.0
149
0.0
100
AcDbLayout
  1
Layout1
 70
1
 71
1
 10
0.0
 20
0.0
 11
420.0
 21
297.0
 12
0.0
 22
0.0
 32
0.0
 14
1e+20
 24
1e+20
 34
1e+20
 15
-1e+20
 25
-1e+20
 35
-1e+20
146
0.0
 13
0.0
 23
0.0
 33
0.0
 16
1.0
 26
0.0
 36
0.0
 17
0.0
 27
1.0
 37
0.0
 76
0
330
1C
  0
LAYOUT
  5
20
330
22
100
AcDbPlotSettings
  1

  2
none_device
  4
A3
  6

 40
0.0
 41
0.0
 42
0.0
 43
0.0
 44
420.0
 45
297.0
 46
0.0
 47
0.0
 48
0.0
 49
0.0
140
0.0
141
0.0
142
1.0
143
1.0
 70
0
 72
1
 73
0
 74
5
  7

 75
16
 76
0
 77
2
 78
300
147
1.0
148
0.0
149
0.0
100
AcDbLayout
  1
Layout2
 70
1
 71
2
 10
0.0
 20
0.0
 11
420.0
 21
297.0
 12
0.0
 22
0.0
 32
0.0
 14
1e+20
 24
1e+20
 34
1e+20
 15
-1e+20
 25
-1e+20
 35
-1e+20
146
0.0
 13
0.0
 23
0.0
 33
0.0
 16
1.0
 26
0.0
 36
0.0
 17
0.0
 27
1.0
 37
0.0
 76
0
330
1D
  0
ENDSEC
  0
EOF
