  0
SECTION
  2
HEADER
  9
$ACADVER
  1
AC1018
  9
$HANDSEED
  5
FFFFFFFF
  9
$ANGBASE
  50
0.0
  9
$ANGDIR
  70
1
  9
$MEASUREMENT
  70
0
  9
$INSUNITS
  70
1
  0
ENDSEC
  0
SECTION
  2
TABLES
  0
TABLE
  2
APPID
  5
1
330
0
100
AcDbSymbolTable
 70
1
  0
APPID
  5
2
330
1
100
AcDbSymbolTableRecord
100
AcDbRegAppTableRecord
  2
ACAD
 70
0
  0
ENDTAB
  0
TABLE
  2
LTYPE
  5
3
330
0
100
AcDbSymbolTable
 70
6
  0
LTYPE
  5
4
330
3
100
AcDbSymbolTableRecord
100
AcDbLinetypeTableRecord
  2
ByBlock
 70
0
  3

 72
65
 73
0
 40
0
  0
LTYPE
  5
5
330
3
100
AcDbSymbolTableRecord
100
AcDbLinetypeTableRecord
  2
ByLayer
 70
0
  3

 72
65
 73
0
 40
0
  0
LTYPE
  5
6
330
3
100
AcDbSymbolTableRecord
100
AcDbLinetypeTableRecord
  2
CONTINUOUS
 70
0
  3
Solid line
 72
65
 73
0
 40
0
  0
LTYPE
  5
7
330
3
100
AcDbSymbolTableRecord
100
AcDbLinetypeTableRecord
  2
DASHDOT
 70
0
  3
Dash Dot ____ _ ____ _
 72
65
 73
4
 40
2
 49
1.25
 74
0
 49
-0.25
 74
0
 49
0.25
 74
0
 49
-0.25
 74
0
  0
LTYPE
  5
8
330
3
100
AcDbSymbolTableRecord
100
AcDbLinetypeTableRecord
  2
DASHED
 70
0
  3
Dashed __ __ __ __ __
 72
65
 73
2
 40
0.75
 49
0.5
 74
0
 49
-0.25
 74
0
  0
LTYPE
  5
9
330
3
100
AcDbSymbolTableRecord
100
AcDbLinetypeTableRecord
  2
DOTTED
 70
0
  3
Dotted .  .  .  .
 72
65
 73
2
 40
0.2
 49
0.0
 74
0
 49
-0.2
 74
0
  0
ENDTAB
  0
TABLE
  2
STYLE
  5
A
330
0
100
AcDbSymbolTable
 70
4
  0
STYLE
  5
B
330
A
100
AcDbSymbolTableRecord
100
AcDbTextStyleTableRecord
  2
KICAD
 70
0
 40
0
 41
1
 42
1
 50
0
 71
0
  3
isocp.shx
  0
STYLE
  5
C
330
A
100
AcDbSymbolTableRecord
100
AcDbTextStyleTableRecord
  2
KICADB
 70
0
 40
0
 41
1
 42
1
 50
0
 71
0
  3
isocp.shx
  0
STYLE
  5
D
330
A
100
AcDbSymbolTableRecord
100
AcDbTextStyleTableRecord
  2
KICADI
 70
0
 40
0
 41
1
 42
1
 50
15
 71
0
  3
isocp.shx
  0
STYLE
  5
E
330
A
100
AcDbSymbolTableRecord
100
AcDbTextStyleTableRecord
  2
KICADBI
 70
0
 40
0
 41
1
 42
1
 50
15
 71
0
  3
isocp.shx
  0
ENDTAB
  0
TABLE
  2
LAYER
  5
F
330
0
100
AcDbSymbolTable
 70
3
  0
LAYER
  5
12
330
F
100
AcDbSymbolTableRecord
100
AcDbLayerTableRecord
  2
0
 70
0
 62
7
  6
CONTINUOUS
390
10
  0
LAYER
  5
13
330
F
100
AcDbSymbolTableRecord
100
AcDbLayerTableRecord
  2
F.Cu
 70
0
 62
13
420
13120564
  6
CONTINUOUS
390
10
  0
LAYER
  5
14
330
F
100
AcDbSymbolTableRecord
100
AcDbLayerTableRecord
  2
Edge.Cuts
 70
0
 62
254
420
13685453
  6
CONTINUOUS
390
10
  0
ENDTAB
  0
TABLE
  2
VPORT
  5
15
330
0
100
AcDbSymbolTable
 70
0
  0
ENDTAB
  0
TABLE
  2
VIEW
  5
16
330
0
100
AcDbSymbolTable
 70
0
  0
ENDTAB
  0
TABLE
  2
UCS
  5
17
330
0
100
AcDbSymbolTable
 70
0
  0
ENDTAB
  0
TABLE
  2
DIMSTYLE
  5
18
330
0
100
AcDbSymbolTable
 70
1
100
AcDbDimStyleTable
 71
0
  0
DIMSTYLE
105
19
330
18
100
AcDbSymbolTableRecord
100
AcDbDimStyleTableRecord
  2
Standard
 70
0
  0
ENDTAB
  0
TABLE
  2
BLOCK_RECORD
  5
1A
330
0
100
AcDbSymbolTable
 70
3
  0
BLOCK_RECORD
  5
1B
330
1A
100
AcDbSymbolTableRecord
100
AcDbBlockTableRecord
  2
*Model_Space
340
1E
 70
0
280
1
281
0
  0
BLOCK_RECORD
  5
1C
330
1A
100
AcDbSymbolTableRecord
100
AcDbBlockTableRecord
  2
*Paper_Space
340
1F
 70
0
280
1
281
0
  0
BLOCK_RECORD
  5
1D
330
1A
100
AcDbSymbolTableRecord
100
AcDbBlockTableRecord
  2
*Paper_Space0
340
20
 70
0
280
1
281
0
  0
ENDTAB
  0
ENDSEC
  0
SECTION
  2
BLOCKS
  0
BLOCK
  5
24
330
1B
100
AcDbEntity
  8
0
100
AcDbBlockBegin
  2
*Model_Space
 70
0
 10
0.0
 20
0.0
 30
0.0
  3
*Model_Space
  1

  0
ENDBLK
  5
23
330
1B
100
AcDbEntity
  8
0
100
AcDbBlockEnd
  0
BLOCK
  5
26
330
1C
100
AcDbEntity
 67
1
  8
0
100
AcDbBlockBegin
  2
*Paper_Space
 70
0
 10
0.0
 20
0.0
 30
0.0
  3
*Paper_Space
  1

  0
ENDBLK
  5
25
330
1C
100
AcDbEntity
 67
1
  8
0
100
AcDbBlockEnd
  0
BLOCK
  5
28
330
1D
100
AcDbEntity
 67
1
  8
0
100
AcDbBlockBegin
  2
*Paper_Space0
 70
0
 10
0.0
 20
0.0
 30
0.0
  3
*Paper_Space0
  1

  0
ENDBLK
  5
27
330
1D
100
AcDbEntity
 67
1
  8
0
100
AcDbBlockEnd
  0
ENDSEC
  0
SECTION
  2
ENTITIES
  0
LINE
  5
29
330
1B
100
AcDbEntity
  8
F.Cu
  6
CONTINUOUS
100
AcDbLine
 10
1.8957902755905511
 20
-1.8752144881889763
 30
0
 11
1.8993505905511812
 21
-1.8772700393700787
 31
0
  0
LINE
  5
2A
330
1B
100
AcDbEntity
  8
F.Cu
  6
CONTINUOUS
100
AcDbLine
 10
1.8993505905511812
 20
-1.8772700393700787
 30
0
 11
1.9022575196850393
 21
-1.8801769685039369
 31
0
  0
LINE
  5
2B
330
1B
100
AcDbEntity
  8
F.Cu
  6
CONTINUOUS
100
AcDbLine
 10
1.9022575196850393
 20
-1.8801769685039369
 30
0
 11
1.9043130708661418
 21
-1.8837372834645669
 31
0
  0
LINE
  5
2C
330
1B
100
AcDbEntity
  8
F.Cu
  6
CONTINUOUS
100
AcDbLine
 10
1.9043130708661418
 20
-1.8837372834645669
 30
0
 11
1.9053770866141733
 21
-1.8877082677165353
 31
0
  0
LINE
  5
2D
330
1B
100
AcDbEntity
  8
F.Cu
  6
CONTINUOUS
100
AcDbLine
 10
1.9053770866141733
 20
-1.8877082677165353
 30
0
 11
1.9053770866141733
 21
-1.8918192913385827
 31
0
  0
LINE
  5
2E
330
1B
100
AcDbEntity
  8
F.Cu
  6
CONTINUOUS
100
AcDbLine
 10
1.9053770866141733
 20
-1.8918192913385827
 30
0
 11
1.9043130708661418
 21
-1.8957902755905511
 31
0
  0
LINE
  5
2F
330
1B
100
AcDbEntity
  8
F.Cu
  6
CONTINUOUS
100
AcDbLine
 10
1.9043130708661418
 20
-1.8957902755905511
 30
0
 11
1.9022575196850393
 21
-1.8993505905511812
 31
0
  0
LINE
  5
30
330
1B
100
AcDbEntity
  8
F.Cu
  6
CONTINUOUS
100
AcDbLine
 10
1.9022575196850393
 20
-1.8993505905511812
 30
0
 11
1.8993505905511812
 21
-1.9022575196850393
 31
0
  0
LINE
  5
31
330
1B
100
AcDbEntity
  8
F.Cu
  6
CONTINUOUS
100
AcDbLine
 10
1.8993505905511812
 20
-1.9022575196850393
 30
0
 11
1.8957902755905511
 21
-1.9043130708661418
 31
0
  0
LINE
  5
32
330
1B
100
AcDbEntity
  8
F.Cu
  6
CONTINUOUS
100
AcDbLine
 10
1.8957902755905511
 20
-1.9043130708661418
 30
0
 11
1.8918192913385827
 21
-1.9053770866141733
 31
0
  0
LINE
  5
33
330
1B
100
AcDbEntity
  8
F.Cu
  6
CONTINUOUS
100
AcDbLine
 10
1.8918192913385827
 20
-1.9053770866141733
 30
0
 11
1.8877082677165353
 21
-1.9053770866141733
 31
0
  0
LINE
  5
34
330
1B
100
AcDbEntity
  8
F.Cu
  6
CONTINUOUS
100
AcDbLine
 10
1.8877082677165353
 20
-1.9053770866141733
 30
0
 11
1.8837372834645669
 21
-1.9043130708661418
 31
0
  0
LINE
  5
35
330
1B
100
AcDbEntity
  8
F.Cu
  6
CONTINUOUS
100
AcDbLine
 10
1.8837372834645669
 20
-1.9043130708661418
 30
0
 11
1.8801769685039369
 21
-1.9022575196850393
 31
0
  0
LINE
  5
36
330
1B
100
AcDbEntity
  8
F.Cu
  6
CONTINUOUS
100
AcDbLine
 10
1.8801769685039369
 20
-1.9022575196850393
 30
0
 11
1.8772700393700787
 21
-1.8993505905511812
 31
0
  0
LINE
  5
37
330
1B
100
AcDbEntity
  8
F.Cu
  6
CONTINUOUS
100
AcDbLine
 10
1.8772700393700787
 20
-1.8993505905511812
 30
0
 11
1.8752144881889763
 21
-1.8957902755905511
 31
0
  0
LINE
  5
38
330
1B
100
AcDbEntity
  8
F.Cu
  6
CONTINUOUS
100
AcDbLine
 10
1.8752144881889763
 20
-1.8957902755905511
 30
0
 11
1.8741504724409448
 21
-1.8918192913385827
 31
0
  0
LINE
  5
39
330
1B
100
AcDbEntity
  8
F.Cu
  6
CONTINUOUS
100
AcDbLine
 10
1.8741504724409448
 20
-1.8918192913385827
 30
0
 11
1.8741504724409448
 21
-1.8877082677165353
 31
0
  0
LINE
  5
3A
330
1B
100
AcDbEntity
  8
F.Cu
  6
CONTINUOUS
100
AcDbLine
 10
1.8741504724409448
 20
-1.8877082677165353
 30
0
 11
1.8752144881889763
 21
-1.8837372834645669
 31
0
  0
LINE
  5
3B
330
1B
100
AcDbEntity
  8
F.Cu
  6
CONTINUOUS
100
AcDbLine
 10
1.8752144881889763
 20
-1.8837372834645669
 30
0
 11
1.8772700393700787
 21
-1.8801769685039369
 31
0
  0
LINE
  5
3C
330
1B
100
AcDbEntity
  8
F.Cu
  6
CONTINUOUS
100
AcDbLine
 10
1.8772700393700787
 20
-1.8801769685039369
 30
0
 11
1.8801769685039369
 21
-1.8772700393700787
 31
0
  0
LINE
  5
3D
330
1B
100
AcDbEntity
  8
F.Cu
  6
CONTINUOUS
100
AcDbLine
 10
1.8801769685039369
 20
-1.8772700393700787
 30
0
 11
1.8837372834645669
 21
-1.8752144881889763
 31
0
  0
LINE
  5
3E
330
1B
100
AcDbEntity
  8
F.Cu
  6
CONTINUOUS
100
AcDbLine
 10
1.8837372834645669
 20
-1.8752144881889763
 30
0
 11
1.8877082677165353
 21
-1.8741504724409448
 31
0
  0
LINE
  5
3F
330
1B
100
AcDbEntity
  8
F.Cu
  6
CONTINUOUS
100
AcDbLine
 10
1.8877082677165353
 20
-1.8741504724409448
 30
0
 11
1.8918192913385827
 21
-1.8741504724409448
 31
0
  0
LINE
  5
40
330
1B
100
AcDbEntity
  8
F.Cu
  6
CONTINUOUS
100
AcDbLine
 10
1.8918192913385827
 20
-1.8741504724409448
 30
0
 11
1.8957902755905511
 21
-1.8752144881889763
 31
0
  0
LINE
  5
41
330
1B
100
AcDbEntity
  8
F.Cu
  6
CONTINUOUS
100
AcDbLine
 10
1.1871288582677164
 20
-1.7571042519685038
 30
0
 11
1.1906891732283464
 21
-1.7591598031496063
 31
0
  0
LINE
  5
42
330
1B
100
AcDbEntity
  8
F.Cu
  6
CONTINUOUS
100
AcDbLine
 10
1.1906891732283464
 20
-1.7591598031496063
 30
0
 11
1.1935961023622046
 21
-1.7620667322834644
 31
0
  0
LINE
  5
43
330
1B
100
AcDbEntity
  8
F.Cu
  6
CONTINUOUS
100
AcDbLine
 10
1.1935961023622046
 20
-1.7620667322834644
 30
0
 11
1.195651653543307
 21
-1.7656270472440945
 31
0
  0
LINE
  5
44
330
1B
100
AcDbEntity
  8
F.Cu
  6
CONTINUOUS
100
AcDbLine
 10
1.195651653543307
 20
-1.7656270472440945
 30
0
 11
1.1967156692913385
 21
-1.7695980314960629
 31
0
  0
LINE
  5
45
330
1B
100
AcDbEntity
  8
F.Cu
  6
CONTINUOUS
100
AcDbLine
 10
1.1967156692913385
 20
-1.7695980314960629
 30
0
 11
1.1967156692913385
 21
-1.7737090551181103
 31
0
  0
LINE
  5
46
330
1B
100
AcDbEntity
  8
F.Cu
  6
CONTINUOUS
100
AcDbLine
 10
1.1967156692913385
 20
-1.7737090551181103
 30
0
 11
1.195651653543307
 21
-1.7776800393700787
 31
0
  0
LINE
  5
47
330
1B
100
AcDbEntity
  8
F.Cu
  6
CONTINUOUS
100
AcDbLine
 10
1.195651653543307
 20
-1.7776800393700787
 30
0
 11
1.1935961023622046
 21
-1.7812403543307087
 31
0
  0
LINE
  5
48
330
1B
100
AcDbEntity
  8
F.Cu
  6
CONTINUOUS
100
AcDbLine
 10
1.1935961023622046
 20
-1.7812403543307087
 30
0
 11
1.1906891732283464
 21
-1.7841472834645669
 31
0
  0
LINE
  5
49
330
1B
100
AcDbEntity
  8
F.Cu
  6
CONTINUOUS
100
AcDbLine
 10
1.1906891732283464
 20
-1.7841472834645669
 30
0
 11
1.1871288582677164
 21
-1.7862028346456693
 31
0
  0
LINE
  5
4A
330
1B
100
AcDbEntity
  8
F.Cu
  6
CONTINUOUS
100
AcDbLine
 10
1.1871288582677164
 20
-1.7862028346456693
 30
0
 11
1.183157874015748
 21
-1.7872668503937008
 31
0
  0
LINE
  5
4B
330
1B
100
AcDbEntity
  8
F.Cu
  6
CONTINUOUS
100
AcDbLine
 10
1.183157874015748
 20
-1.7872668503937008
 30
0
 11
1.1790468503937008
 21
-1.7872668503937008
 31
0
  0
LINE
  5
4C
330
1B
100
AcDbEntity
  8
F.Cu
  6
CONTINUOUS
100
AcDbLine
 10
1.1790468503937008
 20
-1.7872668503937008
 30
0
 11
1.1750758661417322
 21
-1.7862028346456693
 31
0
  0
LINE
  5
4D
330
1B
100
AcDbEntity
  8
F.Cu
  6
CONTINUOUS
100
AcDbLine
 10
1.1750758661417322
 20
-1.7862028346456693
 30
0
 11
1.1715155511811024
 21
-1.7841472834645669
 31
0
  0
LINE
  5
4E
330
1B
100
AcDbEntity
  8
F.Cu
  6
CONTINUOUS
100
AcDbLine
 10
1.1715155511811024
 20
-1.7841472834645669
 30
0
 11
1.168608622047244
 21
-1.7812403543307087
 31
0
  0
LINE
  5
4F
330
1B
100
AcDbEntity
  8
F.Cu
  6
CONTINUOUS
100
AcDbLine
 10
1.168608622047244
 20
-1.7812403543307087
 30
0
 11
1.1665530708661418
 21
-1.7776800393700787
 31
0
  0
LINE
  5
50
330
1B
100
AcDbEntity
  8
F.Cu
  6
CONTINUOUS
100
AcDbLine
 10
1.1665530708661418
 20
-1.7776800393700787
 30
0
 11
1.1654890551181103
 21
-1.7737090551181103
 31
0
  0
LINE
  5
51
330
1B
100
AcDbEntity
  8
F.Cu
  6
CONTINUOUS
100
AcDbLine
 10
1.1654890551181103
 20
-1.7737090551181103
 30
0
 11
1.1654890551181103
 21
-1.7695980314960629
 31
0
  0
LINE
  5
52
330
1B
100
AcDbEntity
  8
F.Cu
  6
CONTINUOUS
100
AcDbLine
 10
1.1654890551181103
 20
-1.7695980314960629
 30
0
 11
1.1665530708661418
 21
-1.7656270472440945
 31
0
  0
LINE
  5
53
330
1B
100
AcDbEntity
  8
F.Cu
  6
CONTINUOUS
100
AcDbLine
 10
1.1665530708661418
 20
-1.7656270472440945
 30
0
 11
1.168608622047244
 21
-1.7620667322834644
 31
0
  0
LINE
  5
54
330
1B
100
AcDbEntity
  8
F.Cu
  6
CONTINUOUS
100
AcDbLine
 10
1.168608622047244
 20
-1.7620667322834644
 30
0
 11
1.1715155511811024
 21
-1.7591598031496063
 31
0
  0
LINE
  5
55
330
1B
100
AcDbEntity
  8
F.Cu
  6
CONTINUOUS
100
AcDbLine
 10
1.1715155511811024
 20
-1.7591598031496063
 30
0
 11
1.1750758661417322
 21
-1.7571042519685038
 31
0
  0
LINE
  5
56
330
1B
100
AcDbEntity
  8
F.Cu
  6
CONTINUOUS
100
AcDbLine
 10
1.1750758661417322
 20
-1.7571042519685038
 30
0
 11
1.1790468503937008
 21
-1.7560402362204723
 31
0
  0
LINE
  5
57
330
1B
100
AcDbEntity
  8
F.Cu
  6
CONTINUOUS
100
AcDbLine
 10
1.1790468503937008
 20
-1.7560402362204723
 30
0
 11
1.183157874015748
 21
-1.7560402362204723
 31
0
  0
LINE
  5
58
330
1B
100
AcDbEntity
  8
F.Cu
  6
CONTINUOUS
100
AcDbLine
 10
1.183157874015748
 20
-1.7560402362204723
 30
0
 11
1.1871288582677164
 21
-1.7571042519685038
 31
0
  0
LINE
  5
59
330
1B
100
AcDbEntity
  8
F.Cu
  6
CONTINUOUS
100
AcDbLine
 10
1.7846167322834645
 20
-1.5695770078740157
 30
0
 11
1.7974378740157479
 21
-1.5716076771653542
 31
0
  0
LINE
  5
5A
330
1B
100
AcDbEntity
  8
F.Cu
  6
CONTINUOUS
100
AcDbLine
 10
1.7974378740157479
 20
-1.5716076771653542
 30
0
 11
1.809976496062992
 21
-1.5749674015748032
 31
0
  0
LINE
  5
5B
330
1B
100
AcDbEntity
  8
F.Cu
  6
CONTINUOUS
100
AcDbLine
 10
1.809976496062992
 20
-1.5749674015748032
 30
0
 11
1.8220952755905511
 21
-1.5796193700787402
 31
0
  0
LINE
  5
5C
330
1B
100
AcDbEntity
  8
F.Cu
  6
CONTINUOUS
100
AcDbLine
 10
1.8220952755905511
 20
-1.5796193700787402
 30
0
 11
1.8336614173228345
 21
-1.5855125984251968
 31
0
  0
LINE
  5
5D
330
1B
100
AcDbEntity
  8
F.Cu
  6
CONTINUOUS
100
AcDbLine
 10
1.8336614173228345
 20
-1.5855125984251968
 30
0
 11
1.8445481496062992
 21
-1.5925825590551181
 31
0
  0
LINE
  5
5E
330
1B
100
AcDbEntity
  8
F.Cu
  6
CONTINUOUS
100
AcDbLine
 10
1.8445481496062992
 20
-1.5925825590551181
 30
0
 11
1.8546362598425197
 21
-1.6007517322834646
 31
0
  0
LINE
  5
5F
330
1B
100
AcDbEntity
  8
F.Cu
  6
CONTINUOUS
100
AcDbLine
 10
1.8546362598425197
 20
-1.6007517322834646
 30
0
 11
1.8638151968503938
 21
-1.6099306692913387
 31
0
  0
LINE
  5
60
330
1B
100
AcDbEntity
  8
F.Cu
  6
CONTINUOUS
100
AcDbLine
 10
1.8638151968503938
 20
-1.6099306692913387
 30
0
 11
1.8719843700787402
 21
-1.6200187795275591
 31
0
  0
LINE
  5
61
330
1B
100
AcDbEntity
  8
F.Cu
  6
CONTINUOUS
100
AcDbLine
 10
1.8719843700787402
 20
-1.6200187795275591
 30
0
 11
1.8790543307086613
 21
-1.6309055118110236
 31
0
  0
LINE
  5
62
330
1B
100
AcDbEntity
  8
F.Cu
  6
CONTINUOUS
100
AcDbLine
 10
1.8790543307086613
 20
-1.6309055118110236
 30
0
 11
1.8849475590551181
 21
-1.642471653543307
 31
0
  0
LINE
  5
63
330
1B
100
AcDbEntity
  8
F.Cu
  6
CONTINUOUS
100
AcDbLine
 10
1.8849475590551181
 20
-1.642471653543307
 30
0
 11
1.8895995275590551
 21
-1.6545904330708661
 31
0
  0
LINE
  5
64
330
1B
100
AcDbEntity
  8
F.Cu
  6
CONTINUOUS
100
AcDbLine
 10
1.8895995275590551
 20
-1.6545904330708661
 30
0
 11
1.8929592519685039
 21
-1.6671290551181102
 31
0
  0
LINE
  5
65
330
1B
100
AcDbEntity
  8
F.Cu
  6
CONTINUOUS
100
AcDbLine
 10
1.8929592519685039
 20
-1.6671290551181102
 30
0
 11
1.8949899212598424
 21
-1.6799501968503936
 31
0
  0
LINE
  5
66
330
1B
100
AcDbEntity
  8
F.Cu
  6
CONTINUOUS
100
AcDbLine
 10
1.8949899212598424
 20
-1.6799501968503936
 30
0
 11
1.8956692913385826
 21
-1.6929133858267715
 31
0
  0
LINE
  5
67
330
1B
100
AcDbEntity
  8
F.Cu
  6
CONTINUOUS
100
AcDbLine
 10
1.8956692913385826
 20
-1.6929133858267715
 30
0
 11
1.8950844488188976
 21
-1.6954757086614174
 31
0
  0
LINE
  5
68
330
1B
100
AcDbEntity
  8
F.Cu
  6
CONTINUOUS
100
AcDbLine
 10
1.8950844488188976
 20
-1.6954757086614174
 30
0
 11
1.8934458267716534
 21
-1.6975305118110235
 31
0
  0
LINE
  5
69
330
1B
100
AcDbEntity
  8
F.Cu
  6
CONTINUOUS
100
AcDbLine
 10
1.8934458267716534
 20
-1.6975305118110235
 30
0
 11
1.8910778740157479
 21
-1.6986708267716535
 31
0
  0
LINE
  5
6A
330
1B
100
AcDbEntity
  8
F.Cu
  6
CONTINUOUS
100
AcDbLine
 10
1.8910778740157479
 20
-1.6986708267716535
 30
0
 11
1.8884496850393699
 21
-1.6986708267716535
 31
0
  0
LINE
  5
6B
330
1B
100
AcDbEntity
  8
F.Cu
  6
CONTINUOUS
100
AcDbLine
 10
1.8884496850393699
 20
-1.6986708267716535
 30
0
 11
1.8860817716535432
 21
-1.6975305118110235
 31
0
  0
LINE
  5
6C
330
1B
100
AcDbEntity
  8
F.Cu
  6
CONTINUOUS
100
AcDbLine
 10
1.8860817716535432
 20
-1.6975305118110235
 30
0
 11
1.8844431102362205
 21
-1.6954757086614174
 31
0
  0
LINE
  5
6D
330
1B
100
AcDbEntity
  8
F.Cu
  6
CONTINUOUS
100
AcDbLine
 10
1.8844431102362205
 20
-1.6954757086614174
 30
0
 11
1.8838582677165354
 21
-1.6929133858267715
 31
0
  0
LINE
  5
6E
330
1B
100
AcDbEntity
  8
F.Cu
  6
CONTINUOUS
100
AcDbLine
 10
1.8838582677165354
 20
-1.6929133858267715
 30
0
 11
1.8838582677165354
 21
-1.6866120866141732
 31
0
  0
LINE
  5
6F
330
1B
100
AcDbEntity
  8
F.Cu
  6
CONTINUOUS
100
AcDbLine
 10
1.8838582677165354
 20
-1.6866120866141732
 30
0
 11
1.8824472440944882
 21
-1.674088779527559
 31
0
  0
LINE
  5
70
330
1B
100
AcDbEntity
  8
F.Cu
  6
CONTINUOUS
100
AcDbLine
 10
1.8824472440944882
 20
-1.674088779527559
 30
0
 11
1.8796429133858268
 21
-1.6618022047244094
 31
0
  0
LINE
  5
71
330
1B
100
AcDbEntity
  8
F.Cu
  6
CONTINUOUS
100
AcDbLine
 10
1.8796429133858268
 20
-1.6618022047244094
 30
0
 11
1.8754805511811024
 21
-1.6499068503937007
 31
0
  0
LINE
  5
72
330
1B
100
AcDbEntity
  8
F.Cu
  6
CONTINUOUS
100
AcDbLine
 10
1.8754805511811024
 20
-1.6499068503937007
 30
0
 11
1.8700124803149605
 21
-1.6385523228346457
 31
0
  0
LINE
  5
73
330
1B
100
AcDbEntity
  8
F.Cu
  6
CONTINUOUS
100
AcDbLine
 10
1.8700124803149605
 20
-1.6385523228346457
 30
0
 11
1.8633075196850393
 21
-1.6278814173228346
 31
0
  0
LINE
  5
74
330
1B
100
AcDbEntity
  8
F.Cu
  6
CONTINUOUS
100
AcDbLine
 10
1.8633075196850393
 20
-1.6278814173228346
 30
0
 11
1.8554499212598425
 21
-1.6180283464566929
 31
0
  0
LINE
  5
75
330
1B
100
AcDbEntity
  8
F.Cu
  6
CONTINUOUS
100
AcDbLine
 10
1.8554499212598425
 20
-1.6180283464566929
 30
0
 11
1.8465385826771654
 21
-1.6091170078740158
 31
0
  0
LINE
  5
76
330
1B
100
AcDbEntity
  8
F.Cu
  6
CONTINUOUS
100
AcDbLine
 10
1.8465385826771654
 20
-1.6091170078740158
 30
0
 11
1.8366855118110237
 21
-1.6012594094488188
 31
0
  0
LINE
  5
77
330
1B
100
AcDbEntity
  8
F.Cu
  6
CONTINUOUS
100
AcDbLine
 10
1.8366855118110237
 20
-1.6012594094488188
 30
0
 11
1.8260146062992126
 21
-1.5945544488188976
 31
0
  0
LINE
  5
78
330
1B
100
AcDbEntity
  8
F.Cu
  6
CONTINUOUS
100
AcDbLine
 10
1.8260146062992126
 20
-1.5945544488188976
 30
0
 11
1.8146600787401574
 21
-1.589086377952756
 31
0
  0
LINE
  5
79
330
1B
100
AcDbEntity
  8
F.Cu
  6
CONTINUOUS
100
AcDbLine
 10
1.8146600787401574
 20
-1.589086377952756
 30
0
 11
1.8027647244094487
 21
-1.5849240157480315
 31
0
  0
LINE
  5
7A
330
1B
100
AcDbEntity
  8
F.Cu
  6
CONTINUOUS
100
AcDbLine
 10
1.8027647244094487
 20
-1.5849240157480315
 30
0
 11
1.7904781496062991
 21
-1.5821196850393699
 31
0
  0
LINE
  5
7B
330
1B
100
AcDbEntity
  8
F.Cu
  6
CONTINUOUS
100
AcDbLine
 10
1.7904781496062991
 20
-1.5821196850393699
 30
0
 11
1.7779548425196849
 21
-1.5807086614173227
 31
0
  0
LINE
  5
7C
330
1B
100
AcDbEntity
  8
F.Cu
  6
CONTINUOUS
100
AcDbLine
 10
1.7779548425196849
 20
-1.5807086614173227
 30
0
 11
1.7716535433070866
 21
-1.5807086614173227
 31
0
  0
LINE
  5
7D
330
1B
100
AcDbEntity
  8
F.Cu
  6
CONTINUOUS
100
AcDbLine
 10
1.7716535433070866
 20
-1.5807086614173227
 30
0
 11
1.7690912204724409
 21
-1.5801238188976379
 31
0
  0
LINE
  5
7E
330
1B
100
AcDbEntity
  8
F.Cu
  6
CONTINUOUS
100
AcDbLine
 10
1.7690912204724409
 20
-1.5801238188976379
 30
0
 11
1.7670364173228346
 21
-1.5784851574803149
 31
0
  0
LINE
  5
7F
330
1B
100
AcDbEntity
  8
F.Cu
  6
CONTINUOUS
100
AcDbLine
 10
1.7670364173228346
 20
-1.5784851574803149
 30
0
 11
1.7658961023622046
 21
-1.5761172440944882
 31
0
  0
LINE
  5
80
330
1B
100
AcDbEntity
  8
F.Cu
  6
CONTINUOUS
100
AcDbLine
 10
1.7658961023622046
 20
-1.5761172440944882
 30
0
 11
1.7658961023622046
 21
-1.5734890551181102
 31
0
  0
LINE
  5
81
330
1B
100
AcDbEntity
  8
F.Cu
  6
CONTINUOUS
100
AcDbLine
 10
1.7658961023622046
 20
-1.5734890551181102
 30
0
 11
1.7670364173228346
 21
-1.5711211023622047
 31
0
  0
LINE
  5
82
330
1B
100
AcDbEntity
  8
F.Cu
  6
CONTINUOUS
100
AcDbLine
 10
1.7670364173228346
 20
-1.5711211023622047
 30
0
 11
1.7690912204724409
 21
-1.5694824803149605
 31
0
  0
LINE
  5
83
330
1B
100
AcDbEntity
  8
F.Cu
  6
CONTINUOUS
100
AcDbLine
 10
1.7690912204724409
 20
-1.5694824803149605
 30
0
 11
1.7716535433070866
 21
-1.5688976377952755
 31
0
  0
LINE
  5
84
330
1B
100
AcDbEntity
  8
F.Cu
  6
CONTINUOUS
100
AcDbLine
 10
1.7716535433070866
 20
-1.5688976377952755
 30
0
 11
1.7846167322834645
 21
-1.5695770078740157
 31
0
  0
LINE
  5
85
330
1B
100
AcDbEntity
  8
F.Cu
  6
CONTINUOUS
100
AcDbLine
 10
2.6029450787401576
 20
-1.5638911811023621
 30
0
 11
2.6056152755905511
 21
-1.5654328346456692
 31
0
  0
LINE
  5
86
330
1B
100
AcDbEntity
  8
F.Cu
  6
CONTINUOUS
100
AcDbLine
 10
2.6056152755905511
 20
-1.5654328346456692
 30
0
 11
2.6077955118110236
 21
-1.5676130708661418
 31
0
  0
LINE
  5
87
330
1B
100
AcDbEntity
  8
F.Cu
  6
CONTINUOUS
100
AcDbLine
 10
2.6077955118110236
 20
-1.5676130708661418
 30
0
 11
2.6093371653543307
 21
-1.5702832677165355
 31
0
  0
LINE
  5
88
330
1B
100
AcDbEntity
  8
F.Cu
  6
CONTINUOUS
100
AcDbLine
 10
2.6093371653543307
 20
-1.5702832677165355
 30
0
 11
2.6101351574803151
 21
-1.573261496062992
 31
0
  0
LINE
  5
89
330
1B
100
AcDbEntity
  8
F.Cu
  6
CONTINUOUS
100
AcDbLine
 10
2.6101351574803151
 20
-1.573261496062992
 30
0
 11
2.6101351574803151
 21
-1.5763448031496063
 31
0
  0
LINE
  5
8A
330
1B
100
AcDbEntity
  8
F.Cu
  6
CONTINUOUS
100
AcDbLine
 10
2.6101351574803151
 20
-1.5763448031496063
 30
0
 11
2.6093371653543307
 21
-1.5793230314960629
 31
0
  0
LINE
  5
8B
330
1B
100
AcDbEntity
  8
F.Cu
  6
CONTINUOUS
100
AcDbLine
 10
2.6093371653543307
 20
-1.5793230314960629
 30
0
 11
2.6077955118110236
 21
-1.5819932283464566
 31
0
  0
LINE
  5
8C
330
1B
100
AcDbEntity
  8
F.Cu
  6
CONTINUOUS
100
AcDbLine
 10
2.6077955118110236
 20
-1.5819932283464566
 30
0
 11
2.6056152755905511
 21
-1.5841734645669292
 31
0
  0
LINE
  5
8D
330
1B
100
AcDbEntity
  8
F.Cu
  6
CONTINUOUS
100
AcDbLine
 10
2.6056152755905511
 20
-1.5841734645669292
 30
0
 11
2.6029450787401576
 21
-1.5857151181102362
 31
0
  0
LINE
  5
8E
330
1B
100
AcDbEntity
  8
F.Cu
  6
CONTINUOUS
100
AcDbLine
 10
2.6029450787401576
 20
-1.5857151181102362
 30
0
 11
2.5999668503937006
 21
-1.5865131102362204
 31
0
  0
LINE
  5
8F
330
1B
100
AcDbEntity
  8
F.Cu
  6
CONTINUOUS
100
AcDbLine
 10
2.5999668503937006
 20
-1.5865131102362204
 30
0
 11
2.5968835433070865
 21
-1.5865131102362204
 31
0
  0
LINE
  5
90
330
1B
100
AcDbEntity
  8
F.Cu
  6
CONTINUOUS
100
AcDbLine
 10
2.5968835433070865
 20
-1.5865131102362204
 30
0
 11
2.5939053149606299
 21
-1.5857151181102362
 31
0
  0
LINE
  5
91
330
1B
100
AcDbEntity
  8
F.Cu
  6
CONTINUOUS
100
AcDbLine
 10
2.5939053149606299
 20
-1.5857151181102362
 30
0
 11
2.591235118110236
 21
-1.5841734645669292
 31
0
  0
LINE
  5
92
330
1B
100
AcDbEntity
  8
F.Cu
  6
CONTINUOUS
100
AcDbLine
 10
2.591235118110236
 20
-1.5841734645669292
 30
0
 11
2.5890548818897638
 21
-1.5819932283464566
 31
0
  0
LINE
  5
93
330
1B
100
AcDbEntity
  8
F.Cu
  6
CONTINUOUS
100
AcDbLine
 10
2.5890548818897638
 20
-1.5819932283464566
 30
0
 11
2.5875132283464568
 21
-1.5793230314960629
 31
0
  0
LINE
  5
94
330
1B
100
AcDbEntity
  8
F.Cu
  6
CONTINUOUS
100
AcDbLine
 10
2.5875132283464568
 20
-1.5793230314960629
 30
0
 11
2.5867152362204724
 21
-1.5763448031496063
 31
0
  0
LINE
  5
95
330
1B
100
AcDbEntity
  8
F.Cu
  6
CONTINUOUS
100
AcDbLine
 10
2.5867152362204724
 20
-1.5763448031496063
 30
0
 11
2.5867152362204724
 21
-1.573261496062992
 31
0
  0
LINE
  5
96
330
1B
100
AcDbEntity
  8
F.Cu
  6
CONTINUOUS
100
AcDbLine
 10
2.5867152362204724
 20
-1.573261496062992
 30
0
 11
2.5875132283464568
 21
-1.5702832677165355
 31
0
  0
LINE
  5
97
330
1B
100
AcDbEntity
  8
F.Cu
  6
CONTINUOUS
100
AcDbLine
 10
2.5875132283464568
 20
-1.5702832677165355
 30
0
 11
2.5890548818897638
 21
-1.5676130708661418
 31
0
  0
LINE
  5
98
330
1B
100
AcDbEntity
  8
F.Cu
  6
CONTINUOUS
100
AcDbLine
 10
2.5890548818897638
 20
-1.5676130708661418
 30
0
 11
2.591235118110236
 21
-1.5654328346456692
 31
0
  0
LINE
  5
99
330
1B
100
AcDbEntity
  8
F.Cu
  6
CONTINUOUS
100
AcDbLine
 10
2.591235118110236
 20
-1.5654328346456692
 30
0
 11
2.5939053149606299
 21
-1.5638911811023621
 31
0
  0
LINE
  5
9A
330
1B
100
AcDbEntity
  8
F.Cu
  6
CONTINUOUS
100
AcDbLine
 10
2.5939053149606299
 20
-1.5638911811023621
 30
0
 11
2.5968835433070865
 21
-1.5630931889763779
 31
0
  0
LINE
  5
9B
330
1B
100
AcDbEntity
  8
F.Cu
  6
CONTINUOUS
100
AcDbLine
 10
2.5968835433070865
 20
-1.5630931889763779
 30
0
 11
2.5999668503937006
 21
-1.5630931889763779
 31
0
  0
LINE
  5
9C
330
1B
100
AcDbEntity
  8
F.Cu
  6
CONTINUOUS
100
AcDbLine
 10
2.5999668503937006
 20
-1.5630931889763779
 30
0
 11
2.6029450787401576
 21
-1.5638911811023621
 31
0
  0
LINE
  5
9D
330
1B
100
AcDbEntity
  8
F.Cu
  6
CONTINUOUS
100
AcDbLine
 10
1.3446091732283465
 20
-1.3082853543307087
 30
0
 11
1.3481694881889763
 21
-1.3103409055118109
 31
0
  0
LINE
  5
9E
330
1B
100
AcDbEntity
  8
F.Cu
  6
CONTINUOUS
100
AcDbLine
 10
1.3481694881889763
 20
-1.3103409055118109
 30
0
 11
1.3510764173228347
 21
-1.3132478346456693
 31
0
  0
LINE
  5
9F
330
1B
100
AcDbEntity
  8
F.Cu
  6
CONTINUOUS
100
AcDbLine
 10
1.3510764173228347
 20
-1.3132478346456693
 30
0
 11
1.3531319685039369
 21
-1.3168081496062991
 31
0
  0
LINE
  5
A0
330
1B
100
AcDbEntity
  8
F.Cu
  6
CONTINUOUS
100
AcDbLine
 10
1.3531319685039369
 20
-1.3168081496062991
 30
0
 11
1.3541959842519684
 21
-1.3207791338582677
 31
0
  0
LINE
  5
A1
330
1B
100
AcDbEntity
  8
F.Cu
  6
CONTINUOUS
100
AcDbLine
 10
1.3541959842519684
 20
-1.3207791338582677
 30
0
 11
1.3543307086614174
 21
-1.3228346456692912
 31
0
  0
LINE
  5
A2
330
1B
100
AcDbEntity
  8
F.Cu
  6
CONTINUOUS
100
AcDbLine
 10
1.3543307086614174
 20
-1.3228346456692912
 30
0
 11
1.3543307086614174
 21
-1.3543307086614174
 31
0
  0
LINE
  5
A3
330
1B
100
AcDbEntity
  8
F.Cu
  6
CONTINUOUS
100
AcDbLine
 10
1.3543307086614174
 20
-1.3543307086614174
 30
0
 11
1.3541959842519684
 21
-1.3563862204724408
 31
0
  0
LINE
  5
A4
330
1B
100
AcDbEntity
  8
F.Cu
  6
CONTINUOUS
100
AcDbLine
 10
1.3541959842519684
 20
-1.3563862204724408
 30
0
 11
1.3531319685039369
 21
-1.3603572047244095
 31
0
  0
LINE
  5
A5
330
1B
100
AcDbEntity
  8
F.Cu
  6
CONTINUOUS
100
AcDbLine
 10
1.3531319685039369
 20
-1.3603572047244095
 30
0
 11
1.3510764173228347
 21
-1.3639175196850393
 31
0
  0
LINE
  5
A6
330
1B
100
AcDbEntity
  8
F.Cu
  6
CONTINUOUS
100
AcDbLine
 10
1.3510764173228347
 20
-1.3639175196850393
 30
0
 11
1.3481694881889763
 21
-1.3668244488188976
 31
0
  0
LINE
  5
A7
330
1B
100
AcDbEntity
  8
F.Cu
  6
CONTINUOUS
100
AcDbLine
 10
1.3481694881889763
 20
-1.3668244488188976
 30
0
 11
1.3446091732283465
 21
-1.3688799999999999
 31
0
  0
LINE
  5
A8
330
1B
100
AcDbEntity
  8
F.Cu
  6
CONTINUOUS
100
AcDbLine
 10
1.3446091732283465
 20
-1.3688799999999999
 30
0
 11
1.3406381889763779
 21
-1.3699440157480314
 31
0
  0
LINE
  5
A9
330
1B
100
AcDbEntity
  8
F.Cu
  6
CONTINUOUS
100
AcDbLine
 10
1.3406381889763779
 20
-1.3699440157480314
 30
0
 11
1.3365271653543307
 21
-1.3699440157480314
 31
0
  0
LINE
  5
AA
330
1B
100
AcDbEntity
  8
F.Cu
  6
CONTINUOUS
100
AcDbLine
 10
1.3365271653543307
 20
-1.3699440157480314
 30
0
 11
1.3325561811023621
 21
-1.3688799999999999
 31
0
  0
LINE
  5
AB
330
1B
100
AcDbEntity
  8
F.Cu
  6
CONTINUOUS
100
AcDbLine
 10
1.3325561811023621
 20
-1.3688799999999999
 30
0
 11
1.3289958661417323
 21
-1.3668244488188976
 31
0
  0
LINE
  5
AC
330
1B
100
AcDbEntity
  8
F.Cu
  6
CONTINUOUS
100
AcDbLine
 10
1.3289958661417323
 20
-1.3668244488188976
 30
0
 11
1.3260889370078739
 21
-1.3639175196850393
 31
0
  0
LINE
  5
AD
330
1B
100
AcDbEntity
  8
F.Cu
  6
CONTINUOUS
100
AcDbLine
 10
1.3260889370078739
 20
-1.3639175196850393
 30
0
 11
1.3240333858267717
 21
-1.3603572047244095
 31
0
  0
LINE
  5
AE
330
1B
100
AcDbEntity
  8
F.Cu
  6
CONTINUOUS
100
AcDbLine
 10
1.3240333858267717
 20
-1.3603572047244095
 30
0
 11
1.3229693700787402
 21
-1.3563862204724408
 31
0
  0
LINE
  5
AF
330
1B
100
AcDbEntity
  8
F.Cu
  6
CONTINUOUS
100
AcDbLine
 10
1.3229693700787402
 20
-1.3563862204724408
 30
0
 11
1.3228346456692912
 21
-1.3543307086614174
 31
0
  0
LINE
  5
B0
330
1B
100
AcDbEntity
  8
F.Cu
  6
CONTINUOUS
100
AcDbLine
 10
1.3228346456692912
 20
-1.3543307086614174
 30
0
 11
1.3228346456692912
 21
-1.3228346456692912
 31
0
  0
LINE
  5
B1
330
1B
100
AcDbEntity
  8
F.Cu
  6
CONTINUOUS
100
AcDbLine
 10
1.3228346456692912
 20
-1.3228346456692912
 30
0
 11
1.3229693700787402
 21
-1.3207791338582677
 31
0
  0
LINE
  5
B2
330
1B
100
AcDbEntity
  8
F.Cu
  6
CONTINUOUS
100
AcDbLine
 10
1.3229693700787402
 20
-1.3207791338582677
 30
0
 11
1.3240333858267717
 21
-1.3168081496062991
 31
0
  0
LINE
  5
B3
330
1B
100
AcDbEntity
  8
F.Cu
  6
CONTINUOUS
100
AcDbLine
 10
1.3240333858267717
 20
-1.3168081496062991
 30
0
 11
1.3260889370078739
 21
-1.3132478346456693
 31
0
  0
LINE
  5
B4
330
1B
100
AcDbEntity
  8
F.Cu
  6
CONTINUOUS
100
AcDbLine
 10
1.3260889370078739
 20
-1.3132478346456693
 30
0
 11
1.3289958661417323
 21
-1.3103409055118109
 31
0
  0
LINE
  5
B5
330
1B
100
AcDbEntity
  8
F.Cu
  6
CONTINUOUS
100
AcDbLine
 10
1.3289958661417323
 20
-1.3103409055118109
 30
0
 11
1.3325561811023621
 21
-1.3082853543307087
 31
0
  0
LINE
  5
B6
330
1B
100
AcDbEntity
  8
F.Cu
  6
CONTINUOUS
100
AcDbLine
 10
1.3325561811023621
 20
-1.3082853543307087
 30
0
 11
1.3365271653543307
 21
-1.3072213385826772
 31
0
  0
LINE
  5
B7
330
1B
100
AcDbEntity
  8
F.Cu
  6
CONTINUOUS
100
AcDbLine
 10
1.3365271653543307
 20
-1.3072213385826772
 30
0
 11
1.3406381889763779
 21
-1.3072213385826772
 31
0
  0
LINE
  5
B8
330
1B
100
AcDbEntity
  8
F.Cu
  6
CONTINUOUS
100
AcDbLine
 10
1.3406381889763779
 20
-1.3072213385826772
 30
0
 11
1.3446091732283465
 21
-1.3082853543307087
 31
0
  0
LINE
  5
B9
330
1B
100
AcDbEntity
  8
F.Cu
  6
CONTINUOUS
100
AcDbLine
 10
1.8308346062992125
 20
-1.3122103149606299
 30
0
 11
1.8358259055118109
 21
-1.3142777559055119
 31
0
  0
LINE
  5
BA
330
1B
100
AcDbEntity
  8
F.Cu
  6
CONTINUOUS
100
AcDbLine
 10
1.8358259055118109
 20
-1.3142777559055119
 30
0
 11
1.8403179133858267
 21
-1.3172792519685039
 31
0
  0
LINE
  5
BB
330
1B
100
AcDbEntity
  8
F.Cu
  6
CONTINUOUS
100
AcDbLine
 10
1.8403179133858267
 20
-1.3172792519685039
 30
0
 11
1.8441380708661417
 21
-1.3210994094488189
 31
0
  0
LINE
  5
BC
330
1B
100
AcDbEntity
  8
F.Cu
  6
CONTINUOUS
100
AcDbLine
 10
1.8441380708661417
 20
-1.3210994094488189
 30
0
 11
1.8471395669291337
 21
-1.3255914173228347
 31
0
  0
LINE
  5
BD
330
1B
100
AcDbEntity
  8
F.Cu
  6
CONTINUOUS
100
AcDbLine
 10
1.8471395669291337
 20
-1.3255914173228347
 30
0
 11
1.8492070078740157
 21
-1.3305827165354331
 31
0
  0
LINE
  5
BE
330
1B
100
AcDbEntity
  8
F.Cu
  6
CONTINUOUS
100
AcDbLine
 10
1.8492070078740157
 20
-1.3305827165354331
 30
0
 11
1.8502609842519684
 21
-1.3358814173228346
 31
0
  0
LINE
  5
BF
330
1B
100
AcDbEntity
  8
F.Cu
  6
CONTINUOUS
100
AcDbLine
 10
1.8502609842519684
 20
-1.3358814173228346
 30
0
 11
1.8502609842519684
 21
-1.341283937007874
 31
0
  0
LINE
  5
C0
330
1B
100
AcDbEntity
  8
F.Cu
  6
CONTINUOUS
100
AcDbLine
 10
1.8502609842519684
 20
-1.341283937007874
 30
0
 11
1.8492070078740157
 21
-1.3465826377952756
 31
0
  0
LINE
  5
C1
330
1B
100
AcDbEntity
  8
F.Cu
  6
CONTINUOUS
100
AcDbLine
 10
1.8492070078740157
 20
-1.3465826377952756
 30
0
 11
1.8471395669291337
 21
-1.3515739370078741
 31
0
  0
LINE
  5
C2
330
1B
100
AcDbEntity
  8
F.Cu
  6
CONTINUOUS
100
AcDbLine
 10
1.8471395669291337
 20
-1.3515739370078741
 30
0
 11
1.8441380708661417
 21
-1.3560659448818897
 31
0
  0
LINE
  5
C3
330
1B
100
AcDbEntity
  8
F.Cu
  6
CONTINUOUS
100
AcDbLine
 10
1.8441380708661417
 20
-1.3560659448818897
 30
0
 11
1.8403179133858267
 21
-1.3598861023622046
 31
0
  0
LINE
  5
C4
330
1B
100
AcDbEntity
  8
F.Cu
  6
CONTINUOUS
100
AcDbLine
 10
1.8403179133858267
 20
-1.3598861023622046
 30
0
 11
1.8358259055118109
 21
-1.3628875984251969
 31
0
  0
LINE
  5
C5
330
1B
100
AcDbEntity
  8
F.Cu
  6
CONTINUOUS
100
AcDbLine
 10
1.8358259055118109
 20
-1.3628875984251969
 30
0
 11
1.8308346062992125
 21
-1.3649550393700787
 31
0
  0
LINE
  5
C6
330
1B
100
AcDbEntity
  8
F.Cu
  6
CONTINUOUS
100
AcDbLine
 10
1.8308346062992125
 20
-1.3649550393700787
 30
0
 11
1.825535905511811
 21
-1.3660090157480316
 31
0
  0
LINE
  5
C7
330
1B
100
AcDbEntity
  8
F.Cu
  6
CONTINUOUS
100
AcDbLine
 10
1.825535905511811
 20
-1.3660090157480316
 30
0
 11
1.8201333858267716
 21
-1.3660090157480316
 31
0
  0
LINE
  5
C8
330
1B
100
AcDbEntity
  8
F.Cu
  6
CONTINUOUS
100
AcDbLine
 10
1.8201333858267716
 20
-1.3660090157480316
 30
0
 11
1.81483468503937
 21
-1.3649550393700787
 31
0
  0
LINE
  5
C9
330
1B
100
AcDbEntity
  8
F.Cu
  6
CONTINUOUS
100
AcDbLine
 10
1.81483468503937
 20
-1.3649550393700787
 30
0
 11
1.8098433858267715
 21
-1.3628875984251969
 31
0
  0
LINE
  5
CA
330
1B
100
AcDbEntity
  8
F.Cu
  6
CONTINUOUS
100
AcDbLine
 10
1.8098433858267715
 20
-1.3628875984251969
 30
0
 11
1.8053513779527559
 21
-1.3598861023622046
 31
0
  0
LINE
  5
CB
330
1B
100
AcDbEntity
  8
F.Cu
  6
CONTINUOUS
100
AcDbLine
 10
1.8053513779527559
 20
-1.3598861023622046
 30
0
 11
1.801531220472441
 21
-1.3560659448818897
 31
0
  0
LINE
  5
CC
330
1B
100
AcDbEntity
  8
F.Cu
  6
CONTINUOUS
100
AcDbLine
 10
1.801531220472441
 20
-1.3560659448818897
 30
0
 11
1.7985297244094487
 21
-1.3515739370078741
 31
0
  0
LINE
  5
CD
330
1B
100
AcDbEntity
  8
F.Cu
  6
CONTINUOUS
100
AcDbLine
 10
1.7985297244094487
 20
-1.3515739370078741
 30
0
 11
1.7964622834645669
 21
-1.3465826377952756
 31
0
  0
LINE
  5
CE
330
1B
100
AcDbEntity
  8
F.Cu
  6
CONTINUOUS
100
AcDbLine
 10
1.7964622834645669
 20
-1.3465826377952756
 30
0
 11
1.795408307086614
 21
-1.341283937007874
 31
0
  0
LINE
  5
CF
330
1B
100
AcDbEntity
  8
F.Cu
  6
CONTINUOUS
100
AcDbLine
 10
1.795408307086614
 20
-1.341283937007874
 30
0
 11
1.795408307086614
 21
-1.3358814173228346
 31
0
  0
LINE
  5
D0
330
1B
100
AcDbEntity
  8
F.Cu
  6
CONTINUOUS
100
AcDbLine
 10
1.795408307086614
 20
-1.3358814173228346
 30
0
 11
1.7964622834645669
 21
-1.3305827165354331
 31
0
  0
LINE
  5
D1
330
1B
100
AcDbEntity
  8
F.Cu
  6
CONTINUOUS
100
AcDbLine
 10
1.7964622834645669
 20
-1.3305827165354331
 30
0
 11
1.7985297244094487
 21
-1.3255914173228347
 31
0
  0
LINE
  5
D2
330
1B
100
AcDbEntity
  8
F.Cu
  6
CONTINUOUS
100
AcDbLine
 10
1.7985297244094487
 20
-1.3255914173228347
 30
0
 11
1.801531220472441
 21
-1.3210994094488189
 31
0
  0
LINE
  5
D3
330
1B
100
AcDbEntity
  8
F.Cu
  6
CONTINUOUS
100
AcDbLine
 10
1.801531220472441
 20
-1.3210994094488189
 30
0
 11
1.8053513779527559
 21
-1.3172792519685039
 31
0
  0
LINE
  5
D4
330
1B
100
AcDbEntity
  8
F.Cu
  6
CONTINUOUS
100
AcDbLine
 10
1.8053513779527559
 20
-1.3172792519685039
 30
0
 11
1.8098433858267715
 21
-1.3142777559055119
 31
0
  0
LINE
  5
D5
330
1B
100
AcDbEntity
  8
F.Cu
  6
CONTINUOUS
100
AcDbLine
 10
1.8098433858267715
 20
-1.3142777559055119
 30
0
 11
1.81483468503937
 21
-1.3122103149606299
 31
0
  0
LINE
  5
D6
330
1B
100
AcDbEntity
  8
F.Cu
  6
CONTINUOUS
100
AcDbLine
 10
1.81483468503937
 20
-1.3122103149606299
 30
0
 11
1.8201333858267716
 21
-1.3111563385826772
 31
0
  0
LINE
  5
D7
330
1B
100
AcDbEntity
  8
F.Cu
  6
CONTINUOUS
100
AcDbLine
 10
1.8201333858267716
 20
-1.3111563385826772
 30
0
 11
1.825535905511811
 21
-1.3111563385826772
 31
0
  0
LINE
  5
D8
330
1B
100
AcDbEntity
  8
F.Cu
  6
CONTINUOUS
100
AcDbLine
 10
1.825535905511811
 20
-1.3111563385826772
 30
0
 11
1.8308346062992125
 21
-1.3122103149606299
 31
0
  0
LINE
  5
D9
330
1B
100
AcDbEntity
  8
F.Cu
  6
CONTINUOUS
100
AcDbLine
 10
1.7190613385826772
 20
-1.3029018503937007
 30
0
 11
1.7372375196850394
 21
-1.3129921259842519
 31
0
  0
LINE
  5
DA
330
1B
100
AcDbEntity
  8
F.Cu
  6
CONTINUOUS
100
AcDbLine
 10
1.7372375196850394
 20
-1.3129921259842519
 30
0
 11
1.7309458661417323
 21
-1.3257167322834644
 31
0
  0
LINE
  5
DB
330
1B
100
AcDbEntity
  8
F.Cu
  6
CONTINUOUS
100
AcDbLine
 10
1.7309458661417323
 20
-1.3257167322834644
 30
0
 11
1.7137836614173227
 21
-1.3475270866141733
 31
0
  0
LINE
  5
DC
330
1B
100
AcDbEntity
  8
F.Cu
  6
CONTINUOUS
100
AcDbLine
 10
1.7137836614173227
 20
-1.3475270866141733
 30
0
 11
1.7133706692913386
 21
-1.3503937007874016
 31
0
  0
LINE
  5
DD
330
1B
100
AcDbEntity
  8
F.Cu
  6
CONTINUOUS
100
AcDbLine
 10
1.7133706692913386
 20
-1.3503937007874016
 30
0
 11
1.700118622047244
 21
-1.3654729527559055
 31
0
  0
LINE
  5
DE
330
1B
100
AcDbEntity
  8
F.Cu
  6
CONTINUOUS
100
AcDbLine
 10
1.700118622047244
 20
-1.3654729527559055
 30
0
 11
1.6947945669291338
 21
-1.362399094488189
 31
0
  0
LINE
  5
DF
330
1B
100
AcDbEntity
  8
F.Cu
  6
CONTINUOUS
100
AcDbLine
 10
1.6947945669291338
 20
-1.362399094488189
 30
0
 11
1.6857081496062991
 21
-1.3654729527559055
 31
0
  0
LINE
  5
E0
330
1B
100
AcDbEntity
  8
F.Cu
  6
CONTINUOUS
100
AcDbLine
 10
1.6857081496062991
 20
-1.3654729527559055
 30
0
 11
1.6785029133858267
 21
-1.3529931102362205
 31
0
  0
LINE
  5
E1
330
1B
100
AcDbEntity
  8
F.Cu
  6
CONTINUOUS
100
AcDbLine
 10
1.6785029133858267
 20
-1.3529931102362205
 30
0
 11
1.6660231102362204
 21
-1.3457879133858268
 31
0
  0
LINE
  5
E2
330
1B
100
AcDbEntity
  8
F.Cu
  6
CONTINUOUS
100
AcDbLine
 10
1.6660231102362204
 20
-1.3457879133858268
 30
0
 11
1.6701830314960631
 21
-1.3385826771653544
 31
0
  0
LINE
  5
E3
330
1B
100
AcDbEntity
  8
F.Cu
  6
CONTINUOUS
100
AcDbLine
 10
1.6701830314960631
 20
-1.3385826771653544
 30
0
 11
1.6660231102362204
 21
-1.3313774409448818
 31
0
  0
LINE
  5
E4
330
1B
100
AcDbEntity
  8
F.Cu
  6
CONTINUOUS
100
AcDbLine
 10
1.6660231102362204
 20
-1.3313774409448818
 30
0
 11
1.6785029133858267
 21
-1.3241721653543306
 31
0
  0
LINE
  5
E5
330
1B
100
AcDbEntity
  8
F.Cu
  6
CONTINUOUS
100
AcDbLine
 10
1.6785029133858267
 20
-1.3241721653543306
 30
0
 11
1.6955506692913385
 21
-1.29464468503937
 31
0
  0
LINE
  5
E6
330
1B
100
AcDbEntity
  8
F.Cu
  6
CONTINUOUS
100
AcDbLine
 10
1.6955506692913385
 20
-1.29464468503937
 30
0
 11
1.7185039370078741
 21
-1.2942585433070866
 31
0
  0
LINE
  5
E7
330
1B
100
AcDbEntity
  8
F.Cu
  6
CONTINUOUS
100
AcDbLine
 10
1.7185039370078741
 20
-1.2942585433070866
 30
0
 11
1.7190613385826772
 21
-1.3029018503937007
 31
0
  0
LINE
  5
E8
330
1B
100
AcDbEntity
  8
F.Cu
  6
CONTINUOUS
100
AcDbLine
 10
1.4724409448818898
 20
-1.3622047244094488
 30
0
 11
1.4409448818897637
 21
-1.3622047244094488
 31
0
  0
LINE
  5
E9
330
1B
100
AcDbEntity
  8
F.Cu
  6
CONTINUOUS
100
AcDbLine
 10
1.4409448818897637
 20
-1.3622047244094488
 30
0
 11
1.4409448818897637
 21
-1.3149606299212597
 31
0
  0
LINE
  5
EA
330
1B
100
AcDbEntity
  8
F.Cu
  6
CONTINUOUS
100
AcDbLine
 10
1.4409448818897637
 20
-1.3149606299212597
 30
0
 11
1.4724409448818898
 21
-1.3149606299212597
 31
0
  0
LINE
  5
EB
330
1B
100
AcDbEntity
  8
F.Cu
  6
CONTINUOUS
100
AcDbLine
 10
1.4724409448818898
 20
-1.3149606299212597
 30
0
 11
1.4724409448818898
 21
-1.3622047244094488
 31
0
  0
LINE
  5
EC
330
1B
100
AcDbEntity
  8
F.Cu
  6
CONTINUOUS
100
AcDbLine
 10
1.6043307086614174
 20
-1.3287401574803148
 30
0
 11
1.6043307086614174
 21
-1.3484251968503937
 31
0
  0
LINE
  5
ED
330
1B
100
AcDbEntity
  8
F.Cu
  6
CONTINUOUS
100
AcDbLine
 10
1.6043307086614174
 20
-1.3484251968503937
 30
0
 11
1.594488188976378
 21
-1.3582677165354331
 31
0
  0
LINE
  5
EE
330
1B
100
AcDbEntity
  8
F.Cu
  6
CONTINUOUS
100
AcDbLine
 10
1.594488188976378
 20
-1.3582677165354331
 30
0
 11
1.5551181102362204
 21
-1.3582677165354331
 31
0
  0
LINE
  5
EF
330
1B
100
AcDbEntity
  8
F.Cu
  6
CONTINUOUS
100
AcDbLine
 10
1.5551181102362204
 20
-1.3582677165354331
 30
0
 11
1.545275590551181
 21
-1.3484251968503937
 31
0
  0
LINE
  5
F0
330
1B
100
AcDbEntity
  8
F.Cu
  6
CONTINUOUS
100
AcDbLine
 10
1.545275590551181
 20
-1.3484251968503937
 30
0
 11
1.545275590551181
 21
-1.3287401574803148
 31
0
  0
LINE
  5
F1
330
1B
100
AcDbEntity
  8
F.Cu
  6
CONTINUOUS
100
AcDbLine
 10
1.545275590551181
 20
-1.3287401574803148
 30
0
 11
1.5551181102362204
 21
-1.3188976377952755
 31
0
  0
LINE
  5
F2
330
1B
100
AcDbEntity
  8
F.Cu
  6
CONTINUOUS
100
AcDbLine
 10
1.5551181102362204
 20
-1.3188976377952755
 30
0
 11
1.594488188976378
 21
-1.3188976377952755
 31
0
  0
LINE
  5
F3
330
1B
100
AcDbEntity
  8
F.Cu
  6
CONTINUOUS
100
AcDbLine
 10
1.594488188976378
 20
-1.3188976377952755
 30
0
 11
1.6043307086614174
 21
-1.3287401574803148
 31
0
  0
LINE
  5
F4
330
1B
100
AcDbEntity
  8
F.Cu
  6
CONTINUOUS
100
AcDbLine
 10
2.3956692913385824
 20
-1.2145669291338583
 30
0
 11
2.3287401574803148
 21
-1.2145669291338583
 31
0
  0
LINE
  5
F5
330
1B
100
AcDbEntity
  8
F.Cu
  6
CONTINUOUS
100
AcDbLine
 10
2.3287401574803148
 20
-1.2145669291338583
 30
0
 11
2.3287401574803148
 21
-1.1476377952755905
 31
0
  0
LINE
  5
F6
330
1B
100
AcDbEntity
  8
F.Cu
  6
CONTINUOUS
100
AcDbLine
 10
2.3287401574803148
 20
-1.1476377952755905
 30
0
 11
2.3956692913385824
 21
-1.1476377952755905
 31
0
  0
LINE
  5
F7
330
1B
100
AcDbEntity
  8
F.Cu
  6
CONTINUOUS
100
AcDbLine
 10
2.3956692913385824
 20
-1.1476377952755905
 30
0
 11
2.3956692913385824
 21
-1.2145669291338583
 31
0
  0
LINE
  5
F8
330
1B
100
AcDbEntity
  8
F.Cu
  6
CONTINUOUS
100
AcDbLine
 10
1.4804001181102362
 20
-1.1599046062992127
 30
0
 11
1.4884793700787402
 21
-1.1821020866141732
 31
0
  0
LINE
  5
F9
330
1B
100
AcDbEntity
  8
F.Cu
  6
CONTINUOUS
100
AcDbLine
 10
1.4884793700787402
 20
-1.1821020866141732
 30
0
 11
1.4889467322834646
 21
-1.185138622047244
 31
0
  0
LINE
  5
FA
330
1B
100
AcDbEntity
  8
F.Cu
  6
CONTINUOUS
100
AcDbLine
 10
1.4889467322834646
 20
-1.185138622047244
 30
0
 11
1.4882164566929132
 21
-1.1881228346456694
 31
0
  0
LINE
  5
FB
330
1B
100
AcDbEntity
  8
F.Cu
  6
CONTINUOUS
100
AcDbLine
 10
1.4882164566929132
 20
-1.1881228346456694
 30
0
 11
1.4863998031496062
 21
-1.1906004724409449
 31
0
  0
LINE
  5
FC
330
1B
100
AcDbEntity
  8
F.Cu
  6
CONTINUOUS
100
AcDbLine
 10
1.4863998031496062
 20
-1.1906004724409449
 30
0
 11
1.4837732677165354
 21
-1.1921942913385826
 31
0
  0
LINE
  5
FD
330
1B
100
AcDbEntity
  8
F.Cu
  6
CONTINUOUS
100
AcDbLine
 10
1.4837732677165354
 20
-1.1921942913385826
 30
0
 11
1.4430779133858267
 21
-1.2070061811023622
 31
0
  0
LINE
  5
FE
330
1B
100
AcDbEntity
  8
F.Cu
  6
CONTINUOUS
100
AcDbLine
 10
1.4430779133858267
 20
-1.2070061811023622
 30
0
 11
1.4400413779527559
 21
-1.2074735826771654
 31
0
  0
LINE
  5
FF
330
1B
100
AcDbEntity
  8
F.Cu
  6
CONTINUOUS
100
AcDbLine
 10
1.4400413779527559
 20
-1.2074735826771654
 30
0
 11
1.4370571653543307
 21
-1.206743307086614
 31
0
  0
LINE
  5
100
330
1B
100
AcDbEntity
  8
F.Cu
  6
CONTINUOUS
100
AcDbLine
 10
1.4370571653543307
 20
-1.206743307086614
 30
0
 11
1.4345795275590552
 21
-1.204926653543307
 31
0
  0
LINE
  5
101
330
1B
100
AcDbEntity
  8
F.Cu
  6
CONTINUOUS
100
AcDbLine
 10
1.4345795275590552
 20
-1.204926653543307
 30
0
 11
1.4329857086614173
 21
-1.2023001181102362
 31
0
  0
LINE
  5
102
330
1B
100
AcDbEntity
  8
F.Cu
  6
CONTINUOUS
100
AcDbLine
 10
1.4329857086614173
 20
-1.2023001181102362
 30
0
 11
1.4249064566929133
 21
-1.1801026377952755
 31
0
  0
LINE
  5
103
330
1B
100
AcDbEntity
  8
F.Cu
  6
CONTINUOUS
100
AcDbLine
 10
1.4249064566929133
 20
-1.1801026377952755
 30
0
 11
1.4244390944881888
 21
-1.1770661023622047
 31
0
  0
LINE
  5
104
330
1B
100
AcDbEntity
  8
F.Cu
  6
CONTINUOUS
100
AcDbLine
 10
1.4244390944881888
 20
-1.1770661023622047
 30
0
 11
1.4251693700787402
 21
-1.1740818897637795
 31
0
  0
LINE
  5
105
330
1B
100
AcDbEntity
  8
F.Cu
  6
CONTINUOUS
100
AcDbLine
 10
1.4251693700787402
 20
-1.1740818897637795
 30
0
 11
1.4269860236220473
 21
-1.1716042519685039
 31
0
  0
LINE
  5
106
330
1B
100
AcDbEntity
  8
F.Cu
  6
CONTINUOUS
100
AcDbLine
 10
1.4269860236220473
 20
-1.1716042519685039
 30
0
 11
1.4296125590551181
 21
-1.1700104330708661
 31
0
  0
LINE
  5
107
330
1B
100
AcDbEntity
  8
F.Cu
  6
CONTINUOUS
100
AcDbLine
 10
1.4296125590551181
 20
-1.1700104330708661
 30
0
 11
1.4703079133858268
 21
-1.1551985433070866
 31
0
  0
LINE
  5
108
330
1B
100
AcDbEntity
  8
F.Cu
  6
CONTINUOUS
100
AcDbLine
 10
1.4703079133858268
 20
-1.1551985433070866
 30
0
 11
1.4804001181102362
 21
-1.1599046062992127
 31
0
  0
LINE
  5
109
330
1B
100
AcDbEntity
  8
F.Cu
  6
CONTINUOUS
100
AcDbLine
 10
1.6259842519685039
 20
-1.1811023622047243
 30
0
 11
1.6141732283464567
 21
-1.1889763779527558
 31
0
  0
LINE
  5
10A
330
1B
100
AcDbEntity
  8
F.Cu
  6
CONTINUOUS
100
AcDbLine
 10
1.6141732283464567
 20
-1.1889763779527558
 30
0
 11
1.5748031496062991
 21
-1.204724409448819
 31
0
  0
LINE
  5
10B
330
1B
100
AcDbEntity
  8
F.Cu
  6
CONTINUOUS
100
AcDbLine
 10
1.5748031496062991
 20
-1.204724409448819
 30
0
 11
1.5551181102362204
 21
-1.200787401574803
 31
0
  0
LINE
  5
10C
330
1B
100
AcDbEntity
  8
F.Cu
  6
CONTINUOUS
100
AcDbLine
 10
1.5551181102362204
 20
-1.200787401574803
 30
0
 11
1.5551181102362204
 21
-1.1614173228346456
 31
0
  0
LINE
  5
10D
330
1B
100
AcDbEntity
  8
F.Cu
  6
CONTINUOUS
100
AcDbLine
 10
1.5551181102362204
 20
-1.1614173228346456
 30
0
 11
1.6141732283464567
 21
-1.1614173228346456
 31
0
  0
LINE
  5
10E
330
1B
100
AcDbEntity
  8
F.Cu
  6
CONTINUOUS
100
AcDbLine
 10
1.6141732283464567
 20
-1.1614173228346456
 30
0
 11
1.6259842519685039
 21
-1.1811023622047243
 31
0
  0
LINE
  5
10F
330
1B
100
AcDbEntity
  8
F.Cu
  6
CONTINUOUS
100
AcDbLine
 10
1.3681102362204725
 20
-1.1929133858267715
 30
0
 11
1.360236220472441
 21
-1.200787401574803
 31
0
  0
LINE
  5
110
330
1B
100
AcDbEntity
  8
F.Cu
  6
CONTINUOUS
100
AcDbLine
 10
1.360236220472441
 20
-1.200787401574803
 30
0
 11
1.3090551181102361
 21
-1.200787401574803
 31
0
  0
LINE
  5
111
330
1B
100
AcDbEntity
  8
F.Cu
  6
CONTINUOUS
100
AcDbLine
 10
1.3090551181102361
 20
-1.200787401574803
 30
0
 11
1.3090551181102361
 21
-1.1692913385826771
 31
0
  0
LINE
  5
112
330
1B
100
AcDbEntity
  8
F.Cu
  6
CONTINUOUS
100
AcDbLine
 10
1.3090551181102361
 20
-1.1692913385826771
 30
0
 11
1.3169291338582676
 21
-1.1614173228346456
 31
0
  0
LINE
  5
113
330
1B
100
AcDbEntity
  8
F.Cu
  6
CONTINUOUS
100
AcDbLine
 10
1.3169291338582676
 20
-1.1614173228346456
 30
0
 11
1.3681102362204725
 21
-1.1614173228346456
 31
0
  0
LINE
  5
114
330
1B
100
AcDbEntity
  8
F.Cu
  6
CONTINUOUS
100
AcDbLine
 10
1.3681102362204725
 20
-1.1614173228346456
 30
0
 11
1.3681102362204725
 21
-1.1929133858267715
 31
0
  0
LINE
  5
115
330
1B
100
AcDbEntity
  8
F.Cu
  6
CONTINUOUS
100
AcDbLine
 10
1.7004465354330709
 20
-1.162915748031496
 30
0
 11
1.7048968897637795
 21
-1.1654851574803149
 31
0
  0
LINE
  5
116
330
1B
100
AcDbEntity
  8
F.Cu
  6
CONTINUOUS
100
AcDbLine
 10
1.7048968897637795
 20
-1.1654851574803149
 30
0
 11
1.7085305905511812
 21
-1.1691188582677166
 31
0
  0
LINE
  5
117
330
1B
100
AcDbEntity
  8
F.Cu
  6
CONTINUOUS
100
AcDbLine
 10
1.7085305905511812
 20
-1.1691188582677166
 30
0
 11
1.7111000000000001
 21
-1.1735692125984252
 31
0
  0
LINE
  5
118
330
1B
100
AcDbEntity
  8
F.Cu
  6
CONTINUOUS
100
AcDbLine
 10
1.7111000000000001
 20
-1.1735692125984252
 30
0
 11
1.7124299999999999
 21
-1.1785329527559054
 31
0
  0
LINE
  5
119
330
1B
100
AcDbEntity
  8
F.Cu
  6
CONTINUOUS
100
AcDbLine
 10
1.7124299999999999
 20
-1.1785329527559054
 30
0
 11
1.7124299999999999
 21
-1.1836717716535432
 31
0
  0
LINE
  5
11A
330
1B
100
AcDbEntity
  8
F.Cu
  6
CONTINUOUS
100
AcDbLine
 10
1.7124299999999999
 20
-1.1836717716535432
 30
0
 11
1.7111000000000001
 21
-1.1886355118110237
 31
0
  0
LINE
  5
11B
330
1B
100
AcDbEntity
  8
F.Cu
  6
CONTINUOUS
100
AcDbLine
 10
1.7111000000000001
 20
-1.1886355118110237
 30
0
 11
1.7085305905511812
 21
-1.1930858661417323
 31
0
  0
LINE
  5
11C
330
1B
100
AcDbEntity
  8
F.Cu
  6
CONTINUOUS
100
AcDbLine
 10
1.7085305905511812
 20
-1.1930858661417323
 30
0
 11
1.7048968897637795
 21
-1.1967195669291337
 31
0
  0
LINE
  5
11D
330
1B
100
AcDbEntity
  8
F.Cu
  6
CONTINUOUS
100
AcDbLine
 10
1.7048968897637795
 20
-1.1967195669291337
 30
0
 11
1.7004465354330709
 21
-1.1992889763779526
 31
0
  0
LINE
  5
11E
330
1B
100
AcDbEntity
  8
F.Cu
  6
CONTINUOUS
100
AcDbLine
 10
1.7004465354330709
 20
-1.1992889763779526
 30
0
 11
1.6954827952755904
 21
-1.2006189763779527
 31
0
  0
LINE
  5
11F
330
1B
100
AcDbEntity
  8
F.Cu
  6
CONTINUOUS
100
AcDbLine
 10
1.6954827952755904
 20
-1.2006189763779527
 30
0
 11
1.6903439763779526
 21
-1.2006189763779527
 31
0
  0
LINE
  5
120
330
1B
100
AcDbEntity
  8
F.Cu
  6
CONTINUOUS
100
AcDbLine
 10
1.6903439763779526
 20
-1.2006189763779527
 30
0
 11
1.6853802362204724
 21
-1.1992889763779526
 31
0
  0
LINE
  5
121
330
1B
100
AcDbEntity
  8
F.Cu
  6
CONTINUOUS
100
AcDbLine
 10
1.6853802362204724
 20
-1.1992889763779526
 30
0
 11
1.6809298818897638
 21
-1.1967195669291337
 31
0
  0
LINE
  5
122
330
1B
100
AcDbEntity
  8
F.Cu
  6
CONTINUOUS
100
AcDbLine
 10
1.6809298818897638
 20
-1.1967195669291337
 30
0
 11
1.6772961811023621
 21
-1.1930858661417323
 31
0
  0
LINE
  5
123
330
1B
100
AcDbEntity
  8
F.Cu
  6
CONTINUOUS
100
AcDbLine
 10
1.6772961811023621
 20
-1.1930858661417323
 30
0
 11
1.6747267716535432
 21
-1.1886355118110237
 31
0
  0
LINE
  5
124
330
1B
100
AcDbEntity
  8
F.Cu
  6
CONTINUOUS
100
AcDbLine
 10
1.6747267716535432
 20
-1.1886355118110237
 30
0
 11
1.6733967716535432
 21
-1.1836717716535432
 31
0
  0
LINE
  5
125
330
1B
100
AcDbEntity
  8
F.Cu
  6
CONTINUOUS
100
AcDbLine
 10
1.6733967716535432
 20
-1.1836717716535432
 30
0
 11
1.6733967716535432
 21
-1.1785329527559054
 31
0
  0
LINE
  5
126
330
1B
100
AcDbEntity
  8
F.Cu
  6
CONTINUOUS
100
AcDbLine
 10
1.6733967716535432
 20
-1.1785329527559054
 30
0
 11
1.6747267716535432
 21
-1.1735692125984252
 31
0
  0
LINE
  5
127
330
1B
100
AcDbEntity
  8
F.Cu
  6
CONTINUOUS
100
AcDbLine
 10
1.6747267716535432
 20
-1.1735692125984252
 30
0
 11
1.6772961811023621
 21
-1.1691188582677166
 31
0
  0
LINE
  5
128
330
1B
100
AcDbEntity
  8
F.Cu
  6
CONTINUOUS
100
AcDbLine
 10
1.6772961811023621
 20
-1.1691188582677166
 30
0
 11
1.6809298818897638
 21
-1.1654851574803149
 31
0
  0
LINE
  5
129
330
1B
100
AcDbEntity
  8
F.Cu
  6
CONTINUOUS
100
AcDbLine
 10
1.6809298818897638
 20
-1.1654851574803149
 30
0
 11
1.6853802362204724
 21
-1.162915748031496
 31
0
  0
LINE
  5
12A
330
1B
100
AcDbEntity
  8
F.Cu
  6
CONTINUOUS
100
AcDbLine
 10
1.6853802362204724
 20
-1.162915748031496
 30
0
 11
1.6903439763779526
 21
-1.1615857480314959
 31
0
  0
LINE
  5
12B
330
1B
100
AcDbEntity
  8
F.Cu
  6
CONTINUOUS
100
AcDbLine
 10
1.6903439763779526
 20
-1.1615857480314959
 30
0
 11
1.6954827952755904
 21
-1.1615857480314959
 31
0
  0
LINE
  5
12C
330
1B
100
AcDbEntity
  8
F.Cu
  6
CONTINUOUS
100
AcDbLine
 10
1.6954827952755904
 20
-1.1615857480314959
 30
0
 11
1.7004465354330709
 21
-1.162915748031496
 31
0
  0
LINE
  5
12D
330
1B
100
AcDbEntity
  8
F.Cu
  6
CONTINUOUS
100
AcDbLine
 10
2.3712444881889763
 20
-1.049435905511811
 30
0
 11
2.3765849212598424
 21
-1.0525192125984251
 31
0
  0
LINE
  5
12E
330
1B
100
AcDbEntity
  8
F.Cu
  6
CONTINUOUS
100
AcDbLine
 10
2.3765849212598424
 20
-1.0525192125984251
 30
0
 11
2.3809453543307084
 21
-1.0568796456692913
 31
0
  0
LINE
  5
12F
330
1B
100
AcDbEntity
  8
F.Cu
  6
CONTINUOUS
100
AcDbLine
 10
2.3809453543307084
 20
-1.0568796456692913
 30
0
 11
2.3840286614173229
 21
-1.0622200787401574
 31
0
  0
LINE
  5
130
330
1B
100
AcDbEntity
  8
F.Cu
  6
CONTINUOUS
100
AcDbLine
 10
2.3840286614173229
 20
-1.0622200787401574
 30
0
 11
2.3856246850393701
 21
-1.0681765354330708
 31
0
  0
LINE
  5
131
330
1B
100
AcDbEntity
  8
F.Cu
  6
CONTINUOUS
100
AcDbLine
 10
2.3856246850393701
 20
-1.0681765354330708
 30
0
 11
2.3858267716535431
 21
-1.0712598425196851
 31
0
  0
LINE
  5
132
330
1B
100
AcDbEntity
  8
F.Cu
  6
CONTINUOUS
100
AcDbLine
 10
2.3858267716535431
 20
-1.0712598425196851
 30
0
 11
2.3858267716535431
 21
-1.0909448818897638
 31
0
  0
LINE
  5
133
330
1B
100
AcDbEntity
  8
F.Cu
  6
CONTINUOUS
100
AcDbLine
 10
2.3858267716535431
 20
-1.0909448818897638
 30
0
 11
2.3856246850393701
 21
-1.0940281889763779
 31
0
  0
LINE
  5
134
330
1B
100
AcDbEntity
  8
F.Cu
  6
CONTINUOUS
100
AcDbLine
 10
2.3856246850393701
 20
-1.0940281889763779
 30
0
 11
2.3840286614173229
 21
-1.0999846456692912
 31
0
  0
LINE
  5
135
330
1B
100
AcDbEntity
  8
F.Cu
  6
CONTINUOUS
100
AcDbLine
 10
2.3840286614173229
 20
-1.0999846456692912
 30
0
 11
2.3809453543307084
 21
-1.1053250787401574
 31
0
  0
LINE
  5
136
330
1B
100
AcDbEntity
  8
F.Cu
  6
CONTINUOUS
100
AcDbLine
 10
2.3809453543307084
 20
-1.1053250787401574
 30
0
 11
2.3765849212598424
 21
-1.1096855118110236
 31
0
  0
LINE
  5
137
330
1B
100
AcDbEntity
  8
F.Cu
  6
CONTINUOUS
100
AcDbLine
 10
2.3765849212598424
 20
-1.1096855118110236
 30
0
 11
2.3712444881889763
 21
-1.1127688188976377
 31
0
  0
LINE
  5
138
330
1B
100
AcDbEntity
  8
F.Cu
  6
CONTINUOUS
100
AcDbLine
 10
2.3712444881889763
 20
-1.1127688188976377
 30
0
 11
2.3652880314960631
 21
-1.114364842519685
 31
0
  0
LINE
  5
139
330
1B
100
AcDbEntity
  8
F.Cu
  6
CONTINUOUS
100
AcDbLine
 10
2.3652880314960631
 20
-1.114364842519685
 30
0
 11
2.3591214173228345
 21
-1.114364842519685
 31
0
  0
LINE
  5
13A
330
1B
100
AcDbEntity
  8
F.Cu
  6
CONTINUOUS
100
AcDbLine
 10
2.3591214173228345
 20
-1.114364842519685
 30
0
 11
2.3531649606299214
 21
-1.1127688188976377
 31
0
  0
LINE
  5
13B
330
1B
100
AcDbEntity
  8
F.Cu
  6
CONTINUOUS
100
AcDbLine
 10
2.3531649606299214
 20
-1.1127688188976377
 30
0
 11
2.3478245275590552
 21
-1.1096855118110236
 31
0
  0
LINE
  5
13C
330
1B
100
AcDbEntity
  8
F.Cu
  6
CONTINUOUS
100
AcDbLine
 10
2.3478245275590552
 20
-1.1096855118110236
 30
0
 11
2.3434640944881888
 21
-1.1053250787401574
 31
0
  0
LINE
  5
13D
330
1B
100
AcDbEntity
  8
F.Cu
  6
CONTINUOUS
100
AcDbLine
 10
2.3434640944881888
 20
-1.1053250787401574
 30
0
 11
2.3403807874015747
 21
-1.0999846456692912
 31
0
  0
LINE
  5
13E
330
1B
100
AcDbEntity
  8
F.Cu
  6
CONTINUOUS
100
AcDbLine
 10
2.3403807874015747
 20
-1.0999846456692912
 30
0
 11
2.3387847637795276
 21
-1.0940281889763779
 31
0
  0
LINE
  5
13F
330
1B
100
AcDbEntity
  8
F.Cu
  6
CONTINUOUS
100
AcDbLine
 10
2.3387847637795276
 20
-1.0940281889763779
 30
0
 11
2.3385826771653542
 21
-1.0909448818897638
 31
0
  0
LINE
  5
140
330
1B
100
AcDbEntity
  8
F.Cu
  6
CONTINUOUS
100
AcDbLine
 10
2.3385826771653542
 20
-1.0909448818897638
 30
0
 11
2.3385826771653542
 21
-1.0712598425196851
 31
0
  0
LINE
  5
141
330
1B
100
AcDbEntity
  8
F.Cu
  6
CONTINUOUS
100
AcDbLine
 10
2.3385826771653542
 20
-1.0712598425196851
 30
0
 11
2.3387847637795276
 21
-1.0681765354330708
 31
0
  0
LINE
  5
142
330
1B
100
AcDbEntity
  8
F.Cu
  6
CONTINUOUS
100
AcDbLine
 10
2.3387847637795276
 20
-1.0681765354330708
 30
0
 11
2.3403807874015747
 21
-1.0622200787401574
 31
0
  0
LINE
  5
143
330
1B
100
AcDbEntity
  8
F.Cu
  6
CONTINUOUS
100
AcDbLine
 10
2.3403807874015747
 20
-1.0622200787401574
 30
0
 11
2.3434640944881888
 21
-1.0568796456692913
 31
0
  0
LINE
  5
144
330
1B
100
AcDbEntity
  8
F.Cu
  6
CONTINUOUS
100
AcDbLine
 10
2.3434640944881888
 20
-1.0568796456692913
 30
0
 11
2.3478245275590552
 21
-1.0525192125984251
 31
0
  0
LINE
  5
145
330
1B
100
AcDbEntity
  8
F.Cu
  6
CONTINUOUS
100
AcDbLine
 10
2.3478245275590552
 20
-1.0525192125984251
 30
0
 11
2.3531649606299214
 21
-1.049435905511811
 31
0
  0
LINE
  5
146
330
1B
100
AcDbEntity
  8
F.Cu
  6
CONTINUOUS
100
AcDbLine
 10
2.3531649606299214
 20
-1.049435905511811
 30
0
 11
2.3591214173228345
 21
-1.0478398818897638
 31
0
  0
LINE
  5
147
330
1B
100
AcDbEntity
  8
F.Cu
  6
CONTINUOUS
100
AcDbLine
 10
2.3591214173228345
 20
-1.0478398818897638
 30
0
 11
2.3652880314960631
 21
-1.0478398818897638
 31
0
  0
LINE
  5
148
330
1B
100
AcDbEntity
  8
F.Cu
  6
CONTINUOUS
100
AcDbLine
 10
2.3652880314960631
 20
-1.0478398818897638
 30
0
 11
2.3712444881889763
 21
-1.049435905511811
 31
0
  0
LINE
  5
149
330
1B
100
AcDbEntity
  8
F.Cu
  6
CONTINUOUS
100
AcDbLine
 10
1.7207522440944882
 20
-1.0180542913385826
 30
0
 11
1.6873456299212597
 21
-1.0514609055118109
 31
0
  0
LINE
  5
14A
330
1B
100
AcDbEntity
  8
F.Cu
  6
CONTINUOUS
100
AcDbLine
 10
1.6873456299212597
 20
-1.0514609055118109
 30
0
 11
1.6673807874015747
 21
-1.0314960629921259
 31
0
  0
LINE
  5
14B
330
1B
100
AcDbEntity
  8
F.Cu
  6
CONTINUOUS
100
AcDbLine
 10
1.6673807874015747
 20
-1.0314960629921259
 30
0
 11
1.5926609842519686
 21
-1.0314960629921259
 31
0
  0
LINE
  5
14C
330
1B
100
AcDbEntity
  8
F.Cu
  6
CONTINUOUS
100
AcDbLine
 10
1.5926609842519686
 20
-1.0314960629921259
 30
0
 11
1.5690389763779526
 21
-1.0451342519685038
 31
0
  0
LINE
  5
14D
330
1B
100
AcDbEntity
  8
F.Cu
  6
CONTINUOUS
100
AcDbLine
 10
1.5690389763779526
 20
-1.0451342519685038
 30
0
 11
1.567191496062992
 21
-1.0460453543307087
 31
0
  0
LINE
  5
14E
330
1B
100
AcDbEntity
  8
F.Cu
  6
CONTINUOUS
100
AcDbLine
 10
1.567191496062992
 20
-1.0460453543307087
 30
0
 11
1.5632205118110236
 21
-1.0471093700787402
 31
0
  0
LINE
  5
14F
330
1B
100
AcDbEntity
  8
F.Cu
  6
CONTINUOUS
100
AcDbLine
 10
1.5632205118110236
 20
-1.0471093700787402
 30
0
 11
1.5591094094488189
 21
-1.0471093700787402
 31
0
  0
LINE
  5
150
330
1B
100
AcDbEntity
  8
F.Cu
  6
CONTINUOUS
100
AcDbLine
 10
1.5591094094488189
 20
-1.0471093700787402
 30
0
 11
1.5551384645669291
 21
-1.0460453543307087
 31
0
  0
LINE
  5
151
330
1B
100
AcDbEntity
  8
F.Cu
  6
CONTINUOUS
100
AcDbLine
 10
1.5551384645669291
 20
-1.0460453543307087
 30
0
 11
1.5515781496062993
 21
-1.0439898031496062
 31
0
  0
LINE
  5
152
330
1B
100
AcDbEntity
  8
F.Cu
  6
CONTINUOUS
100
AcDbLine
 10
1.5515781496062993
 20
-1.0439898031496062
 30
0
 11
1.5486711811023621
 21
-1.0410828346456693
 31
0
  0
LINE
  5
153
330
1B
100
AcDbEntity
  8
F.Cu
  6
CONTINUOUS
100
AcDbLine
 10
1.5486711811023621
 20
-1.0410828346456693
 30
0
 11
1.5466156692913386
 21
-1.0375225984251968
 31
0
  0
LINE
  5
154
330
1B
100
AcDbEntity
  8
F.Cu
  6
CONTINUOUS
100
AcDbLine
 10
1.5466156692913386
 20
-1.0375225984251968
 30
0
 11
1.5455516535433071
 21
-1.0335516141732284
 31
0
  0
LINE
  5
155
330
1B
100
AcDbEntity
  8
F.Cu
  6
CONTINUOUS
100
AcDbLine
 10
1.5455516535433071
 20
-1.0335516141732284
 30
0
 11
1.5455516535433071
 21
-1.0314960629921259
 31
0
  0
LINE
  5
156
330
1B
100
AcDbEntity
  8
F.Cu
  6
CONTINUOUS
100
AcDbLine
 10
1.5455516535433071
 20
-1.0314960629921259
 30
0
 11
1.4862204724409449
 21
-1.0314960629921259
 31
0
  0
LINE
  5
157
330
1B
100
AcDbEntity
  8
F.Cu
  6
CONTINUOUS
100
AcDbLine
 10
1.4862204724409449
 20
-1.0314960629921259
 30
0
 11
1.4862204724409449
 21
-1.0334645669291338
 31
0
  0
LINE
  5
158
330
1B
100
AcDbEntity
  8
F.Cu
  6
CONTINUOUS
100
AcDbLine
 10
1.4862204724409449
 20
-1.0334645669291338
 30
0
 11
1.4854712598425197
 21
-1.0372311417322835
 31
0
  0
LINE
  5
159
330
1B
100
AcDbEntity
  8
F.Cu
  6
CONTINUOUS
100
AcDbLine
 10
1.4854712598425197
 20
-1.0372311417322835
 30
0
 11
1.4833376771653544
 21
-1.0404242913385826
 31
0
  0
LINE
  5
15A
330
1B
100
AcDbEntity
  8
F.Cu
  6
CONTINUOUS
100
AcDbLine
 10
1.4833376771653544
 20
-1.0404242913385826
 30
0
 11
1.480144527559055
 21
-1.042557874015748
 31
0
  0
LINE
  5
15B
330
1B
100
AcDbEntity
  8
F.Cu
  6
CONTINUOUS
100
AcDbLine
 10
1.480144527559055
 20
-1.042557874015748
 30
0
 11
1.4763779527559056
 21
-1.0433070866141732
 31
0
  0
LINE
  5
15C
330
1B
100
AcDbEntity
  8
F.Cu
  6
CONTINUOUS
100
AcDbLine
 10
1.4763779527559056
 20
-1.0433070866141732
 30
0
 11
1.4370078740157479
 21
-1.0433070866141732
 31
0
  0
LINE
  5
15D
330
1B
100
AcDbEntity
  8
F.Cu
  6
CONTINUOUS
100
AcDbLine
 10
1.4370078740157479
 20
-1.0433070866141732
 30
0
 11
1.4332412992125985
 21
-1.042557874015748
 31
0
  0
LINE
  5
15E
330
1B
100
AcDbEntity
  8
F.Cu
  6
CONTINUOUS
100
AcDbLine
 10
1.4332412992125985
 20
-1.042557874015748
 30
0
 11
1.4300481496062991
 21
-1.0404242913385826
 31
0
  0
LINE
  5
15F
330
1B
100
AcDbEntity
  8
F.Cu
  6
CONTINUOUS
100
AcDbLine
 10
1.4300481496062991
 20
-1.0404242913385826
 30
0
 11
1.4279145669291338
 21
-1.0372311417322835
 31
0
  0
LINE
  5
160
330
1B
100
AcDbEntity
  8
F.Cu
  6
CONTINUOUS
100
AcDbLine
 10
1.4279145669291338
 20
-1.0372311417322835
 30
0
 11
1.4271653543307086
 21
-1.0334645669291338
 31
0
  0
LINE
  5
161
330
1B
100
AcDbEntity
  8
F.Cu
  6
CONTINUOUS
100
AcDbLine
 10
1.4271653543307086
 20
-1.0334645669291338
 30
0
 11
1.4271653543307086
 21
-1.0285433070866141
 31
0
  0
LINE
  5
162
330
1B
100
AcDbEntity
  8
F.Cu
  6
CONTINUOUS
100
AcDbLine
 10
1.4271653543307086
 20
-1.0285433070866141
 30
0
 11
1.3622047244094488
 21
-1.0285433070866141
 31
0
  0
LINE
  5
163
330
1B
100
AcDbEntity
  8
F.Cu
  6
CONTINUOUS
100
AcDbLine
 10
1.3622047244094488
 20
-1.0285433070866141
 30
0
 11
1.3622047244094488
 21
-1.0393700787401574
 31
0
  0
LINE
  5
164
330
1B
100
AcDbEntity
  8
F.Cu
  6
CONTINUOUS
100
AcDbLine
 10
1.3622047244094488
 20
-1.0393700787401574
 30
0
 11
1.3149606299212597
 21
-1.0393700787401574
 31
0
  0
LINE
  5
165
330
1B
100
AcDbEntity
  8
F.Cu
  6
CONTINUOUS
100
AcDbLine
 10
1.3149606299212597
 20
-1.0393700787401574
 30
0
 11
1.3149606299212597
 21
-1.0078740157480315
 31
0
  0
LINE
  5
166
330
1B
100
AcDbEntity
  8
F.Cu
  6
CONTINUOUS
100
AcDbLine
 10
1.3149606299212597
 20
-1.0078740157480315
 30
0
 11
1.3622047244094488
 21
-1.0078740157480315
 31
0
  0
LINE
  5
167
330
1B
100
AcDbEntity
  8
F.Cu
  6
CONTINUOUS
100
AcDbLine
 10
1.3622047244094488
 20
-1.0078740157480315
 30
0
 11
1.3622047244094488
 21
-1.0187007874015748
 31
0
  0
LINE
  5
168
330
1B
100
AcDbEntity
  8
F.Cu
  6
CONTINUOUS
100
AcDbLine
 10
1.3622047244094488
 20
-1.0187007874015748
 30
0
 11
1.4271653543307086
 21
-1.0187007874015748
 31
0
  0
LINE
  5
169
330
1B
100
AcDbEntity
  8
F.Cu
  6
CONTINUOUS
100
AcDbLine
 10
1.4271653543307086
 20
-1.0187007874015748
 30
0
 11
1.4271653543307086
 21
-1.0137795275590551
 31
0
  0
LINE
  5
16A
330
1B
100
AcDbEntity
  8
F.Cu
  6
CONTINUOUS
100
AcDbLine
 10
1.4271653543307086
 20
-1.0137795275590551
 30
0
 11
1.4279145669291338
 21
-1.0100129527559054
 31
0
  0
LINE
  5
16B
330
1B
100
AcDbEntity
  8
F.Cu
  6
CONTINUOUS
100
AcDbLine
 10
1.4279145669291338
 20
-1.0100129527559054
 30
0
 11
1.4300481496062991
 21
-1.0068198031496063
 31
0
  0
LINE
  5
16C
330
1B
100
AcDbEntity
  8
F.Cu
  6
CONTINUOUS
100
AcDbLine
 10
1.4300481496062991
 20
-1.0068198031496063
 30
0
 11
1.4332412992125985
 21
-1.0046862204724409
 31
0
  0
LINE
  5
16D
330
1B
100
AcDbEntity
  8
F.Cu
  6
CONTINUOUS
100
AcDbLine
 10
1.4332412992125985
 20
-1.0046862204724409
 30
0
 11
1.4370078740157479
 21
-1.0039370078740157
 31
0
  0
LINE
  5
16E
330
1B
100
AcDbEntity
  8
F.Cu
  6
CONTINUOUS
100
AcDbLine
 10
1.4370078740157479
 20
-1.0039370078740157
 30
0
 11
1.4763779527559056
 21
-1.0039370078740157
 31
0
  0
LINE
  5
16F
330
1B
100
AcDbEntity
  8
F.Cu
  6
CONTINUOUS
100
AcDbLine
 10
1.4763779527559056
 20
-1.0039370078740157
 30
0
 11
1.480144527559055
 21
-1.0046862204724409
 31
0
  0
LINE
  5
170
330
1B
100
AcDbEntity
  8
F.Cu
  6
CONTINUOUS
100
AcDbLine
 10
1.480144527559055
 20
-1.0046862204724409
 30
0
 11
1.4833376771653544
 21
-1.0068198031496063
 31
0
  0
LINE
  5
171
330
1B
100
AcDbEntity
  8
F.Cu
  6
CONTINUOUS
100
AcDbLine
 10
1.4833376771653544
 20
-1.0068198031496063
 30
0
 11
1.4854712598425197
 21
-1.0100129527559054
 31
0
  0
LINE
  5
172
330
1B
100
AcDbEntity
  8
F.Cu
  6
CONTINUOUS
100
AcDbLine
 10
1.4854712598425197
 20
-1.0100129527559054
 30
0
 11
1.4862204724409449
 21
-1.0137795275590551
 31
0
  0
LINE
  5
173
330
1B
100
AcDbEntity
  8
F.Cu
  6
CONTINUOUS
100
AcDbLine
 10
1.4862204724409449
 20
-1.0137795275590551
 30
0
 11
1.4862204724409449
 21
-1.015748031496063
 31
0
  0
LINE
  5
174
330
1B
100
AcDbEntity
  8
F.Cu
  6
CONTINUOUS
100
AcDbLine
 10
1.4862204724409449
 20
-1.015748031496063
 30
0
 11
1.5569453149606298
 21
-1.015748031496063
 31
0
  0
LINE
  5
175
330
1B
100
AcDbEntity
  8
F.Cu
  6
CONTINUOUS
100
AcDbLine
 10
1.5569453149606298
 20
-1.015748031496063
 30
0
 11
1.5805673228346457
 21
-1.002109842519685
 31
0
  0
LINE
  5
176
330
1B
100
AcDbEntity
  8
F.Cu
  6
CONTINUOUS
100
AcDbLine
 10
1.5805673228346457
 20
-1.002109842519685
 30
0
 11
1.5824148031496064
 21
-1.0011987401574802
 31
0
  0
LINE
  5
177
330
1B
100
AcDbEntity
  8
F.Cu
  6
CONTINUOUS
100
AcDbLine
 10
1.5824148031496064
 20
-1.0011987401574802
 30
0
 11
1.5863857874015748
 21
-1.0001347244094487
 31
0
  0
LINE
  5
178
330
1B
100
AcDbEntity
  8
F.Cu
  6
CONTINUOUS
100
AcDbLine
 10
1.5863857874015748
 20
-1.0001347244094487
 30
0
 11
1.5904968897637795
 21
-1.0001347244094487
 31
0
  0
LINE
  5
179
330
1B
100
AcDbEntity
  8
F.Cu
  6
CONTINUOUS
100
AcDbLine
 10
1.5904968897637795
 20
-1.0001347244094487
 30
0
 11
1.5944678346456693
 21
-1.0011987401574802
 31
0
  0
LINE
  5
17A
330
1B
100
AcDbEntity
  8
F.Cu
  6
CONTINUOUS
100
AcDbLine
 10
1.5944678346456693
 20
-1.0011987401574802
 30
0
 11
1.5980281496062991
 21
-1.0032542913385827
 31
0
  0
LINE
  5
17B
330
1B
100
AcDbEntity
  8
F.Cu
  6
CONTINUOUS
100
AcDbLine
 10
1.5980281496062991
 20
-1.0032542913385827
 30
0
 11
1.6009351181102363
 21
-1.0061612598425196
 31
0
  0
LINE
  5
17C
330
1B
100
AcDbEntity
  8
F.Cu
  6
CONTINUOUS
100
AcDbLine
 10
1.6009351181102363
 20
-1.0061612598425196
 30
0
 11
1.6029906299212597
 21
-1.0097214960629921
 31
0
  0
LINE
  5
17D
330
1B
100
AcDbEntity
  8
F.Cu
  6
CONTINUOUS
100
AcDbLine
 10
1.6029906299212597
 20
-1.0097214960629921
 30
0
 11
1.6040546456692912
 21
-1.0136924803149605
 31
0
  0
LINE
  5
17E
330
1B
100
AcDbEntity
  8
F.Cu
  6
CONTINUOUS
100
AcDbLine
 10
1.6040546456692912
 20
-1.0136924803149605
 30
0
 11
1.6040546456692912
 21
-1.015748031496063
 31
0
  0
LINE
  5
17F
330
1B
100
AcDbEntity
  8
F.Cu
  6
CONTINUOUS
100
AcDbLine
 10
1.6040546456692912
 20
-1.015748031496063
 30
0
 11
1.6785162992125984
 21
-1.015748031496063
 31
0
  0
LINE
  5
180
330
1B
100
AcDbEntity
  8
F.Cu
  6
CONTINUOUS
100
AcDbLine
 10
1.6785162992125984
 20
-1.015748031496063
 30
0
 11
1.6984811417322834
 21
-0.995783188976378
 31
0
  0
LINE
  5
181
330
1B
100
AcDbEntity
  8
F.Cu
  6
CONTINUOUS
100
AcDbLine
 10
1.6984811417322834
 20
-0.995783188976378
 30
0
 11
1.7207522440944882
 21
-1.0180542913385826
 31
0
  0
LINE
  5
182
330
1B
100
AcDbEntity
  8
F.Cu
  6
CONTINUOUS
100
AcDbLine
 10
1.8484251968503937
 20
-1.0433070866141732
 30
0
 11
1.7736220472440944
 21
-1.0433070866141732
 31
0
  0
LINE
  5
183
330
1B
100
AcDbEntity
  8
F.Cu
  6
CONTINUOUS
100
AcDbLine
 10
1.7736220472440944
 20
-1.0433070866141732
 30
0
 11
1.7893700787401574
 21
-1.0039370078740157
 31
0
  0
LINE
  5
184
330
1B
100
AcDbEntity
  8
F.Cu
  6
CONTINUOUS
100
AcDbLine
 10
1.7893700787401574
 20
-1.0039370078740157
 30
0
 11
1.8326771653543306
 21
-1.0039370078740157
 31
0
  0
LINE
  5
185
330
1B
100
AcDbEntity
  8
F.Cu
  6
CONTINUOUS
100
AcDbLine
 10
1.8326771653543306
 20
-1.0039370078740157
 30
0
 11
1.8484251968503937
 21
-1.0433070866141732
 31
0
  0
LINE
  5
186
330
1B
100
AcDbEntity
  8
F.Cu
  6
CONTINUOUS
100
AcDbLine
 10
2.3719189763779527
 20
-0.949078779527559
 30
0
 11
2.3779798031496062
 21
-0.951589251968504
 31
0
  0
LINE
  5
187
330
1B
100
AcDbEntity
  8
F.Cu
  6
CONTINUOUS
100
AcDbLine
 10
2.3779798031496062
 20
-0.951589251968504
 30
0
 11
2.3834344094488187
 21
-0.9552338976377952
 31
0
  0
LINE
  5
188
330
1B
100
AcDbEntity
  8
F.Cu
  6
CONTINUOUS
100
AcDbLine
 10
2.3834344094488187
 20
-0.9552338976377952
 30
0
 11
2.388073188976378
 21
-0.9598726771653543
 31
0
  0
LINE
  5
189
330
1B
100
AcDbEntity
  8
F.Cu
  6
CONTINUOUS
100
AcDbLine
 10
2.388073188976378
 20
-0.9598726771653543
 30
0
 11
2.3917178346456693
 21
-0.9653272834645669
 31
0
  0
LINE
  5
18A
330
1B
100
AcDbEntity
  8
F.Cu
  6
CONTINUOUS
100
AcDbLine
 10
2.3917178346456693
 20
-0.9653272834645669
 30
0
 11
2.3942283070866139
 21
-0.9713881102362204
 31
0
  0
LINE
  5
18B
330
1B
100
AcDbEntity
  8
F.Cu
  6
CONTINUOUS
100
AcDbLine
 10
2.3942283070866139
 20
-0.9713881102362204
 30
0
 11
2.3955081496062993
 21
-0.9778222440944881
 31
0
  0
LINE
  5
18C
330
1B
100
AcDbEntity
  8
F.Cu
  6
CONTINUOUS
100
AcDbLine
 10
2.3955081496062993
 20
-0.9778222440944881
 30
0
 11
2.3955081496062993
 21
-0.9843824803149606
 31
0
  0
LINE
  5
18D
330
1B
100
AcDbEntity
  8
F.Cu
  6
CONTINUOUS
100
AcDbLine
 10
2.3955081496062993
 20
-0.9843824803149606
 30
0
 11
2.3942283070866139
 21
-0.9908166141732283
 31
0
  0
LINE
  5
18E
330
1B
100
AcDbEntity
  8
F.Cu
  6
CONTINUOUS
100
AcDbLine
 10
2.3942283070866139
 20
-0.9908166141732283
 30
0
 11
2.3917178346456693
 21
-0.9968774409448818
 31
0
  0
LINE
  5
18F
330
1B
100
AcDbEntity
  8
F.Cu
  6
CONTINUOUS
100
AcDbLine
 10
2.3917178346456693
 20
-0.9968774409448818
 30
0
 11
2.388073188976378
 21
-1.0023320472440944
 31
0
  0
LINE
  5
190
330
1B
100
AcDbEntity
  8
F.Cu
  6
CONTINUOUS
100
AcDbLine
 10
2.388073188976378
 20
-1.0023320472440944
 30
0
 11
2.3834344094488187
 21
-1.0069708267716535
 31
0
  0
LINE
  5
191
330
1B
100
AcDbEntity
  8
F.Cu
  6
CONTINUOUS
100
AcDbLine
 10
2.3834344094488187
 20
-1.0069708267716535
 30
0
 11
2.3779798031496062
 21
-1.0106154724409449
 31
0
  0
LINE
  5
192
330
1B
100
AcDbEntity
  8
F.Cu
  6
CONTINUOUS
100
AcDbLine
 10
2.3779798031496062
 20
-1.0106154724409449
 30
0
 11
2.3719189763779527
 21
-1.0131259448818897
 31
0
  0
LINE
  5
193
330
1B
100
AcDbEntity
  8
F.Cu
  6
CONTINUOUS
100
AcDbLine
 10
2.3719189763779527
 20
-1.0131259448818897
 30
0
 11
2.365484842519685
 21
-1.0144057874015748
 31
0
  0
LINE
  5
194
330
1B
100
AcDbEntity
  8
F.Cu
  6
CONTINUOUS
100
AcDbLine
 10
2.365484842519685
 20
-1.0144057874015748
 30
0
 11
2.3589246062992126
 21
-1.0144057874015748
 31
0
  0
LINE
  5
195
330
1B
100
AcDbEntity
  8
F.Cu
  6
CONTINUOUS
100
AcDbLine
 10
2.3589246062992126
 20
-1.0144057874015748
 30
0
 11
2.352490472440945
 21
-1.0131259448818897
 31
0
  0
LINE
  5
196
330
1B
100
AcDbEntity
  8
F.Cu
  6
CONTINUOUS
100
AcDbLine
 10
2.352490472440945
 20
-1.0131259448818897
 30
0
 11
2.3464296456692915
 21
-1.0106154724409449
 31
0
  0
LINE
  5
197
330
1B
100
AcDbEntity
  8
F.Cu
  6
CONTINUOUS
100
AcDbLine
 10
2.3464296456692915
 20
-1.0106154724409449
 30
0
 11
2.3409750393700786
 21
-1.0069708267716535
 31
0
  0
LINE
  5
198
330
1B
100
AcDbEntity
  8
F.Cu
  6
CONTINUOUS
100
AcDbLine
 10
2.3409750393700786
 20
-1.0069708267716535
 30
0
 11
2.3363362598425197
 21
-1.0023320472440944
 31
0
  0
LINE
  5
199
330
1B
100
AcDbEntity
  8
F.Cu
  6
CONTINUOUS
100
AcDbLine
 10
2.3363362598425197
 20
-1.0023320472440944
 30
0
 11
2.3326916141732283
 21
-0.9968774409448818
 31
0
  0
LINE
  5
19A
330
1B
100
AcDbEntity
  8
F.Cu
  6
CONTINUOUS
100
AcDbLine
 10
2.3326916141732283
 20
-0.9968774409448818
 30
0
 11
2.3301811417322833
 21
-0.9908166141732283
 31
0
  0
LINE
  5
19B
330
1B
100
AcDbEntity
  8
F.Cu
  6
CONTINUOUS
100
AcDbLine
 10
2.3301811417322833
 20
-0.9908166141732283
 30
0
 11
2.3289012992125984
 21
-0.9843824803149606
 31
0
  0
LINE
  5
19C
330
1B
100
AcDbEntity
  8
F.Cu
  6
CONTINUOUS
100
AcDbLine
 10
2.3289012992125984
 20
-0.9843824803149606
 30
0
 11
2.3289012992125984
 21
-0.9778222440944881
 31
0
  0
LINE
  5
19D
330
1B
100
AcDbEntity
  8
F.Cu
  6
CONTINUOUS
100
AcDbLine
 10
2.3289012992125984
 20
-0.9778222440944881
 30
0
 11
2.3301811417322833
 21
-0.9713881102362204
 31
0
  0
LINE
  5
19E
330
1B
100
AcDbEntity
  8
F.Cu
  6
CONTINUOUS
100
AcDbLine
 10
2.3301811417322833
 20
-0.9713881102362204
 30
0
 11
2.3326916141732283
 21
-0.9653272834645669
 31
0
  0
LINE
  5
19F
330
1B
100
AcDbEntity
  8
F.Cu
  6
CONTINUOUS
100
AcDbLine
 10
2.3326916141732283
 20
-0.9653272834645669
 30
0
 11
2.3363362598425197
 21
-0.9598726771653543
 31
0
  0
LINE
  5
1A0
330
1B
100
AcDbEntity
  8
F.Cu
  6
CONTINUOUS
100
AcDbLine
 10
2.3363362598425197
 20
-0.9598726771653543
 30
0
 11
2.3409750393700786
 21
-0.9552338976377952
 31
0
  0
LINE
  5
1A1
330
1B
100
AcDbEntity
  8
F.Cu
  6
CONTINUOUS
100
AcDbLine
 10
2.3409750393700786
 20
-0.9552338976377952
 30
0
 11
2.3464296456692915
 21
-0.951589251968504
 31
0
  0
LINE
  5
1A2
330
1B
100
AcDbEntity
  8
F.Cu
  6
CONTINUOUS
100
AcDbLine
 10
2.3464296456692915
 20
-0.951589251968504
 30
0
 11
2.352490472440945
 21
-0.949078779527559
 31
0
  0
LINE
  5
1A3
330
1B
100
AcDbEntity
  8
F.Cu
  6
CONTINUOUS
100
AcDbLine
 10
2.352490472440945
 20
-0.949078779527559
 30
0
 11
2.3589246062992126
 21
-0.947798937007874
 31
0
  0
LINE
  5
1A4
330
1B
100
AcDbEntity
  8
F.Cu
  6
CONTINUOUS
100
AcDbLine
 10
2.3589246062992126
 20
-0.947798937007874
 30
0
 11
2.365484842519685
 21
-0.947798937007874
 31
0
  0
LINE
  5
1A5
330
1B
100
AcDbEntity
  8
F.Cu
  6
CONTINUOUS
100
AcDbLine
 10
2.365484842519685
 20
-0.947798937007874
 30
0
 11
2.3719189763779527
 21
-0.949078779527559
 31
0
  0
LINE
  5
1A6
330
1B
100
AcDbEntity
  8
F.Cu
  6
CONTINUOUS
100
AcDbLine
 10
2.3849730708661419
 20
-0.8576824015748031
 30
0
 11
2.390929527559055
 21
-0.8592784251968504
 31
0
  0
LINE
  5
1A7
330
1B
100
AcDbEntity
  8
F.Cu
  6
CONTINUOUS
100
AcDbLine
 10
2.390929527559055
 20
-0.8592784251968504
 30
0
 11
2.3962699606299211
 21
-0.8623617322834646
 31
0
  0
LINE
  5
1A8
330
1B
100
AcDbEntity
  8
F.Cu
  6
CONTINUOUS
100
AcDbLine
 10
2.3962699606299211
 20
-0.8623617322834646
 30
0
 11
2.4006303937007876
 21
-0.8667221653543307
 31
0
  0
LINE
  5
1A9
330
1B
100
AcDbEntity
  8
F.Cu
  6
CONTINUOUS
100
AcDbLine
 10
2.4006303937007876
 20
-0.8667221653543307
 30
0
 11
2.4037137007874017
 21
-0.8720625984251968
 31
0
  0
LINE
  5
1AA
330
1B
100
AcDbEntity
  8
F.Cu
  6
CONTINUOUS
100
AcDbLine
 10
2.4037137007874017
 20
-0.8720625984251968
 30
0
 11
2.4053097244094488
 21
-0.8780190551181102
 31
0
  0
LINE
  5
1AB
330
1B
100
AcDbEntity
  8
F.Cu
  6
CONTINUOUS
100
AcDbLine
 10
2.4053097244094488
 20
-0.8780190551181102
 30
0
 11
2.4053097244094488
 21
-0.8841856692913386
 31
0
  0
LINE
  5
1AC
330
1B
100
AcDbEntity
  8
F.Cu
  6
CONTINUOUS
100
AcDbLine
 10
2.4053097244094488
 20
-0.8841856692913386
 30
0
 11
2.4037137007874017
 21
-0.8901421259842519
 31
0
  0
LINE
  5
1AD
330
1B
100
AcDbEntity
  8
F.Cu
  6
CONTINUOUS
100
AcDbLine
 10
2.4037137007874017
 20
-0.8901421259842519
 30
0
 11
2.4006303937007876
 21
-0.8954825590551181
 31
0
  0
LINE
  5
1AE
330
1B
100
AcDbEntity
  8
F.Cu
  6
CONTINUOUS
100
AcDbLine
 10
2.4006303937007876
 20
-0.8954825590551181
 30
0
 11
2.3962699606299211
 21
-0.8998429921259843
 31
0
  0
LINE
  5
1AF
330
1B
100
AcDbEntity
  8
F.Cu
  6
CONTINUOUS
100
AcDbLine
 10
2.3962699606299211
 20
-0.8998429921259843
 30
0
 11
2.390929527559055
 21
-0.9029262992125984
 31
0
  0
LINE
  5
1B0
330
1B
100
AcDbEntity
  8
F.Cu
  6
CONTINUOUS
100
AcDbLine
 10
2.390929527559055
 20
-0.9029262992125984
 30
0
 11
2.3849730708661419
 21
-0.9045223228346456
 31
0
  0
LINE
  5
1B1
330
1B
100
AcDbEntity
  8
F.Cu
  6
CONTINUOUS
100
AcDbLine
 10
2.3849730708661419
 20
-0.9045223228346456
 30
0
 11
2.3818897637795273
 21
-0.9047244094488188
 31
0
  0
LINE
  5
1B2
330
1B
100
AcDbEntity
  8
F.Cu
  6
CONTINUOUS
100
AcDbLine
 10
2.3818897637795273
 20
-0.9047244094488188
 30
0
 11
2.3425196850393699
 21
-0.9047244094488188
 31
0
  0
LINE
  5
1B3
330
1B
100
AcDbEntity
  8
F.Cu
  6
CONTINUOUS
100
AcDbLine
 10
2.3425196850393699
 20
-0.9047244094488188
 30
0
 11
2.3394363779527558
 21
-0.9045223228346456
 31
0
  0
LINE
  5
1B4
330
1B
100
AcDbEntity
  8
F.Cu
  6
CONTINUOUS
100
AcDbLine
 10
2.3394363779527558
 20
-0.9045223228346456
 30
0
 11
2.3334799212598423
 21
-0.9029262992125984
 31
0
  0
LINE
  5
1B5
330
1B
100
AcDbEntity
  8
F.Cu
  6
CONTINUOUS
100
AcDbLine
 10
2.3334799212598423
 20
-0.9029262992125984
 30
0
 11
2.3281394881889765
 21
-0.8998429921259843
 31
0
  0
LINE
  5
1B6
330
1B
100
AcDbEntity
  8
F.Cu
  6
CONTINUOUS
100
AcDbLine
 10
2.3281394881889765
 20
-0.8998429921259843
 30
0
 11
2.3237790551181101
 21
-0.8954825590551181
 31
0
  0
LINE
  5
1B7
330
1B
100
AcDbEntity
  8
F.Cu
  6
CONTINUOUS
100
AcDbLine
 10
2.3237790551181101
 20
-0.8954825590551181
 30
0
 11
2.320695748031496
 21
-0.8901421259842519
 31
0
  0
LINE
  5
1B8
330
1B
100
AcDbEntity
  8
F.Cu
  6
CONTINUOUS
100
AcDbLine
 10
2.320695748031496
 20
-0.8901421259842519
 30
0
 11
2.3190997244094489
 21
-0.8841856692913386
 31
0
  0
LINE
  5
1B9
330
1B
100
AcDbEntity
  8
F.Cu
  6
CONTINUOUS
100
AcDbLine
 10
2.3190997244094489
 20
-0.8841856692913386
 30
0
 11
2.3190997244094489
 21
-0.8780190551181102
 31
0
  0
LINE
  5
1BA
330
1B
100
AcDbEntity
  8
F.Cu
  6
CONTINUOUS
100
AcDbLine
 10
2.3190997244094489
 20
-0.8780190551181102
 30
0
 11
2.320695748031496
 21
-0.8720625984251968
 31
0
  0
LINE
  5
1BB
330
1B
100
AcDbEntity
  8
F.Cu
  6
CONTINUOUS
100
AcDbLine
 10
2.320695748031496
 20
-0.8720625984251968
 30
0
 11
2.3237790551181101
 21
-0.8667221653543307
 31
0
  0
LINE
  5
1BC
330
1B
100
AcDbEntity
  8
F.Cu
  6
CONTINUOUS
100
AcDbLine
 10
2.3237790551181101
 20
-0.8667221653543307
 30
0
 11
2.3281394881889765
 21
-0.8623617322834646
 31
0
  0
LINE
  5
1BD
330
1B
100
AcDbEntity
  8
F.Cu
  6
CONTINUOUS
100
AcDbLine
 10
2.3281394881889765
 20
-0.8623617322834646
 30
0
 11
2.3334799212598423
 21
-0.8592784251968504
 31
0
  0
LINE
  5
1BE
330
1B
100
AcDbEntity
  8
F.Cu
  6
CONTINUOUS
100
AcDbLine
 10
2.3334799212598423
 20
-0.8592784251968504
 30
0
 11
2.3394363779527558
 21
-0.8576824015748031
 31
0
  0
LINE
  5
1BF
330
1B
100
AcDbEntity
  8
F.Cu
  6
CONTINUOUS
100
AcDbLine
 10
2.3394363779527558
 20
-0.8576824015748031
 30
0
 11
2.3425196850393699
 21
-0.8574803149606299
 31
0
  0
LINE
  5
1C0
330
1B
100
AcDbEntity
  8
F.Cu
  6
CONTINUOUS
100
AcDbLine
 10
2.3425196850393699
 20
-0.8574803149606299
 30
0
 11
2.3818897637795273
 21
-0.8574803149606299
 31
0
  0
LINE
  5
1C1
330
1B
100
AcDbEntity
  8
F.Cu
  6
CONTINUOUS
100
AcDbLine
 10
2.3818897637795273
 20
-0.8574803149606299
 30
0
 11
2.3849730708661419
 21
-0.8576824015748031
 31
0
  0
LINE
  5
1C2
330
1B
100
AcDbEntity
  8
F.Cu
  6
CONTINUOUS
100
AcDbLine
 10
2.3882922834645668
 20
-0.7494359055118111
 30
0
 11
2.393632716535433
 21
-0.7525192125984251
 31
0
  0
LINE
  5
1C3
330
1B
100
AcDbEntity
  8
F.Cu
  6
CONTINUOUS
100
AcDbLine
 10
2.393632716535433
 20
-0.7525192125984251
 30
0
 11
2.3979931102362206
 21
-0.7568796456692913
 31
0
  0
LINE
  5
1C4
330
1B
100
AcDbEntity
  8
F.Cu
  6
CONTINUOUS
100
AcDbLine
 10
2.3979931102362206
 20
-0.7568796456692913
 30
0
 11
2.4010764173228347
 21
-0.7622200787401575
 31
0
  0
LINE
  5
1C5
330
1B
100
AcDbEntity
  8
F.Cu
  6
CONTINUOUS
100
AcDbLine
 10
2.4010764173228347
 20
-0.7622200787401575
 30
0
 11
2.4026724803149606
 21
-0.7681765354330709
 31
0
  0
LINE
  5
1C6
330
1B
100
AcDbEntity
  8
F.Cu
  6
CONTINUOUS
100
AcDbLine
 10
2.4026724803149606
 20
-0.7681765354330709
 30
0
 11
2.4026724409448819
 21
-0.7743431496062992
 31
0
  0
LINE
  5
1C7
330
1B
100
AcDbEntity
  8
F.Cu
  6
CONTINUOUS
100
AcDbLine
 10
2.4026724409448819
 20
-0.7743431496062992
 30
0
 11
2.4010764173228347
 21
-0.7802996062992126
 31
0
  0
LINE
  5
1C8
330
1B
100
AcDbEntity
  8
F.Cu
  6
CONTINUOUS
100
AcDbLine
 10
2.4010764173228347
 20
-0.7802996062992126
 30
0
 11
2.3979931102362206
 21
-0.7856400393700788
 31
0
  0
LINE
  5
1C9
330
1B
100
AcDbEntity
  8
F.Cu
  6
CONTINUOUS
100
AcDbLine
 10
2.3979931102362206
 20
-0.7856400393700788
 30
0
 11
2.3936326771653542
 21
-0.7900004724409448
 31
0
  0
LINE
  5
1CA
330
1B
100
AcDbEntity
  8
F.Cu
  6
CONTINUOUS
100
AcDbLine
 10
2.3936326771653542
 20
-0.7900004724409448
 30
0
 11
2.3910635039370076
 21
-0.7917171259842519
 31
0
  0
LINE
  5
1CB
330
1B
100
AcDbEntity
  8
F.Cu
  6
CONTINUOUS
100
AcDbLine
 10
2.3910635039370076
 20
-0.7917171259842519
 30
0
 11
2.3569679921259841
 21
-0.8114021653543307
 31
0
  0
LINE
  5
1CC
330
1B
100
AcDbEntity
  8
F.Cu
  6
CONTINUOUS
100
AcDbLine
 10
2.3569679921259841
 20
-0.8114021653543307
 30
0
 11
2.3541967322834645
 21
-0.8127688188976377
 31
0
  0
LINE
  5
1CD
330
1B
100
AcDbEntity
  8
F.Cu
  6
CONTINUOUS
100
AcDbLine
 10
2.3541967322834645
 20
-0.8127688188976377
 30
0
 11
2.3482402755905509
 21
-0.814364842519685
 31
0
  0
LINE
  5
1CE
330
1B
100
AcDbEntity
  8
F.Cu
  6
CONTINUOUS
100
AcDbLine
 10
2.3482402755905509
 20
-0.814364842519685
 30
0
 11
2.3420736614173228
 21
-0.814364842519685
 31
0
  0
LINE
  5
1CF
330
1B
100
AcDbEntity
  8
F.Cu
  6
CONTINUOUS
100
AcDbLine
 10
2.3420736614173228
 20
-0.814364842519685
 30
0
 11
2.3361172047244092
 21
-0.8127688188976377
 31
0
  0
LINE
  5
1D0
330
1B
100
AcDbEntity
  8
F.Cu
  6
CONTINUOUS
100
AcDbLine
 10
2.3361172047244092
 20
-0.8127688188976377
 30
0
 11
2.3307767716535435
 21
-0.8096855118110236
 31
0
  0
LINE
  5
1D1
330
1B
100
AcDbEntity
  8
F.Cu
  6
CONTINUOUS
100
AcDbLine
 10
2.3307767716535435
 20
-0.8096855118110236
 30
0
 11
2.326416338582677
 21
-0.8053250787401575
 31
0
  0
LINE
  5
1D2
330
1B
100
AcDbEntity
  8
F.Cu
  6
CONTINUOUS
100
AcDbLine
 10
2.326416338582677
 20
-0.8053250787401575
 30
0
 11
2.323333031496063
 21
-0.7999846456692913
 31
0
  0
LINE
  5
1D3
330
1B
100
AcDbEntity
  8
F.Cu
  6
CONTINUOUS
100
AcDbLine
 10
2.323333031496063
 20
-0.7999846456692913
 30
0
 11
2.3217370078740158
 21
-0.7940281889763779
 31
0
  0
LINE
  5
1D4
330
1B
100
AcDbEntity
  8
F.Cu
  6
CONTINUOUS
100
AcDbLine
 10
2.3217370078740158
 20
-0.7940281889763779
 30
0
 11
2.3217370078740158
 21
-0.7878615748031496
 31
0
  0
LINE
  5
1D5
330
1B
100
AcDbEntity
  8
F.Cu
  6
CONTINUOUS
100
AcDbLine
 10
2.3217370078740158
 20
-0.7878615748031496
 30
0
 11
2.323333031496063
 21
-0.7819051181102362
 31
0
  0
LINE
  5
1D6
330
1B
100
AcDbEntity
  8
F.Cu
  6
CONTINUOUS
100
AcDbLine
 10
2.323333031496063
 20
-0.7819051181102362
 30
0
 11
2.326416338582677
 21
-0.77656468503937
 31
0
  0
LINE
  5
1D7
330
1B
100
AcDbEntity
  8
F.Cu
  6
CONTINUOUS
100
AcDbLine
 10
2.326416338582677
 20
-0.77656468503937
 30
0
 11
2.3307767716535435
 21
-0.772204251968504
 31
0
  0
LINE
  5
1D8
330
1B
100
AcDbEntity
  8
F.Cu
  6
CONTINUOUS
100
AcDbLine
 10
2.3307767716535435
 20
-0.772204251968504
 30
0
 11
2.3333459448818896
 21
-0.7704875984251969
 31
0
  0
LINE
  5
1D9
330
1B
100
AcDbEntity
  8
F.Cu
  6
CONTINUOUS
100
AcDbLine
 10
2.3333459448818896
 20
-0.7704875984251969
 30
0
 11
2.3674414960629919
 21
-0.7508025196850393
 31
0
  0
LINE
  5
1DA
330
1B
100
AcDbEntity
  8
F.Cu
  6
CONTINUOUS
100
AcDbLine
 10
2.3674414960629919
 20
-0.7508025196850393
 30
0
 11
2.3702127559055119
 21
-0.7494359055118111
 31
0
  0
LINE
  5
1DB
330
1B
100
AcDbEntity
  8
F.Cu
  6
CONTINUOUS
100
AcDbLine
 10
2.3702127559055119
 20
-0.7494359055118111
 30
0
 11
2.3761692125984251
 21
-0.7478398818897638
 31
0
  0
LINE
  5
1DC
330
1B
100
AcDbEntity
  8
F.Cu
  6
CONTINUOUS
100
AcDbLine
 10
2.3761692125984251
 20
-0.7478398818897638
 30
0
 11
2.3823357874015749
 21
-0.7478398818897638
 31
0
  0
LINE
  5
1DD
330
1B
100
AcDbEntity
  8
F.Cu
  6
CONTINUOUS
100
AcDbLine
 10
2.3823357874015749
 20
-0.7478398818897638
 30
0
 11
2.3882922834645668
 21
-0.7494359055118111
 31
0
  0
CIRCLE
  5
1DE
330
1B
100
AcDbEntity
  8
F.Cu
100
AcDbCircle
 10
1.811023622047244
 20
-1.1811023622047243
 30
0
 40
0.0236220472440945
  0
CIRCLE
  5
1DF
330
1B
100
AcDbEntity
  8
F.Cu
100
AcDbCircle
 10
2.3622047244094486
 20
-1.1811023622047243
 30
0
 40
0.0196850393700787
  0
CIRCLE
  5
1E0
330
1B
100
AcDbEntity
  8
F.Cu
100
AcDbCircle
 10
2.3622047244094486
 20
-1.0811023622047244
 30
0
 40
0.015748031496063
  0
LINE
  5
1E1
330
1B
100
AcDbEntity
  8
F.Cu
  6
CONTINUOUS
100
AcDbLine
 10
2.3425196850393699
 20
-0.9047244094488188
 30
0
 11
2.3818897637795273
 21
-0.9047244094488188
 31
0
  0
ARC
  5
1E2
330
1B
100
AcDbEntity
  8
F.Cu
100
AcDbCircle
 10
2.3818897637795273
 20
-0.8811023622047244
 30
0
 40
0.0236220472440945
100
AcDbArc
 50
-90.00000000
 51
90.00000000
  0
LINE
  5
1E3
330
1B
100
AcDbEntity
  8
F.Cu
  6
CONTINUOUS
100
AcDbLine
 10
2.3818897637795273
 20
-0.8574803149606299
 30
0
 11
2.3425196850393699
 21
-0.8574803149606299
 31
0
  0
ARC
  5
1E4
330
1B
100
AcDbEntity
  8
F.Cu
100
AcDbCircle
 10
2.3425196850393699
 20
-0.8811023622047244
 30
0
 40
0.0236220472440945
100
AcDbArc
 50
90.00000000
 51
270.00000000
  0
LINE
  5
1E5
330
1B
100
AcDbEntity
  8
F.Cu
  6
CONTINUOUS
100
AcDbLine
 10
2.3569679921259841
 20
-0.8114021653543307
 30
0
 11
2.3910635039370076
 21
-0.7917171259842519
 31
0
  0
ARC
  5
1E6
330
1B
100
AcDbEntity
  8
F.Cu
100
AcDbCircle
 10
2.3792524803149604
 20
-0.771259842519685
 30
0
 40
0.0236220472440945
100
AcDbArc
 50
-60.00000000
 51
120.00000000
  0
LINE
  5
1E7
330
1B
100
AcDbEntity
  8
F.Cu
  6
CONTINUOUS
100
AcDbLine
 10
2.3674414566929132
 20
-0.7508025590551181
 30
0
 11
2.3333459448818896
 21
-0.7704875984251969
 31
0
  0
ARC
  5
1E8
330
1B
100
AcDbEntity
  8
F.Cu
100
AcDbCircle
 10
2.3451569685039368
 20
-0.7909448818897638
 30
0
 40
0.0236220472440945
100
AcDbArc
 50
120.00000000
 51
300.00000000
  0
CIRCLE
  5
1E9
330
1B
100
AcDbEntity
  8
F.Cu
100
AcDbCircle
 10
2.3622047244094486
 20
-0.9811023622047244
 30
0
 40
0.0196850393700787
  0
CIRCLE
  5
1EA
330
1B
100
AcDbEntity
  8
F.Cu
100
AcDbCircle
 10
1.3385826771653544
 20
-1.0236220472440944
 30
0
 40
0.0059055118110236
  0
CIRCLE
  5
1EB
330
1B
100
AcDbEntity
  8
F.Cu
100
AcDbCircle
 10
1.889763779527559
 20
-1.889763779527559
 30
0
 40
0.0078740157480315
  0
CIRCLE
  5
1EC
330
1B
100
AcDbEntity
  8
F.Cu
100
AcDbCircle
 10
2.5984251968503935
 20
-1.5748031496062991
 30
0
 40
0.0059055118110236
  0
CIRCLE
  5
1ED
330
1B
100
AcDbEntity
  8
F.Cu
100
AcDbCircle
 10
1.1811023622047243
 20
-1.7716535433070866
 30
0
 40
0.0078740157480315
  0
CIRCLE
  5
1EE
330
1B
100
AcDbEntity
  8
F.Cu
100
AcDbCircle
 10
1.3385826771653544
 20
-1.0236220472440944
 30
0
 40
0.0059055118110236
  0
CIRCLE
  5
1EF
330
1B
100
AcDbEntity
  8
F.Cu
100
AcDbCircle
 10
1.889763779527559
 20
-1.889763779527559
 30
0
 40
0.0078740157480315
  0
CIRCLE
  5
1F0
330
1B
100
AcDbEntity
  8
F.Cu
100
AcDbCircle
 10
2.5984251968503935
 20
-1.5748031496062991
 30
0
 40
0.0059055118110236
  0
CIRCLE
  5
1F1
330
1B
100
AcDbEntity
  8
F.Cu
100
AcDbCircle
 10
1.1811023622047243
 20
-1.7716535433070866
 30
0
 40
0.0078740157480315
  0
CIRCLE
  5
1F2
330
1B
100
AcDbEntity
  8
F.Cu
100
AcDbCircle
 10
1.811023622047244
 20
-1.1811023622047243
 30
0
 40
0.0236220078740157
  0
CIRCLE
  5
1F3
330
1B
100
AcDbEntity
  8
F.Cu
100
AcDbCircle
 10
2.3622047244094486
 20
-1.1811023622047243
 30
0
 40
0.0196850393700787
  0
CIRCLE
  5
1F4
330
1B
100
AcDbEntity
  8
F.Cu
100
AcDbCircle
 10
2.3622047244094486
 20
-1.0811023622047244
 30
0
 40
0.015748031496063
  0
LINE
  5
1F5
330
1B
100
AcDbEntity
  8
F.Cu
  6
CONTINUOUS
100
AcDbLine
 10
2.3464566929133857
 20
-0.8929133858267716
 30
0
 11
2.3779527559055116
 21
-0.8929133858267716
 31
0
  0
ARC
  5
1F6
330
1B
100
AcDbEntity
  8
F.Cu
100
AcDbCircle
 10
2.3779527559055116
 20
-0.8811023622047244
 30
0
 40
0.0118110236220472
100
AcDbArc
 50
-90.00000000
 51
90.00000000
  0
LINE
  5
1F7
330
1B
100
AcDbEntity
  8
F.Cu
  6
CONTINUOUS
100
AcDbLine
 10
2.3779527559055116
 20
-0.8692913385826772
 30
0
 11
2.3464566929133857
 21
-0.8692913385826772
 31
0
  0
ARC
  5
1F8
330
1B
100
AcDbEntity
  8
F.Cu
100
AcDbCircle
 10
2.3464566929133857
 20
-0.8811023622047244
 30
0
 40
0.0118110236220472
100
AcDbArc
 50
90.00000000
 51
270.00000000
  0
LINE
  5
1F9
330
1B
100
AcDbEntity
  8
F.Cu
  6
CONTINUOUS
100
AcDbLine
 10
2.3544720472440943
 20
-0.7992050393700787
 30
0
 11
2.3817484251968501
 21
-0.7834570078740157
 31
0
  0
ARC
  5
1FA
330
1B
100
AcDbEntity
  8
F.Cu
100
AcDbCircle
 10
2.3758429133858265
 20
-0.7732283464566929
 30
0
 40
0.0118110236220472
100
AcDbArc
 50
-60.00000000
 51
120.00000000
  0
LINE
  5
1FB
330
1B
100
AcDbEntity
  8
F.Cu
  6
CONTINUOUS
100
AcDbLine
 10
2.3699374015748029
 20
-0.7629996850393701
 30
0
 11
2.3426610236220471
 21
-0.7787477165354331
 31
0
  0
ARC
  5
1FC
330
1B
100
AcDbEntity
  8
F.Cu
100
AcDbCircle
 10
2.3485665354330707
 20
-0.7889763779527559
 30
0
 40
0.0118110236220472
100
AcDbArc
 50
120.00000000
 51
300.00000000
  0
CIRCLE
  5
1FD
330
1B
100
AcDbEntity
  8
F.Cu
100
AcDbCircle
 10
2.3622047244094486
 20
-0.9811023622047244
 30
0
 40
0.0196850393700787
  0
ENDSEC
  0
SECTION
  2
OBJECTS
  0
DICTIONARY
  5
21
330
0
100
AcDbDictionary
281
1
  3
ACAD_GROUP
350
1FE
  3
ACAD_LAYOUT
350
22
  3
ACAD_PLOTSTYLENAME
350
11
  0
DICTIONARY
  5
1FE
330
21
100
AcDbDictionary
281
1
  0
ACDBDICTIONARYWDFLT
  5
11
330
21
100
AcDbDictionary
281
1
  3
Normal
350
10
100
AcDbDictionaryWithDefault
340
10
  0
ACDBPLACEHOLDER
  5
10
330
11
  0
DICTIONARY
  5
22
330
21
100
AcDbDictionary
281
1
  3
Model
350
1E
  3
Layout1
350
1F
  3
Layout2
350
20
  0
LAYOUT
  5
1E
330
22
100
AcDbPlotSettings
  1

  2
none_device
  4
A3
  6

 40
0.0
 41
0.0
 42
0.0
 43
0.0
 44
420.0
 45
297.0
 46
0.0
 47
0.0
 48
0.0
 49
0.0
140
0.0
141
0.0
142
1.0
143
1.0
 70
1024
 72
1
 73
0
 74
5
  7

 75
16
 76
0
 77
2
 78
300
147
1.0
148
0.0
149
0.0
100
AcDbLayout
  1
Model
 70
1
 71
0
 10
0.0
 20
0.0
 11
420.0
 21
297.0
 12
0.0
 22
0.0
 32
0.0
 14
1e+20
 24
1e+20
 34
1e+20
 15
-1e+20
 25
-1e+20
 35
-1e+20
146
0.0
 13
0.0
 23
0.0
 33
0.0
 16
1.0
 26
0.0
 36
0.0
 17
0.0
 27
1.0
 37
0.0
 76
0
330
1B
  0
LAYOUT
  5
1F
330
22
100
AcDbPlotSettings
  1

  2
none_device
  4
A3
  6

 40
0.0
 41
0.0
 42
0.0
 43
0.0
 44
420.0
 45
297.0
 46
0.0
 47
0.0
 48
0.0
 49
0.0
140
0.0
141
0.0
142
1.0
143
1.0
 70
0
 72
1
 73
0
 74
5
  7

 75
16
 76
0
 77
2
 78
300
147
1.0
148
0.0
149
0.0
100
AcDbLayout
  1
Layout1
 70
1
 71
1
 10
0.0
 20
0.0
 11
420.0
 21
297.0
 12
0.0
 22
0.0
 32
0.0
 14
1e+20
 24
1e+20
 34
1e+20
 15
-1e+20
 25
-1e+20
 35
-1e+20
146
0.0
 13
0.0
 23
0.0
 33
0.0
 16
1.0
 26
0.0
 36
0.0
 17
0.0
 27
1.0
 37
0.0
 76
0
330
1C
  0
LAYOUT
  5
20
330
22
100
AcDbPlotSettings
  1

  2
none_device
  4
A3
  6

 40
0.0
 41
0.0
 42
0.0
 43
0.0
 44
420.0
 45
297.0
 46
0.0
 47
0.0
 48
0.0
 49
0.0
140
0.0
141
0.0
142
1.0
143
1.0
 70
0
 72
1
 73
0
 74
5
  7

 75
16
 76
0
 77
2
 78
300
147
1.0
148
0.0
149
0.0
100
AcDbLayout
  1
Layout2
 70
1
 71
2
 10
0.0
 20
0.0
 11
420.0
 21
297.0
 12
0.0
 22
0.0
 32
0.0
 14
1e+20
 24
1e+20
 34
1e+20
 15
-1e+20
 25
-1e+20
 35
-1e+20
146
0.0
 13
0.0
 23
0.0
 33
0.0
 16
1.0
 26
0.0
 36
0.0
 17
0.0
 27
1.0
 37
0.0
 76
0
330
1D
  0
ENDSEC
  0
EOF
