%TF.GenerationSoftware,KiCad,Pcbnew,10.0.6-10.0.6~ubuntu24.04.1*%
%TF.CreationDate,2026-09-27T23:55:41+05:30*%
%TF.ProjectId,gerber_oracle,67657262-6572-45f6-9f72-61636c652e6b,B*%
%TF.SameCoordinates,Original*%
%TF.FileFunction,Legend,Top*%
%TF.FilePolarity,Positive*%
%FSLAX46Y46*%
G04 Gerber Fmt 4.6, Leading zero omitted, Abs format (unit mm)*
G04 Created by KiCad (PCBNEW 10.0.6-10.0.6~ubuntu24.04.1) date 2026-09-27 23:55:41*
%MOMM*%
%LPD*%
G01*
G04 APERTURE LIST*
%ADD10C,0.150000*%
%ADD11C,0.200000*%
%ADD12C,1.100000*%
%ADD13C,0.120000*%
G04 APERTURE END LIST*
D10*
X22000000Y-17000000D02*
X30000000Y-17000000D01*
X30000000Y-21000000D01*
X22000000Y-21000000D01*
X22000000Y-17000000D01*
D11*
X70000000Y-18000000D02*
X76000000Y-18000000D01*
X76000000Y-22000000D01*
X72000000Y-24000000D01*
X70000000Y-18000000D01*
G36*
X76000000Y-22000000D02*
G01*
X72000000Y-24000000D01*
X70000000Y-18000000D01*
X76000000Y-18000000D01*
X76000000Y-22000000D01*
G37*
D12*
X35550000Y-50000000D02*
G75*
G02*
X34450000Y-50000000I-550000J0D01*
G01*
X34450000Y-50000000D02*
G75*
G02*
X35550000Y-50000000I550000J0D01*
G01*
G36*
X40000000Y-44600000D02*
G01*
X40000000Y-44600000D01*
G75*
G02*
X40600000Y-44000000I600000J0D01*
G01*
X45400000Y-44000000D01*
G75*
G02*
X46000000Y-44600000I0J-600000D01*
G01*
X46000000Y-47400000D01*
G75*
G02*
X45400000Y-48000000I-600000J0D01*
G01*
X40600000Y-48000000D01*
G75*
G02*
X40000000Y-47400000I0J600000D01*
G01*
X40000000Y-44600000D01*
G37*
D10*
X60000040Y-50000000D02*
X60000040Y-50000002D01*
X60000040Y-50000003D01*
X60000039Y-50000005D01*
X60000039Y-50000007D01*
X60000038Y-50000008D01*
X60000037Y-50000010D01*
X60000036Y-50000011D01*
X60000035Y-50000013D01*
X60000034Y-50000014D01*
X60000033Y-50000015D01*
X60000031Y-50000016D01*
X60000030Y-50000017D01*
X60000028Y-50000018D01*
X60000027Y-50000019D01*
X60000025Y-50000019D01*
X60000023Y-50000020D01*
X60000022Y-50000020D01*
X60000020Y-50000020D01*
X60000018Y-50000020D01*
X60000017Y-50000020D01*
X60000015Y-50000019D01*
X60000013Y-50000019D01*
X60000012Y-50000018D01*
X60000010Y-50000017D01*
X60000009Y-50000016D01*
X60000007Y-50000015D01*
X60000006Y-50000014D01*
X60000005Y-50000013D01*
X60000004Y-50000011D01*
X60000003Y-50000010D01*
X60000002Y-50000008D01*
X60000001Y-50000007D01*
X60000001Y-50000005D01*
X60000000Y-50000003D01*
X60000000Y-50000002D01*
X60000000Y-50000000D01*
D11*
X50345863Y-18306028D02*
X51345863Y-18306028D01*
X51345863Y-18306028D02*
X50345863Y-19806028D01*
X50345863Y-19806028D02*
X51345863Y-19806028D01*
X51917291Y-19806028D02*
X51917291Y-18306028D01*
X53488720Y-19806028D02*
X52988720Y-19091742D01*
X52631577Y-19806028D02*
X52631577Y-18306028D01*
X52631577Y-18306028D02*
X53203006Y-18306028D01*
X53203006Y-18306028D02*
X53345863Y-18377457D01*
X53345863Y-18377457D02*
X53417292Y-18448885D01*
X53417292Y-18448885D02*
X53488720Y-18591742D01*
X53488720Y-18591742D02*
X53488720Y-18806028D01*
X53488720Y-18806028D02*
X53417292Y-18948885D01*
X53417292Y-18948885D02*
X53345863Y-19020314D01*
X53345863Y-19020314D02*
X53203006Y-19091742D01*
X53203006Y-19091742D02*
X52631577Y-19091742D01*
X54417292Y-18306028D02*
X54703006Y-18306028D01*
X54703006Y-18306028D02*
X54845863Y-18377457D01*
X54845863Y-18377457D02*
X54988720Y-18520314D01*
X54988720Y-18520314D02*
X55060149Y-18806028D01*
X55060149Y-18806028D02*
X55060149Y-19306028D01*
X55060149Y-19306028D02*
X54988720Y-19591742D01*
X54988720Y-19591742D02*
X54845863Y-19734600D01*
X54845863Y-19734600D02*
X54703006Y-19806028D01*
X54703006Y-19806028D02*
X54417292Y-19806028D01*
X54417292Y-19806028D02*
X54274435Y-19734600D01*
X54274435Y-19734600D02*
X54131577Y-19591742D01*
X54131577Y-19591742D02*
X54060149Y-19306028D01*
X54060149Y-19306028D02*
X54060149Y-18806028D01*
X54060149Y-18806028D02*
X54131577Y-18520314D01*
X54131577Y-18520314D02*
X54274435Y-18377457D01*
X54274435Y-18377457D02*
X54417292Y-18306028D01*
X57631578Y-19806028D02*
X56774435Y-19806028D01*
X57203006Y-19806028D02*
X57203006Y-18306028D01*
X57203006Y-18306028D02*
X57060149Y-18520314D01*
X57060149Y-18520314D02*
X56917292Y-18663171D01*
X56917292Y-18663171D02*
X56774435Y-18734600D01*
X58274434Y-19663171D02*
X58345863Y-19734600D01*
X58345863Y-19734600D02*
X58274434Y-19806028D01*
X58274434Y-19806028D02*
X58203006Y-19734600D01*
X58203006Y-19734600D02*
X58274434Y-19663171D01*
X58274434Y-19663171D02*
X58274434Y-19806028D01*
X59274435Y-18306028D02*
X59417292Y-18306028D01*
X59417292Y-18306028D02*
X59560149Y-18377457D01*
X59560149Y-18377457D02*
X59631578Y-18448885D01*
X59631578Y-18448885D02*
X59703006Y-18591742D01*
X59703006Y-18591742D02*
X59774435Y-18877457D01*
X59774435Y-18877457D02*
X59774435Y-19234600D01*
X59774435Y-19234600D02*
X59703006Y-19520314D01*
X59703006Y-19520314D02*
X59631578Y-19663171D01*
X59631578Y-19663171D02*
X59560149Y-19734600D01*
X59560149Y-19734600D02*
X59417292Y-19806028D01*
X59417292Y-19806028D02*
X59274435Y-19806028D01*
X59274435Y-19806028D02*
X59131578Y-19734600D01*
X59131578Y-19734600D02*
X59060149Y-19663171D01*
X59060149Y-19663171D02*
X58988720Y-19520314D01*
X58988720Y-19520314D02*
X58917292Y-19234600D01*
X58917292Y-19234600D02*
X58917292Y-18877457D01*
X58917292Y-18877457D02*
X58988720Y-18591742D01*
X58988720Y-18591742D02*
X59060149Y-18448885D01*
X59060149Y-18448885D02*
X59131578Y-18377457D01*
X59131578Y-18377457D02*
X59274435Y-18306028D01*
D10*
X39238095Y-22954819D02*
X39238095Y-23764342D01*
X39238095Y-23764342D02*
X39285714Y-23859580D01*
X39285714Y-23859580D02*
X39333333Y-23907200D01*
X39333333Y-23907200D02*
X39428571Y-23954819D01*
X39428571Y-23954819D02*
X39619047Y-23954819D01*
X39619047Y-23954819D02*
X39714285Y-23907200D01*
X39714285Y-23907200D02*
X39761904Y-23859580D01*
X39761904Y-23859580D02*
X39809523Y-23764342D01*
X39809523Y-23764342D02*
X39809523Y-22954819D01*
X40809523Y-23954819D02*
X40238095Y-23954819D01*
X40523809Y-23954819D02*
X40523809Y-22954819D01*
X40523809Y-22954819D02*
X40428571Y-23097676D01*
X40428571Y-23097676D02*
X40333333Y-23192914D01*
X40333333Y-23192914D02*
X40238095Y-23240533D01*
X56454819Y-30333333D02*
X57169104Y-30333333D01*
X57169104Y-30333333D02*
X57311961Y-30380952D01*
X57311961Y-30380952D02*
X57407200Y-30476190D01*
X57407200Y-30476190D02*
X57454819Y-30619047D01*
X57454819Y-30619047D02*
X57454819Y-30714285D01*
X57454819Y-29333333D02*
X57454819Y-29904761D01*
X57454819Y-29619047D02*
X56454819Y-29619047D01*
X56454819Y-29619047D02*
X56597676Y-29714285D01*
X56597676Y-29714285D02*
X56692914Y-29809523D01*
X56692914Y-29809523D02*
X56740533Y-29904761D01*
%TO.C,U1*%
D13*
X32500000Y-24500000D02*
X47500000Y-24500000D01*
X49000000Y-35000000D02*
G75*
G02*
X48000000Y-35000000I-500000J0D01*
G01*
X48000000Y-35000000D02*
G75*
G02*
X49000000Y-35000000I500000J0D01*
G01*
X32500000Y-35500000D02*
G75*
G02*
X32500000Y-34100000I0J700000D01*
G01*
%TD*%
M02*
