%TF.GenerationSoftware,KiCad,Pcbnew,10.0.6-10.0.6~ubuntu24.04.1*%
%TF.CreationDate,2026-09-28T08:25:52+05:30*%
%TF.ProjectId,gerber_oracle,67657262-6572-45f6-9f72-61636c652e6b,B*%
%TF.SameCoordinates,Original*%
%TF.FileFunction,AssemblyDrawing,Top*%
%FSLAX46Y46*%
G04 Gerber Fmt 4.6, Leading zero omitted, Abs format (unit mm)*
G04 Created by KiCad (PCBNEW 10.0.6-10.0.6~ubuntu24.04.1) date 2026-09-28 08:25:52*
%MOMM*%
%LPD*%
G01*
G04 APERTURE LIST*
%ADD10C,0.150000*%
G04 APERTURE END LIST*
D10*
X37333333Y-36907200D02*
X37476190Y-36954819D01*
X37476190Y-36954819D02*
X37714285Y-36954819D01*
X37714285Y-36954819D02*
X37809523Y-36907200D01*
X37809523Y-36907200D02*
X37857142Y-36859580D01*
X37857142Y-36859580D02*
X37904761Y-36764342D01*
X37904761Y-36764342D02*
X37904761Y-36669104D01*
X37904761Y-36669104D02*
X37857142Y-36573866D01*
X37857142Y-36573866D02*
X37809523Y-36526247D01*
X37809523Y-36526247D02*
X37714285Y-36478628D01*
X37714285Y-36478628D02*
X37523809Y-36431009D01*
X37523809Y-36431009D02*
X37428571Y-36383390D01*
X37428571Y-36383390D02*
X37380952Y-36335771D01*
X37380952Y-36335771D02*
X37333333Y-36240533D01*
X37333333Y-36240533D02*
X37333333Y-36145295D01*
X37333333Y-36145295D02*
X37380952Y-36050057D01*
X37380952Y-36050057D02*
X37428571Y-36002438D01*
X37428571Y-36002438D02*
X37523809Y-35954819D01*
X37523809Y-35954819D02*
X37761904Y-35954819D01*
X37761904Y-35954819D02*
X37904761Y-36002438D01*
X38333333Y-36954819D02*
X38333333Y-35954819D01*
X38333333Y-36431009D02*
X38904761Y-36431009D01*
X38904761Y-36954819D02*
X38904761Y-35954819D01*
X39333333Y-36669104D02*
X39809523Y-36669104D01*
X39238095Y-36954819D02*
X39571428Y-35954819D01*
X39571428Y-35954819D02*
X39904761Y-36954819D01*
X40238095Y-36954819D02*
X40238095Y-35954819D01*
X40238095Y-35954819D02*
X40619047Y-35954819D01*
X40619047Y-35954819D02*
X40714285Y-36002438D01*
X40714285Y-36002438D02*
X40761904Y-36050057D01*
X40761904Y-36050057D02*
X40809523Y-36145295D01*
X40809523Y-36145295D02*
X40809523Y-36288152D01*
X40809523Y-36288152D02*
X40761904Y-36383390D01*
X40761904Y-36383390D02*
X40714285Y-36431009D01*
X40714285Y-36431009D02*
X40619047Y-36478628D01*
X40619047Y-36478628D02*
X40238095Y-36478628D01*
X41238095Y-36431009D02*
X41571428Y-36431009D01*
X41714285Y-36954819D02*
X41238095Y-36954819D01*
X41238095Y-36954819D02*
X41238095Y-35954819D01*
X41238095Y-35954819D02*
X41714285Y-35954819D01*
X42095238Y-36907200D02*
X42238095Y-36954819D01*
X42238095Y-36954819D02*
X42476190Y-36954819D01*
X42476190Y-36954819D02*
X42571428Y-36907200D01*
X42571428Y-36907200D02*
X42619047Y-36859580D01*
X42619047Y-36859580D02*
X42666666Y-36764342D01*
X42666666Y-36764342D02*
X42666666Y-36669104D01*
X42666666Y-36669104D02*
X42619047Y-36573866D01*
X42619047Y-36573866D02*
X42571428Y-36526247D01*
X42571428Y-36526247D02*
X42476190Y-36478628D01*
X42476190Y-36478628D02*
X42285714Y-36431009D01*
X42285714Y-36431009D02*
X42190476Y-36383390D01*
X42190476Y-36383390D02*
X42142857Y-36335771D01*
X42142857Y-36335771D02*
X42095238Y-36240533D01*
X42095238Y-36240533D02*
X42095238Y-36145295D01*
X42095238Y-36145295D02*
X42142857Y-36050057D01*
X42142857Y-36050057D02*
X42190476Y-36002438D01*
X42190476Y-36002438D02*
X42285714Y-35954819D01*
X42285714Y-35954819D02*
X42523809Y-35954819D01*
X42523809Y-35954819D02*
X42666666Y-36002438D01*
X63359580Y-31261904D02*
X63407200Y-31309523D01*
X63407200Y-31309523D02*
X63454819Y-31452380D01*
X63454819Y-31452380D02*
X63454819Y-31547618D01*
X63454819Y-31547618D02*
X63407200Y-31690475D01*
X63407200Y-31690475D02*
X63311961Y-31785713D01*
X63311961Y-31785713D02*
X63216723Y-31833332D01*
X63216723Y-31833332D02*
X63026247Y-31880951D01*
X63026247Y-31880951D02*
X62883390Y-31880951D01*
X62883390Y-31880951D02*
X62692914Y-31833332D01*
X62692914Y-31833332D02*
X62597676Y-31785713D01*
X62597676Y-31785713D02*
X62502438Y-31690475D01*
X62502438Y-31690475D02*
X62454819Y-31547618D01*
X62454819Y-31547618D02*
X62454819Y-31452380D01*
X62454819Y-31452380D02*
X62502438Y-31309523D01*
X62502438Y-31309523D02*
X62550057Y-31261904D01*
X62454819Y-30642856D02*
X62454819Y-30452380D01*
X62454819Y-30452380D02*
X62502438Y-30357142D01*
X62502438Y-30357142D02*
X62597676Y-30261904D01*
X62597676Y-30261904D02*
X62788152Y-30214285D01*
X62788152Y-30214285D02*
X63121485Y-30214285D01*
X63121485Y-30214285D02*
X63311961Y-30261904D01*
X63311961Y-30261904D02*
X63407200Y-30357142D01*
X63407200Y-30357142D02*
X63454819Y-30452380D01*
X63454819Y-30452380D02*
X63454819Y-30642856D01*
X63454819Y-30642856D02*
X63407200Y-30738094D01*
X63407200Y-30738094D02*
X63311961Y-30833332D01*
X63311961Y-30833332D02*
X63121485Y-30880951D01*
X63121485Y-30880951D02*
X62788152Y-30880951D01*
X62788152Y-30880951D02*
X62597676Y-30833332D01*
X62597676Y-30833332D02*
X62502438Y-30738094D01*
X62502438Y-30738094D02*
X62454819Y-30642856D01*
X63454819Y-29785713D02*
X62454819Y-29785713D01*
X62454819Y-29785713D02*
X63454819Y-29214285D01*
X63454819Y-29214285D02*
X62454819Y-29214285D01*
X63454819Y-28738094D02*
X62454819Y-28738094D01*
X62454819Y-28738094D02*
X63454819Y-28166666D01*
X63454819Y-28166666D02*
X62454819Y-28166666D01*
M02*
