%TF.GenerationSoftware,KiCad,Pcbnew,10.0.6-10.0.6~ubuntu24.04.1*%
%TF.CreationDate,2026-09-28T08:25:58+05:30*%
%TF.ProjectId,gerber_oracle,67657262-6572-45f6-9f72-61636c652e6b,B*%
%TF.SameCoordinates,Original*%
%TF.FileFunction,Drillmap*%
%TF.FilePolarity,Positive*%
%FSLAX45Y45*%
G04 Gerber Fmt 4.5, Leading zero omitted, Abs format (unit mm)*
G04 Created by KiCad (PCBNEW 10.0.6-10.0.6~ubuntu24.04.1) date 2026-09-28 08:25:58*
%MOMM*%
%LPD*%
G01*
G04 APERTURE LIST*
%ADD10C,0.100000*%
%ADD11C,0.200000*%
G04 APERTURE END LIST*
D10*
X2000000Y-1500000D02*
X8000000Y-1500000D01*
X8000000Y-1500000D02*
X8000000Y-4500000D01*
X8000000Y-4500000D02*
G75*
G02*
X7000000Y-5500000I-1000000J0D01*
G01*
X7000000Y-5500000D02*
X2000000Y-5500000D01*
X2000000Y-5500000D02*
X2000000Y-1500000D01*
X2650000Y-5000000D02*
G75*
G02*
X2350000Y-5000000I-150000J0D01*
G01*
X2350000Y-5000000D02*
G75*
G02*
X2650000Y-5000000I150000J0D01*
G01*
D11*
D10*
X3385000Y-2585000D02*
X3415000Y-2615000D01*
X3415000Y-2585000D02*
X3385000Y-2615000D01*
X3020000Y-4500000D02*
G75*
G02*
X2980000Y-4500000I-20000J0D01*
G01*
X2980000Y-4500000D02*
G75*
G02*
X3020000Y-4500000I20000J0D01*
G01*
X4820000Y-4800000D02*
G75*
G02*
X4780000Y-4800000I-20000J0D01*
G01*
X4780000Y-4800000D02*
G75*
G02*
X4820000Y-4800000I20000J0D01*
G01*
X6000000Y-1954000D02*
X6000000Y-2014000D01*
X5970000Y-1984000D02*
X6030000Y-1984000D01*
X5980359Y-2029981D02*
X6049641Y-1989981D01*
X6019641Y-1938019D02*
G75*
G02*
X6049641Y-1989981I15000J-25981D01*
G01*
X6019641Y-1938019D02*
X5950359Y-1978019D01*
X5950359Y-1978019D02*
G75*
G03*
X5980359Y-2029981I15000J-25981D01*
G01*
X6000000Y-2208000D02*
X6000000Y-2268000D01*
X5970000Y-2238000D02*
X6030000Y-2238000D01*
X5960000Y-2268000D02*
X6040000Y-2268000D01*
X6040000Y-2208000D02*
G75*
G02*
X6040000Y-2268000I0J-30000D01*
G01*
X6040000Y-2208000D02*
X5960000Y-2208000D01*
X5960000Y-2208000D02*
G75*
G03*
X5960000Y-2268000I0J-30000D01*
G01*
X6028284Y-2774285D02*
X6028284Y-2717716D01*
X5971715Y-2717716D01*
X5971715Y-2774285D01*
X6028284Y-2774285D01*
X6000000Y-2542000D02*
X6050000Y-2492000D01*
X6000000Y-2442000D01*
X5950000Y-2492000D01*
X6000000Y-2542000D01*
X6000000Y-3050000D02*
X6050000Y-3000000D01*
X6000000Y-2950000D01*
X5950000Y-3000000D01*
X6000000Y-3050000D01*
D11*
X2255777Y-5816484D02*
X2255777Y-5616484D01*
X2255777Y-5616484D02*
X2303396Y-5616484D01*
X2303396Y-5616484D02*
X2331967Y-5626008D01*
X2331967Y-5626008D02*
X2351015Y-5645055D01*
X2351015Y-5645055D02*
X2360539Y-5664103D01*
X2360539Y-5664103D02*
X2370063Y-5702198D01*
X2370063Y-5702198D02*
X2370063Y-5730769D01*
X2370063Y-5730769D02*
X2360539Y-5768865D01*
X2360539Y-5768865D02*
X2351015Y-5787912D01*
X2351015Y-5787912D02*
X2331967Y-5806960D01*
X2331967Y-5806960D02*
X2303396Y-5816484D01*
X2303396Y-5816484D02*
X2255777Y-5816484D01*
X2455777Y-5816484D02*
X2455777Y-5683150D01*
X2455777Y-5721246D02*
X2465301Y-5702198D01*
X2465301Y-5702198D02*
X2474824Y-5692674D01*
X2474824Y-5692674D02*
X2493872Y-5683150D01*
X2493872Y-5683150D02*
X2512920Y-5683150D01*
X2579586Y-5816484D02*
X2579586Y-5683150D01*
X2579586Y-5616484D02*
X2570063Y-5626008D01*
X2570063Y-5626008D02*
X2579586Y-5635531D01*
X2579586Y-5635531D02*
X2589110Y-5626008D01*
X2589110Y-5626008D02*
X2579586Y-5616484D01*
X2579586Y-5616484D02*
X2579586Y-5635531D01*
X2703396Y-5816484D02*
X2684348Y-5806960D01*
X2684348Y-5806960D02*
X2674824Y-5787912D01*
X2674824Y-5787912D02*
X2674824Y-5616484D01*
X2808158Y-5816484D02*
X2789110Y-5806960D01*
X2789110Y-5806960D02*
X2779586Y-5787912D01*
X2779586Y-5787912D02*
X2779586Y-5616484D01*
X3036729Y-5816484D02*
X3036729Y-5616484D01*
X3036729Y-5616484D02*
X3103396Y-5759341D01*
X3103396Y-5759341D02*
X3170062Y-5616484D01*
X3170062Y-5616484D02*
X3170062Y-5816484D01*
X3351015Y-5816484D02*
X3351015Y-5711722D01*
X3351015Y-5711722D02*
X3341491Y-5692674D01*
X3341491Y-5692674D02*
X3322443Y-5683150D01*
X3322443Y-5683150D02*
X3284348Y-5683150D01*
X3284348Y-5683150D02*
X3265301Y-5692674D01*
X3351015Y-5806960D02*
X3331967Y-5816484D01*
X3331967Y-5816484D02*
X3284348Y-5816484D01*
X3284348Y-5816484D02*
X3265301Y-5806960D01*
X3265301Y-5806960D02*
X3255777Y-5787912D01*
X3255777Y-5787912D02*
X3255777Y-5768865D01*
X3255777Y-5768865D02*
X3265301Y-5749817D01*
X3265301Y-5749817D02*
X3284348Y-5740293D01*
X3284348Y-5740293D02*
X3331967Y-5740293D01*
X3331967Y-5740293D02*
X3351015Y-5730769D01*
X3446253Y-5683150D02*
X3446253Y-5883150D01*
X3446253Y-5692674D02*
X3465301Y-5683150D01*
X3465301Y-5683150D02*
X3503396Y-5683150D01*
X3503396Y-5683150D02*
X3522443Y-5692674D01*
X3522443Y-5692674D02*
X3531967Y-5702198D01*
X3531967Y-5702198D02*
X3541491Y-5721246D01*
X3541491Y-5721246D02*
X3541491Y-5778388D01*
X3541491Y-5778388D02*
X3531967Y-5797436D01*
X3531967Y-5797436D02*
X3522443Y-5806960D01*
X3522443Y-5806960D02*
X3503396Y-5816484D01*
X3503396Y-5816484D02*
X3465301Y-5816484D01*
X3465301Y-5816484D02*
X3446253Y-5806960D01*
X3627205Y-5797436D02*
X3636729Y-5806960D01*
X3636729Y-5806960D02*
X3627205Y-5816484D01*
X3627205Y-5816484D02*
X3617682Y-5806960D01*
X3617682Y-5806960D02*
X3627205Y-5797436D01*
X3627205Y-5797436D02*
X3627205Y-5816484D01*
X3627205Y-5692674D02*
X3636729Y-5702198D01*
X3636729Y-5702198D02*
X3627205Y-5711722D01*
X3627205Y-5711722D02*
X3617682Y-5702198D01*
X3617682Y-5702198D02*
X3627205Y-5692674D01*
X3627205Y-5692674D02*
X3627205Y-5711722D01*
D10*
X1965000Y-6130000D02*
X1995000Y-6160000D01*
X1995000Y-6130000D02*
X1965000Y-6160000D01*
D11*
X2293872Y-6036484D02*
X2312920Y-6036484D01*
X2312920Y-6036484D02*
X2331967Y-6046008D01*
X2331967Y-6046008D02*
X2341491Y-6055531D01*
X2341491Y-6055531D02*
X2351015Y-6074579D01*
X2351015Y-6074579D02*
X2360539Y-6112674D01*
X2360539Y-6112674D02*
X2360539Y-6160293D01*
X2360539Y-6160293D02*
X2351015Y-6198388D01*
X2351015Y-6198388D02*
X2341491Y-6217436D01*
X2341491Y-6217436D02*
X2331967Y-6226960D01*
X2331967Y-6226960D02*
X2312920Y-6236484D01*
X2312920Y-6236484D02*
X2293872Y-6236484D01*
X2293872Y-6236484D02*
X2274824Y-6226960D01*
X2274824Y-6226960D02*
X2265301Y-6217436D01*
X2265301Y-6217436D02*
X2255777Y-6198388D01*
X2255777Y-6198388D02*
X2246253Y-6160293D01*
X2246253Y-6160293D02*
X2246253Y-6112674D01*
X2246253Y-6112674D02*
X2255777Y-6074579D01*
X2255777Y-6074579D02*
X2265301Y-6055531D01*
X2265301Y-6055531D02*
X2274824Y-6046008D01*
X2274824Y-6046008D02*
X2293872Y-6036484D01*
X2446253Y-6217436D02*
X2455777Y-6226960D01*
X2455777Y-6226960D02*
X2446253Y-6236484D01*
X2446253Y-6236484D02*
X2436729Y-6226960D01*
X2436729Y-6226960D02*
X2446253Y-6217436D01*
X2446253Y-6217436D02*
X2446253Y-6236484D01*
X2522444Y-6036484D02*
X2646253Y-6036484D01*
X2646253Y-6036484D02*
X2579586Y-6112674D01*
X2579586Y-6112674D02*
X2608158Y-6112674D01*
X2608158Y-6112674D02*
X2627205Y-6122198D01*
X2627205Y-6122198D02*
X2636729Y-6131722D01*
X2636729Y-6131722D02*
X2646253Y-6150769D01*
X2646253Y-6150769D02*
X2646253Y-6198388D01*
X2646253Y-6198388D02*
X2636729Y-6217436D01*
X2636729Y-6217436D02*
X2627205Y-6226960D01*
X2627205Y-6226960D02*
X2608158Y-6236484D01*
X2608158Y-6236484D02*
X2551015Y-6236484D01*
X2551015Y-6236484D02*
X2531967Y-6226960D01*
X2531967Y-6226960D02*
X2522444Y-6217436D01*
X2770063Y-6036484D02*
X2789110Y-6036484D01*
X2789110Y-6036484D02*
X2808158Y-6046008D01*
X2808158Y-6046008D02*
X2817682Y-6055531D01*
X2817682Y-6055531D02*
X2827205Y-6074579D01*
X2827205Y-6074579D02*
X2836729Y-6112674D01*
X2836729Y-6112674D02*
X2836729Y-6160293D01*
X2836729Y-6160293D02*
X2827205Y-6198388D01*
X2827205Y-6198388D02*
X2817682Y-6217436D01*
X2817682Y-6217436D02*
X2808158Y-6226960D01*
X2808158Y-6226960D02*
X2789110Y-6236484D01*
X2789110Y-6236484D02*
X2770063Y-6236484D01*
X2770063Y-6236484D02*
X2751015Y-6226960D01*
X2751015Y-6226960D02*
X2741491Y-6217436D01*
X2741491Y-6217436D02*
X2731967Y-6198388D01*
X2731967Y-6198388D02*
X2722444Y-6160293D01*
X2722444Y-6160293D02*
X2722444Y-6112674D01*
X2722444Y-6112674D02*
X2731967Y-6074579D01*
X2731967Y-6074579D02*
X2741491Y-6055531D01*
X2741491Y-6055531D02*
X2751015Y-6046008D01*
X2751015Y-6046008D02*
X2770063Y-6036484D01*
X2960539Y-6036484D02*
X2979586Y-6036484D01*
X2979586Y-6036484D02*
X2998634Y-6046008D01*
X2998634Y-6046008D02*
X3008158Y-6055531D01*
X3008158Y-6055531D02*
X3017682Y-6074579D01*
X3017682Y-6074579D02*
X3027205Y-6112674D01*
X3027205Y-6112674D02*
X3027205Y-6160293D01*
X3027205Y-6160293D02*
X3017682Y-6198388D01*
X3017682Y-6198388D02*
X3008158Y-6217436D01*
X3008158Y-6217436D02*
X2998634Y-6226960D01*
X2998634Y-6226960D02*
X2979586Y-6236484D01*
X2979586Y-6236484D02*
X2960539Y-6236484D01*
X2960539Y-6236484D02*
X2941491Y-6226960D01*
X2941491Y-6226960D02*
X2931967Y-6217436D01*
X2931967Y-6217436D02*
X2922443Y-6198388D01*
X2922443Y-6198388D02*
X2912920Y-6160293D01*
X2912920Y-6160293D02*
X2912920Y-6112674D01*
X2912920Y-6112674D02*
X2922443Y-6074579D01*
X2922443Y-6074579D02*
X2931967Y-6055531D01*
X2931967Y-6055531D02*
X2941491Y-6046008D01*
X2941491Y-6046008D02*
X2960539Y-6036484D01*
X3112920Y-6236484D02*
X3112920Y-6103150D01*
X3112920Y-6122198D02*
X3122443Y-6112674D01*
X3122443Y-6112674D02*
X3141491Y-6103150D01*
X3141491Y-6103150D02*
X3170063Y-6103150D01*
X3170063Y-6103150D02*
X3189110Y-6112674D01*
X3189110Y-6112674D02*
X3198634Y-6131722D01*
X3198634Y-6131722D02*
X3198634Y-6236484D01*
X3198634Y-6131722D02*
X3208158Y-6112674D01*
X3208158Y-6112674D02*
X3227205Y-6103150D01*
X3227205Y-6103150D02*
X3255777Y-6103150D01*
X3255777Y-6103150D02*
X3274824Y-6112674D01*
X3274824Y-6112674D02*
X3284348Y-6131722D01*
X3284348Y-6131722D02*
X3284348Y-6236484D01*
X3379586Y-6236484D02*
X3379586Y-6103150D01*
X3379586Y-6122198D02*
X3389110Y-6112674D01*
X3389110Y-6112674D02*
X3408158Y-6103150D01*
X3408158Y-6103150D02*
X3436729Y-6103150D01*
X3436729Y-6103150D02*
X3455777Y-6112674D01*
X3455777Y-6112674D02*
X3465301Y-6131722D01*
X3465301Y-6131722D02*
X3465301Y-6236484D01*
X3465301Y-6131722D02*
X3474824Y-6112674D01*
X3474824Y-6112674D02*
X3493872Y-6103150D01*
X3493872Y-6103150D02*
X3522443Y-6103150D01*
X3522443Y-6103150D02*
X3541491Y-6112674D01*
X3541491Y-6112674D02*
X3551015Y-6131722D01*
X3551015Y-6131722D02*
X3551015Y-6236484D01*
X3941491Y-6026960D02*
X3770063Y-6284103D01*
X4198634Y-6036484D02*
X4217682Y-6036484D01*
X4217682Y-6036484D02*
X4236729Y-6046008D01*
X4236729Y-6046008D02*
X4246253Y-6055531D01*
X4246253Y-6055531D02*
X4255777Y-6074579D01*
X4255777Y-6074579D02*
X4265301Y-6112674D01*
X4265301Y-6112674D02*
X4265301Y-6160293D01*
X4265301Y-6160293D02*
X4255777Y-6198388D01*
X4255777Y-6198388D02*
X4246253Y-6217436D01*
X4246253Y-6217436D02*
X4236729Y-6226960D01*
X4236729Y-6226960D02*
X4217682Y-6236484D01*
X4217682Y-6236484D02*
X4198634Y-6236484D01*
X4198634Y-6236484D02*
X4179586Y-6226960D01*
X4179586Y-6226960D02*
X4170063Y-6217436D01*
X4170063Y-6217436D02*
X4160539Y-6198388D01*
X4160539Y-6198388D02*
X4151015Y-6160293D01*
X4151015Y-6160293D02*
X4151015Y-6112674D01*
X4151015Y-6112674D02*
X4160539Y-6074579D01*
X4160539Y-6074579D02*
X4170063Y-6055531D01*
X4170063Y-6055531D02*
X4179586Y-6046008D01*
X4179586Y-6046008D02*
X4198634Y-6036484D01*
X4351015Y-6217436D02*
X4360539Y-6226960D01*
X4360539Y-6226960D02*
X4351015Y-6236484D01*
X4351015Y-6236484D02*
X4341491Y-6226960D01*
X4341491Y-6226960D02*
X4351015Y-6217436D01*
X4351015Y-6217436D02*
X4351015Y-6236484D01*
X4484348Y-6036484D02*
X4503396Y-6036484D01*
X4503396Y-6036484D02*
X4522444Y-6046008D01*
X4522444Y-6046008D02*
X4531968Y-6055531D01*
X4531968Y-6055531D02*
X4541491Y-6074579D01*
X4541491Y-6074579D02*
X4551015Y-6112674D01*
X4551015Y-6112674D02*
X4551015Y-6160293D01*
X4551015Y-6160293D02*
X4541491Y-6198388D01*
X4541491Y-6198388D02*
X4531968Y-6217436D01*
X4531968Y-6217436D02*
X4522444Y-6226960D01*
X4522444Y-6226960D02*
X4503396Y-6236484D01*
X4503396Y-6236484D02*
X4484348Y-6236484D01*
X4484348Y-6236484D02*
X4465301Y-6226960D01*
X4465301Y-6226960D02*
X4455777Y-6217436D01*
X4455777Y-6217436D02*
X4446253Y-6198388D01*
X4446253Y-6198388D02*
X4436729Y-6160293D01*
X4436729Y-6160293D02*
X4436729Y-6112674D01*
X4436729Y-6112674D02*
X4446253Y-6074579D01*
X4446253Y-6074579D02*
X4455777Y-6055531D01*
X4455777Y-6055531D02*
X4465301Y-6046008D01*
X4465301Y-6046008D02*
X4484348Y-6036484D01*
X4741491Y-6236484D02*
X4627206Y-6236484D01*
X4684348Y-6236484D02*
X4684348Y-6036484D01*
X4684348Y-6036484D02*
X4665301Y-6065055D01*
X4665301Y-6065055D02*
X4646253Y-6084103D01*
X4646253Y-6084103D02*
X4627206Y-6093627D01*
X4931968Y-6236484D02*
X4817682Y-6236484D01*
X4874825Y-6236484D02*
X4874825Y-6036484D01*
X4874825Y-6036484D02*
X4855777Y-6065055D01*
X4855777Y-6065055D02*
X4836729Y-6084103D01*
X4836729Y-6084103D02*
X4817682Y-6093627D01*
X5046253Y-6122198D02*
X5027206Y-6112674D01*
X5027206Y-6112674D02*
X5017682Y-6103150D01*
X5017682Y-6103150D02*
X5008158Y-6084103D01*
X5008158Y-6084103D02*
X5008158Y-6074579D01*
X5008158Y-6074579D02*
X5017682Y-6055531D01*
X5017682Y-6055531D02*
X5027206Y-6046008D01*
X5027206Y-6046008D02*
X5046253Y-6036484D01*
X5046253Y-6036484D02*
X5084349Y-6036484D01*
X5084349Y-6036484D02*
X5103396Y-6046008D01*
X5103396Y-6046008D02*
X5112920Y-6055531D01*
X5112920Y-6055531D02*
X5122444Y-6074579D01*
X5122444Y-6074579D02*
X5122444Y-6084103D01*
X5122444Y-6084103D02*
X5112920Y-6103150D01*
X5112920Y-6103150D02*
X5103396Y-6112674D01*
X5103396Y-6112674D02*
X5084349Y-6122198D01*
X5084349Y-6122198D02*
X5046253Y-6122198D01*
X5046253Y-6122198D02*
X5027206Y-6131722D01*
X5027206Y-6131722D02*
X5017682Y-6141246D01*
X5017682Y-6141246D02*
X5008158Y-6160293D01*
X5008158Y-6160293D02*
X5008158Y-6198388D01*
X5008158Y-6198388D02*
X5017682Y-6217436D01*
X5017682Y-6217436D02*
X5027206Y-6226960D01*
X5027206Y-6226960D02*
X5046253Y-6236484D01*
X5046253Y-6236484D02*
X5084349Y-6236484D01*
X5084349Y-6236484D02*
X5103396Y-6226960D01*
X5103396Y-6226960D02*
X5112920Y-6217436D01*
X5112920Y-6217436D02*
X5122444Y-6198388D01*
X5122444Y-6198388D02*
X5122444Y-6160293D01*
X5122444Y-6160293D02*
X5112920Y-6141246D01*
X5112920Y-6141246D02*
X5103396Y-6131722D01*
X5103396Y-6131722D02*
X5084349Y-6122198D01*
X5198634Y-6036484D02*
X5198634Y-6074579D01*
X5274825Y-6036484D02*
X5274825Y-6074579D01*
X5570063Y-6312674D02*
X5560539Y-6303150D01*
X5560539Y-6303150D02*
X5541491Y-6274579D01*
X5541491Y-6274579D02*
X5531968Y-6255531D01*
X5531968Y-6255531D02*
X5522444Y-6226960D01*
X5522444Y-6226960D02*
X5512920Y-6179341D01*
X5512920Y-6179341D02*
X5512920Y-6141246D01*
X5512920Y-6141246D02*
X5522444Y-6093627D01*
X5522444Y-6093627D02*
X5531968Y-6065055D01*
X5531968Y-6065055D02*
X5541491Y-6046008D01*
X5541491Y-6046008D02*
X5560539Y-6017436D01*
X5560539Y-6017436D02*
X5570063Y-6007912D01*
X5751015Y-6236484D02*
X5636729Y-6236484D01*
X5693872Y-6236484D02*
X5693872Y-6036484D01*
X5693872Y-6036484D02*
X5674825Y-6065055D01*
X5674825Y-6065055D02*
X5655777Y-6084103D01*
X5655777Y-6084103D02*
X5636729Y-6093627D01*
X5989110Y-6236484D02*
X5989110Y-6036484D01*
X6074825Y-6236484D02*
X6074825Y-6131722D01*
X6074825Y-6131722D02*
X6065301Y-6112674D01*
X6065301Y-6112674D02*
X6046253Y-6103150D01*
X6046253Y-6103150D02*
X6017682Y-6103150D01*
X6017682Y-6103150D02*
X5998634Y-6112674D01*
X5998634Y-6112674D02*
X5989110Y-6122198D01*
X6198634Y-6236484D02*
X6179587Y-6226960D01*
X6179587Y-6226960D02*
X6170063Y-6217436D01*
X6170063Y-6217436D02*
X6160539Y-6198388D01*
X6160539Y-6198388D02*
X6160539Y-6141246D01*
X6160539Y-6141246D02*
X6170063Y-6122198D01*
X6170063Y-6122198D02*
X6179587Y-6112674D01*
X6179587Y-6112674D02*
X6198634Y-6103150D01*
X6198634Y-6103150D02*
X6227206Y-6103150D01*
X6227206Y-6103150D02*
X6246253Y-6112674D01*
X6246253Y-6112674D02*
X6255777Y-6122198D01*
X6255777Y-6122198D02*
X6265301Y-6141246D01*
X6265301Y-6141246D02*
X6265301Y-6198388D01*
X6265301Y-6198388D02*
X6255777Y-6217436D01*
X6255777Y-6217436D02*
X6246253Y-6226960D01*
X6246253Y-6226960D02*
X6227206Y-6236484D01*
X6227206Y-6236484D02*
X6198634Y-6236484D01*
X6379587Y-6236484D02*
X6360539Y-6226960D01*
X6360539Y-6226960D02*
X6351015Y-6207912D01*
X6351015Y-6207912D02*
X6351015Y-6036484D01*
X6531968Y-6226960D02*
X6512920Y-6236484D01*
X6512920Y-6236484D02*
X6474825Y-6236484D01*
X6474825Y-6236484D02*
X6455777Y-6226960D01*
X6455777Y-6226960D02*
X6446253Y-6207912D01*
X6446253Y-6207912D02*
X6446253Y-6131722D01*
X6446253Y-6131722D02*
X6455777Y-6112674D01*
X6455777Y-6112674D02*
X6474825Y-6103150D01*
X6474825Y-6103150D02*
X6512920Y-6103150D01*
X6512920Y-6103150D02*
X6531968Y-6112674D01*
X6531968Y-6112674D02*
X6541491Y-6131722D01*
X6541491Y-6131722D02*
X6541491Y-6150769D01*
X6541491Y-6150769D02*
X6446253Y-6169817D01*
X6608158Y-6312674D02*
X6617682Y-6303150D01*
X6617682Y-6303150D02*
X6636730Y-6274579D01*
X6636730Y-6274579D02*
X6646253Y-6255531D01*
X6646253Y-6255531D02*
X6655777Y-6226960D01*
X6655777Y-6226960D02*
X6665301Y-6179341D01*
X6665301Y-6179341D02*
X6665301Y-6141246D01*
X6665301Y-6141246D02*
X6655777Y-6093627D01*
X6655777Y-6093627D02*
X6646253Y-6065055D01*
X6646253Y-6065055D02*
X6636730Y-6046008D01*
X6636730Y-6046008D02*
X6617682Y-6017436D01*
X6617682Y-6017436D02*
X6608158Y-6007912D01*
D10*
X1995000Y-6409000D02*
G75*
G02*
X1955000Y-6409000I-20000J0D01*
G01*
X1955000Y-6409000D02*
G75*
G02*
X1995000Y-6409000I20000J0D01*
G01*
D11*
X2293872Y-6300484D02*
X2312920Y-6300484D01*
X2312920Y-6300484D02*
X2331967Y-6310008D01*
X2331967Y-6310008D02*
X2341491Y-6319531D01*
X2341491Y-6319531D02*
X2351015Y-6338579D01*
X2351015Y-6338579D02*
X2360539Y-6376674D01*
X2360539Y-6376674D02*
X2360539Y-6424293D01*
X2360539Y-6424293D02*
X2351015Y-6462388D01*
X2351015Y-6462388D02*
X2341491Y-6481436D01*
X2341491Y-6481436D02*
X2331967Y-6490960D01*
X2331967Y-6490960D02*
X2312920Y-6500484D01*
X2312920Y-6500484D02*
X2293872Y-6500484D01*
X2293872Y-6500484D02*
X2274824Y-6490960D01*
X2274824Y-6490960D02*
X2265301Y-6481436D01*
X2265301Y-6481436D02*
X2255777Y-6462388D01*
X2255777Y-6462388D02*
X2246253Y-6424293D01*
X2246253Y-6424293D02*
X2246253Y-6376674D01*
X2246253Y-6376674D02*
X2255777Y-6338579D01*
X2255777Y-6338579D02*
X2265301Y-6319531D01*
X2265301Y-6319531D02*
X2274824Y-6310008D01*
X2274824Y-6310008D02*
X2293872Y-6300484D01*
X2446253Y-6481436D02*
X2455777Y-6490960D01*
X2455777Y-6490960D02*
X2446253Y-6500484D01*
X2446253Y-6500484D02*
X2436729Y-6490960D01*
X2436729Y-6490960D02*
X2446253Y-6481436D01*
X2446253Y-6481436D02*
X2446253Y-6500484D01*
X2627205Y-6367150D02*
X2627205Y-6500484D01*
X2579586Y-6290960D02*
X2531967Y-6433817D01*
X2531967Y-6433817D02*
X2655777Y-6433817D01*
X2770063Y-6300484D02*
X2789110Y-6300484D01*
X2789110Y-6300484D02*
X2808158Y-6310008D01*
X2808158Y-6310008D02*
X2817682Y-6319531D01*
X2817682Y-6319531D02*
X2827205Y-6338579D01*
X2827205Y-6338579D02*
X2836729Y-6376674D01*
X2836729Y-6376674D02*
X2836729Y-6424293D01*
X2836729Y-6424293D02*
X2827205Y-6462388D01*
X2827205Y-6462388D02*
X2817682Y-6481436D01*
X2817682Y-6481436D02*
X2808158Y-6490960D01*
X2808158Y-6490960D02*
X2789110Y-6500484D01*
X2789110Y-6500484D02*
X2770063Y-6500484D01*
X2770063Y-6500484D02*
X2751015Y-6490960D01*
X2751015Y-6490960D02*
X2741491Y-6481436D01*
X2741491Y-6481436D02*
X2731967Y-6462388D01*
X2731967Y-6462388D02*
X2722444Y-6424293D01*
X2722444Y-6424293D02*
X2722444Y-6376674D01*
X2722444Y-6376674D02*
X2731967Y-6338579D01*
X2731967Y-6338579D02*
X2741491Y-6319531D01*
X2741491Y-6319531D02*
X2751015Y-6310008D01*
X2751015Y-6310008D02*
X2770063Y-6300484D01*
X2960539Y-6300484D02*
X2979586Y-6300484D01*
X2979586Y-6300484D02*
X2998634Y-6310008D01*
X2998634Y-6310008D02*
X3008158Y-6319531D01*
X3008158Y-6319531D02*
X3017682Y-6338579D01*
X3017682Y-6338579D02*
X3027205Y-6376674D01*
X3027205Y-6376674D02*
X3027205Y-6424293D01*
X3027205Y-6424293D02*
X3017682Y-6462388D01*
X3017682Y-6462388D02*
X3008158Y-6481436D01*
X3008158Y-6481436D02*
X2998634Y-6490960D01*
X2998634Y-6490960D02*
X2979586Y-6500484D01*
X2979586Y-6500484D02*
X2960539Y-6500484D01*
X2960539Y-6500484D02*
X2941491Y-6490960D01*
X2941491Y-6490960D02*
X2931967Y-6481436D01*
X2931967Y-6481436D02*
X2922443Y-6462388D01*
X2922443Y-6462388D02*
X2912920Y-6424293D01*
X2912920Y-6424293D02*
X2912920Y-6376674D01*
X2912920Y-6376674D02*
X2922443Y-6338579D01*
X2922443Y-6338579D02*
X2931967Y-6319531D01*
X2931967Y-6319531D02*
X2941491Y-6310008D01*
X2941491Y-6310008D02*
X2960539Y-6300484D01*
X3112920Y-6500484D02*
X3112920Y-6367150D01*
X3112920Y-6386198D02*
X3122443Y-6376674D01*
X3122443Y-6376674D02*
X3141491Y-6367150D01*
X3141491Y-6367150D02*
X3170063Y-6367150D01*
X3170063Y-6367150D02*
X3189110Y-6376674D01*
X3189110Y-6376674D02*
X3198634Y-6395722D01*
X3198634Y-6395722D02*
X3198634Y-6500484D01*
X3198634Y-6395722D02*
X3208158Y-6376674D01*
X3208158Y-6376674D02*
X3227205Y-6367150D01*
X3227205Y-6367150D02*
X3255777Y-6367150D01*
X3255777Y-6367150D02*
X3274824Y-6376674D01*
X3274824Y-6376674D02*
X3284348Y-6395722D01*
X3284348Y-6395722D02*
X3284348Y-6500484D01*
X3379586Y-6500484D02*
X3379586Y-6367150D01*
X3379586Y-6386198D02*
X3389110Y-6376674D01*
X3389110Y-6376674D02*
X3408158Y-6367150D01*
X3408158Y-6367150D02*
X3436729Y-6367150D01*
X3436729Y-6367150D02*
X3455777Y-6376674D01*
X3455777Y-6376674D02*
X3465301Y-6395722D01*
X3465301Y-6395722D02*
X3465301Y-6500484D01*
X3465301Y-6395722D02*
X3474824Y-6376674D01*
X3474824Y-6376674D02*
X3493872Y-6367150D01*
X3493872Y-6367150D02*
X3522443Y-6367150D01*
X3522443Y-6367150D02*
X3541491Y-6376674D01*
X3541491Y-6376674D02*
X3551015Y-6395722D01*
X3551015Y-6395722D02*
X3551015Y-6500484D01*
X3941491Y-6290960D02*
X3770063Y-6548103D01*
X4198634Y-6300484D02*
X4217682Y-6300484D01*
X4217682Y-6300484D02*
X4236729Y-6310008D01*
X4236729Y-6310008D02*
X4246253Y-6319531D01*
X4246253Y-6319531D02*
X4255777Y-6338579D01*
X4255777Y-6338579D02*
X4265301Y-6376674D01*
X4265301Y-6376674D02*
X4265301Y-6424293D01*
X4265301Y-6424293D02*
X4255777Y-6462388D01*
X4255777Y-6462388D02*
X4246253Y-6481436D01*
X4246253Y-6481436D02*
X4236729Y-6490960D01*
X4236729Y-6490960D02*
X4217682Y-6500484D01*
X4217682Y-6500484D02*
X4198634Y-6500484D01*
X4198634Y-6500484D02*
X4179586Y-6490960D01*
X4179586Y-6490960D02*
X4170063Y-6481436D01*
X4170063Y-6481436D02*
X4160539Y-6462388D01*
X4160539Y-6462388D02*
X4151015Y-6424293D01*
X4151015Y-6424293D02*
X4151015Y-6376674D01*
X4151015Y-6376674D02*
X4160539Y-6338579D01*
X4160539Y-6338579D02*
X4170063Y-6319531D01*
X4170063Y-6319531D02*
X4179586Y-6310008D01*
X4179586Y-6310008D02*
X4198634Y-6300484D01*
X4351015Y-6481436D02*
X4360539Y-6490960D01*
X4360539Y-6490960D02*
X4351015Y-6500484D01*
X4351015Y-6500484D02*
X4341491Y-6490960D01*
X4341491Y-6490960D02*
X4351015Y-6481436D01*
X4351015Y-6481436D02*
X4351015Y-6500484D01*
X4484348Y-6300484D02*
X4503396Y-6300484D01*
X4503396Y-6300484D02*
X4522444Y-6310008D01*
X4522444Y-6310008D02*
X4531968Y-6319531D01*
X4531968Y-6319531D02*
X4541491Y-6338579D01*
X4541491Y-6338579D02*
X4551015Y-6376674D01*
X4551015Y-6376674D02*
X4551015Y-6424293D01*
X4551015Y-6424293D02*
X4541491Y-6462388D01*
X4541491Y-6462388D02*
X4531968Y-6481436D01*
X4531968Y-6481436D02*
X4522444Y-6490960D01*
X4522444Y-6490960D02*
X4503396Y-6500484D01*
X4503396Y-6500484D02*
X4484348Y-6500484D01*
X4484348Y-6500484D02*
X4465301Y-6490960D01*
X4465301Y-6490960D02*
X4455777Y-6481436D01*
X4455777Y-6481436D02*
X4446253Y-6462388D01*
X4446253Y-6462388D02*
X4436729Y-6424293D01*
X4436729Y-6424293D02*
X4436729Y-6376674D01*
X4436729Y-6376674D02*
X4446253Y-6338579D01*
X4446253Y-6338579D02*
X4455777Y-6319531D01*
X4455777Y-6319531D02*
X4465301Y-6310008D01*
X4465301Y-6310008D02*
X4484348Y-6300484D01*
X4741491Y-6500484D02*
X4627206Y-6500484D01*
X4684348Y-6500484D02*
X4684348Y-6300484D01*
X4684348Y-6300484D02*
X4665301Y-6329055D01*
X4665301Y-6329055D02*
X4646253Y-6348103D01*
X4646253Y-6348103D02*
X4627206Y-6357627D01*
X4922444Y-6300484D02*
X4827206Y-6300484D01*
X4827206Y-6300484D02*
X4817682Y-6395722D01*
X4817682Y-6395722D02*
X4827206Y-6386198D01*
X4827206Y-6386198D02*
X4846253Y-6376674D01*
X4846253Y-6376674D02*
X4893872Y-6376674D01*
X4893872Y-6376674D02*
X4912920Y-6386198D01*
X4912920Y-6386198D02*
X4922444Y-6395722D01*
X4922444Y-6395722D02*
X4931968Y-6414769D01*
X4931968Y-6414769D02*
X4931968Y-6462388D01*
X4931968Y-6462388D02*
X4922444Y-6481436D01*
X4922444Y-6481436D02*
X4912920Y-6490960D01*
X4912920Y-6490960D02*
X4893872Y-6500484D01*
X4893872Y-6500484D02*
X4846253Y-6500484D01*
X4846253Y-6500484D02*
X4827206Y-6490960D01*
X4827206Y-6490960D02*
X4817682Y-6481436D01*
X4998634Y-6300484D02*
X5131968Y-6300484D01*
X5131968Y-6300484D02*
X5046253Y-6500484D01*
X5198634Y-6300484D02*
X5198634Y-6338579D01*
X5274825Y-6300484D02*
X5274825Y-6338579D01*
X5570063Y-6576674D02*
X5560539Y-6567150D01*
X5560539Y-6567150D02*
X5541491Y-6538579D01*
X5541491Y-6538579D02*
X5531968Y-6519531D01*
X5531968Y-6519531D02*
X5522444Y-6490960D01*
X5522444Y-6490960D02*
X5512920Y-6443341D01*
X5512920Y-6443341D02*
X5512920Y-6405246D01*
X5512920Y-6405246D02*
X5522444Y-6357627D01*
X5522444Y-6357627D02*
X5531968Y-6329055D01*
X5531968Y-6329055D02*
X5541491Y-6310008D01*
X5541491Y-6310008D02*
X5560539Y-6281436D01*
X5560539Y-6281436D02*
X5570063Y-6271912D01*
X5636729Y-6319531D02*
X5646253Y-6310008D01*
X5646253Y-6310008D02*
X5665301Y-6300484D01*
X5665301Y-6300484D02*
X5712920Y-6300484D01*
X5712920Y-6300484D02*
X5731968Y-6310008D01*
X5731968Y-6310008D02*
X5741491Y-6319531D01*
X5741491Y-6319531D02*
X5751015Y-6338579D01*
X5751015Y-6338579D02*
X5751015Y-6357627D01*
X5751015Y-6357627D02*
X5741491Y-6386198D01*
X5741491Y-6386198D02*
X5627206Y-6500484D01*
X5627206Y-6500484D02*
X5751015Y-6500484D01*
X5989110Y-6500484D02*
X5989110Y-6300484D01*
X6074825Y-6500484D02*
X6074825Y-6395722D01*
X6074825Y-6395722D02*
X6065301Y-6376674D01*
X6065301Y-6376674D02*
X6046253Y-6367150D01*
X6046253Y-6367150D02*
X6017682Y-6367150D01*
X6017682Y-6367150D02*
X5998634Y-6376674D01*
X5998634Y-6376674D02*
X5989110Y-6386198D01*
X6198634Y-6500484D02*
X6179587Y-6490960D01*
X6179587Y-6490960D02*
X6170063Y-6481436D01*
X6170063Y-6481436D02*
X6160539Y-6462388D01*
X6160539Y-6462388D02*
X6160539Y-6405246D01*
X6160539Y-6405246D02*
X6170063Y-6386198D01*
X6170063Y-6386198D02*
X6179587Y-6376674D01*
X6179587Y-6376674D02*
X6198634Y-6367150D01*
X6198634Y-6367150D02*
X6227206Y-6367150D01*
X6227206Y-6367150D02*
X6246253Y-6376674D01*
X6246253Y-6376674D02*
X6255777Y-6386198D01*
X6255777Y-6386198D02*
X6265301Y-6405246D01*
X6265301Y-6405246D02*
X6265301Y-6462388D01*
X6265301Y-6462388D02*
X6255777Y-6481436D01*
X6255777Y-6481436D02*
X6246253Y-6490960D01*
X6246253Y-6490960D02*
X6227206Y-6500484D01*
X6227206Y-6500484D02*
X6198634Y-6500484D01*
X6379587Y-6500484D02*
X6360539Y-6490960D01*
X6360539Y-6490960D02*
X6351015Y-6471912D01*
X6351015Y-6471912D02*
X6351015Y-6300484D01*
X6531968Y-6490960D02*
X6512920Y-6500484D01*
X6512920Y-6500484D02*
X6474825Y-6500484D01*
X6474825Y-6500484D02*
X6455777Y-6490960D01*
X6455777Y-6490960D02*
X6446253Y-6471912D01*
X6446253Y-6471912D02*
X6446253Y-6395722D01*
X6446253Y-6395722D02*
X6455777Y-6376674D01*
X6455777Y-6376674D02*
X6474825Y-6367150D01*
X6474825Y-6367150D02*
X6512920Y-6367150D01*
X6512920Y-6367150D02*
X6531968Y-6376674D01*
X6531968Y-6376674D02*
X6541491Y-6395722D01*
X6541491Y-6395722D02*
X6541491Y-6414769D01*
X6541491Y-6414769D02*
X6446253Y-6433817D01*
X6617682Y-6490960D02*
X6636730Y-6500484D01*
X6636730Y-6500484D02*
X6674825Y-6500484D01*
X6674825Y-6500484D02*
X6693872Y-6490960D01*
X6693872Y-6490960D02*
X6703396Y-6471912D01*
X6703396Y-6471912D02*
X6703396Y-6462388D01*
X6703396Y-6462388D02*
X6693872Y-6443341D01*
X6693872Y-6443341D02*
X6674825Y-6433817D01*
X6674825Y-6433817D02*
X6646253Y-6433817D01*
X6646253Y-6433817D02*
X6627206Y-6424293D01*
X6627206Y-6424293D02*
X6617682Y-6405246D01*
X6617682Y-6405246D02*
X6617682Y-6395722D01*
X6617682Y-6395722D02*
X6627206Y-6376674D01*
X6627206Y-6376674D02*
X6646253Y-6367150D01*
X6646253Y-6367150D02*
X6674825Y-6367150D01*
X6674825Y-6367150D02*
X6693872Y-6376674D01*
X6770063Y-6576674D02*
X6779587Y-6567150D01*
X6779587Y-6567150D02*
X6798634Y-6538579D01*
X6798634Y-6538579D02*
X6808158Y-6519531D01*
X6808158Y-6519531D02*
X6817682Y-6490960D01*
X6817682Y-6490960D02*
X6827206Y-6443341D01*
X6827206Y-6443341D02*
X6827206Y-6405246D01*
X6827206Y-6405246D02*
X6817682Y-6357627D01*
X6817682Y-6357627D02*
X6808158Y-6329055D01*
X6808158Y-6329055D02*
X6798634Y-6310008D01*
X6798634Y-6310008D02*
X6779587Y-6281436D01*
X6779587Y-6281436D02*
X6770063Y-6271912D01*
D10*
X1965000Y-6643000D02*
X1965000Y-6703000D01*
X1935000Y-6673000D02*
X1995000Y-6673000D01*
D11*
X2293872Y-6564484D02*
X2312920Y-6564484D01*
X2312920Y-6564484D02*
X2331967Y-6574008D01*
X2331967Y-6574008D02*
X2341491Y-6583531D01*
X2341491Y-6583531D02*
X2351015Y-6602579D01*
X2351015Y-6602579D02*
X2360539Y-6640674D01*
X2360539Y-6640674D02*
X2360539Y-6688293D01*
X2360539Y-6688293D02*
X2351015Y-6726388D01*
X2351015Y-6726388D02*
X2341491Y-6745436D01*
X2341491Y-6745436D02*
X2331967Y-6754960D01*
X2331967Y-6754960D02*
X2312920Y-6764484D01*
X2312920Y-6764484D02*
X2293872Y-6764484D01*
X2293872Y-6764484D02*
X2274824Y-6754960D01*
X2274824Y-6754960D02*
X2265301Y-6745436D01*
X2265301Y-6745436D02*
X2255777Y-6726388D01*
X2255777Y-6726388D02*
X2246253Y-6688293D01*
X2246253Y-6688293D02*
X2246253Y-6640674D01*
X2246253Y-6640674D02*
X2255777Y-6602579D01*
X2255777Y-6602579D02*
X2265301Y-6583531D01*
X2265301Y-6583531D02*
X2274824Y-6574008D01*
X2274824Y-6574008D02*
X2293872Y-6564484D01*
X2446253Y-6745436D02*
X2455777Y-6754960D01*
X2455777Y-6754960D02*
X2446253Y-6764484D01*
X2446253Y-6764484D02*
X2436729Y-6754960D01*
X2436729Y-6754960D02*
X2446253Y-6745436D01*
X2446253Y-6745436D02*
X2446253Y-6764484D01*
X2627205Y-6564484D02*
X2589110Y-6564484D01*
X2589110Y-6564484D02*
X2570063Y-6574008D01*
X2570063Y-6574008D02*
X2560539Y-6583531D01*
X2560539Y-6583531D02*
X2541491Y-6612103D01*
X2541491Y-6612103D02*
X2531967Y-6650198D01*
X2531967Y-6650198D02*
X2531967Y-6726388D01*
X2531967Y-6726388D02*
X2541491Y-6745436D01*
X2541491Y-6745436D02*
X2551015Y-6754960D01*
X2551015Y-6754960D02*
X2570063Y-6764484D01*
X2570063Y-6764484D02*
X2608158Y-6764484D01*
X2608158Y-6764484D02*
X2627205Y-6754960D01*
X2627205Y-6754960D02*
X2636729Y-6745436D01*
X2636729Y-6745436D02*
X2646253Y-6726388D01*
X2646253Y-6726388D02*
X2646253Y-6678769D01*
X2646253Y-6678769D02*
X2636729Y-6659722D01*
X2636729Y-6659722D02*
X2627205Y-6650198D01*
X2627205Y-6650198D02*
X2608158Y-6640674D01*
X2608158Y-6640674D02*
X2570063Y-6640674D01*
X2570063Y-6640674D02*
X2551015Y-6650198D01*
X2551015Y-6650198D02*
X2541491Y-6659722D01*
X2541491Y-6659722D02*
X2531967Y-6678769D01*
X2770063Y-6564484D02*
X2789110Y-6564484D01*
X2789110Y-6564484D02*
X2808158Y-6574008D01*
X2808158Y-6574008D02*
X2817682Y-6583531D01*
X2817682Y-6583531D02*
X2827205Y-6602579D01*
X2827205Y-6602579D02*
X2836729Y-6640674D01*
X2836729Y-6640674D02*
X2836729Y-6688293D01*
X2836729Y-6688293D02*
X2827205Y-6726388D01*
X2827205Y-6726388D02*
X2817682Y-6745436D01*
X2817682Y-6745436D02*
X2808158Y-6754960D01*
X2808158Y-6754960D02*
X2789110Y-6764484D01*
X2789110Y-6764484D02*
X2770063Y-6764484D01*
X2770063Y-6764484D02*
X2751015Y-6754960D01*
X2751015Y-6754960D02*
X2741491Y-6745436D01*
X2741491Y-6745436D02*
X2731967Y-6726388D01*
X2731967Y-6726388D02*
X2722444Y-6688293D01*
X2722444Y-6688293D02*
X2722444Y-6640674D01*
X2722444Y-6640674D02*
X2731967Y-6602579D01*
X2731967Y-6602579D02*
X2741491Y-6583531D01*
X2741491Y-6583531D02*
X2751015Y-6574008D01*
X2751015Y-6574008D02*
X2770063Y-6564484D01*
X2960539Y-6564484D02*
X2979586Y-6564484D01*
X2979586Y-6564484D02*
X2998634Y-6574008D01*
X2998634Y-6574008D02*
X3008158Y-6583531D01*
X3008158Y-6583531D02*
X3017682Y-6602579D01*
X3017682Y-6602579D02*
X3027205Y-6640674D01*
X3027205Y-6640674D02*
X3027205Y-6688293D01*
X3027205Y-6688293D02*
X3017682Y-6726388D01*
X3017682Y-6726388D02*
X3008158Y-6745436D01*
X3008158Y-6745436D02*
X2998634Y-6754960D01*
X2998634Y-6754960D02*
X2979586Y-6764484D01*
X2979586Y-6764484D02*
X2960539Y-6764484D01*
X2960539Y-6764484D02*
X2941491Y-6754960D01*
X2941491Y-6754960D02*
X2931967Y-6745436D01*
X2931967Y-6745436D02*
X2922443Y-6726388D01*
X2922443Y-6726388D02*
X2912920Y-6688293D01*
X2912920Y-6688293D02*
X2912920Y-6640674D01*
X2912920Y-6640674D02*
X2922443Y-6602579D01*
X2922443Y-6602579D02*
X2931967Y-6583531D01*
X2931967Y-6583531D02*
X2941491Y-6574008D01*
X2941491Y-6574008D02*
X2960539Y-6564484D01*
X3112920Y-6764484D02*
X3112920Y-6631150D01*
X3112920Y-6650198D02*
X3122443Y-6640674D01*
X3122443Y-6640674D02*
X3141491Y-6631150D01*
X3141491Y-6631150D02*
X3170063Y-6631150D01*
X3170063Y-6631150D02*
X3189110Y-6640674D01*
X3189110Y-6640674D02*
X3198634Y-6659722D01*
X3198634Y-6659722D02*
X3198634Y-6764484D01*
X3198634Y-6659722D02*
X3208158Y-6640674D01*
X3208158Y-6640674D02*
X3227205Y-6631150D01*
X3227205Y-6631150D02*
X3255777Y-6631150D01*
X3255777Y-6631150D02*
X3274824Y-6640674D01*
X3274824Y-6640674D02*
X3284348Y-6659722D01*
X3284348Y-6659722D02*
X3284348Y-6764484D01*
X3379586Y-6764484D02*
X3379586Y-6631150D01*
X3379586Y-6650198D02*
X3389110Y-6640674D01*
X3389110Y-6640674D02*
X3408158Y-6631150D01*
X3408158Y-6631150D02*
X3436729Y-6631150D01*
X3436729Y-6631150D02*
X3455777Y-6640674D01*
X3455777Y-6640674D02*
X3465301Y-6659722D01*
X3465301Y-6659722D02*
X3465301Y-6764484D01*
X3465301Y-6659722D02*
X3474824Y-6640674D01*
X3474824Y-6640674D02*
X3493872Y-6631150D01*
X3493872Y-6631150D02*
X3522443Y-6631150D01*
X3522443Y-6631150D02*
X3541491Y-6640674D01*
X3541491Y-6640674D02*
X3551015Y-6659722D01*
X3551015Y-6659722D02*
X3551015Y-6764484D01*
X3941491Y-6554960D02*
X3770063Y-6812103D01*
X4198634Y-6564484D02*
X4217682Y-6564484D01*
X4217682Y-6564484D02*
X4236729Y-6574008D01*
X4236729Y-6574008D02*
X4246253Y-6583531D01*
X4246253Y-6583531D02*
X4255777Y-6602579D01*
X4255777Y-6602579D02*
X4265301Y-6640674D01*
X4265301Y-6640674D02*
X4265301Y-6688293D01*
X4265301Y-6688293D02*
X4255777Y-6726388D01*
X4255777Y-6726388D02*
X4246253Y-6745436D01*
X4246253Y-6745436D02*
X4236729Y-6754960D01*
X4236729Y-6754960D02*
X4217682Y-6764484D01*
X4217682Y-6764484D02*
X4198634Y-6764484D01*
X4198634Y-6764484D02*
X4179586Y-6754960D01*
X4179586Y-6754960D02*
X4170063Y-6745436D01*
X4170063Y-6745436D02*
X4160539Y-6726388D01*
X4160539Y-6726388D02*
X4151015Y-6688293D01*
X4151015Y-6688293D02*
X4151015Y-6640674D01*
X4151015Y-6640674D02*
X4160539Y-6602579D01*
X4160539Y-6602579D02*
X4170063Y-6583531D01*
X4170063Y-6583531D02*
X4179586Y-6574008D01*
X4179586Y-6574008D02*
X4198634Y-6564484D01*
X4351015Y-6745436D02*
X4360539Y-6754960D01*
X4360539Y-6754960D02*
X4351015Y-6764484D01*
X4351015Y-6764484D02*
X4341491Y-6754960D01*
X4341491Y-6754960D02*
X4351015Y-6745436D01*
X4351015Y-6745436D02*
X4351015Y-6764484D01*
X4484348Y-6564484D02*
X4503396Y-6564484D01*
X4503396Y-6564484D02*
X4522444Y-6574008D01*
X4522444Y-6574008D02*
X4531968Y-6583531D01*
X4531968Y-6583531D02*
X4541491Y-6602579D01*
X4541491Y-6602579D02*
X4551015Y-6640674D01*
X4551015Y-6640674D02*
X4551015Y-6688293D01*
X4551015Y-6688293D02*
X4541491Y-6726388D01*
X4541491Y-6726388D02*
X4531968Y-6745436D01*
X4531968Y-6745436D02*
X4522444Y-6754960D01*
X4522444Y-6754960D02*
X4503396Y-6764484D01*
X4503396Y-6764484D02*
X4484348Y-6764484D01*
X4484348Y-6764484D02*
X4465301Y-6754960D01*
X4465301Y-6754960D02*
X4455777Y-6745436D01*
X4455777Y-6745436D02*
X4446253Y-6726388D01*
X4446253Y-6726388D02*
X4436729Y-6688293D01*
X4436729Y-6688293D02*
X4436729Y-6640674D01*
X4436729Y-6640674D02*
X4446253Y-6602579D01*
X4446253Y-6602579D02*
X4455777Y-6583531D01*
X4455777Y-6583531D02*
X4465301Y-6574008D01*
X4465301Y-6574008D02*
X4484348Y-6564484D01*
X4627206Y-6583531D02*
X4636729Y-6574008D01*
X4636729Y-6574008D02*
X4655777Y-6564484D01*
X4655777Y-6564484D02*
X4703396Y-6564484D01*
X4703396Y-6564484D02*
X4722444Y-6574008D01*
X4722444Y-6574008D02*
X4731968Y-6583531D01*
X4731968Y-6583531D02*
X4741491Y-6602579D01*
X4741491Y-6602579D02*
X4741491Y-6621627D01*
X4741491Y-6621627D02*
X4731968Y-6650198D01*
X4731968Y-6650198D02*
X4617682Y-6764484D01*
X4617682Y-6764484D02*
X4741491Y-6764484D01*
X4808158Y-6564484D02*
X4931968Y-6564484D01*
X4931968Y-6564484D02*
X4865301Y-6640674D01*
X4865301Y-6640674D02*
X4893872Y-6640674D01*
X4893872Y-6640674D02*
X4912920Y-6650198D01*
X4912920Y-6650198D02*
X4922444Y-6659722D01*
X4922444Y-6659722D02*
X4931968Y-6678769D01*
X4931968Y-6678769D02*
X4931968Y-6726388D01*
X4931968Y-6726388D02*
X4922444Y-6745436D01*
X4922444Y-6745436D02*
X4912920Y-6754960D01*
X4912920Y-6754960D02*
X4893872Y-6764484D01*
X4893872Y-6764484D02*
X4836729Y-6764484D01*
X4836729Y-6764484D02*
X4817682Y-6754960D01*
X4817682Y-6754960D02*
X4808158Y-6745436D01*
X5103396Y-6564484D02*
X5065301Y-6564484D01*
X5065301Y-6564484D02*
X5046253Y-6574008D01*
X5046253Y-6574008D02*
X5036729Y-6583531D01*
X5036729Y-6583531D02*
X5017682Y-6612103D01*
X5017682Y-6612103D02*
X5008158Y-6650198D01*
X5008158Y-6650198D02*
X5008158Y-6726388D01*
X5008158Y-6726388D02*
X5017682Y-6745436D01*
X5017682Y-6745436D02*
X5027206Y-6754960D01*
X5027206Y-6754960D02*
X5046253Y-6764484D01*
X5046253Y-6764484D02*
X5084349Y-6764484D01*
X5084349Y-6764484D02*
X5103396Y-6754960D01*
X5103396Y-6754960D02*
X5112920Y-6745436D01*
X5112920Y-6745436D02*
X5122444Y-6726388D01*
X5122444Y-6726388D02*
X5122444Y-6678769D01*
X5122444Y-6678769D02*
X5112920Y-6659722D01*
X5112920Y-6659722D02*
X5103396Y-6650198D01*
X5103396Y-6650198D02*
X5084349Y-6640674D01*
X5084349Y-6640674D02*
X5046253Y-6640674D01*
X5046253Y-6640674D02*
X5027206Y-6650198D01*
X5027206Y-6650198D02*
X5017682Y-6659722D01*
X5017682Y-6659722D02*
X5008158Y-6678769D01*
X5198634Y-6564484D02*
X5198634Y-6602579D01*
X5274825Y-6564484D02*
X5274825Y-6602579D01*
X5570063Y-6840674D02*
X5560539Y-6831150D01*
X5560539Y-6831150D02*
X5541491Y-6802579D01*
X5541491Y-6802579D02*
X5531968Y-6783531D01*
X5531968Y-6783531D02*
X5522444Y-6754960D01*
X5522444Y-6754960D02*
X5512920Y-6707341D01*
X5512920Y-6707341D02*
X5512920Y-6669246D01*
X5512920Y-6669246D02*
X5522444Y-6621627D01*
X5522444Y-6621627D02*
X5531968Y-6593055D01*
X5531968Y-6593055D02*
X5541491Y-6574008D01*
X5541491Y-6574008D02*
X5560539Y-6545436D01*
X5560539Y-6545436D02*
X5570063Y-6535912D01*
X5684348Y-6564484D02*
X5703396Y-6564484D01*
X5703396Y-6564484D02*
X5722444Y-6574008D01*
X5722444Y-6574008D02*
X5731968Y-6583531D01*
X5731968Y-6583531D02*
X5741491Y-6602579D01*
X5741491Y-6602579D02*
X5751015Y-6640674D01*
X5751015Y-6640674D02*
X5751015Y-6688293D01*
X5751015Y-6688293D02*
X5741491Y-6726388D01*
X5741491Y-6726388D02*
X5731968Y-6745436D01*
X5731968Y-6745436D02*
X5722444Y-6754960D01*
X5722444Y-6754960D02*
X5703396Y-6764484D01*
X5703396Y-6764484D02*
X5684348Y-6764484D01*
X5684348Y-6764484D02*
X5665301Y-6754960D01*
X5665301Y-6754960D02*
X5655777Y-6745436D01*
X5655777Y-6745436D02*
X5646253Y-6726388D01*
X5646253Y-6726388D02*
X5636729Y-6688293D01*
X5636729Y-6688293D02*
X5636729Y-6640674D01*
X5636729Y-6640674D02*
X5646253Y-6602579D01*
X5646253Y-6602579D02*
X5655777Y-6583531D01*
X5655777Y-6583531D02*
X5665301Y-6574008D01*
X5665301Y-6574008D02*
X5684348Y-6564484D01*
X5989110Y-6764484D02*
X5989110Y-6564484D01*
X6074825Y-6764484D02*
X6074825Y-6659722D01*
X6074825Y-6659722D02*
X6065301Y-6640674D01*
X6065301Y-6640674D02*
X6046253Y-6631150D01*
X6046253Y-6631150D02*
X6017682Y-6631150D01*
X6017682Y-6631150D02*
X5998634Y-6640674D01*
X5998634Y-6640674D02*
X5989110Y-6650198D01*
X6198634Y-6764484D02*
X6179587Y-6754960D01*
X6179587Y-6754960D02*
X6170063Y-6745436D01*
X6170063Y-6745436D02*
X6160539Y-6726388D01*
X6160539Y-6726388D02*
X6160539Y-6669246D01*
X6160539Y-6669246D02*
X6170063Y-6650198D01*
X6170063Y-6650198D02*
X6179587Y-6640674D01*
X6179587Y-6640674D02*
X6198634Y-6631150D01*
X6198634Y-6631150D02*
X6227206Y-6631150D01*
X6227206Y-6631150D02*
X6246253Y-6640674D01*
X6246253Y-6640674D02*
X6255777Y-6650198D01*
X6255777Y-6650198D02*
X6265301Y-6669246D01*
X6265301Y-6669246D02*
X6265301Y-6726388D01*
X6265301Y-6726388D02*
X6255777Y-6745436D01*
X6255777Y-6745436D02*
X6246253Y-6754960D01*
X6246253Y-6754960D02*
X6227206Y-6764484D01*
X6227206Y-6764484D02*
X6198634Y-6764484D01*
X6379587Y-6764484D02*
X6360539Y-6754960D01*
X6360539Y-6754960D02*
X6351015Y-6735912D01*
X6351015Y-6735912D02*
X6351015Y-6564484D01*
X6531968Y-6754960D02*
X6512920Y-6764484D01*
X6512920Y-6764484D02*
X6474825Y-6764484D01*
X6474825Y-6764484D02*
X6455777Y-6754960D01*
X6455777Y-6754960D02*
X6446253Y-6735912D01*
X6446253Y-6735912D02*
X6446253Y-6659722D01*
X6446253Y-6659722D02*
X6455777Y-6640674D01*
X6455777Y-6640674D02*
X6474825Y-6631150D01*
X6474825Y-6631150D02*
X6512920Y-6631150D01*
X6512920Y-6631150D02*
X6531968Y-6640674D01*
X6531968Y-6640674D02*
X6541491Y-6659722D01*
X6541491Y-6659722D02*
X6541491Y-6678769D01*
X6541491Y-6678769D02*
X6446253Y-6697817D01*
X6617682Y-6754960D02*
X6636730Y-6764484D01*
X6636730Y-6764484D02*
X6674825Y-6764484D01*
X6674825Y-6764484D02*
X6693872Y-6754960D01*
X6693872Y-6754960D02*
X6703396Y-6735912D01*
X6703396Y-6735912D02*
X6703396Y-6726388D01*
X6703396Y-6726388D02*
X6693872Y-6707341D01*
X6693872Y-6707341D02*
X6674825Y-6697817D01*
X6674825Y-6697817D02*
X6646253Y-6697817D01*
X6646253Y-6697817D02*
X6627206Y-6688293D01*
X6627206Y-6688293D02*
X6617682Y-6669246D01*
X6617682Y-6669246D02*
X6617682Y-6659722D01*
X6617682Y-6659722D02*
X6627206Y-6640674D01*
X6627206Y-6640674D02*
X6646253Y-6631150D01*
X6646253Y-6631150D02*
X6674825Y-6631150D01*
X6674825Y-6631150D02*
X6693872Y-6640674D01*
X6941492Y-6688293D02*
X7093873Y-6688293D01*
X7017682Y-6764484D02*
X7017682Y-6612103D01*
X7331968Y-6583531D02*
X7341492Y-6574008D01*
X7341492Y-6574008D02*
X7360539Y-6564484D01*
X7360539Y-6564484D02*
X7408158Y-6564484D01*
X7408158Y-6564484D02*
X7427206Y-6574008D01*
X7427206Y-6574008D02*
X7436730Y-6583531D01*
X7436730Y-6583531D02*
X7446253Y-6602579D01*
X7446253Y-6602579D02*
X7446253Y-6621627D01*
X7446253Y-6621627D02*
X7436730Y-6650198D01*
X7436730Y-6650198D02*
X7322444Y-6764484D01*
X7322444Y-6764484D02*
X7446253Y-6764484D01*
X7674825Y-6754960D02*
X7693873Y-6764484D01*
X7693873Y-6764484D02*
X7731968Y-6764484D01*
X7731968Y-6764484D02*
X7751015Y-6754960D01*
X7751015Y-6754960D02*
X7760539Y-6735912D01*
X7760539Y-6735912D02*
X7760539Y-6726388D01*
X7760539Y-6726388D02*
X7751015Y-6707341D01*
X7751015Y-6707341D02*
X7731968Y-6697817D01*
X7731968Y-6697817D02*
X7703396Y-6697817D01*
X7703396Y-6697817D02*
X7684349Y-6688293D01*
X7684349Y-6688293D02*
X7674825Y-6669246D01*
X7674825Y-6669246D02*
X7674825Y-6659722D01*
X7674825Y-6659722D02*
X7684349Y-6640674D01*
X7684349Y-6640674D02*
X7703396Y-6631150D01*
X7703396Y-6631150D02*
X7731968Y-6631150D01*
X7731968Y-6631150D02*
X7751015Y-6640674D01*
X7874825Y-6764484D02*
X7855777Y-6754960D01*
X7855777Y-6754960D02*
X7846254Y-6735912D01*
X7846254Y-6735912D02*
X7846254Y-6564484D01*
X7979587Y-6764484D02*
X7960539Y-6754960D01*
X7960539Y-6754960D02*
X7951015Y-6745436D01*
X7951015Y-6745436D02*
X7941492Y-6726388D01*
X7941492Y-6726388D02*
X7941492Y-6669246D01*
X7941492Y-6669246D02*
X7951015Y-6650198D01*
X7951015Y-6650198D02*
X7960539Y-6640674D01*
X7960539Y-6640674D02*
X7979587Y-6631150D01*
X7979587Y-6631150D02*
X8008158Y-6631150D01*
X8008158Y-6631150D02*
X8027206Y-6640674D01*
X8027206Y-6640674D02*
X8036730Y-6650198D01*
X8036730Y-6650198D02*
X8046254Y-6669246D01*
X8046254Y-6669246D02*
X8046254Y-6726388D01*
X8046254Y-6726388D02*
X8036730Y-6745436D01*
X8036730Y-6745436D02*
X8027206Y-6754960D01*
X8027206Y-6754960D02*
X8008158Y-6764484D01*
X8008158Y-6764484D02*
X7979587Y-6764484D01*
X8103396Y-6631150D02*
X8179587Y-6631150D01*
X8131968Y-6564484D02*
X8131968Y-6735912D01*
X8131968Y-6735912D02*
X8141492Y-6754960D01*
X8141492Y-6754960D02*
X8160539Y-6764484D01*
X8160539Y-6764484D02*
X8179587Y-6764484D01*
X8236730Y-6754960D02*
X8255777Y-6764484D01*
X8255777Y-6764484D02*
X8293873Y-6764484D01*
X8293873Y-6764484D02*
X8312920Y-6754960D01*
X8312920Y-6754960D02*
X8322444Y-6735912D01*
X8322444Y-6735912D02*
X8322444Y-6726388D01*
X8322444Y-6726388D02*
X8312920Y-6707341D01*
X8312920Y-6707341D02*
X8293873Y-6697817D01*
X8293873Y-6697817D02*
X8265301Y-6697817D01*
X8265301Y-6697817D02*
X8246254Y-6688293D01*
X8246254Y-6688293D02*
X8236730Y-6669246D01*
X8236730Y-6669246D02*
X8236730Y-6659722D01*
X8236730Y-6659722D02*
X8246254Y-6640674D01*
X8246254Y-6640674D02*
X8265301Y-6631150D01*
X8265301Y-6631150D02*
X8293873Y-6631150D01*
X8293873Y-6631150D02*
X8312920Y-6640674D01*
X8389111Y-6840674D02*
X8398635Y-6831150D01*
X8398635Y-6831150D02*
X8417682Y-6802579D01*
X8417682Y-6802579D02*
X8427206Y-6783531D01*
X8427206Y-6783531D02*
X8436730Y-6754960D01*
X8436730Y-6754960D02*
X8446254Y-6707341D01*
X8446254Y-6707341D02*
X8446254Y-6669246D01*
X8446254Y-6669246D02*
X8436730Y-6621627D01*
X8436730Y-6621627D02*
X8427206Y-6593055D01*
X8427206Y-6593055D02*
X8417682Y-6574008D01*
X8417682Y-6574008D02*
X8398635Y-6545436D01*
X8398635Y-6545436D02*
X8389111Y-6535912D01*
D10*
X1983284Y-6965284D02*
X1983284Y-6908715D01*
X1926715Y-6908715D01*
X1926715Y-6965284D01*
X1983284Y-6965284D01*
D11*
X2293872Y-6828484D02*
X2312920Y-6828484D01*
X2312920Y-6828484D02*
X2331967Y-6838008D01*
X2331967Y-6838008D02*
X2341491Y-6847531D01*
X2341491Y-6847531D02*
X2351015Y-6866579D01*
X2351015Y-6866579D02*
X2360539Y-6904674D01*
X2360539Y-6904674D02*
X2360539Y-6952293D01*
X2360539Y-6952293D02*
X2351015Y-6990388D01*
X2351015Y-6990388D02*
X2341491Y-7009436D01*
X2341491Y-7009436D02*
X2331967Y-7018960D01*
X2331967Y-7018960D02*
X2312920Y-7028484D01*
X2312920Y-7028484D02*
X2293872Y-7028484D01*
X2293872Y-7028484D02*
X2274824Y-7018960D01*
X2274824Y-7018960D02*
X2265301Y-7009436D01*
X2265301Y-7009436D02*
X2255777Y-6990388D01*
X2255777Y-6990388D02*
X2246253Y-6952293D01*
X2246253Y-6952293D02*
X2246253Y-6904674D01*
X2246253Y-6904674D02*
X2255777Y-6866579D01*
X2255777Y-6866579D02*
X2265301Y-6847531D01*
X2265301Y-6847531D02*
X2274824Y-6838008D01*
X2274824Y-6838008D02*
X2293872Y-6828484D01*
X2446253Y-7009436D02*
X2455777Y-7018960D01*
X2455777Y-7018960D02*
X2446253Y-7028484D01*
X2446253Y-7028484D02*
X2436729Y-7018960D01*
X2436729Y-7018960D02*
X2446253Y-7009436D01*
X2446253Y-7009436D02*
X2446253Y-7028484D01*
X2570063Y-6914198D02*
X2551015Y-6904674D01*
X2551015Y-6904674D02*
X2541491Y-6895150D01*
X2541491Y-6895150D02*
X2531967Y-6876103D01*
X2531967Y-6876103D02*
X2531967Y-6866579D01*
X2531967Y-6866579D02*
X2541491Y-6847531D01*
X2541491Y-6847531D02*
X2551015Y-6838008D01*
X2551015Y-6838008D02*
X2570063Y-6828484D01*
X2570063Y-6828484D02*
X2608158Y-6828484D01*
X2608158Y-6828484D02*
X2627205Y-6838008D01*
X2627205Y-6838008D02*
X2636729Y-6847531D01*
X2636729Y-6847531D02*
X2646253Y-6866579D01*
X2646253Y-6866579D02*
X2646253Y-6876103D01*
X2646253Y-6876103D02*
X2636729Y-6895150D01*
X2636729Y-6895150D02*
X2627205Y-6904674D01*
X2627205Y-6904674D02*
X2608158Y-6914198D01*
X2608158Y-6914198D02*
X2570063Y-6914198D01*
X2570063Y-6914198D02*
X2551015Y-6923722D01*
X2551015Y-6923722D02*
X2541491Y-6933246D01*
X2541491Y-6933246D02*
X2531967Y-6952293D01*
X2531967Y-6952293D02*
X2531967Y-6990388D01*
X2531967Y-6990388D02*
X2541491Y-7009436D01*
X2541491Y-7009436D02*
X2551015Y-7018960D01*
X2551015Y-7018960D02*
X2570063Y-7028484D01*
X2570063Y-7028484D02*
X2608158Y-7028484D01*
X2608158Y-7028484D02*
X2627205Y-7018960D01*
X2627205Y-7018960D02*
X2636729Y-7009436D01*
X2636729Y-7009436D02*
X2646253Y-6990388D01*
X2646253Y-6990388D02*
X2646253Y-6952293D01*
X2646253Y-6952293D02*
X2636729Y-6933246D01*
X2636729Y-6933246D02*
X2627205Y-6923722D01*
X2627205Y-6923722D02*
X2608158Y-6914198D01*
X2770063Y-6828484D02*
X2789110Y-6828484D01*
X2789110Y-6828484D02*
X2808158Y-6838008D01*
X2808158Y-6838008D02*
X2817682Y-6847531D01*
X2817682Y-6847531D02*
X2827205Y-6866579D01*
X2827205Y-6866579D02*
X2836729Y-6904674D01*
X2836729Y-6904674D02*
X2836729Y-6952293D01*
X2836729Y-6952293D02*
X2827205Y-6990388D01*
X2827205Y-6990388D02*
X2817682Y-7009436D01*
X2817682Y-7009436D02*
X2808158Y-7018960D01*
X2808158Y-7018960D02*
X2789110Y-7028484D01*
X2789110Y-7028484D02*
X2770063Y-7028484D01*
X2770063Y-7028484D02*
X2751015Y-7018960D01*
X2751015Y-7018960D02*
X2741491Y-7009436D01*
X2741491Y-7009436D02*
X2731967Y-6990388D01*
X2731967Y-6990388D02*
X2722444Y-6952293D01*
X2722444Y-6952293D02*
X2722444Y-6904674D01*
X2722444Y-6904674D02*
X2731967Y-6866579D01*
X2731967Y-6866579D02*
X2741491Y-6847531D01*
X2741491Y-6847531D02*
X2751015Y-6838008D01*
X2751015Y-6838008D02*
X2770063Y-6828484D01*
X2960539Y-6828484D02*
X2979586Y-6828484D01*
X2979586Y-6828484D02*
X2998634Y-6838008D01*
X2998634Y-6838008D02*
X3008158Y-6847531D01*
X3008158Y-6847531D02*
X3017682Y-6866579D01*
X3017682Y-6866579D02*
X3027205Y-6904674D01*
X3027205Y-6904674D02*
X3027205Y-6952293D01*
X3027205Y-6952293D02*
X3017682Y-6990388D01*
X3017682Y-6990388D02*
X3008158Y-7009436D01*
X3008158Y-7009436D02*
X2998634Y-7018960D01*
X2998634Y-7018960D02*
X2979586Y-7028484D01*
X2979586Y-7028484D02*
X2960539Y-7028484D01*
X2960539Y-7028484D02*
X2941491Y-7018960D01*
X2941491Y-7018960D02*
X2931967Y-7009436D01*
X2931967Y-7009436D02*
X2922443Y-6990388D01*
X2922443Y-6990388D02*
X2912920Y-6952293D01*
X2912920Y-6952293D02*
X2912920Y-6904674D01*
X2912920Y-6904674D02*
X2922443Y-6866579D01*
X2922443Y-6866579D02*
X2931967Y-6847531D01*
X2931967Y-6847531D02*
X2941491Y-6838008D01*
X2941491Y-6838008D02*
X2960539Y-6828484D01*
X3112920Y-7028484D02*
X3112920Y-6895150D01*
X3112920Y-6914198D02*
X3122443Y-6904674D01*
X3122443Y-6904674D02*
X3141491Y-6895150D01*
X3141491Y-6895150D02*
X3170063Y-6895150D01*
X3170063Y-6895150D02*
X3189110Y-6904674D01*
X3189110Y-6904674D02*
X3198634Y-6923722D01*
X3198634Y-6923722D02*
X3198634Y-7028484D01*
X3198634Y-6923722D02*
X3208158Y-6904674D01*
X3208158Y-6904674D02*
X3227205Y-6895150D01*
X3227205Y-6895150D02*
X3255777Y-6895150D01*
X3255777Y-6895150D02*
X3274824Y-6904674D01*
X3274824Y-6904674D02*
X3284348Y-6923722D01*
X3284348Y-6923722D02*
X3284348Y-7028484D01*
X3379586Y-7028484D02*
X3379586Y-6895150D01*
X3379586Y-6914198D02*
X3389110Y-6904674D01*
X3389110Y-6904674D02*
X3408158Y-6895150D01*
X3408158Y-6895150D02*
X3436729Y-6895150D01*
X3436729Y-6895150D02*
X3455777Y-6904674D01*
X3455777Y-6904674D02*
X3465301Y-6923722D01*
X3465301Y-6923722D02*
X3465301Y-7028484D01*
X3465301Y-6923722D02*
X3474824Y-6904674D01*
X3474824Y-6904674D02*
X3493872Y-6895150D01*
X3493872Y-6895150D02*
X3522443Y-6895150D01*
X3522443Y-6895150D02*
X3541491Y-6904674D01*
X3541491Y-6904674D02*
X3551015Y-6923722D01*
X3551015Y-6923722D02*
X3551015Y-7028484D01*
X3941491Y-6818960D02*
X3770063Y-7076103D01*
X4198634Y-6828484D02*
X4217682Y-6828484D01*
X4217682Y-6828484D02*
X4236729Y-6838008D01*
X4236729Y-6838008D02*
X4246253Y-6847531D01*
X4246253Y-6847531D02*
X4255777Y-6866579D01*
X4255777Y-6866579D02*
X4265301Y-6904674D01*
X4265301Y-6904674D02*
X4265301Y-6952293D01*
X4265301Y-6952293D02*
X4255777Y-6990388D01*
X4255777Y-6990388D02*
X4246253Y-7009436D01*
X4246253Y-7009436D02*
X4236729Y-7018960D01*
X4236729Y-7018960D02*
X4217682Y-7028484D01*
X4217682Y-7028484D02*
X4198634Y-7028484D01*
X4198634Y-7028484D02*
X4179586Y-7018960D01*
X4179586Y-7018960D02*
X4170063Y-7009436D01*
X4170063Y-7009436D02*
X4160539Y-6990388D01*
X4160539Y-6990388D02*
X4151015Y-6952293D01*
X4151015Y-6952293D02*
X4151015Y-6904674D01*
X4151015Y-6904674D02*
X4160539Y-6866579D01*
X4160539Y-6866579D02*
X4170063Y-6847531D01*
X4170063Y-6847531D02*
X4179586Y-6838008D01*
X4179586Y-6838008D02*
X4198634Y-6828484D01*
X4351015Y-7009436D02*
X4360539Y-7018960D01*
X4360539Y-7018960D02*
X4351015Y-7028484D01*
X4351015Y-7028484D02*
X4341491Y-7018960D01*
X4341491Y-7018960D02*
X4351015Y-7009436D01*
X4351015Y-7009436D02*
X4351015Y-7028484D01*
X4484348Y-6828484D02*
X4503396Y-6828484D01*
X4503396Y-6828484D02*
X4522444Y-6838008D01*
X4522444Y-6838008D02*
X4531968Y-6847531D01*
X4531968Y-6847531D02*
X4541491Y-6866579D01*
X4541491Y-6866579D02*
X4551015Y-6904674D01*
X4551015Y-6904674D02*
X4551015Y-6952293D01*
X4551015Y-6952293D02*
X4541491Y-6990388D01*
X4541491Y-6990388D02*
X4531968Y-7009436D01*
X4531968Y-7009436D02*
X4522444Y-7018960D01*
X4522444Y-7018960D02*
X4503396Y-7028484D01*
X4503396Y-7028484D02*
X4484348Y-7028484D01*
X4484348Y-7028484D02*
X4465301Y-7018960D01*
X4465301Y-7018960D02*
X4455777Y-7009436D01*
X4455777Y-7009436D02*
X4446253Y-6990388D01*
X4446253Y-6990388D02*
X4436729Y-6952293D01*
X4436729Y-6952293D02*
X4436729Y-6904674D01*
X4436729Y-6904674D02*
X4446253Y-6866579D01*
X4446253Y-6866579D02*
X4455777Y-6847531D01*
X4455777Y-6847531D02*
X4465301Y-6838008D01*
X4465301Y-6838008D02*
X4484348Y-6828484D01*
X4617682Y-6828484D02*
X4741491Y-6828484D01*
X4741491Y-6828484D02*
X4674825Y-6904674D01*
X4674825Y-6904674D02*
X4703396Y-6904674D01*
X4703396Y-6904674D02*
X4722444Y-6914198D01*
X4722444Y-6914198D02*
X4731968Y-6923722D01*
X4731968Y-6923722D02*
X4741491Y-6942769D01*
X4741491Y-6942769D02*
X4741491Y-6990388D01*
X4741491Y-6990388D02*
X4731968Y-7009436D01*
X4731968Y-7009436D02*
X4722444Y-7018960D01*
X4722444Y-7018960D02*
X4703396Y-7028484D01*
X4703396Y-7028484D02*
X4646253Y-7028484D01*
X4646253Y-7028484D02*
X4627206Y-7018960D01*
X4627206Y-7018960D02*
X4617682Y-7009436D01*
X4931968Y-7028484D02*
X4817682Y-7028484D01*
X4874825Y-7028484D02*
X4874825Y-6828484D01*
X4874825Y-6828484D02*
X4855777Y-6857055D01*
X4855777Y-6857055D02*
X4836729Y-6876103D01*
X4836729Y-6876103D02*
X4817682Y-6885627D01*
X5112920Y-6828484D02*
X5017682Y-6828484D01*
X5017682Y-6828484D02*
X5008158Y-6923722D01*
X5008158Y-6923722D02*
X5017682Y-6914198D01*
X5017682Y-6914198D02*
X5036729Y-6904674D01*
X5036729Y-6904674D02*
X5084349Y-6904674D01*
X5084349Y-6904674D02*
X5103396Y-6914198D01*
X5103396Y-6914198D02*
X5112920Y-6923722D01*
X5112920Y-6923722D02*
X5122444Y-6942769D01*
X5122444Y-6942769D02*
X5122444Y-6990388D01*
X5122444Y-6990388D02*
X5112920Y-7009436D01*
X5112920Y-7009436D02*
X5103396Y-7018960D01*
X5103396Y-7018960D02*
X5084349Y-7028484D01*
X5084349Y-7028484D02*
X5036729Y-7028484D01*
X5036729Y-7028484D02*
X5017682Y-7018960D01*
X5017682Y-7018960D02*
X5008158Y-7009436D01*
X5198634Y-6828484D02*
X5198634Y-6866579D01*
X5274825Y-6828484D02*
X5274825Y-6866579D01*
X5570063Y-7104674D02*
X5560539Y-7095150D01*
X5560539Y-7095150D02*
X5541491Y-7066579D01*
X5541491Y-7066579D02*
X5531968Y-7047531D01*
X5531968Y-7047531D02*
X5522444Y-7018960D01*
X5522444Y-7018960D02*
X5512920Y-6971341D01*
X5512920Y-6971341D02*
X5512920Y-6933246D01*
X5512920Y-6933246D02*
X5522444Y-6885627D01*
X5522444Y-6885627D02*
X5531968Y-6857055D01*
X5531968Y-6857055D02*
X5541491Y-6838008D01*
X5541491Y-6838008D02*
X5560539Y-6809436D01*
X5560539Y-6809436D02*
X5570063Y-6799912D01*
X5751015Y-7028484D02*
X5636729Y-7028484D01*
X5693872Y-7028484D02*
X5693872Y-6828484D01*
X5693872Y-6828484D02*
X5674825Y-6857055D01*
X5674825Y-6857055D02*
X5655777Y-6876103D01*
X5655777Y-6876103D02*
X5636729Y-6885627D01*
X5989110Y-7028484D02*
X5989110Y-6828484D01*
X6074825Y-7028484D02*
X6074825Y-6923722D01*
X6074825Y-6923722D02*
X6065301Y-6904674D01*
X6065301Y-6904674D02*
X6046253Y-6895150D01*
X6046253Y-6895150D02*
X6017682Y-6895150D01*
X6017682Y-6895150D02*
X5998634Y-6904674D01*
X5998634Y-6904674D02*
X5989110Y-6914198D01*
X6198634Y-7028484D02*
X6179587Y-7018960D01*
X6179587Y-7018960D02*
X6170063Y-7009436D01*
X6170063Y-7009436D02*
X6160539Y-6990388D01*
X6160539Y-6990388D02*
X6160539Y-6933246D01*
X6160539Y-6933246D02*
X6170063Y-6914198D01*
X6170063Y-6914198D02*
X6179587Y-6904674D01*
X6179587Y-6904674D02*
X6198634Y-6895150D01*
X6198634Y-6895150D02*
X6227206Y-6895150D01*
X6227206Y-6895150D02*
X6246253Y-6904674D01*
X6246253Y-6904674D02*
X6255777Y-6914198D01*
X6255777Y-6914198D02*
X6265301Y-6933246D01*
X6265301Y-6933246D02*
X6265301Y-6990388D01*
X6265301Y-6990388D02*
X6255777Y-7009436D01*
X6255777Y-7009436D02*
X6246253Y-7018960D01*
X6246253Y-7018960D02*
X6227206Y-7028484D01*
X6227206Y-7028484D02*
X6198634Y-7028484D01*
X6379587Y-7028484D02*
X6360539Y-7018960D01*
X6360539Y-7018960D02*
X6351015Y-6999912D01*
X6351015Y-6999912D02*
X6351015Y-6828484D01*
X6531968Y-7018960D02*
X6512920Y-7028484D01*
X6512920Y-7028484D02*
X6474825Y-7028484D01*
X6474825Y-7028484D02*
X6455777Y-7018960D01*
X6455777Y-7018960D02*
X6446253Y-6999912D01*
X6446253Y-6999912D02*
X6446253Y-6923722D01*
X6446253Y-6923722D02*
X6455777Y-6904674D01*
X6455777Y-6904674D02*
X6474825Y-6895150D01*
X6474825Y-6895150D02*
X6512920Y-6895150D01*
X6512920Y-6895150D02*
X6531968Y-6904674D01*
X6531968Y-6904674D02*
X6541491Y-6923722D01*
X6541491Y-6923722D02*
X6541491Y-6942769D01*
X6541491Y-6942769D02*
X6446253Y-6961817D01*
X6608158Y-7104674D02*
X6617682Y-7095150D01*
X6617682Y-7095150D02*
X6636730Y-7066579D01*
X6636730Y-7066579D02*
X6646253Y-7047531D01*
X6646253Y-7047531D02*
X6655777Y-7018960D01*
X6655777Y-7018960D02*
X6665301Y-6971341D01*
X6665301Y-6971341D02*
X6665301Y-6933246D01*
X6665301Y-6933246D02*
X6655777Y-6885627D01*
X6655777Y-6885627D02*
X6646253Y-6857055D01*
X6646253Y-6857055D02*
X6636730Y-6838008D01*
X6636730Y-6838008D02*
X6617682Y-6809436D01*
X6617682Y-6809436D02*
X6608158Y-6799912D01*
D10*
X1945000Y-7251000D02*
X1995000Y-7201000D01*
X1945000Y-7151000D01*
X1895000Y-7201000D01*
X1945000Y-7251000D01*
D11*
X2360539Y-7292484D02*
X2246253Y-7292484D01*
X2303396Y-7292484D02*
X2303396Y-7092484D01*
X2303396Y-7092484D02*
X2284348Y-7121055D01*
X2284348Y-7121055D02*
X2265301Y-7140103D01*
X2265301Y-7140103D02*
X2246253Y-7149627D01*
X2446253Y-7273436D02*
X2455777Y-7282960D01*
X2455777Y-7282960D02*
X2446253Y-7292484D01*
X2446253Y-7292484D02*
X2436729Y-7282960D01*
X2436729Y-7282960D02*
X2446253Y-7273436D01*
X2446253Y-7273436D02*
X2446253Y-7292484D01*
X2579586Y-7092484D02*
X2598634Y-7092484D01*
X2598634Y-7092484D02*
X2617682Y-7102008D01*
X2617682Y-7102008D02*
X2627205Y-7111531D01*
X2627205Y-7111531D02*
X2636729Y-7130579D01*
X2636729Y-7130579D02*
X2646253Y-7168674D01*
X2646253Y-7168674D02*
X2646253Y-7216293D01*
X2646253Y-7216293D02*
X2636729Y-7254388D01*
X2636729Y-7254388D02*
X2627205Y-7273436D01*
X2627205Y-7273436D02*
X2617682Y-7282960D01*
X2617682Y-7282960D02*
X2598634Y-7292484D01*
X2598634Y-7292484D02*
X2579586Y-7292484D01*
X2579586Y-7292484D02*
X2560539Y-7282960D01*
X2560539Y-7282960D02*
X2551015Y-7273436D01*
X2551015Y-7273436D02*
X2541491Y-7254388D01*
X2541491Y-7254388D02*
X2531967Y-7216293D01*
X2531967Y-7216293D02*
X2531967Y-7168674D01*
X2531967Y-7168674D02*
X2541491Y-7130579D01*
X2541491Y-7130579D02*
X2551015Y-7111531D01*
X2551015Y-7111531D02*
X2560539Y-7102008D01*
X2560539Y-7102008D02*
X2579586Y-7092484D01*
X2770063Y-7092484D02*
X2789110Y-7092484D01*
X2789110Y-7092484D02*
X2808158Y-7102008D01*
X2808158Y-7102008D02*
X2817682Y-7111531D01*
X2817682Y-7111531D02*
X2827205Y-7130579D01*
X2827205Y-7130579D02*
X2836729Y-7168674D01*
X2836729Y-7168674D02*
X2836729Y-7216293D01*
X2836729Y-7216293D02*
X2827205Y-7254388D01*
X2827205Y-7254388D02*
X2817682Y-7273436D01*
X2817682Y-7273436D02*
X2808158Y-7282960D01*
X2808158Y-7282960D02*
X2789110Y-7292484D01*
X2789110Y-7292484D02*
X2770063Y-7292484D01*
X2770063Y-7292484D02*
X2751015Y-7282960D01*
X2751015Y-7282960D02*
X2741491Y-7273436D01*
X2741491Y-7273436D02*
X2731967Y-7254388D01*
X2731967Y-7254388D02*
X2722444Y-7216293D01*
X2722444Y-7216293D02*
X2722444Y-7168674D01*
X2722444Y-7168674D02*
X2731967Y-7130579D01*
X2731967Y-7130579D02*
X2741491Y-7111531D01*
X2741491Y-7111531D02*
X2751015Y-7102008D01*
X2751015Y-7102008D02*
X2770063Y-7092484D01*
X2960539Y-7092484D02*
X2979586Y-7092484D01*
X2979586Y-7092484D02*
X2998634Y-7102008D01*
X2998634Y-7102008D02*
X3008158Y-7111531D01*
X3008158Y-7111531D02*
X3017682Y-7130579D01*
X3017682Y-7130579D02*
X3027205Y-7168674D01*
X3027205Y-7168674D02*
X3027205Y-7216293D01*
X3027205Y-7216293D02*
X3017682Y-7254388D01*
X3017682Y-7254388D02*
X3008158Y-7273436D01*
X3008158Y-7273436D02*
X2998634Y-7282960D01*
X2998634Y-7282960D02*
X2979586Y-7292484D01*
X2979586Y-7292484D02*
X2960539Y-7292484D01*
X2960539Y-7292484D02*
X2941491Y-7282960D01*
X2941491Y-7282960D02*
X2931967Y-7273436D01*
X2931967Y-7273436D02*
X2922443Y-7254388D01*
X2922443Y-7254388D02*
X2912920Y-7216293D01*
X2912920Y-7216293D02*
X2912920Y-7168674D01*
X2912920Y-7168674D02*
X2922443Y-7130579D01*
X2922443Y-7130579D02*
X2931967Y-7111531D01*
X2931967Y-7111531D02*
X2941491Y-7102008D01*
X2941491Y-7102008D02*
X2960539Y-7092484D01*
X3112920Y-7292484D02*
X3112920Y-7159150D01*
X3112920Y-7178198D02*
X3122443Y-7168674D01*
X3122443Y-7168674D02*
X3141491Y-7159150D01*
X3141491Y-7159150D02*
X3170063Y-7159150D01*
X3170063Y-7159150D02*
X3189110Y-7168674D01*
X3189110Y-7168674D02*
X3198634Y-7187722D01*
X3198634Y-7187722D02*
X3198634Y-7292484D01*
X3198634Y-7187722D02*
X3208158Y-7168674D01*
X3208158Y-7168674D02*
X3227205Y-7159150D01*
X3227205Y-7159150D02*
X3255777Y-7159150D01*
X3255777Y-7159150D02*
X3274824Y-7168674D01*
X3274824Y-7168674D02*
X3284348Y-7187722D01*
X3284348Y-7187722D02*
X3284348Y-7292484D01*
X3379586Y-7292484D02*
X3379586Y-7159150D01*
X3379586Y-7178198D02*
X3389110Y-7168674D01*
X3389110Y-7168674D02*
X3408158Y-7159150D01*
X3408158Y-7159150D02*
X3436729Y-7159150D01*
X3436729Y-7159150D02*
X3455777Y-7168674D01*
X3455777Y-7168674D02*
X3465301Y-7187722D01*
X3465301Y-7187722D02*
X3465301Y-7292484D01*
X3465301Y-7187722D02*
X3474824Y-7168674D01*
X3474824Y-7168674D02*
X3493872Y-7159150D01*
X3493872Y-7159150D02*
X3522443Y-7159150D01*
X3522443Y-7159150D02*
X3541491Y-7168674D01*
X3541491Y-7168674D02*
X3551015Y-7187722D01*
X3551015Y-7187722D02*
X3551015Y-7292484D01*
X3941491Y-7082960D02*
X3770063Y-7340103D01*
X4198634Y-7092484D02*
X4217682Y-7092484D01*
X4217682Y-7092484D02*
X4236729Y-7102008D01*
X4236729Y-7102008D02*
X4246253Y-7111531D01*
X4246253Y-7111531D02*
X4255777Y-7130579D01*
X4255777Y-7130579D02*
X4265301Y-7168674D01*
X4265301Y-7168674D02*
X4265301Y-7216293D01*
X4265301Y-7216293D02*
X4255777Y-7254388D01*
X4255777Y-7254388D02*
X4246253Y-7273436D01*
X4246253Y-7273436D02*
X4236729Y-7282960D01*
X4236729Y-7282960D02*
X4217682Y-7292484D01*
X4217682Y-7292484D02*
X4198634Y-7292484D01*
X4198634Y-7292484D02*
X4179586Y-7282960D01*
X4179586Y-7282960D02*
X4170063Y-7273436D01*
X4170063Y-7273436D02*
X4160539Y-7254388D01*
X4160539Y-7254388D02*
X4151015Y-7216293D01*
X4151015Y-7216293D02*
X4151015Y-7168674D01*
X4151015Y-7168674D02*
X4160539Y-7130579D01*
X4160539Y-7130579D02*
X4170063Y-7111531D01*
X4170063Y-7111531D02*
X4179586Y-7102008D01*
X4179586Y-7102008D02*
X4198634Y-7092484D01*
X4351015Y-7273436D02*
X4360539Y-7282960D01*
X4360539Y-7282960D02*
X4351015Y-7292484D01*
X4351015Y-7292484D02*
X4341491Y-7282960D01*
X4341491Y-7282960D02*
X4351015Y-7273436D01*
X4351015Y-7273436D02*
X4351015Y-7292484D01*
X4484348Y-7092484D02*
X4503396Y-7092484D01*
X4503396Y-7092484D02*
X4522444Y-7102008D01*
X4522444Y-7102008D02*
X4531968Y-7111531D01*
X4531968Y-7111531D02*
X4541491Y-7130579D01*
X4541491Y-7130579D02*
X4551015Y-7168674D01*
X4551015Y-7168674D02*
X4551015Y-7216293D01*
X4551015Y-7216293D02*
X4541491Y-7254388D01*
X4541491Y-7254388D02*
X4531968Y-7273436D01*
X4531968Y-7273436D02*
X4522444Y-7282960D01*
X4522444Y-7282960D02*
X4503396Y-7292484D01*
X4503396Y-7292484D02*
X4484348Y-7292484D01*
X4484348Y-7292484D02*
X4465301Y-7282960D01*
X4465301Y-7282960D02*
X4455777Y-7273436D01*
X4455777Y-7273436D02*
X4446253Y-7254388D01*
X4446253Y-7254388D02*
X4436729Y-7216293D01*
X4436729Y-7216293D02*
X4436729Y-7168674D01*
X4436729Y-7168674D02*
X4446253Y-7130579D01*
X4446253Y-7130579D02*
X4455777Y-7111531D01*
X4455777Y-7111531D02*
X4465301Y-7102008D01*
X4465301Y-7102008D02*
X4484348Y-7092484D01*
X4617682Y-7092484D02*
X4741491Y-7092484D01*
X4741491Y-7092484D02*
X4674825Y-7168674D01*
X4674825Y-7168674D02*
X4703396Y-7168674D01*
X4703396Y-7168674D02*
X4722444Y-7178198D01*
X4722444Y-7178198D02*
X4731968Y-7187722D01*
X4731968Y-7187722D02*
X4741491Y-7206769D01*
X4741491Y-7206769D02*
X4741491Y-7254388D01*
X4741491Y-7254388D02*
X4731968Y-7273436D01*
X4731968Y-7273436D02*
X4722444Y-7282960D01*
X4722444Y-7282960D02*
X4703396Y-7292484D01*
X4703396Y-7292484D02*
X4646253Y-7292484D01*
X4646253Y-7292484D02*
X4627206Y-7282960D01*
X4627206Y-7282960D02*
X4617682Y-7273436D01*
X4836729Y-7292484D02*
X4874825Y-7292484D01*
X4874825Y-7292484D02*
X4893872Y-7282960D01*
X4893872Y-7282960D02*
X4903396Y-7273436D01*
X4903396Y-7273436D02*
X4922444Y-7244865D01*
X4922444Y-7244865D02*
X4931968Y-7206769D01*
X4931968Y-7206769D02*
X4931968Y-7130579D01*
X4931968Y-7130579D02*
X4922444Y-7111531D01*
X4922444Y-7111531D02*
X4912920Y-7102008D01*
X4912920Y-7102008D02*
X4893872Y-7092484D01*
X4893872Y-7092484D02*
X4855777Y-7092484D01*
X4855777Y-7092484D02*
X4836729Y-7102008D01*
X4836729Y-7102008D02*
X4827206Y-7111531D01*
X4827206Y-7111531D02*
X4817682Y-7130579D01*
X4817682Y-7130579D02*
X4817682Y-7178198D01*
X4817682Y-7178198D02*
X4827206Y-7197246D01*
X4827206Y-7197246D02*
X4836729Y-7206769D01*
X4836729Y-7206769D02*
X4855777Y-7216293D01*
X4855777Y-7216293D02*
X4893872Y-7216293D01*
X4893872Y-7216293D02*
X4912920Y-7206769D01*
X4912920Y-7206769D02*
X4922444Y-7197246D01*
X4922444Y-7197246D02*
X4931968Y-7178198D01*
X5103396Y-7159150D02*
X5103396Y-7292484D01*
X5055777Y-7082960D02*
X5008158Y-7225817D01*
X5008158Y-7225817D02*
X5131968Y-7225817D01*
X5198634Y-7092484D02*
X5198634Y-7130579D01*
X5274825Y-7092484D02*
X5274825Y-7130579D01*
X5570063Y-7368674D02*
X5560539Y-7359150D01*
X5560539Y-7359150D02*
X5541491Y-7330579D01*
X5541491Y-7330579D02*
X5531968Y-7311531D01*
X5531968Y-7311531D02*
X5522444Y-7282960D01*
X5522444Y-7282960D02*
X5512920Y-7235341D01*
X5512920Y-7235341D02*
X5512920Y-7197246D01*
X5512920Y-7197246D02*
X5522444Y-7149627D01*
X5522444Y-7149627D02*
X5531968Y-7121055D01*
X5531968Y-7121055D02*
X5541491Y-7102008D01*
X5541491Y-7102008D02*
X5560539Y-7073436D01*
X5560539Y-7073436D02*
X5570063Y-7063912D01*
X5636729Y-7111531D02*
X5646253Y-7102008D01*
X5646253Y-7102008D02*
X5665301Y-7092484D01*
X5665301Y-7092484D02*
X5712920Y-7092484D01*
X5712920Y-7092484D02*
X5731968Y-7102008D01*
X5731968Y-7102008D02*
X5741491Y-7111531D01*
X5741491Y-7111531D02*
X5751015Y-7130579D01*
X5751015Y-7130579D02*
X5751015Y-7149627D01*
X5751015Y-7149627D02*
X5741491Y-7178198D01*
X5741491Y-7178198D02*
X5627206Y-7292484D01*
X5627206Y-7292484D02*
X5751015Y-7292484D01*
X5989110Y-7292484D02*
X5989110Y-7092484D01*
X6074825Y-7292484D02*
X6074825Y-7187722D01*
X6074825Y-7187722D02*
X6065301Y-7168674D01*
X6065301Y-7168674D02*
X6046253Y-7159150D01*
X6046253Y-7159150D02*
X6017682Y-7159150D01*
X6017682Y-7159150D02*
X5998634Y-7168674D01*
X5998634Y-7168674D02*
X5989110Y-7178198D01*
X6198634Y-7292484D02*
X6179587Y-7282960D01*
X6179587Y-7282960D02*
X6170063Y-7273436D01*
X6170063Y-7273436D02*
X6160539Y-7254388D01*
X6160539Y-7254388D02*
X6160539Y-7197246D01*
X6160539Y-7197246D02*
X6170063Y-7178198D01*
X6170063Y-7178198D02*
X6179587Y-7168674D01*
X6179587Y-7168674D02*
X6198634Y-7159150D01*
X6198634Y-7159150D02*
X6227206Y-7159150D01*
X6227206Y-7159150D02*
X6246253Y-7168674D01*
X6246253Y-7168674D02*
X6255777Y-7178198D01*
X6255777Y-7178198D02*
X6265301Y-7197246D01*
X6265301Y-7197246D02*
X6265301Y-7254388D01*
X6265301Y-7254388D02*
X6255777Y-7273436D01*
X6255777Y-7273436D02*
X6246253Y-7282960D01*
X6246253Y-7282960D02*
X6227206Y-7292484D01*
X6227206Y-7292484D02*
X6198634Y-7292484D01*
X6379587Y-7292484D02*
X6360539Y-7282960D01*
X6360539Y-7282960D02*
X6351015Y-7263912D01*
X6351015Y-7263912D02*
X6351015Y-7092484D01*
X6531968Y-7282960D02*
X6512920Y-7292484D01*
X6512920Y-7292484D02*
X6474825Y-7292484D01*
X6474825Y-7292484D02*
X6455777Y-7282960D01*
X6455777Y-7282960D02*
X6446253Y-7263912D01*
X6446253Y-7263912D02*
X6446253Y-7187722D01*
X6446253Y-7187722D02*
X6455777Y-7168674D01*
X6455777Y-7168674D02*
X6474825Y-7159150D01*
X6474825Y-7159150D02*
X6512920Y-7159150D01*
X6512920Y-7159150D02*
X6531968Y-7168674D01*
X6531968Y-7168674D02*
X6541491Y-7187722D01*
X6541491Y-7187722D02*
X6541491Y-7206769D01*
X6541491Y-7206769D02*
X6446253Y-7225817D01*
X6617682Y-7282960D02*
X6636730Y-7292484D01*
X6636730Y-7292484D02*
X6674825Y-7292484D01*
X6674825Y-7292484D02*
X6693872Y-7282960D01*
X6693872Y-7282960D02*
X6703396Y-7263912D01*
X6703396Y-7263912D02*
X6703396Y-7254388D01*
X6703396Y-7254388D02*
X6693872Y-7235341D01*
X6693872Y-7235341D02*
X6674825Y-7225817D01*
X6674825Y-7225817D02*
X6646253Y-7225817D01*
X6646253Y-7225817D02*
X6627206Y-7216293D01*
X6627206Y-7216293D02*
X6617682Y-7197246D01*
X6617682Y-7197246D02*
X6617682Y-7187722D01*
X6617682Y-7187722D02*
X6627206Y-7168674D01*
X6627206Y-7168674D02*
X6646253Y-7159150D01*
X6646253Y-7159150D02*
X6674825Y-7159150D01*
X6674825Y-7159150D02*
X6693872Y-7168674D01*
X6770063Y-7368674D02*
X6779587Y-7359150D01*
X6779587Y-7359150D02*
X6798634Y-7330579D01*
X6798634Y-7330579D02*
X6808158Y-7311531D01*
X6808158Y-7311531D02*
X6817682Y-7282960D01*
X6817682Y-7282960D02*
X6827206Y-7235341D01*
X6827206Y-7235341D02*
X6827206Y-7197246D01*
X6827206Y-7197246D02*
X6817682Y-7149627D01*
X6817682Y-7149627D02*
X6808158Y-7121055D01*
X6808158Y-7121055D02*
X6798634Y-7102008D01*
X6798634Y-7102008D02*
X6779587Y-7073436D01*
X6779587Y-7073436D02*
X6770063Y-7063912D01*
M02*
