%TF.GenerationSoftware,KiCad,Pcbnew,10.0.6-10.0.6~ubuntu24.04.1*%
%TF.CreationDate,2026-09-28T08:25:58+05:30*%
%TF.ProjectId,gerber_oracle,67657262-6572-45f6-9f72-61636c652e6b,B*%
%TF.SameCoordinates,Original*%
%TF.FileFunction,Drillmap*%
%TF.FilePolarity,Positive*%
%FSLAX45Y45*%
G04 Gerber Fmt 4.5, Leading zero omitted, Abs format (unit mm)*
G04 Created by KiCad (PCBNEW 10.0.6-10.0.6~ubuntu24.04.1) date 2026-09-28 08:25:58*
%MOMM*%
%LPD*%
G01*
G04 APERTURE LIST*
%ADD10C,0.100000*%
%ADD11C,0.200000*%
G04 APERTURE END LIST*
D10*
X2000000Y-1500000D02*
X8000000Y-1500000D01*
X8000000Y-1500000D02*
X8000000Y-4500000D01*
X8000000Y-4500000D02*
G75*
G02*
X7000000Y-5500000I-1000000J0D01*
G01*
X7000000Y-5500000D02*
X2000000Y-5500000D01*
X2000000Y-5500000D02*
X2000000Y-1500000D01*
X2650000Y-5000000D02*
G75*
G02*
X2350000Y-5000000I-150000J0D01*
G01*
X2350000Y-5000000D02*
G75*
G02*
X2650000Y-5000000I150000J0D01*
G01*
D11*
D10*
X6787500Y-3987500D02*
X6812500Y-4012500D01*
X6812500Y-3987500D02*
X6787500Y-4012500D01*
D11*
X2255777Y-5816484D02*
X2255777Y-5616484D01*
X2255777Y-5616484D02*
X2303396Y-5616484D01*
X2303396Y-5616484D02*
X2331967Y-5626008D01*
X2331967Y-5626008D02*
X2351015Y-5645055D01*
X2351015Y-5645055D02*
X2360539Y-5664103D01*
X2360539Y-5664103D02*
X2370063Y-5702198D01*
X2370063Y-5702198D02*
X2370063Y-5730769D01*
X2370063Y-5730769D02*
X2360539Y-5768865D01*
X2360539Y-5768865D02*
X2351015Y-5787912D01*
X2351015Y-5787912D02*
X2331967Y-5806960D01*
X2331967Y-5806960D02*
X2303396Y-5816484D01*
X2303396Y-5816484D02*
X2255777Y-5816484D01*
X2455777Y-5816484D02*
X2455777Y-5683150D01*
X2455777Y-5721246D02*
X2465301Y-5702198D01*
X2465301Y-5702198D02*
X2474824Y-5692674D01*
X2474824Y-5692674D02*
X2493872Y-5683150D01*
X2493872Y-5683150D02*
X2512920Y-5683150D01*
X2579586Y-5816484D02*
X2579586Y-5683150D01*
X2579586Y-5616484D02*
X2570063Y-5626008D01*
X2570063Y-5626008D02*
X2579586Y-5635531D01*
X2579586Y-5635531D02*
X2589110Y-5626008D01*
X2589110Y-5626008D02*
X2579586Y-5616484D01*
X2579586Y-5616484D02*
X2579586Y-5635531D01*
X2703396Y-5816484D02*
X2684348Y-5806960D01*
X2684348Y-5806960D02*
X2674824Y-5787912D01*
X2674824Y-5787912D02*
X2674824Y-5616484D01*
X2808158Y-5816484D02*
X2789110Y-5806960D01*
X2789110Y-5806960D02*
X2779586Y-5787912D01*
X2779586Y-5787912D02*
X2779586Y-5616484D01*
X3036729Y-5816484D02*
X3036729Y-5616484D01*
X3036729Y-5616484D02*
X3103396Y-5759341D01*
X3103396Y-5759341D02*
X3170062Y-5616484D01*
X3170062Y-5616484D02*
X3170062Y-5816484D01*
X3351015Y-5816484D02*
X3351015Y-5711722D01*
X3351015Y-5711722D02*
X3341491Y-5692674D01*
X3341491Y-5692674D02*
X3322443Y-5683150D01*
X3322443Y-5683150D02*
X3284348Y-5683150D01*
X3284348Y-5683150D02*
X3265301Y-5692674D01*
X3351015Y-5806960D02*
X3331967Y-5816484D01*
X3331967Y-5816484D02*
X3284348Y-5816484D01*
X3284348Y-5816484D02*
X3265301Y-5806960D01*
X3265301Y-5806960D02*
X3255777Y-5787912D01*
X3255777Y-5787912D02*
X3255777Y-5768865D01*
X3255777Y-5768865D02*
X3265301Y-5749817D01*
X3265301Y-5749817D02*
X3284348Y-5740293D01*
X3284348Y-5740293D02*
X3331967Y-5740293D01*
X3331967Y-5740293D02*
X3351015Y-5730769D01*
X3446253Y-5683150D02*
X3446253Y-5883150D01*
X3446253Y-5692674D02*
X3465301Y-5683150D01*
X3465301Y-5683150D02*
X3503396Y-5683150D01*
X3503396Y-5683150D02*
X3522443Y-5692674D01*
X3522443Y-5692674D02*
X3531967Y-5702198D01*
X3531967Y-5702198D02*
X3541491Y-5721246D01*
X3541491Y-5721246D02*
X3541491Y-5778388D01*
X3541491Y-5778388D02*
X3531967Y-5797436D01*
X3531967Y-5797436D02*
X3522443Y-5806960D01*
X3522443Y-5806960D02*
X3503396Y-5816484D01*
X3503396Y-5816484D02*
X3465301Y-5816484D01*
X3465301Y-5816484D02*
X3446253Y-5806960D01*
X3627205Y-5797436D02*
X3636729Y-5806960D01*
X3636729Y-5806960D02*
X3627205Y-5816484D01*
X3627205Y-5816484D02*
X3617682Y-5806960D01*
X3617682Y-5806960D02*
X3627205Y-5797436D01*
X3627205Y-5797436D02*
X3627205Y-5816484D01*
X3627205Y-5692674D02*
X3636729Y-5702198D01*
X3636729Y-5702198D02*
X3627205Y-5711722D01*
X3627205Y-5711722D02*
X3617682Y-5702198D01*
X3617682Y-5702198D02*
X3627205Y-5692674D01*
X3627205Y-5692674D02*
X3627205Y-5711722D01*
D10*
X1970000Y-6132500D02*
X1995000Y-6157500D01*
X1995000Y-6132500D02*
X1970000Y-6157500D01*
D11*
X2293872Y-6036484D02*
X2312920Y-6036484D01*
X2312920Y-6036484D02*
X2331967Y-6046008D01*
X2331967Y-6046008D02*
X2341491Y-6055531D01*
X2341491Y-6055531D02*
X2351015Y-6074579D01*
X2351015Y-6074579D02*
X2360539Y-6112674D01*
X2360539Y-6112674D02*
X2360539Y-6160293D01*
X2360539Y-6160293D02*
X2351015Y-6198388D01*
X2351015Y-6198388D02*
X2341491Y-6217436D01*
X2341491Y-6217436D02*
X2331967Y-6226960D01*
X2331967Y-6226960D02*
X2312920Y-6236484D01*
X2312920Y-6236484D02*
X2293872Y-6236484D01*
X2293872Y-6236484D02*
X2274824Y-6226960D01*
X2274824Y-6226960D02*
X2265301Y-6217436D01*
X2265301Y-6217436D02*
X2255777Y-6198388D01*
X2255777Y-6198388D02*
X2246253Y-6160293D01*
X2246253Y-6160293D02*
X2246253Y-6112674D01*
X2246253Y-6112674D02*
X2255777Y-6074579D01*
X2255777Y-6074579D02*
X2265301Y-6055531D01*
X2265301Y-6055531D02*
X2274824Y-6046008D01*
X2274824Y-6046008D02*
X2293872Y-6036484D01*
X2446253Y-6217436D02*
X2455777Y-6226960D01*
X2455777Y-6226960D02*
X2446253Y-6236484D01*
X2446253Y-6236484D02*
X2436729Y-6226960D01*
X2436729Y-6226960D02*
X2446253Y-6217436D01*
X2446253Y-6217436D02*
X2446253Y-6236484D01*
X2531967Y-6055531D02*
X2541491Y-6046008D01*
X2541491Y-6046008D02*
X2560539Y-6036484D01*
X2560539Y-6036484D02*
X2608158Y-6036484D01*
X2608158Y-6036484D02*
X2627205Y-6046008D01*
X2627205Y-6046008D02*
X2636729Y-6055531D01*
X2636729Y-6055531D02*
X2646253Y-6074579D01*
X2646253Y-6074579D02*
X2646253Y-6093627D01*
X2646253Y-6093627D02*
X2636729Y-6122198D01*
X2636729Y-6122198D02*
X2522444Y-6236484D01*
X2522444Y-6236484D02*
X2646253Y-6236484D01*
X2827205Y-6036484D02*
X2731967Y-6036484D01*
X2731967Y-6036484D02*
X2722444Y-6131722D01*
X2722444Y-6131722D02*
X2731967Y-6122198D01*
X2731967Y-6122198D02*
X2751015Y-6112674D01*
X2751015Y-6112674D02*
X2798634Y-6112674D01*
X2798634Y-6112674D02*
X2817682Y-6122198D01*
X2817682Y-6122198D02*
X2827205Y-6131722D01*
X2827205Y-6131722D02*
X2836729Y-6150769D01*
X2836729Y-6150769D02*
X2836729Y-6198388D01*
X2836729Y-6198388D02*
X2827205Y-6217436D01*
X2827205Y-6217436D02*
X2817682Y-6226960D01*
X2817682Y-6226960D02*
X2798634Y-6236484D01*
X2798634Y-6236484D02*
X2751015Y-6236484D01*
X2751015Y-6236484D02*
X2731967Y-6226960D01*
X2731967Y-6226960D02*
X2722444Y-6217436D01*
X2960539Y-6036484D02*
X2979586Y-6036484D01*
X2979586Y-6036484D02*
X2998634Y-6046008D01*
X2998634Y-6046008D02*
X3008158Y-6055531D01*
X3008158Y-6055531D02*
X3017682Y-6074579D01*
X3017682Y-6074579D02*
X3027205Y-6112674D01*
X3027205Y-6112674D02*
X3027205Y-6160293D01*
X3027205Y-6160293D02*
X3017682Y-6198388D01*
X3017682Y-6198388D02*
X3008158Y-6217436D01*
X3008158Y-6217436D02*
X2998634Y-6226960D01*
X2998634Y-6226960D02*
X2979586Y-6236484D01*
X2979586Y-6236484D02*
X2960539Y-6236484D01*
X2960539Y-6236484D02*
X2941491Y-6226960D01*
X2941491Y-6226960D02*
X2931967Y-6217436D01*
X2931967Y-6217436D02*
X2922443Y-6198388D01*
X2922443Y-6198388D02*
X2912920Y-6160293D01*
X2912920Y-6160293D02*
X2912920Y-6112674D01*
X2912920Y-6112674D02*
X2922443Y-6074579D01*
X2922443Y-6074579D02*
X2931967Y-6055531D01*
X2931967Y-6055531D02*
X2941491Y-6046008D01*
X2941491Y-6046008D02*
X2960539Y-6036484D01*
X3112920Y-6236484D02*
X3112920Y-6103150D01*
X3112920Y-6122198D02*
X3122443Y-6112674D01*
X3122443Y-6112674D02*
X3141491Y-6103150D01*
X3141491Y-6103150D02*
X3170063Y-6103150D01*
X3170063Y-6103150D02*
X3189110Y-6112674D01*
X3189110Y-6112674D02*
X3198634Y-6131722D01*
X3198634Y-6131722D02*
X3198634Y-6236484D01*
X3198634Y-6131722D02*
X3208158Y-6112674D01*
X3208158Y-6112674D02*
X3227205Y-6103150D01*
X3227205Y-6103150D02*
X3255777Y-6103150D01*
X3255777Y-6103150D02*
X3274824Y-6112674D01*
X3274824Y-6112674D02*
X3284348Y-6131722D01*
X3284348Y-6131722D02*
X3284348Y-6236484D01*
X3379586Y-6236484D02*
X3379586Y-6103150D01*
X3379586Y-6122198D02*
X3389110Y-6112674D01*
X3389110Y-6112674D02*
X3408158Y-6103150D01*
X3408158Y-6103150D02*
X3436729Y-6103150D01*
X3436729Y-6103150D02*
X3455777Y-6112674D01*
X3455777Y-6112674D02*
X3465301Y-6131722D01*
X3465301Y-6131722D02*
X3465301Y-6236484D01*
X3465301Y-6131722D02*
X3474824Y-6112674D01*
X3474824Y-6112674D02*
X3493872Y-6103150D01*
X3493872Y-6103150D02*
X3522443Y-6103150D01*
X3522443Y-6103150D02*
X3541491Y-6112674D01*
X3541491Y-6112674D02*
X3551015Y-6131722D01*
X3551015Y-6131722D02*
X3551015Y-6236484D01*
X3941491Y-6026960D02*
X3770063Y-6284103D01*
X4198634Y-6036484D02*
X4217682Y-6036484D01*
X4217682Y-6036484D02*
X4236729Y-6046008D01*
X4236729Y-6046008D02*
X4246253Y-6055531D01*
X4246253Y-6055531D02*
X4255777Y-6074579D01*
X4255777Y-6074579D02*
X4265301Y-6112674D01*
X4265301Y-6112674D02*
X4265301Y-6160293D01*
X4265301Y-6160293D02*
X4255777Y-6198388D01*
X4255777Y-6198388D02*
X4246253Y-6217436D01*
X4246253Y-6217436D02*
X4236729Y-6226960D01*
X4236729Y-6226960D02*
X4217682Y-6236484D01*
X4217682Y-6236484D02*
X4198634Y-6236484D01*
X4198634Y-6236484D02*
X4179586Y-6226960D01*
X4179586Y-6226960D02*
X4170063Y-6217436D01*
X4170063Y-6217436D02*
X4160539Y-6198388D01*
X4160539Y-6198388D02*
X4151015Y-6160293D01*
X4151015Y-6160293D02*
X4151015Y-6112674D01*
X4151015Y-6112674D02*
X4160539Y-6074579D01*
X4160539Y-6074579D02*
X4170063Y-6055531D01*
X4170063Y-6055531D02*
X4179586Y-6046008D01*
X4179586Y-6046008D02*
X4198634Y-6036484D01*
X4351015Y-6217436D02*
X4360539Y-6226960D01*
X4360539Y-6226960D02*
X4351015Y-6236484D01*
X4351015Y-6236484D02*
X4341491Y-6226960D01*
X4341491Y-6226960D02*
X4351015Y-6217436D01*
X4351015Y-6217436D02*
X4351015Y-6236484D01*
X4484348Y-6036484D02*
X4503396Y-6036484D01*
X4503396Y-6036484D02*
X4522444Y-6046008D01*
X4522444Y-6046008D02*
X4531968Y-6055531D01*
X4531968Y-6055531D02*
X4541491Y-6074579D01*
X4541491Y-6074579D02*
X4551015Y-6112674D01*
X4551015Y-6112674D02*
X4551015Y-6160293D01*
X4551015Y-6160293D02*
X4541491Y-6198388D01*
X4541491Y-6198388D02*
X4531968Y-6217436D01*
X4531968Y-6217436D02*
X4522444Y-6226960D01*
X4522444Y-6226960D02*
X4503396Y-6236484D01*
X4503396Y-6236484D02*
X4484348Y-6236484D01*
X4484348Y-6236484D02*
X4465301Y-6226960D01*
X4465301Y-6226960D02*
X4455777Y-6217436D01*
X4455777Y-6217436D02*
X4446253Y-6198388D01*
X4446253Y-6198388D02*
X4436729Y-6160293D01*
X4436729Y-6160293D02*
X4436729Y-6112674D01*
X4436729Y-6112674D02*
X4446253Y-6074579D01*
X4446253Y-6074579D02*
X4455777Y-6055531D01*
X4455777Y-6055531D02*
X4465301Y-6046008D01*
X4465301Y-6046008D02*
X4484348Y-6036484D01*
X4674825Y-6036484D02*
X4693872Y-6036484D01*
X4693872Y-6036484D02*
X4712920Y-6046008D01*
X4712920Y-6046008D02*
X4722444Y-6055531D01*
X4722444Y-6055531D02*
X4731968Y-6074579D01*
X4731968Y-6074579D02*
X4741491Y-6112674D01*
X4741491Y-6112674D02*
X4741491Y-6160293D01*
X4741491Y-6160293D02*
X4731968Y-6198388D01*
X4731968Y-6198388D02*
X4722444Y-6217436D01*
X4722444Y-6217436D02*
X4712920Y-6226960D01*
X4712920Y-6226960D02*
X4693872Y-6236484D01*
X4693872Y-6236484D02*
X4674825Y-6236484D01*
X4674825Y-6236484D02*
X4655777Y-6226960D01*
X4655777Y-6226960D02*
X4646253Y-6217436D01*
X4646253Y-6217436D02*
X4636729Y-6198388D01*
X4636729Y-6198388D02*
X4627206Y-6160293D01*
X4627206Y-6160293D02*
X4627206Y-6112674D01*
X4627206Y-6112674D02*
X4636729Y-6074579D01*
X4636729Y-6074579D02*
X4646253Y-6055531D01*
X4646253Y-6055531D02*
X4655777Y-6046008D01*
X4655777Y-6046008D02*
X4674825Y-6036484D01*
X4836729Y-6236484D02*
X4874825Y-6236484D01*
X4874825Y-6236484D02*
X4893872Y-6226960D01*
X4893872Y-6226960D02*
X4903396Y-6217436D01*
X4903396Y-6217436D02*
X4922444Y-6188865D01*
X4922444Y-6188865D02*
X4931968Y-6150769D01*
X4931968Y-6150769D02*
X4931968Y-6074579D01*
X4931968Y-6074579D02*
X4922444Y-6055531D01*
X4922444Y-6055531D02*
X4912920Y-6046008D01*
X4912920Y-6046008D02*
X4893872Y-6036484D01*
X4893872Y-6036484D02*
X4855777Y-6036484D01*
X4855777Y-6036484D02*
X4836729Y-6046008D01*
X4836729Y-6046008D02*
X4827206Y-6055531D01*
X4827206Y-6055531D02*
X4817682Y-6074579D01*
X4817682Y-6074579D02*
X4817682Y-6122198D01*
X4817682Y-6122198D02*
X4827206Y-6141246D01*
X4827206Y-6141246D02*
X4836729Y-6150769D01*
X4836729Y-6150769D02*
X4855777Y-6160293D01*
X4855777Y-6160293D02*
X4893872Y-6160293D01*
X4893872Y-6160293D02*
X4912920Y-6150769D01*
X4912920Y-6150769D02*
X4922444Y-6141246D01*
X4922444Y-6141246D02*
X4931968Y-6122198D01*
X5046253Y-6122198D02*
X5027206Y-6112674D01*
X5027206Y-6112674D02*
X5017682Y-6103150D01*
X5017682Y-6103150D02*
X5008158Y-6084103D01*
X5008158Y-6084103D02*
X5008158Y-6074579D01*
X5008158Y-6074579D02*
X5017682Y-6055531D01*
X5017682Y-6055531D02*
X5027206Y-6046008D01*
X5027206Y-6046008D02*
X5046253Y-6036484D01*
X5046253Y-6036484D02*
X5084349Y-6036484D01*
X5084349Y-6036484D02*
X5103396Y-6046008D01*
X5103396Y-6046008D02*
X5112920Y-6055531D01*
X5112920Y-6055531D02*
X5122444Y-6074579D01*
X5122444Y-6074579D02*
X5122444Y-6084103D01*
X5122444Y-6084103D02*
X5112920Y-6103150D01*
X5112920Y-6103150D02*
X5103396Y-6112674D01*
X5103396Y-6112674D02*
X5084349Y-6122198D01*
X5084349Y-6122198D02*
X5046253Y-6122198D01*
X5046253Y-6122198D02*
X5027206Y-6131722D01*
X5027206Y-6131722D02*
X5017682Y-6141246D01*
X5017682Y-6141246D02*
X5008158Y-6160293D01*
X5008158Y-6160293D02*
X5008158Y-6198388D01*
X5008158Y-6198388D02*
X5017682Y-6217436D01*
X5017682Y-6217436D02*
X5027206Y-6226960D01*
X5027206Y-6226960D02*
X5046253Y-6236484D01*
X5046253Y-6236484D02*
X5084349Y-6236484D01*
X5084349Y-6236484D02*
X5103396Y-6226960D01*
X5103396Y-6226960D02*
X5112920Y-6217436D01*
X5112920Y-6217436D02*
X5122444Y-6198388D01*
X5122444Y-6198388D02*
X5122444Y-6160293D01*
X5122444Y-6160293D02*
X5112920Y-6141246D01*
X5112920Y-6141246D02*
X5103396Y-6131722D01*
X5103396Y-6131722D02*
X5084349Y-6122198D01*
X5198634Y-6036484D02*
X5198634Y-6074579D01*
X5274825Y-6036484D02*
X5274825Y-6074579D01*
X5570063Y-6312674D02*
X5560539Y-6303150D01*
X5560539Y-6303150D02*
X5541491Y-6274579D01*
X5541491Y-6274579D02*
X5531968Y-6255531D01*
X5531968Y-6255531D02*
X5522444Y-6226960D01*
X5522444Y-6226960D02*
X5512920Y-6179341D01*
X5512920Y-6179341D02*
X5512920Y-6141246D01*
X5512920Y-6141246D02*
X5522444Y-6093627D01*
X5522444Y-6093627D02*
X5531968Y-6065055D01*
X5531968Y-6065055D02*
X5541491Y-6046008D01*
X5541491Y-6046008D02*
X5560539Y-6017436D01*
X5560539Y-6017436D02*
X5570063Y-6007912D01*
X5751015Y-6236484D02*
X5636729Y-6236484D01*
X5693872Y-6236484D02*
X5693872Y-6036484D01*
X5693872Y-6036484D02*
X5674825Y-6065055D01*
X5674825Y-6065055D02*
X5655777Y-6084103D01*
X5655777Y-6084103D02*
X5636729Y-6093627D01*
X5989110Y-6236484D02*
X5989110Y-6036484D01*
X6074825Y-6236484D02*
X6074825Y-6131722D01*
X6074825Y-6131722D02*
X6065301Y-6112674D01*
X6065301Y-6112674D02*
X6046253Y-6103150D01*
X6046253Y-6103150D02*
X6017682Y-6103150D01*
X6017682Y-6103150D02*
X5998634Y-6112674D01*
X5998634Y-6112674D02*
X5989110Y-6122198D01*
X6198634Y-6236484D02*
X6179587Y-6226960D01*
X6179587Y-6226960D02*
X6170063Y-6217436D01*
X6170063Y-6217436D02*
X6160539Y-6198388D01*
X6160539Y-6198388D02*
X6160539Y-6141246D01*
X6160539Y-6141246D02*
X6170063Y-6122198D01*
X6170063Y-6122198D02*
X6179587Y-6112674D01*
X6179587Y-6112674D02*
X6198634Y-6103150D01*
X6198634Y-6103150D02*
X6227206Y-6103150D01*
X6227206Y-6103150D02*
X6246253Y-6112674D01*
X6246253Y-6112674D02*
X6255777Y-6122198D01*
X6255777Y-6122198D02*
X6265301Y-6141246D01*
X6265301Y-6141246D02*
X6265301Y-6198388D01*
X6265301Y-6198388D02*
X6255777Y-6217436D01*
X6255777Y-6217436D02*
X6246253Y-6226960D01*
X6246253Y-6226960D02*
X6227206Y-6236484D01*
X6227206Y-6236484D02*
X6198634Y-6236484D01*
X6379587Y-6236484D02*
X6360539Y-6226960D01*
X6360539Y-6226960D02*
X6351015Y-6207912D01*
X6351015Y-6207912D02*
X6351015Y-6036484D01*
X6531968Y-6226960D02*
X6512920Y-6236484D01*
X6512920Y-6236484D02*
X6474825Y-6236484D01*
X6474825Y-6236484D02*
X6455777Y-6226960D01*
X6455777Y-6226960D02*
X6446253Y-6207912D01*
X6446253Y-6207912D02*
X6446253Y-6131722D01*
X6446253Y-6131722D02*
X6455777Y-6112674D01*
X6455777Y-6112674D02*
X6474825Y-6103150D01*
X6474825Y-6103150D02*
X6512920Y-6103150D01*
X6512920Y-6103150D02*
X6531968Y-6112674D01*
X6531968Y-6112674D02*
X6541491Y-6131722D01*
X6541491Y-6131722D02*
X6541491Y-6150769D01*
X6541491Y-6150769D02*
X6446253Y-6169817D01*
X6608158Y-6312674D02*
X6617682Y-6303150D01*
X6617682Y-6303150D02*
X6636730Y-6274579D01*
X6636730Y-6274579D02*
X6646253Y-6255531D01*
X6646253Y-6255531D02*
X6655777Y-6226960D01*
X6655777Y-6226960D02*
X6665301Y-6179341D01*
X6665301Y-6179341D02*
X6665301Y-6141246D01*
X6665301Y-6141246D02*
X6655777Y-6093627D01*
X6655777Y-6093627D02*
X6646253Y-6065055D01*
X6646253Y-6065055D02*
X6636730Y-6046008D01*
X6636730Y-6046008D02*
X6617682Y-6017436D01*
X6617682Y-6017436D02*
X6608158Y-6007912D01*
M02*
